<?xml version="1.0" encoding="UTF-8"?>
<svg width="12px" height="13px" viewBox="0 0 12 13" version="1.1" xmlns="http://www.w3.org/2000/svg" xmlns:xlink="http://www.w3.org/1999/xlink">
    <!-- Generator: Sketch 48.1 (47250) - http://www.bohemiancoding.com/sketch -->
    <title>Combined Shape</title>
    <desc>Created with Sketch.</desc>
    <defs></defs>
    <g id="Demograficos---1-/-3" stroke="none" stroke-width="1" fill="none" fill-rule="evenodd" transform="translate(-312.000000, -66.000000)">
        <g id="Bem-te-vi" transform="translate(43.000000, 29.000000)" fill="#575957">
            <g id="Modal" transform="translate(0.000000, 16.000000)">
                <path d="M276.75,25.75 L280.75,25.75 C281.716498,25.75 282.5,26.5335017 282.5,27.5 C282.5,28.4664983 281.716498,29.25 280.75,29.25 L276.75,29.25 L276.75,33.25 C276.75,34.2164983 275.966498,35 275,35 C274.033502,35 273.25,34.2164983 273.25,33.25 L273.25,29.25 L269.25,29.25 C268.283502,29.25 267.5,28.4664983 267.5,27.5 C267.5,26.5335017 268.283502,25.75 269.25,25.75 L273.25,25.75 L273.25,21.75 C273.25,20.7835017 274.033502,20 275,20 C275.966498,20 276.75,20.7835017 276.75,21.75 L276.75,25.75 Z" id="Combined-Shape" transform="translate(275.000000, 27.500000) rotate(45.000000) translate(-275.000000, -27.500000) "></path>
            </g>
        </g>
    </g>
</svg>