<?xml version="1.0" encoding="UTF-8"?>
<svg width="456px" height="311px" viewBox="0 0 456 311" version="1.1" xmlns="http://www.w3.org/2000/svg" xmlns:xlink="http://www.w3.org/1999/xlink">
    <!-- Generator: Sketch 48.1 (47250) - http://www.bohemiancoding.com/sketch -->
    <title>Ilustra</title>
    <desc>Created with Sketch.</desc>
    <defs></defs>
    <g id="MedPass---Intro-1-/-3" stroke="none" stroke-width="1" fill="none" fill-rule="evenodd" transform="translate(-492.000000, -105.000000)">
        <g id="Ilustra" transform="translate(492.000000, 105.000000)">
            <g id="livingroom" transform="translate(0.000000, 18.000000)" fill="#000000" fill-rule="nonzero" opacity="0.1">
                <path d="M205.6,0 L59.4627451,0 L59.4627451,94.6482759 L205.6,94.6482759 L205.6,0 Z M197.003691,86.0438871 L68.0590542,86.0438871 L68.0590542,8.60438871 L197.003691,8.60438871 L197.003691,86.0438871 Z" id="Shape"></path>
                <path d="M192.498039,81.5586207 L192.498039,13.0896552 L72.5647059,13.0896552 L72.5647059,81.5586207 L192.498039,81.5586207 Z M147.094706,73 C140.481239,66.7479276 132.077339,61.3003655 123.407873,56.7086655 C137.834139,53.1782345 163.551273,47.6408069 183.931373,47.3241379 L183.931373,73 L147.094706,73 Z M183.931373,21.6482759 L183.931373,38.7869138 C155.845556,39.3475034 119.501473,48.7662655 111.495923,50.9358759 C98.5388392,45.1844828 86.6440225,41.4272483 81.1313725,39.809669 L81.1313725,21.6482759 L183.931373,21.6482759 Z M81.1313725,48.7662655 C91.8439892,52.082731 116.327523,60.5086931 133.645039,73 L81.1313725,73 L81.1313725,48.7662655 Z" id="Shape"></path>
                <path d="M257,207.120077 C257,193.024541 245.47355,181.561534 231.3,181.561534 L137.066667,181.561534 C115.345883,181.561534 111.066833,176.479643 103.292583,167.24449 C102.367383,166.149732 101.4122,165.012377 100.3842,163.832424 C79.2331,139.577366 43.1717167,135.952313 20.0031667,155.743145 C19.00515,156.590837 18.0671,157.472607 17.18045,158.371415 C8.86221667,166.775916 4.28333333,178.485989 4.28333333,191.341936 L4.28333333,209.744088 C1.58055,213.790857 0,218.634201 0,223.843884 C0,228.274032 1.20361667,232.542308 3.43951667,236.393129 C1.28071667,239.485713 0,243.230039 0,247.272549 C0,257.112588 7.52153333,265.15075 17.1333333,266.224209 L17.1333333,287.740243 C17.1333333,290.095889 19.0479833,292 21.4166667,292 L29.9833333,292 C31.8251667,292 33.4614,290.832827 34.0439333,289.090586 L41.6682667,266.441457 L219.649333,266.441457 L227.2394,289.086326 C227.81765,290.828567 229.453883,292 231.3,292 L239.866667,292 C242.23535,292 244.15,290.095889 244.15,287.740243 L244.15,265.265764 C251.517333,262.654532 256.828667,255.770765 256.965733,247.592031 L257,247.592031 L257,207.120077 Z M12.85,191.341936 C12.85,180.888492 16.6578833,171.048453 23.2884833,164.343595 C24.0080833,163.619436 24.7705167,162.903797 25.5800667,162.209457 C45.1848833,145.447312 75.8364167,148.684727 93.9078,169.412706 C94.89725,170.550061 95.8267333,171.649079 96.72195,172.709758 C104.890267,182.413485 111.340967,190.076789 137.062383,190.076789 L231.295717,190.076789 C240.74475,190.076789 248.42905,197.718793 248.42905,207.115818 L248.42905,231.345317 C245.366467,229.304893 241.687083,228.103641 237.725,228.103641 L51.00165,228.103641 C51.0102167,228.061044 51.0059333,228.014187 51.0145,227.971589 C51.2458,226.604207 51.4,225.232565 51.4,223.843884 C51.4,209.748347 39.87355,198.285341 25.7,198.285341 C24.6548667,198.285341 23.63115,198.366276 22.616,198.485549 C22.3033167,198.523887 21.9992,198.579264 21.6908,198.626121 C20.9626333,198.741135 20.2473167,198.881707 19.54485,199.056357 C19.23645,199.133032 18.92805,199.205448 18.6239333,199.290643 C17.7244333,199.546229 16.84635,199.840152 15.9896833,200.189452 C15.9297167,200.215011 15.8654667,200.23205 15.8055,200.257608 C14.8289,200.666545 13.89085,201.143638 12.9785,201.663328 C12.9356667,201.688887 12.88855,201.705926 12.85,201.731484 L12.85,191.341936 Z M12.0019,213.726961 C12.7729,212.696099 13.6552667,211.793031 14.5933167,210.975158 C14.73895,210.851625 14.8888667,210.732351 15.0387833,210.608818 C15.8312,209.965595 16.6835833,209.424606 17.56595,208.938994 C17.8443667,208.789902 18.1142167,208.623772 18.4012,208.487459 C19.2321667,208.091302 20.1059667,207.793119 20.9926167,207.537533 C21.31815,207.443819 21.62655,207.311766 21.96065,207.23935 C23.1728333,206.970986 24.4235667,206.804855 25.7,206.804855 C35.1490333,206.804855 42.8333333,214.44686 42.8333333,223.843884 C42.8333333,225.275163 42.62345,226.697922 42.2422333,228.103641 L19.275,228.103641 C15.9083,228.103641 12.78575,229.040788 10.0315667,230.557262 C9.08066667,228.435902 8.56666667,226.169712 8.56666667,223.843884 C8.56666667,220.436078 9.59895,217.275339 11.3379833,214.61299 L12.0019,213.726961 Z M26.8993333,283.480486 L25.7,283.480486 L25.7,266.756679 L32.5276333,266.756679 L26.8993333,283.480486 Z M235.583333,283.480486 L234.388283,283.480486 L228.6786,266.441457 L235.583333,266.441457 L235.583333,283.480486 Z M237.725,257.921942 L222.733333,257.921942 L19.275,257.921942 C13.3682833,257.921942 8.56666667,253.146754 8.56666667,247.272549 C8.56666667,245.14693 9.20916667,243.174663 10.29285,241.513357 L10.8711,240.925511 L11.9505,239.88613 C11.9847667,239.860571 12.01475,239.835013 12.0447333,239.809454 L12.4944833,239.451635 L12.4859167,239.443115 C12.7771833,239.204569 13.0598833,238.948983 13.3682833,238.740255 C13.5010667,238.6508 13.6424167,238.586904 13.78805,238.514488 L14.2163833,238.288721 L14.2078167,238.275942 C14.5376333,238.097032 14.8588833,237.901083 15.20155,237.756251 C15.42,237.671056 15.6555833,237.61142 15.8868833,237.547523 L16.3152167,237.42825 L16.3109333,237.411211 C16.5979167,237.326016 16.8763333,237.215262 17.1676,237.155626 C17.8700667,237.015054 18.5768167,236.938378 19.2792833,236.938378 L47.8962333,236.938378 L237.725,236.938378 C243.576033,236.938378 248.330533,241.628371 248.4162,247.43016 C248.330533,253.231949 243.576033,257.921942 237.725,257.921942 Z" id="Shape"></path>
            </g>
            <g id="fireplace" transform="translate(303.000000, 185.000000)" fill="#000000" fill-rule="nonzero" opacity="0.1">
                <g id="Group">
                    <path d="M68.5543652,95.8084192 C67.4676738,96.8917991 63.7752363,100.692157 61.0048066,104.928288 L67.8298125,104.928288 C68.6983945,103.825376 69.6129668,102.744472 70.5008262,101.75793 C71.3892363,102.744472 72.3043594,103.8251 73.1732168,104.928288 L79.994918,104.928288 C77.2244883,100.692157 73.5320508,96.8917991 72.4453594,95.8084192 C71.3705098,94.7365939 69.6292148,94.7365939 68.5543652,95.8084192 Z" id="Shape"></path>
                    <path d="M138.246094,40.637476 C139.767076,40.637476 141,39.4055371 141,37.8863843 L141,17.9151092 C141,16.3959563 139.767076,15.1640175 138.246094,15.1640175 L112.940725,15.1640175 L107.020652,1.64817904 C106.58223,0.646781659 105.59165,7.10542736e-15 104.497799,7.10542736e-15 L36.5022012,7.10542736e-15 C35.4080742,7.10542736e-15 34.4177695,0.647056769 33.9793477,1.64817904 L28.0592754,15.1640175 L2.75390625,15.1640175 C1.23292383,15.1640175 0,16.3959563 0,17.9151092 L0,37.8863843 C0,39.4055371 1.23292383,40.637476 2.75390625,40.637476 L7.4347207,40.637476 L7.4347207,104.928288 L2.75390625,104.928288 C1.23292383,104.928288 0,106.159952 0,107.67938 L0,123.248908 C0,124.768061 1.23292383,126 2.75390625,126 L138.246094,126 C139.767076,126 141,124.768061 141,123.248908 L141,107.67938 C141,106.159952 139.767076,104.928288 138.246094,104.928288 L133.565279,104.928288 L133.565279,40.637476 L138.246094,40.637476 Z M38.3032559,5.50218341 L102.696469,5.50218341 L106.928396,15.1640175 L34.0713281,15.1640175 L38.3032559,5.50218341 Z M38.8928672,120.497817 L5.5078125,120.497817 L5.5078125,110.430472 L38.8928672,110.430472 L38.8928672,120.497817 Z M116.107166,82.9195546 L116.107166,66.4130044 L128.057191,66.4130044 L128.057191,82.9195546 L116.107166,82.9195546 Z M128.057191,88.421738 L128.057191,104.928288 L116.107166,104.928288 L116.107166,88.421738 L128.057191,88.421738 Z M116.107441,60.910821 L116.107441,51.5672882 C116.107441,50.0478603 114.874518,48.8161965 113.353535,48.8161965 L27.6467402,48.8161965 C26.1257578,48.8161965 24.892834,50.0478603 24.892834,51.5672882 L24.892834,60.910821 L12.9425332,60.910821 L12.9425332,40.6377511 L128.057467,40.6377511 L128.057467,60.910821 L116.107441,60.910821 Z M24.892834,66.4130044 L24.892834,82.9195546 L12.9425332,82.9195546 L12.9425332,66.4130044 L24.892834,66.4130044 Z M24.892834,88.421738 L24.892834,104.928288 L12.9425332,104.928288 L12.9425332,88.421738 L24.892834,88.421738 Z M96.5993203,107.67938 L96.5993203,120.497817 L86.086834,120.497817 C90.1474687,117.197057 93.1486758,112.597231 94.4366777,107.199865 C94.6313789,106.384166 94.7968887,105.629541 94.9356855,104.928288 L89.3078027,104.928288 C89.2384043,105.241362 89.1629473,105.571218 89.0786777,105.923633 C88.120043,109.941603 85.9370215,113.391747 82.9751953,115.925227 C83.1599824,115.063035 83.2593984,114.169755 83.2593984,113.253367 C83.2593984,110.727865 81.8287441,107.732751 79.9946426,104.928288 L73.1729414,104.928288 C75.6520078,108.075537 77.7515859,111.405734 77.7515859,113.253367 C77.7515859,117.244926 74.5036289,120.492314 70.5093633,120.497541 C70.4702578,120.497541 70.4317031,120.495341 70.392873,120.495066 C66.4432207,120.437568 63.2475879,117.212188 63.2475879,113.253367 C63.2475879,111.40986 65.3490937,108.078288 67.8295371,104.928288 L61.0045312,104.928288 C59.1704297,107.732751 57.7397754,110.727865 57.7397754,113.253367 C57.7397754,114.149122 57.8336836,115.022869 58.0104844,115.866904 C55.071791,113.329022 52.905293,109.884105 51.9507891,105.875489 C51.8712012,105.541231 51.7995996,105.228157 51.7329551,104.928288 L46.1031445,104.928288 C46.2411152,105.616061 46.4035957,106.354179 46.5927891,107.148419 C47.8832695,112.568895 50.8930137,117.187153 54.9649395,120.497817 L44.4004043,120.497817 L44.4004043,107.67938 C44.4004043,106.159952 43.1674805,104.928563 41.6467734,104.928288 L30.4006465,104.928288 L41.646498,104.928288 C41.646498,104.928288 41.646498,104.928288 41.646498,104.928288 L30.4006465,104.928288 L30.4006465,54.3183799 L110.599629,54.3183799 L110.599629,104.928288 L110.599354,104.928288 L94.9356855,104.928288 L99.3532266,104.928288 C97.8322441,104.928288 96.5993203,106.159952 96.5993203,107.67938 Z M135.492188,110.430472 L135.492188,120.497817 L102.107133,120.497817 L102.107133,110.430472 L135.492188,110.430472 Z M5.5078125,35.1352926 L5.5078125,30.6518384 L112.701135,30.6521135 C114.222117,30.6521135 115.455041,29.4201747 115.455041,27.9010218 C115.455041,26.381869 114.222117,25.1499301 112.701135,25.1499301 L5.5078125,25.149655 L5.5078125,20.6662009 L135.492188,20.6662009 L135.492188,35.1352926 L5.5078125,35.1352926 Z" id="Shape"></path>
                    <path d="M95.4669141,100.139188 C95.4669141,92.6721747 92.085668,84.1999127 88.9214297,78.7612795 L86.005043,73.7487904 C85.5206309,72.9160349 84.63525,72.397179 83.6711074,72.3803974 C82.7146758,72.3652664 81.8047852,72.8527598 81.2917324,73.6684585 L77.9718984,78.9497293 L70.9700918,64.1450044 C70.5151465,63.1826725 69.5454961,62.5689039 68.4800098,62.5689039 L68.4318164,62.5689039 C67.5940781,62.5689039 66.8020547,62.9499301 66.2793633,63.6038646 L52.517543,80.829 C48.0129785,86.3218297 45.5325352,93.2559563 45.5325352,100.356524 C45.5325352,101.513083 45.720627,103.021231 46.1031445,104.928288 L51.7332305,104.928288 C51.1681289,102.391231 51.0403477,101.047323 51.0403477,100.356524 C51.0403477,94.5184323 53.0818184,88.817345 56.7883008,84.3030786 C56.7960117,84.2937249 56.803998,84.2840961 56.811709,84.2747424 L67.8590039,70.4469301 L75.1400566,85.8420393 C75.5699414,86.751 76.4613809,87.353214 77.4657305,87.4131878 C78.4698047,87.4737118 79.4270625,86.9812664 79.9621465,86.1298035 L83.5328613,80.4493493 L84.159375,81.5261266 C86.963127,86.345214 89.9591016,93.7651834 89.9591016,100.138913 L89.9591016,100.590917 C89.9591016,101.25448 89.8387559,102.533188 89.3080781,104.928288 L94.9359609,104.928288 C95.2917656,103.131825 95.4671895,101.699882 95.4671895,100.591192 L95.4671895,100.139188 L95.4669141,100.139188 Z" id="Shape"></path>
                    <rect id="Rectangle-path" x="43.8746836" y="102.70238" width="1" height="4.45181659"></rect>
                    <rect id="Rectangle-path" x="84.623959" y="100.276467" width="1" height="9.30364192"></rect>
                    <rect id="Rectangle-path" x="70.4741133" y="102.259179" width="1" height="5.33794323"></rect>
                    <rect id="Rectangle-path" x="56.3413418" y="100.2971" width="1" height="9.26210044"></rect>
                </g>
                <path d="M125.8425,27.2266827 C125.809768,27.0656869 125.761929,26.9069586 125.698982,26.7560408 C125.636036,26.604871 125.557982,26.4587403 125.467339,26.3226875 C125.376696,26.1838632 125.270946,26.0553689 125.155125,25.9394721 C125.039304,25.8235753 124.908375,25.7177564 124.772411,25.6245351 C124.633929,25.5340852 124.487893,25.4557289 124.336821,25.3927415 C124.18575,25.329754 124.027125,25.2818836 123.865982,25.2491302 C123.541179,25.1836233 123.206304,25.1836233 122.8815,25.2491302 C122.720357,25.2821356 122.561732,25.329754 122.410661,25.3927415 C122.259589,25.4557289 122.111036,25.5338332 121.975071,25.6245351 C121.836589,25.7177564 121.708179,25.8235753 121.592357,25.9394721 C121.124036,26.4080984 120.857143,27.0556089 120.857143,27.7207558 C120.857143,27.8842711 120.87225,28.0508098 120.904982,28.2120576 C120.937714,28.3733053 120.985554,28.5320336 121.0485,28.6832034 C121.111446,28.8366407 121.1895,28.9827714 121.280143,29.1188242 C121.370786,29.2573965 121.476536,29.3858908 121.592357,29.5020396 C121.708179,29.6179364 121.836589,29.7237552 121.975071,29.8142052 C122.113554,29.904907 122.259589,29.9830114 122.410661,30.0459988 C122.561732,30.1089862 122.720357,30.1568566 122.8815,30.1896101 C123.045161,30.2223635 123.208821,30.24 123.372482,30.24 C124.037196,30.24 124.686804,29.9704139 125.152607,29.5017876 C125.270946,29.3856389 125.374179,29.2571446 125.467339,29.1185723 C125.557982,28.9825195 125.636036,28.8363887 125.698982,28.6829514 C125.761929,28.5315297 125.809768,28.3730534 125.8425,28.2118056 C125.875232,28.0503059 125.892857,27.8840192 125.892857,27.7205039 C125.892857,27.5567367 125.875232,27.390198 125.8425,27.2266827 Z" id="Shape"></path>
            </g>
            <g id="window" transform="translate(291.000000, 0.000000)" fill="#000000" fill-rule="nonzero" opacity="0.1">
                <path d="M43.9333739,41.25 C44.620146,41.25 45.306918,40.9870841 45.8300452,40.4639352 L56.5608582,29.732675 C57.6097952,28.6836943 57.6097952,26.9881552 56.5608582,25.9391745 C55.5119213,24.8901939 53.8164528,24.8901939 52.7675158,25.9391745 L42.0367027,36.6704347 C40.9877658,37.7194154 40.9877658,39.4149545 42.0367027,40.4639352 C42.5598299,40.9870841 43.2466019,41.25 43.9333739,41.25 Z" id="Shape"></path>
                <path d="M47.5940984,45.0795968 L42.0612534,50.6127875 C40.9795822,51.6945263 40.9795822,53.4430146 42.0612534,54.5247534 C42.6007058,55.0642395 43.3089099,55.3353659 44.0171141,55.3353659 C44.7253183,55.3353659 45.4335224,55.0642395 45.9729748,54.5247534 L51.5058198,48.9915626 C52.587491,47.9098239 52.587491,46.1613356 51.5058198,45.0795968 C50.4241486,43.997858 48.6757696,43.997858 47.5940984,45.0795968 Z" id="Shape"></path>
                <path d="M53.0464939,38.9340773 C52.59375,39.4124482 52.3170732,40.0730557 52.3170732,40.7311321 C52.3170732,41.3892085 52.59375,42.0472849 53.0464939,42.5281868 C53.5243902,42.9837782 54.1783537,43.2621951 54.8323171,43.2621951 C55.4862805,43.2621951 56.1402439,42.9837782 56.6181402,42.5281868 C57.0708841,42.0472849 57.347561,41.3892085 57.347561,40.7311321 C57.347561,40.0730557 57.0708841,39.4124482 56.6181402,38.9340773 C55.6875,37.997584 53.9771341,37.997584 53.0464939,38.9340773 Z" id="Shape"></path>
                <path d="M66.6239596,25.9785044 L58.1735851,34.4293014 C57.0722196,35.5307219 57.0722196,37.3110232 58.1735851,38.4124437 C58.7228594,38.9617455 59.443958,39.2378049 60.1650567,39.2378049 C60.8861553,39.2378049 61.6072539,38.9617455 62.1565282,38.4124437 L70.6069027,29.9616467 C71.7082682,28.8602262 71.7082682,27.079925 70.6069027,25.9785044 C69.5055373,24.8770839 67.725325,24.8770839 66.6239596,25.9785044 Z" id="Shape"></path>
                <path d="M119.169955,83.2867355 L108.439142,94.0179957 C107.390205,95.0669764 107.390205,96.7625155 108.439142,97.8114962 C108.962269,98.3346451 109.649041,98.597561 110.335813,98.597561 C111.022585,98.597561 111.709357,98.3346451 112.232484,97.8114962 L122.963297,87.080236 C124.012234,86.0312553 124.012234,84.3357162 122.963297,83.2867355 C121.91436,82.2377548 120.218892,82.2377548 119.169955,83.2867355 Z" id="Shape"></path>
                <path d="M115.450041,79.4817073 C116.158245,79.4817073 116.866449,79.210581 117.405902,78.6710949 L122.938747,73.1379041 C124.020418,72.0561653 124.020418,70.307677 122.938747,69.2259382 C121.857075,68.1441994 120.108696,68.1441994 119.027025,69.2259382 L113.49418,74.759129 C112.412509,75.8408678 112.412509,77.5893561 113.49418,78.6710949 C114.033633,79.210581 114.741837,79.4817073 115.450041,79.4817073 Z" id="Shape"></path>
                <path d="M110.167683,84.5121951 C110.821646,84.5121951 111.47561,84.2337782 111.953506,83.7781868 C112.40625,83.2972849 112.682927,82.6392085 112.682927,81.9811321 C112.682927,81.3230557 112.40625,80.6624482 111.953506,80.1840773 C110.997713,79.247584 109.337652,79.247584 108.38186,80.1840773 C107.929116,80.6624482 107.652439,81.3230557 107.652439,81.9811321 C107.652439,82.6392085 107.929116,83.2972849 108.38186,83.7781868 C108.859756,84.2337782 109.51372,84.5121951 110.167683,84.5121951 Z" id="Shape"></path>
                <path d="M106.826415,86.3443581 C105.725049,85.2429375 103.944837,85.2429375 102.843472,86.3443581 L94.3930973,94.7951551 C93.2917318,95.8965756 93.2917318,97.6768768 94.3930973,98.7782974 C94.9423716,99.3275992 95.6634702,99.6036585 96.3845689,99.6036585 C97.1056675,99.6036585 97.8267661,99.3275992 98.3760404,98.7782974 L106.826415,90.3275004 C107.92778,89.2260799 107.92778,87.4457786 106.826415,86.3443581 Z" id="Shape"></path>
                <path d="M159.5,11 L162.25,11 C163.768,11 165,9.77075 165,8.25 C165,6.72925 163.768,5.5 162.25,5.5 L159.5,5.5 L159.5,2.75 C159.5,1.22925 158.268,0 156.75,0 C155.232,0 154,1.22925 154,2.75 L154,5.5 L148.5,5.5 L148.5,2.75 C148.5,1.22925 147.268,0 145.75,0 C144.232,0 143,1.22925 143,2.75 L143,5.5 L137.5,5.5 L137.5,2.75 C137.5,1.22925 136.268,0 134.75,0 C133.232,0 132,1.22925 132,2.75 L132,5.5 L33,5.5 L33,2.75 C33,1.22925 31.768,0 30.25,0 C28.732,0 27.5,1.22925 27.5,2.75 L27.5,5.5 L22,5.5 L22,2.75 C22,1.22925 20.768,0 19.25,0 C17.732,0 16.5,1.22925 16.5,2.75 L16.5,5.5 L11,5.5 L11,2.75 C11,1.22925 9.768,0 8.25,0 C6.732,0 5.5,1.22925 5.5,2.75 L5.5,5.5 L2.75,5.5 C1.232,5.5 0,6.72925 0,8.25 C0,9.77075 1.232,11 2.75,11 L5.5,11 L5.5,13.75 L0,13.75 L0,165 L11,165 L16.5,165 L22,165 L27.5,165 L38.5,165 L38.5,126.5 L126.5,126.5 L126.5,165 L137.5,165 L143,165 L148.5,165 L154,165 L165,165 L165,13.75 L159.5,13.75 L159.5,11 Z M132,11 L132,13.75 L126.5,13.75 L85.25,13.75 L85.25,55 C83.732,55 82.5,56.22925 82.5,57.75 C82.5,59.27075 83.732,60.5 85.25,60.5 L85.25,107.25 L126.5,107.25 L126.5,110 L38.5,110 L38.5,107.25 L79.75,107.25 L79.75,13.75 L38.5,13.75 L33,13.75 L33,11 L132,11 Z M90.75,60.5 L96.25,60.5 C97.768,60.5 99,59.27075 99,57.75 C99,56.22925 97.768,55 96.25,55 L90.75,55 L90.75,19.25 L126.5,19.25 L126.5,101.75 L90.75,101.75 L90.75,60.5 Z M38.5,101.75 L38.5,19.25 L74.25,19.25 L74.25,101.75 L38.5,101.75 Z M11,159.5 L5.5,159.5 L5.5,19.25 L11,19.25 L11,159.5 Z M11,13.75 L11,11 L16.5,11 L16.5,13.75 L11,13.75 Z M22,159.5 L16.5,159.5 L16.5,19.25 L22,19.25 L22,159.5 Z M22,13.75 L22,11 L27.5,11 L27.5,13.75 L22,13.75 Z M33,159.5 L27.5,159.5 L27.5,19.25 L33,19.25 L33,101.75 L33,110 L33,115.5 L33,126.5 L33,159.5 Z M38.5,121 L38.5,115.5 L126.5,115.5 L126.5,121 L38.5,121 Z M137.5,159.5 L132,159.5 L132,126.5 L132,115.5 L132,110 L132,101.75 L132,19.25 L137.5,19.25 L137.5,159.5 Z M137.5,13.75 L137.5,11 L143,11 L143,13.75 L137.5,13.75 Z M148.5,159.5 L143,159.5 L143,19.25 L148.5,19.25 L148.5,159.5 Z M159.5,159.5 L154,159.5 L154,19.25 L159.5,19.25 L159.5,159.5 Z M148.5,13.75 L148.5,11 L154,11 L154,13.75 L148.5,13.75 Z" id="Shape"></path>
            </g>
            <g id="People" transform="translate(76.000000, 82.000000)">
                <polyline id="Fill-563" fill="#E8C494" points="117.818182 62.1935977 121.209559 60.1981814 121.209559 51.4493392 125.740198 55.043356 132.18721 55.043356 136.299113 51.4493392 136.299113 60.5647635 139.354748 62.2049353 136.299113 66.9591657 128.592123 83.32687 117.818182 62.1935977"></polyline>
                <polyline id="Fill-564" fill="#30414F" points="223.635675 57.5022026 227.653269 58.5754947 242.286364 68.9796254 253.720473 87.036631 267.998964 72.8268485 277.826036 75.9409072 281.798361 85.8613006 259.812881 94.3833909 222.545455 81.9536104 223.635675 57.5022026"></polyline>
                <polyline id="Fill-565" fill="#30414F" points="157.862539 57.5022026 153.8374 58.5754947 135.213118 68.9871838 127.770196 87.036631 113.491705 72.8268485 101.14845 75.018783 99.6923077 85.8613006 121.685333 94.3833909 158.945214 81.9536104 157.862539 57.5022026"></polyline>
                <polyline id="Fill-566" fill="#D8762D" points="98.7609972 56.4933921 102.778591 57.5704634 121.410418 67.9859316 128.845796 86.0315996 143.124286 71.8142587 155.471314 74.0137516 156.931228 84.8600484 134.930658 93.3745803 97.6783217 80.9447998 98.7609972 56.4933921"></polyline>
                <polyline id="Fill-567" fill="#797A76" points="112.783217 222.208765 114.756176 212.859031 122.531069 212.859031 124.032479 222.208765 117.955161 223.671315 112.783217 222.208765"></polyline>
                <polyline id="Fill-568" fill="#E8C494" points="123.984143 166.453744 121.788612 216.43741 123.444691 222.261154 112.350096 225.462134 112.195428 222.261154 114.507903 216.43741 109.762238 166.453744 123.984143 166.453744"></polyline>
                <polyline id="Fill-569" fill="#2D6D67" points="123.293326 223.117436 120.271643 221.938326 115.069519 221.938326 112.044063 223.117436 111.776224 227.221644 123.564938 227.221644 123.293326 223.117436"></polyline>
                <polyline id="Fill-570" fill="#797A76" points="145.183105 222.208765 143.206373 212.859031 135.442798 212.859031 133.93007 222.208765 140.018705 223.671315 145.183105 222.208765"></polyline>
                <polyline id="Fill-571" fill="#E8C494" points="132.923077 166.453744 135.126152 216.43741 133.458756 222.261154 144.557123 225.462134 144.711791 222.261154 142.403089 216.43741 147.141209 166.453744 132.923077 166.453744"></polyline>
                <polyline id="Fill-572" fill="#2D6D67" points="134.194137 223.117436 137.223365 221.938326 142.417944 221.938326 145.447172 223.117436 145.711239 227.221644 133.93007 227.221644 134.194137 223.117436"></polyline>
                <polyline id="Fill-573" fill="#E8C494" points="95.8868899 87.7665198 90.2358519 99.6105247 79.5524476 106.624715 82.227071 118.309994 97.8523043 108.710832 110.391724 89.1686021 95.8868899 87.7665198"></polyline>
                <polyline id="Fill-574" fill="#E8C494" points="160.522592 87.7665198 166.17363 99.6105247 176.857035 106.624715 174.182411 118.309994 158.564723 108.710832 146.013986 89.1686021 160.522592 87.7665198"></polyline>
                <polyline id="Fill-575" fill="#E8C494" points="113.67397 29.0818987 112.15747 28.246696 110.769231 28.6624078 110.769231 35.4914176 115.213104 39.6787684 113.67397 29.0818987"></polyline>
                <polyline id="Fill-576" fill="#E8C494" points="143.532693 29.0818987 145.049193 28.246696 146.441205 28.6624078 146.441205 35.4914176 141.986014 39.6787684 143.532693 29.0818987"></polyline>
                <polyline id="Fill-577" fill="#E8C494" points="112.783217 26.2352056 133.576622 17.2407156 139.469093 16.1409692 144.678762 23.7598313 140.834698 48.2906022 132.094074 55.9208019 125.647062 55.9208019 116.046333 48.2906022 112.783217 26.2352056"></polyline>
                <polyline id="Fill-578" fill="#685C4F" points="139.680817 16.463847 130.84211 24.5815632 120.584986 29.7477262 114.013485 33.436223 110.769231 26.5580835 115.213104 16.0897065 132.128495 9.07929515 139.680817 16.463847"></polyline>
                <polyline id="Fill-579" fill="#685C4F" points="112.504764 37.3259912 109.762238 67.8581277 121.256706 61.0971434 121.256706 52.6619746 116.179071 48.6295709 114.824783 39.5141465 112.504764 37.3259912"></polyline>
                <polyline id="Fill-580" fill="#685C4F" points="144.345165 37.3259912 147.083919 67.8581277 135.944056 61.4637255 135.944056 52.6619746 140.667086 48.6295709 142.017601 39.5141465 144.345165 37.3259912"></polyline>
                <polyline id="Fill-581" fill="#685C4F" points="133.93007 21.3487033 142.504709 32.0135986 144.051388 28.6198793 144.809638 23.7598313 139.59997 16.1409692 133.93007 21.3487033"></polyline>
                <path d="M115.213104,39.5557177 C115.213104,40.7915153 114.224739,41.7854442 112.99494,41.7854442 C111.765141,41.7854442 110.769231,40.7915153 110.769231,39.5557177 C110.769231,38.3236993 111.765141,37.3259912 112.99494,37.3259912 C114.224739,37.3259912 115.213104,38.3236993 115.213104,39.5557177" id="Fill-582" fill="#68C1C1"></path>
                <path d="M146.437432,39.5557177 C146.437432,40.7915153 145.449067,41.7854442 144.219268,41.7854442 C142.985697,41.7854442 141.986014,40.7915153 141.986014,39.5557177 C141.986014,38.3236993 142.985697,37.3259912 144.219268,37.3259912 C145.449067,37.3259912 146.437432,38.3236993 146.437432,39.5557177" id="Fill-583" fill="#68C1C1"></path>
                <polyline id="Fill-584" fill="#2D6D67" points="113.13923 115.004405 107.752259 130.174104 106.741259 137.135386 110.189222 174.284897 147.905562 174.284897 150.71222 138.284262 149.52769 128.991215 144.989506 115.004405 113.13923 115.004405"></polyline>
                <path d="M160.021284,87.9009153 L149.76416,65.735922 L138.877046,62.6218633 C136.504214,61.1290803 127.846582,82.2358983 127.846582,82.2358983 C127.846582,82.2358983 119.181406,61.1290803 116.816118,62.6218633 L104.89537,65.6036501 L95.6643357,87.9009153 L110.16917,89.3029976 L112.19117,114.67275 L143.49445,114.67275 L145.520223,89.3029976 L160.021284,87.9009153" id="Fill-585" fill="#2D6D67"></path>
                <polyline id="Fill-586" fill="#FADAAB" points="241.678322 64.214998 245.062154 62.2233609 245.062154 53.4669604 249.585248 57.0647564 256.03226 57.0647564 260.151708 53.4669604 260.151708 62.5937223 263.207343 64.2225564 260.151708 68.9843452 252.444719 85.3482703 241.678322 64.214998"></polyline>
                <polyline id="Fill-587" fill="#788582" points="236.643357 224.226387 238.620088 214.876652 246.391209 214.876652 247.896392 224.226387 241.815301 225.696494 236.643357 224.226387"></polyline>
                <polyline id="Fill-588" fill="#FADAAB" points="247.84051 168.471366 245.64498 218.458811 247.304831 224.278775 236.206464 227.479755 236.051796 224.278775 238.368042 218.458811 233.622378 168.471366 247.84051 168.471366"></polyline>
                <polyline id="Fill-589" fill="#2D6D67" points="248.160459 224.122467 245.138776 222.947137 239.936652 222.947137 236.907424 224.122467 236.643357 228.230455 248.432071 228.230455 248.160459 224.122467"></polyline>
                <polyline id="Fill-590" fill="#788582" points="269.047017 224.226387 267.066513 214.876652 259.299165 214.876652 257.79021 224.226387 263.875073 225.696494 269.047017 224.226387"></polyline>
                <polyline id="Fill-591" fill="#FADAAB" points="257.79021 168.471366 259.993285 218.458811 258.329661 224.278775 269.424256 227.479755 269.586469 224.278775 267.273995 218.458811 272.019659 168.471366 257.79021 168.471366"></polyline>
                <polyline id="Fill-592" fill="#2D6D67" points="258.054277 224.122467 261.09105 222.947137 266.285629 222.947137 269.311084 224.122467 269.578924 228.230455 257.79021 228.230455 258.054277 224.122467"></polyline>
                <polyline id="Fill-593" fill="#FADAAB" points="220.761568 89.784141 215.11053 101.624367 204.41958 108.638557 207.101749 120.331394 222.72321 110.728453 235.262629 91.1900024 220.761568 89.784141"></polyline>
                <polyline id="Fill-594" fill="#FADAAB" points="237.537882 30.0944884 236.013837 29.2555066 234.629371 29.6749975 234.629371 36.5040074 239.080789 40.687579 237.537882 30.0944884"></polyline>
                <polyline id="Fill-595" fill="#FADAAB" points="267.396606 30.0944884 268.905561 29.2555066 270.297572 29.6749975 270.297572 36.5040074 265.846154 40.687579 267.396606 30.0944884"></polyline>
                <polyline id="Fill-596" fill="#FADAAB" points="236.643357 28.256606 257.436762 19.2658952 263.329233 18.1585903 268.546447 25.7850108 264.683521 50.3120025 255.954214 57.9459814 249.507202 57.9459814 239.906473 50.3120025 236.643357 28.256606"></polyline>
                <polyline id="Fill-597" fill="#CDA331" points="263.540956 17.4650992 254.698478 25.5903738 244.445126 30.760316 237.869852 34.4450335 234.629371 27.5631149 239.080789 17.0985171 255.98109 10.0881057 263.540956 17.4650992"></polyline>
                <polyline id="Fill-598" fill="#CDA331" points="236.843763 38.3348018 234.629371 53.667006 245.599476 55.9571996 245.599476 53.667006 240.521842 49.630823 239.175099 40.5191779 236.843763 38.3348018"></polyline>
                <polyline id="Fill-599" fill="#CDA331" points="269.336787 38.3348018 271.551179 53.667006 260.811189 55.8627197 260.811189 53.667006 265.421048 49.630823 266.903596 40.2206213 269.336787 38.3348018"></polyline>
                <polyline id="Fill-600" fill="#CDA331" points="257.79021 23.3701036 266.368621 34.0387781 267.922845 30.6450588 268.681095 25.7850108 263.463882 18.1585903 257.79021 23.3701036"></polyline>
                <path d="M239.080789,40.5607491 C239.080789,41.7927675 238.084879,42.7904756 236.85508,42.7904756 C235.625281,42.7904756 234.629371,41.7927675 234.629371,40.5607491 C234.629371,39.3325099 235.625281,38.3348018 236.85508,38.3348018 C238.084879,38.3348018 239.080789,39.3325099 239.080789,40.5607491" id="Fill-601" fill="#AD6160"></path>
                <path d="M270.297572,40.5607491 C270.297572,41.7927675 269.297889,42.7904756 268.071863,42.7904756 C266.842064,42.7904756 265.846154,41.7927675 265.846154,40.5607491 C265.846154,39.3325099 266.842064,38.3348018 268.071863,38.3348018 C269.297889,38.3348018 270.297572,39.3325099 270.297572,40.5607491" id="Fill-602" fill="#AD6160"></path>
                <polyline id="Fill-603" fill="#984A47" points="236.656082 117.022026 231.601082 131.870493 230.601399 138.831775 233.717392 175.981286 271.433732 175.981286 274.247934 139.976872 273.055859 130.683825 268.517676 117.022026 236.656082 117.022026"></polyline>
                <path d="M284.884645,89.9249891 L275.615886,68.7765999 L263.744179,64.6383787 C261.363802,63.1569333 252.702398,84.2599721 252.702398,84.2599721 C252.702398,84.2599721 244.044766,63.1569333 241.671934,64.6383787 L229.985074,68.7765999 L220.531469,89.9249891 L235.03253,91.3308505 L237.043213,117.018056 L268.365355,117.018056 L270.383583,91.3308505 L284.884645,89.9249891" id="Fill-604" fill="#E15E5C"></path>
                <polyline id="Fill-606" fill="#FADAAB" points="271.888112 91.0426137 276.573418 112.697415 274.604232 137.787507 280.640053 141.472225 287.498256 113.438138 284.921714 89.784141 271.888112 91.0426137"></polyline>
                <polyline id="Fill-607" fill="#8D9D9A" points="71.5992636 133.162996 35.2447552 133.162996 35.2447552 146.344836 37.029095 221.974137 56.5172542 221.974137 60.0632994 156.628033 63.952632 151.749089 65.9406808 151.749089 69.8186962 156.612916 73.3760586 221.974137 92.8642178 221.974137 94.633468 146.344836 94.633468 133.162996 71.5992636 133.162996"></polyline>
                <polyline id="Fill-608" fill="#D8762D" points="38.3501019 84.2478184 32.7707392 56.4933921 29.545347 58.7949233 10.475923 93.6882537 7.5372323 101.038793 0 133.146855 17.8660321 136.551912 24.5507046 107.274469 38.3501019 84.2478184"></polyline>
                <polyline id="Fill-609" fill="#FADAAB" points="50.2334105 23.0328144 48.7206827 22.1938326 47.3286713 22.6171027 47.3286713 29.4461126 51.7800898 33.6334634 50.2334105 23.0328144"></polyline>
                <polyline id="Fill-610" fill="#FADAAB" points="81.0991269 23.0328144 82.6193994 22.1938326 84.003866 22.6171027 84.003866 29.4461126 79.5524476 33.6334634 81.0991269 23.0328144"></polyline>
                <polyline id="Fill-611" fill="#FADAAB" points="48.3356643 13.2498664 69.7779208 4.88272315 73.6521638 0 78.6694406 5.5705371 82.294706 14.6935198 80.1972579 46.8091401 65.4434464 50.883115 50.6858624 47.1568262 48.3356643 13.2498664"></polyline>
                <polyline id="Fill-612" fill="#B2642F" points="48.3356643 13.2498664 69.7779208 4.88272315 73.6521638 0 78.6694406 5.5705371 82.294706 14.6935198 81.2044857 26.46572 79.4880489 26.46572 78.2431607 16.4546259 52.255176 19.3305951 50.9612468 26.46572 49.3466645 26.46572 48.3356643 13.2498664"></polyline>
                <path d="M38.4157562,227.071417 L55.2519263,227.071417 C55.2519263,227.071417 58.4999528,219.675527 46.8281827,217.903084 C46.8281827,217.903084 36.9407523,218.496418 38.4157562,227.071417" id="Fill-613" fill="#984A47"></path>
                <path d="M91.7692508,227.071417 L74.9330807,227.071417 C74.9330807,227.071417 71.6850542,219.675527 83.3492796,217.903084 C83.3492796,217.903084 93.2367099,218.496418 91.7692508,227.071417" id="Fill-614" fill="#984A47"></path>
                <polyline id="Fill-615" fill="#1C639F" points="94.633468 133.162996 35.2447552 133.162996 35.2447552 133.926393 94.633468 133.223463 94.633468 133.162996"></polyline>
                <polyline id="Fill-616" fill="#984A47" points="95.1321275 136.400744 35.7660491 136.400744 32.2237762 56.4933921 54.9033761 56.4933921 65.4698364 60.1894472 75.7760019 56.4933921 98.6819451 56.4933921 95.1321275 136.400744"></polyline>
                <polyline id="Fill-617" fill="#FADAAB" points="1.99559354 133.162996 0 143.574685 14.1879533 149.114988 14.1879533 135.487202 1.99559354 133.162996"></polyline>
                <polyline id="Fill-618" fill="#FADAAB" points="54.3776224 45.3964758 54.3776224 55.7476977 64.9365379 58.1323713 75.2427034 55.7476977 75.2427034 46.0691729 54.3776224 45.3964758"></polyline>
                <polyline id="Fill-619" fill="#FADAAB" points="181.258741 48.4229075 181.258741 58.7703502 191.69694 60.1799909 202.138912 58.7703502 202.138912 49.0956046 181.258741 48.4229075"></polyline>
                <polyline id="Fill-620" fill="#338BAD" points="197.465845 134.171806 161.118881 134.171806 161.118881 147.353647 162.895676 222.982947 182.39138 222.982947 185.933653 157.633064 189.826758 152.75412 191.807262 152.75412 195.681505 157.621727 199.24264 222.982947 218.730799 222.982947 220.503821 147.353647 220.503821 134.171806 197.465845 134.171806"></polyline>
                <polyline id="Fill-621" fill="#FADAAB" points="176.107536 25.0504356 174.587264 24.2114537 173.202797 24.6309447 173.202797 31.4637337 177.654216 35.6435261 176.107536 25.0504356"></polyline>
                <polyline id="Fill-622" fill="#FADAAB" points="206.977025 25.0542148 208.493525 24.2114537 209.885537 24.6347239 209.885537 31.4599545 205.426573 35.6548637 206.977025 25.0542148"></polyline>
                <polyline id="Fill-623" fill="#FADAAB" points="174.20979 13.7321927 204.551111 6.05286344 208.176377 15.172067 206.078929 47.2876872 191.317572 51.3692205 176.567533 47.6391526 174.20979 13.7321927"></polyline>
                <path d="M164.289882,228.084007 L181.118507,228.084007 C181.118507,228.084007 184.374079,220.684338 172.702309,218.911894 C172.702309,218.911894 162.814878,219.505228 164.289882,228.084007" id="Fill-624" fill="#30414F"></path>
                <path d="M217.643377,228.084007 L200.807207,228.084007 C200.807207,228.084007 197.55918,220.684338 209.223405,218.911894 C209.223405,218.911894 219.118381,219.505228 217.643377,228.084007" id="Fill-625" fill="#30414F"></path>
                <polyline id="Fill-626" fill="#1C639F" points="220.503821 134.171806 161.118881 134.171806 161.118881 134.931425 220.503821 134.232273 220.503821 134.171806"></polyline>
                <polyline id="Fill-627" fill="#30414F" points="221.006253 137.409554 161.640175 137.409554 158.097902 57.5022026 175.250953 57.5022026 191.68725 60.5557942 207.478468 57.5022026 224.556071 57.5022026 221.006253 137.409554"></polyline>
                <polyline id="Fill-628" fill="#EEF1EF" points="191.328655 137.409554 191.328655 59.7886171 175.216783 57.5022026 187.371419 137.409554 191.328655 137.409554"></polyline>
                <polyline id="Fill-629" fill="#EEF1EF" points="191.328671 137.409554 191.328671 59.7886171 207.444315 57.5022026 195.278362 137.409554 191.328671 137.409554"></polyline>
                <polyline id="Fill-630" fill="#D8762D" points="64.9365379 58.8780657 54.3776224 56.4933921 64.8082767 69.83018 75.2427034 56.4933921 64.9365379 58.8780657"></polyline>
                <polyline id="Fill-631" fill="#E15E5C" points="111.776224 104.9163 144.65259 104.9163 143.856616 114.606162 112.553336 114.606162 111.776224 104.9163"></polyline>
                <polyline id="Fill-632" fill="#51341D" points="268.674708 117.132093 236.643357 117.132093 236.643357 115.004405 268.305014 115.004405 268.674708 117.132093"></polyline>
                <polyline id="Fill-633" fill="#3E2D1D" points="174.20979 13.7359719 187.590452 8.5169002 204.551111 6.05286344 208.168832 15.1758462 207.078612 26.9480463 205.362175 26.9480463 204.117287 16.9407314 178.129302 19.8129215 176.835373 26.9480463 175.22079 26.9480463 174.20979 13.7359719"></polyline>
                <polyline id="Fill-634" fill="#FADAAB" points="280.945851 140.214273 280.945851 147.47789 270.881119 149.427956 275.690914 136.189427 280.945851 140.214273"></polyline>
            </g>
        </g>
    </g>
</svg>