<?xml version="1.0" encoding="UTF-8"?>
<svg width="624px" height="336px" viewBox="0 0 624 336" version="1.1" xmlns="http://www.w3.org/2000/svg" xmlns:xlink="http://www.w3.org/1999/xlink">
    <!-- Generator: Sketch 48.1 (47250) - http://www.bohemiancoding.com/sketch -->
    <title>Ilustra</title>
    <desc>Created with Sketch.</desc>
    <defs>
        <rect id="path-1" x="0" y="0" width="143" height="199"></rect>
        <rect id="path-3" x="0" y="0" width="143" height="17"></rect>
        <filter x="-10.5%" y="-88.2%" width="121.0%" height="276.5%" filterUnits="objectBoundingBox" id="filter-4">
            <feOffset dx="0" dy="0" in="SourceAlpha" result="shadowOffsetOuter1"></feOffset>
            <feGaussianBlur stdDeviation="5" in="shadowOffsetOuter1" result="shadowBlurOuter1"></feGaussianBlur>
            <feColorMatrix values="0 0 0 0 0   0 0 0 0 0   0 0 0 0 0  0 0 0 0.1 0" type="matrix" in="shadowBlurOuter1"></feColorMatrix>
        </filter>
        <rect id="path-5" x="0" y="0" width="110" height="30" rx="5"></rect>
        <filter x="-15.0%" y="-45.0%" width="130.0%" height="210.0%" filterUnits="objectBoundingBox" id="filter-6">
            <feOffset dx="0" dy="3" in="SourceAlpha" result="shadowOffsetOuter1"></feOffset>
            <feGaussianBlur stdDeviation="5" in="shadowOffsetOuter1" result="shadowBlurOuter1"></feGaussianBlur>
            <feColorMatrix values="0 0 0 0 0   0 0 0 0 0   0 0 0 0 0  0 0 0 0.1 0" type="matrix" in="shadowBlurOuter1"></feColorMatrix>
        </filter>
        <rect id="path-7" x="0" y="0" width="110" height="30" rx="5"></rect>
        <filter x="-15.0%" y="-45.0%" width="130.0%" height="210.0%" filterUnits="objectBoundingBox" id="filter-8">
            <feOffset dx="0" dy="3" in="SourceAlpha" result="shadowOffsetOuter1"></feOffset>
            <feGaussianBlur stdDeviation="5" in="shadowOffsetOuter1" result="shadowBlurOuter1"></feGaussianBlur>
            <feColorMatrix values="0 0 0 0 0   0 0 0 0 0   0 0 0 0 0  0 0 0 0.1 0" type="matrix" in="shadowBlurOuter1"></feColorMatrix>
        </filter>
        <rect id="path-9" x="0" y="0" width="110" height="30" rx="5"></rect>
        <filter x="-15.0%" y="-45.0%" width="130.0%" height="210.0%" filterUnits="objectBoundingBox" id="filter-10">
            <feOffset dx="0" dy="3" in="SourceAlpha" result="shadowOffsetOuter1"></feOffset>
            <feGaussianBlur stdDeviation="5" in="shadowOffsetOuter1" result="shadowBlurOuter1"></feGaussianBlur>
            <feColorMatrix values="0 0 0 0 0   0 0 0 0 0   0 0 0 0 0  0 0 0 0.1 0" type="matrix" in="shadowBlurOuter1"></feColorMatrix>
        </filter>
        <rect id="path-11" x="0" y="0" width="110" height="30" rx="5"></rect>
        <filter x="-15.0%" y="-45.0%" width="130.0%" height="210.0%" filterUnits="objectBoundingBox" id="filter-12">
            <feOffset dx="0" dy="3" in="SourceAlpha" result="shadowOffsetOuter1"></feOffset>
            <feGaussianBlur stdDeviation="5" in="shadowOffsetOuter1" result="shadowBlurOuter1"></feGaussianBlur>
            <feColorMatrix values="0 0 0 0 0   0 0 0 0 0   0 0 0 0 0  0 0 0 0.1 0" type="matrix" in="shadowBlurOuter1"></feColorMatrix>
        </filter>
        <rect id="path-13" x="0" y="0" width="110" height="30" rx="5"></rect>
        <filter x="-15.0%" y="-45.0%" width="130.0%" height="210.0%" filterUnits="objectBoundingBox" id="filter-14">
            <feOffset dx="0" dy="3" in="SourceAlpha" result="shadowOffsetOuter1"></feOffset>
            <feGaussianBlur stdDeviation="5" in="shadowOffsetOuter1" result="shadowBlurOuter1"></feGaussianBlur>
            <feColorMatrix values="0 0 0 0 0   0 0 0 0 0   0 0 0 0 0  0 0 0 0.1 0" type="matrix" in="shadowBlurOuter1"></feColorMatrix>
        </filter>
    </defs>
    <g id="MedPass---Intro-2-/-3" stroke="none" stroke-width="1" fill="none" fill-rule="evenodd" transform="translate(-414.000000, -99.000000)">
        <g id="Ilustra" transform="translate(403.000000, -4.000000)">
            <g id="notebook" transform="translate(84.162486, 192.273702) rotate(-30.000000) translate(-84.162486, -192.273702) translate(25.662486, 125.273702)" fill="#000000" fill-opacity="0.1" fill-rule="nonzero">
                <path d="M105.241687,-5.68434189e-14 L19.4892013,-5.68434189e-14 C13.0413939,-5.68434189e-14 7.7956805,5.25009589 7.7956805,11.70329 L7.7956805,23.40658 L3.89784025,23.40658 C1.74519301,23.40658 -2.84217094e-14,25.153231 -2.84217094e-14,27.3076767 C-2.84217094e-14,29.4621223 1.74519301,31.2087733 3.89784025,31.2087733 L7.7956805,31.2087733 L7.7956805,62.9376929 L3.89784025,62.9376929 C1.74519301,62.9376929 -2.84217094e-14,64.6843439 -2.84217094e-14,66.8387895 C-2.84217094e-14,68.9932352 1.74519301,70.7398862 3.89784025,70.7398862 L7.7956805,70.7398862 L7.7956805,101.94866 L3.89784025,101.94866 C1.74519301,101.94866 -2.84217094e-14,103.695311 -2.84217094e-14,105.849756 C-2.84217094e-14,108.004202 1.74519301,109.750853 3.89784025,109.750853 L7.7956805,109.750853 L7.7956805,121.454143 C7.7956805,127.907337 13.0413939,133.157433 19.4892013,133.157433 L105.241687,133.157433 C111.689494,133.157433 116.935208,127.907337 116.935208,121.454143 L116.935208,11.70329 C116.935208,5.25009589 111.689494,-5.68434189e-14 105.241687,-5.68434189e-14 Z M31.182722,125.35524 L19.4892013,125.35524 C17.3399321,125.35524 15.591361,123.605208 15.591361,121.454143 L15.591361,109.750853 L19.4892013,109.750853 C21.6418485,109.750853 23.3870415,108.004202 23.3870415,105.849756 C23.3870415,103.695311 21.6418485,101.94866 19.4892013,101.94866 L15.591361,101.94866 L15.591361,70.7398862 L19.4892013,70.7398862 C21.6418485,70.7398862 23.3870415,68.9932352 23.3870415,66.8387895 C23.3870415,64.6843439 21.6418485,62.9376929 19.4892013,62.9376929 L15.591361,62.9376929 L15.591361,31.2087733 L19.4892013,31.2087733 C21.6418485,31.2087733 23.3870415,29.4621223 23.3870415,27.3076767 C23.3870415,25.153231 21.6418485,23.40658 19.4892013,23.40658 L15.591361,23.40658 L15.591361,11.70329 C15.591361,9.55222529 17.3399321,7.80219333 19.4892013,7.80219333 L31.182722,7.80219333 L31.182722,125.35524 Z M109.139527,121.454143 C109.139527,123.605208 107.390956,125.35524 105.241687,125.35524 L38.9784025,125.35524 L38.9784025,7.80219333 L105.241687,7.80219333 C107.390956,7.80219333 109.139527,9.55222529 109.139527,11.70329 L109.139527,121.454143 Z" id="Shape"></path>
                <path d="M97.4781932,86.518535 L50.5496128,86.518535 C48.3898553,86.518535 46.6388978,88.3343428 46.6388978,90.5740914 C46.6388978,92.8138399 48.3898553,94.6296477 50.5496128,94.6296477 L97.4781932,94.6296477 C99.6379508,94.6296477 101.388908,92.8138399 101.388908,90.5740914 C101.388908,88.3343428 99.6379508,86.518535 97.4781932,86.518535 Z" id="Shape"></path>
                <path d="M97.4781932,102.064834 L50.5496128,102.064834 C48.3898553,102.064834 46.6388978,103.880642 46.6388978,106.120391 C46.6388978,108.360139 48.3898553,110.175947 50.5496128,110.175947 L97.4781932,110.175947 C99.6379508,110.175947 101.388908,108.360139 101.388908,106.120391 C101.388908,103.880642 99.6379508,102.064834 97.4781932,102.064834 Z" id="Shape"></path>
                <path d="M97.4781932,23.6574119 L50.5496128,23.6574119 C48.3898553,23.6574119 46.6388978,25.4227806 46.6388978,27.6003139 L46.6388978,43.3719219 C46.6388978,45.5494552 48.3898553,47.3148239 50.5496128,47.3148239 L97.4781932,47.3148239 C99.6379508,47.3148239 101.388908,45.5494552 101.388908,43.3719219 L101.388908,27.6003139 C101.388908,25.4227806 99.6379508,23.6574119 97.4781932,23.6574119 Z M93.5674782,39.4290199 L54.4603279,39.4290199 L54.4603279,31.5432159 L93.5674782,31.5432159 L93.5674782,39.4290199 Z" id="Shape"></path>
            </g>
            <g id="edit" transform="translate(131.698484, 353.698484) rotate(-20.000000) translate(-131.698484, -353.698484) translate(74.198484, 296.198484)" fill="#000000" fill-rule="nonzero" opacity="0.1" stroke="#000000" stroke-linecap="square" stroke-linejoin="round" stroke-width="3">
                <path d="M113.043101,7.11618531 L107.59584,1.66528678 C105.371063,-0.554458286 101.752935,-0.556370211 99.5281586,1.66719871 L93.5533728,7.64387664 L-5.68434189e-13,7.64387664 L-5.68434189e-13,114.711684 L107.033912,114.711684 L107.033912,21.1994258 L107.616864,20.6162886 L113.043101,15.1883332 C115.267878,12.9628523 115.267878,9.34166615 113.043101,7.11618531 Z M38.3162291,70.2632483 L44.470679,76.4196472 L36.0073547,78.7292527 L38.3162291,70.2632483 Z M99.5071341,23.3197507 L91.3993153,15.2093644 L94.1019216,12.5059022 L102.211652,20.6162886 L99.5071341,23.3197507 Z M96.8045279,26.0232129 L48.1499697,74.6931788 L40.0421509,66.5827924 L88.696709,17.9128265 L96.8045279,26.0232129 Z M103.211272,25.023276 L103.211272,110.887833 L3.8226397,110.887833 L3.8226397,11.4677269 L89.7307331,11.4677269 L35.9882415,65.2310614 L35.6289134,65.5905033 L31.575004,80.4633688 L29.2317258,82.807389 C28.4843998,83.5549517 28.4843998,84.7632884 29.2317258,85.5108511 C29.6044332,85.8836765 30.0937311,86.0710452 30.583029,86.0710452 C31.0723268,86.0710452 31.5616247,85.8836765 31.9343321,85.5108511 L34.2776102,83.1668309 L49.1457674,79.1078139 L99.5109568,28.7285869 L100.365317,27.8739564 L103.211272,25.023276 Z M110.340495,12.4848711 L104.914258,17.9128265 L96.8045279,9.80052818 L102.230765,4.37257276 C102.964712,3.63839351 104.159287,3.64030543 104.893233,4.37257276 L110.340495,9.82155936 C111.074442,10.5538267 111.074442,11.7506918 110.340495,12.4848711 Z" id="Shape"></path>
            </g>
            <g id="headphones" transform="translate(541.455426, 322.455426) rotate(30.000000) translate(-541.455426, -322.455426) translate(445.955426, 226.955426)" fill="#000000" fill-opacity="0.1" fill-rule="nonzero">
                <path d="M191,105.02763 L190.976874,101.779161 C189.390112,44.7063716 147.45656,-5.68434189e-14 95.5108171,-5.68434189e-14 C42.8459218,-5.68434189e-14 -3.41060513e-13,47.1248176 -3.41060513e-13,105.049267 C-3.41060513e-13,105.087317 0.0205152541,105.119399 0.021634268,105.157077 L0.021634268,136.882254 C0.0548316792,146.527313 7.25158283,154.644011 16.8221354,155.831411 C21.1978526,165.508179 27.8015264,174.011723 36.0926731,180.646688 C38.7727113,187.859499 46.2361607,192.114069 53.8070355,190.744997 C61.3779103,189.375924 66.8793555,182.776771 66.8636893,175.081987 L66.8636893,98.6825203 C66.8789825,90.9881091 61.3779103,84.388956 53.8070355,83.0195105 C46.2361607,81.650438 38.7723383,85.9050079 36.0926731,93.1178189 C29.1876116,98.6623759 23.4231982,105.493563 19.1194708,113.233485 L19.1194708,107.744512 C20.0672756,107.208074 20.669305,106.218388 20.7092165,105.129844 L20.7901585,101.946658 L20.7916506,101.865707 C20.6853442,83.1627595 26.5411438,64.9123146 37.5097176,49.7637328 C48.7095544,42.9194895 70.6813916,31.8326138 95.5104441,31.8326138 C120.326442,31.8326138 142.288208,42.9075521 153.493266,49.7525414 C164.477879,64.9287285 170.340766,83.2112552 170.231103,101.946285 L170.312045,105.129471 C170.352329,106.218015 170.953986,107.207701 171.902163,107.744139 L171.902163,113.233112 C167.598436,105.49319 161.834023,98.6620028 154.928961,93.1174458 C152.248923,85.9046348 144.785474,81.6500649 137.214599,83.0191374 C129.643724,84.3882099 124.142279,90.987363 124.157572,98.6821472 L124.157572,175.081614 C124.142279,182.776025 129.643351,189.375178 137.214226,190.744624 C144.785101,192.113696 152.248923,187.859126 154.928588,180.646315 C163.220108,174.010977 169.823409,165.507433 174.199126,155.831037 C183.769678,154.643638 190.96643,146.52694 190.999627,136.881881 L190.999627,105.048894 L190.997389,105.038076 L191,105.02763 Z M41.4005288,98.6828933 C41.4005288,93.4087934 45.6755348,89.13296 50.9494471,89.13296 C56.2233595,89.13296 60.4983654,93.4084204 60.4983654,98.6828933 L60.4983654,175.08236 C60.4983654,180.35646 56.2229865,184.632293 50.9494471,184.632293 C45.6759078,184.632293 41.4005288,180.356833 41.4005288,175.08236 L41.4005288,98.6828933 Z M149.621478,175.08236 C149.621478,180.35646 145.346099,184.632293 140.07256,184.632293 C134.799021,184.632293 130.523642,180.356833 130.523642,175.08236 L130.523642,98.6828933 C130.523642,93.4087934 134.798648,89.13296 140.07256,89.13296 C145.346472,89.13296 149.621478,93.4084204 149.621478,98.6828933 L149.621478,175.08236 Z M155.987548,171.120257 L155.987548,102.627463 C162.201432,108.896472 171.902536,121.191639 171.902536,136.882627 C171.902163,152.516166 162.202551,164.831477 155.987548,171.120257 Z M6.38770413,108.232827 L12.753774,108.232827 L12.753774,118.91868 C10.4053369,119.741989 8.2419101,121.020411 6.38770413,122.680831 L6.38770413,108.232827 Z M14.3494878,148.656277 C9.55302134,146.710478 6.40747337,142.059362 6.38770413,136.882627 C6.39479122,131.687985 9.54742627,127.01486 14.3614239,125.063838 C12.2218694,132.781751 12.2177663,140.936126 14.3494878,148.656277 Z M35.034459,102.644623 L35.034459,171.137417 C28.820575,164.868408 19.1194708,152.573242 19.1194708,136.882254 C19.1194708,121.248714 28.819456,108.933777 35.034459,102.644623 Z M95.5108171,25.4666133 C80.0154592,25.7490078 64.746142,29.2369717 50.6648446,35.7111551 C76.4551301,13.566128 114.546362,13.5623975 140.34075,35.7025751 C126.263929,29.2332413 111.00058,25.7482617 95.5108171,25.4666133 Z M158.45945,45.7643251 C158.434459,45.7217981 158.401261,45.6863589 158.374405,45.644951 C143.864898,25.278599 120.51369,13.0531921 95.5108171,12.7334932 C70.5907514,13.0487156 47.305565,25.1957831 32.7867331,45.4539523 C32.7084022,45.5509438 32.6356663,45.6524119 32.5692714,45.7579834 C20.6853442,62.0275632 14.3263615,81.6776702 14.4255807,101.825791 L6.41083041,101.86608 C7.9356733,48.9202797 47.3186202,6.36674658 95.5108171,6.36674658 C143.978292,6.36674658 183.113936,48.3405689 184.612296,101.86608 L176.595681,101.86608 C176.704598,81.7071407 170.347853,62.0443502 158.45945,45.7643251 Z M184.634303,108.232827 L184.634303,122.689038 C182.779724,121.028245 180.61667,119.74833 178.268233,118.922037 L178.268233,108.232827 L184.634303,108.232827 Z M176.672147,148.656277 C178.803122,140.939483 178.800138,132.788839 176.663194,125.07391 C181.477192,127.007772 184.632065,131.67381 184.634303,136.862109 C184.636168,142.050036 181.484652,146.718685 176.672147,148.656277 Z" id="Shape"></path>
                <path d="M51,178 C52.6569788,178 54,176.568886 54,174.803222 L54,165.196778 C54,163.431114 52.6569788,162 51,162 C49.3430213,162 48.0000001,163.431114 48.0000001,165.196778 L48.0000001,174.803222 C47.9996485,176.568886 49.3430213,178 51,178 Z" id="Shape"></path>
                <path d="M51,155 C52.6569788,155 54,153.586346 54,151.842222 L54,98.1577779 C54,96.4136542 52.6569788,95 51,95 C49.3430213,95 48.0000001,96.4136542 48.0000001,98.1577779 L48.0000001,151.842222 C47.9996485,153.585976 49.3430213,155 51,155 Z" id="Shape"></path>
                <path d="M140,162 C138.343021,162 137,163.431114 137,165.196778 L137,174.803222 C137,176.568886 138.343021,178 140,178 C141.656979,178 143,176.568886 143,174.803222 L143,165.196778 C143,163.431114 141.656979,162 140,162 Z" id="Shape"></path>
                <path d="M140,95 C138.343021,95 137,96.4136542 137,98.1577779 L137,151.842222 C137,153.586346 138.343021,155 140,155 C141.656979,155 143,153.586346 143,151.842222 L143,98.1581479 C143,96.4140243 141.656979,95 140,95 Z" id="Shape"></path>
            </g>
            <g id="keyboard" transform="translate(315.000000, 163.000000) rotate(45.000000) translate(-315.000000, -163.000000) translate(200.000000, 48.000000)" fill="#000000" fill-opacity="0.1" fill-rule="nonzero">
                <path d="M224.15519,62.6821732 L166.859897,5.38688033 C159.685301,-1.79549038 148.002338,-1.79549038 140.819967,5.38688033 L5.3897446,140.824468 C-1.79262611,147.999064 -1.79262611,159.689392 5.3897446,166.871763 L62.6850375,224.167465 C66.2801101,227.754763 70.9942953,229.544934 75.7088897,229.544934 C80.4234841,229.544934 85.1376693,227.754763 88.7323327,224.159691 L224.15519,88.7294684 C231.337151,81.5548721 231.337151,69.8645439 224.15519,62.6821732 Z M218.947531,83.5218098 L83.5173088,218.952032 C79.2078045,223.254171 72.2026096,223.254171 67.8931053,218.952032 L10.5978124,161.656739 C6.28830816,157.347235 6.28830816,150.334266 10.5978124,146.02517 L146.028035,10.5949481 C148.18647,8.44387865 151.015144,7.36854849 153.843819,7.36854849 C156.672494,7.36854849 159.501169,8.44387865 161.651829,10.5949481 L218.947531,67.890241 C223.256626,72.1997453 223.256626,79.2123055 218.947531,83.5218098 Z" id="Shape"></path>
                <path d="M182.4841,83.529175 C181.047462,82.0929464 178.712261,82.0929464 177.276032,83.529175 L166.859897,93.9453107 C165.423259,95.3819485 165.423259,97.7171499 166.859897,99.1533785 L177.276032,109.569514 C177.997829,110.283946 178.940994,110.644844 179.883749,110.644844 C180.826504,110.644844 181.769259,110.283537 182.4841,109.569514 L192.900236,99.1533785 C194.336465,97.7167407 194.336465,95.3815393 192.900236,93.9453107 L182.4841,83.529175 Z M179.883749,101.75373 L174.675681,96.5456619 L179.883749,91.3375941 L185.091817,96.5456619 L179.883749,101.75373 Z" id="Shape"></path>
                <path d="M203.330693,62.6748079 C201.894055,61.2385793 199.558854,61.2385793 198.122625,62.6748079 L187.699124,73.0909436 C187.014154,73.7832794 186.623794,74.7190785 186.623794,75.6986601 C186.623794,76.6782417 187.006788,77.6140408 187.699124,78.3063767 L198.11526,88.7372429 C198.807596,89.4222134 199.743395,89.812573 200.722976,89.812573 C201.702558,89.812573 202.638357,89.4222134 203.330693,88.7225123 L213.746829,78.2990114 C215.183057,76.8623736 215.183057,74.5271722 213.746829,73.0909436 L203.330693,62.6748079 Z M200.722976,80.9214585 L195.507543,75.7060254 L200.722976,70.4979576 L205.931044,75.7060254 L200.722976,80.9214585 Z" id="Shape"></path>
                <path d="M83.524674,182.488192 C82.0880362,181.051963 79.7528349,181.051963 78.3166062,182.488192 L62.6924028,198.112396 C61.2561741,199.549033 61.2561741,201.884235 62.6924028,203.320463 L73.1011731,213.743964 C73.8229701,214.458396 74.7661345,214.819294 75.7088897,214.819294 C76.6516449,214.819294 77.5948093,214.458396 78.3166062,213.736599 L93.9408097,198.112396 C95.3774475,196.675758 95.3774475,194.340556 93.9408097,192.904328 L83.524674,182.488192 Z M75.7088897,205.92818 L70.5008219,200.720112 L80.9169575,190.303976 L86.1250253,195.512044 L75.7088897,205.92818 Z" id="Shape"></path>
                <path d="M104.356536,161.65633 C102.919898,160.220101 100.584697,160.220101 99.1484683,161.65633 L88.7249674,172.072466 C88.0399968,172.764802 87.6496372,173.700601 87.6496372,174.680182 C87.6496372,175.659764 88.0326315,176.595563 88.7249674,177.287899 L99.1484683,187.704034 C99.8702653,188.418466 100.81343,188.779365 101.756185,188.779365 C102.69894,188.779365 103.642104,188.418466 104.356536,187.696669 L114.772672,177.280533 C116.2089,175.843896 116.2089,173.509103 114.772672,172.072466 L104.356536,161.65633 Z M101.756185,179.88825 L96.5407518,174.680182 L101.756185,169.472114 L106.964253,174.680182 L101.756185,179.88825 Z" id="Shape"></path>
                <path d="M161.652238,104.361037 C160.2156,102.924808 157.880399,102.924808 156.44417,104.361037 L109.564604,151.240604 C108.128375,152.677241 108.128375,155.012443 109.564604,156.448671 L119.98074,166.864807 C120.702537,167.579239 121.645701,167.940137 122.588456,167.940137 C123.531211,167.940137 124.473967,167.586604 125.195763,166.871763 L172.075739,119.992606 C172.76071,119.30027 173.151069,118.364471 173.151069,117.384889 C173.151069,116.405308 172.768075,115.469509 172.075739,114.777173 L161.652238,104.361037 Z M122.588456,159.049023 L117.380388,153.840955 L159.044522,112.169456 L164.259955,117.377524 L122.588456,159.049023 Z" id="Shape"></path>
                <path d="M79.3919364,169.472524 C79.3919364,168.492942 79.0089421,167.557143 78.3166062,166.864807 L67.9004706,156.448671 C66.4638328,155.012443 64.1286314,155.012443 62.6924028,156.448671 L41.8531754,177.280533 C41.1682048,177.972869 40.7778453,178.908668 40.7778453,179.88825 C40.7778453,180.867832 41.1608396,181.803631 41.8531754,182.495967 L52.269311,192.912102 C52.991108,193.626534 53.9342724,193.987432 54.8770276,193.987432 C55.8197828,193.987432 56.7551727,193.626534 57.4773789,192.912102 L78.3166062,172.08024 C79.0015768,171.387904 79.3919364,170.452105 79.3919364,169.472524 Z M54.8770276,185.096318 L49.6689598,179.88825 L65.3005285,164.264047 L70.5085963,169.472114 L54.8770276,185.096318 Z" id="Shape"></path>
                <path d="M83.5173088,135.609035 L73.1011731,146.032536 C71.6649445,147.469174 71.6649445,149.803966 73.1011731,151.240604 L83.5173088,161.656739 C84.2391057,162.371171 85.1822701,162.732069 86.1250253,162.732069 C87.0677805,162.732069 88.0105357,162.378536 88.7253766,161.656739 L99.1415122,151.240604 C100.57815,149.803966 100.57815,147.469174 99.1415122,146.032536 L88.7253766,135.609035 C87.347661,134.224363 84.9019805,134.224363 83.5173088,135.609035 Z M86.1250253,153.840955 L80.9169575,148.632887 L86.1250253,143.417454 L91.3330931,148.632887 L86.1250253,153.840955 Z" id="Shape"></path>
                <path d="M106.964253,141.892842 C107.907008,141.892842 108.850172,141.5389 109.564604,140.810147 L119.98074,130.394011 C121.416968,128.957373 121.416968,126.622172 119.98074,125.185943 L109.564604,114.769807 C108.127966,113.333579 105.793174,113.333579 104.356536,114.769807 L93.9330352,125.185943 C93.2480646,125.878279 92.8577051,126.814078 92.8577051,127.79366 C92.8577051,128.773241 93.2406994,129.70904 93.9330352,130.401376 L104.356536,140.817512 C105.078333,141.531944 106.021497,141.892842 106.964253,141.892842 Z M106.964253,122.585592 L112.17232,127.79366 L106.964253,133.001727 L101.74882,127.79366 L106.964253,122.585592 Z" id="Shape"></path>
                <path d="M127.796115,121.060571 C128.739279,121.060571 129.682034,120.699672 130.396466,119.992606 L140.819967,109.57647 C141.504938,108.884134 141.895297,107.948335 141.895297,106.968754 C141.895297,105.989172 141.512303,105.053373 140.819967,104.361037 L130.396466,93.9449015 C128.959828,92.5082637 126.624627,92.5082637 125.188398,93.9449015 L114.772263,104.361037 C113.336034,105.797675 113.336034,108.132876 114.772263,109.569105 L125.188398,119.985241 C125.910195,120.699672 126.85336,121.060571 127.796115,121.060571 Z M127.796524,101.753321 L133.011957,106.961388 L127.796524,112.169456 L122.588456,106.961388 L127.796524,101.753321 Z" id="Shape"></path>
                <path d="M148.635751,100.228709 C149.578506,100.228709 150.513896,99.8678102 151.236103,99.1533785 L161.652238,88.7372429 C163.088467,87.300605 163.088467,84.9654037 161.652238,83.529175 L151.236103,73.1056741 C149.858387,71.7210024 147.412706,71.7210024 146.028035,73.1056741 L135.611899,83.529175 C134.17567,84.9658129 134.17567,87.3010142 135.611899,88.7372429 L146.028035,99.1533785 C146.749832,99.8678102 147.692996,100.228709 148.635751,100.228709 Z M148.635751,80.9140932 L153.843819,86.1295263 L148.635751,91.3375941 L143.427683,86.1295263 L148.635751,80.9140932 Z" id="Shape"></path>
                <path d="M155.361066,65.2902989 C155.361066,66.2698805 155.74406,67.2056796 156.436396,67.8980155 L166.859897,78.3141511 C167.581694,79.0285828 168.524858,79.3894813 169.467613,79.3894813 C170.410369,79.3894813 171.353533,79.0281736 172.067965,78.3067859 L192.899827,57.4749238 C194.336055,56.038286 194.336055,53.7034938 192.899827,52.266856 L182.483691,41.8507203 C181.047053,40.4140825 178.711852,40.4140825 177.275623,41.8507203 L156.436396,62.6825824 C155.751425,63.3749183 155.361066,64.3107174 155.361066,65.2902989 Z M179.891114,49.6660955 L185.099182,54.8741633 L169.474979,70.4983668 L164.259546,65.2902989 L179.891114,49.6660955 Z" id="Shape"></path>
                <path d="M47.053878,156.441306 L36.6377423,146.02517 C35.2011045,144.588942 32.8663123,144.588942 31.4296745,146.02517 L21.0061736,156.441306 C20.321203,157.133642 19.9308434,158.069441 19.9308434,159.049023 C19.9308434,160.028604 20.3138377,160.964403 21.0061736,161.656739 L31.4296745,172.072875 C32.1514715,172.787307 33.0946358,173.148205 34.037391,173.148205 C34.9805554,173.148205 35.9233106,172.794672 36.6377423,172.06551 L47.053878,161.649374 C48.4905158,160.212736 48.4905158,157.877535 47.053878,156.441306 Z M34.0447563,164.25709 L28.8293232,159.049023 L34.037391,153.840955 L39.2528241,159.049023 L34.0447563,164.25709 Z" id="Shape"></path>
                <path d="M52.269311,151.240604 C52.9616469,151.925574 53.897446,152.315934 54.8770276,152.315934 C55.8492439,152.315934 56.7846338,151.932939 57.4773789,151.247969 L67.9008798,140.824468 C68.5858503,140.132132 68.9762099,139.196333 68.9762099,138.216751 C68.9762099,137.23717 68.5932156,136.301371 67.9008798,135.609035 L57.4773789,125.192899 C56.040741,123.756671 53.7059489,123.756671 52.269311,125.192899 L41.8531754,135.609035 C40.4165376,137.045673 40.4165376,139.380465 41.8531754,140.817103 L52.269311,151.240604 Z M54.8770276,133.001318 L60.0924607,138.209386 L54.8770276,143.424819 L49.6689598,138.209386 L54.8770276,133.001318 Z" id="Shape"></path>
                <path d="M73.1011731,130.401376 C73.8229701,131.115808 74.7661345,131.476706 75.7088897,131.476706 C76.6516449,131.476706 77.5948093,131.115808 78.3166062,130.401376 L88.7327419,119.985241 C90.1689705,118.548603 90.1689705,116.213401 88.7327419,114.777173 L78.3166062,104.361037 C76.8799684,102.924808 74.544767,102.924808 73.1085384,104.361037 L62.6924028,114.777173 C61.2561741,116.213811 61.2561741,118.549012 62.6924028,119.985241 L73.1011731,130.401376 Z M75.7088897,112.169456 L80.9169575,117.377524 L75.7088897,122.585592 L70.5008219,117.377524 L75.7088897,112.169456 Z" id="Shape"></path>
                <path d="M93.9330352,109.569514 C94.6548322,110.283946 95.5979966,110.644844 96.5407518,110.644844 C97.4839161,110.644844 98.4266714,110.283537 99.141103,109.576879 L109.564604,99.1607438 C110.249575,98.4684079 110.639934,97.5326088 110.639934,96.5530272 C110.639934,95.5734456 110.25694,94.6376465 109.564604,93.9453107 L99.141103,83.529175 C97.7044652,82.0929464 95.3692638,82.0929464 93.9330352,83.529175 L83.5168996,93.9453107 C82.0806709,95.3819485 82.0806709,97.7171499 83.5168996,99.1533785 L93.9330352,109.569514 Z M96.5407518,91.3375941 L101.756185,96.5456619 L96.5407518,101.75373 L91.3326839,96.5456619 L96.5407518,91.3375941 Z" id="Shape"></path>
                <path d="M114.772672,88.7372429 C115.465008,89.4222134 116.400807,89.812573 117.380388,89.812573 C118.35997,89.812573 119.29536,89.4222134 119.98074,88.7372429 L130.396875,78.3137419 C131.833104,76.8771041 131.833104,74.5419028 130.396875,73.1056741 L119.98074,62.6895385 C118.544102,61.2533099 116.2089,61.2533099 114.772672,62.6895385 L104.356536,73.1056741 C102.920307,74.5423119 102.920307,76.8775133 104.356536,78.3137419 L114.772672,88.7372429 Z M117.380388,70.4979576 L122.588456,75.7060254 L117.380388,80.9214585 L112.17232,75.7060254 L117.380388,70.4979576 Z" id="Shape"></path>
                <path d="M135.611899,67.8980155 C136.333696,68.6124472 137.27686,68.9733457 138.219616,68.9733457 C139.162371,68.9733457 140.09817,68.6124472 140.819967,67.8906502 L151.236103,57.4745146 C152.672331,56.0378768 152.672331,53.7030846 151.236103,52.2664468 L140.819967,41.8503111 C139.383329,40.4136733 137.048128,40.4136733 135.611899,41.8503111 L125.188398,52.2664468 C124.503428,52.9587826 124.113068,53.8945817 124.113068,54.8741633 C124.113068,55.8537449 124.496062,56.789544 125.188398,57.4818799 L135.611899,67.8980155 Z M138.219616,49.6660955 L143.427683,54.8741633 L138.219616,60.0822311 L133.004183,54.8741633 L138.219616,49.6660955 Z" id="Shape"></path>
                <path d="M156.443761,47.0657442 C157.165558,47.7801759 158.108723,48.1410744 159.051478,48.1410744 C159.994642,48.1410744 160.937397,47.7801759 161.651829,47.0731095 L172.07533,36.6569739 C172.760301,35.964638 173.15066,35.0288389 173.15066,34.0492573 C173.15066,33.0696757 172.767666,32.1338766 172.07533,31.4415408 L161.651829,21.0254051 C160.215191,19.5887673 157.87999,19.5887673 156.443761,21.0254051 L146.027626,31.4415408 C144.591397,32.8781786 144.591397,35.2129708 146.027626,36.6496086 L156.443761,47.0657442 Z M159.051887,28.8342334 L164.26732,34.0423012 L159.051887,39.250369 L153.843819,34.0423012 L159.051887,28.8342334 Z" id="Shape"></path>
            </g>
            <g id="mouse-peripheral" transform="translate(482.453096, 177.886987) rotate(20.000000) translate(-482.453096, -177.886987) translate(452.453096, 133.886987)" fill="#000000" fill-opacity="0.1" fill-rule="nonzero">
                <path d="M52.218378,9.85114983 C47.0493013,4.2300362 40.6257817,1.03337434 32.9502488,0.260098041 C33.0010014,0.313308197 30.165492,-0.200514496 27.1542206,0.260098041 C14.6835747,1.24775002 0,14.7473669 0,29.7021734 L0,57.907833 C0,66.054556 2.89868896,73.0925432 8.77286675,78.9446268 C14.5435199,84.6944866 21.6185561,87.5555556 29.9214455,87.5555556 C38.2243348,87.5555556 45.9265925,84.1784359 51.2271333,78.8929151 C56.578829,73.5567489 60,65.9511327 60,57.907833 L60,29.7021734 C59.999865,22.1229461 57.3885345,15.4711972 52.218378,9.85114983 Z M54.2035669,57.907833 C54.2035669,70.8011024 43.1858224,82.0554579 30.0784196,81.8839297 C23.446636,81.7970328 17.7016278,79.5122559 12.9504288,74.8195536 C8.19801499,70.1280508 5.79616316,64.4562917 5.79616316,57.907833 L5.79616316,29.7021734 C5.79616316,23.3605614 8.00189863,17.8548661 12.4279467,13.2534589 C16.8795047,8.62566282 22.2380841,5.82830049 28.6680824,5.82830049 L29.9213105,5.82830049 L31.8530499,5.82830049 C38.137277,5.82830049 43.3943563,8.87102678 47.7278126,13.4603057 C52.0624837,18.0495846 54.2037019,23.4627852 54.2037019,29.7021734 L54.2037019,57.907833 L54.2035669,57.907833 Z" id="Shape"></path>
                <path d="M30.9174296,14.2222222 L29.188839,14.2222222 C27.2502833,14.2222222 25.640145,14.9047354 24.2658281,16.2314077 C22.9161493,17.5327771 22.2222222,19.1684115 22.2222222,21.0743877 L22.2222222,33.0277562 C22.2222222,34.8314553 22.9038303,36.4286026 24.2658281,37.7673937 C25.6267429,39.1072502 27.2501479,39.7777778 29.188839,39.7777778 L30.9174296,39.7777778 C32.8023772,39.7777778 34.4257822,39.1072502 35.7352549,37.819065 C37.0973881,36.4802739 37.7777778,34.8820612 37.7777778,33.0277562 L37.7777778,21.0745209 C37.7777778,19.1685447 37.083986,17.5835162 35.7352549,16.2315409 C34.4125155,14.9048685 32.8023772,14.2222222 30.9174296,14.2222222 Z M31.9644121,33.0277562 C31.9644121,33.5949413 31.4929045,34.0575853 30.917565,34.0575853 L29.1889744,34.0575853 C29.031399,34.0575853 28.7699918,33.9553082 28.3510093,33.7487564 C28.1409089,33.54327 28.0358586,33.2849138 28.0358586,33.027623 L28.0358586,21.0745209 C28.0358586,20.45673 28.5598914,20.0445586 29.1889744,20.0445586 L30.917565,20.0445586 C31.4929045,20.0445586 31.9644121,20.45673 31.9644121,21.0745209 L31.9644121,33.0277562 Z" id="Shape"></path>
            </g>
            <g id="smartphone" transform="translate(231.000000, 173.000000)">
                <path d="M163.005947,0 L8.99405254,0 C4.02730914,0 0,4.01770833 0,8.97327881 L0,257.026721 C0,261.982292 4.02730914,266 8.99405254,266 L163.005947,266 C167.973233,266 172,261.982292 172,257.026721 L172,8.97327881 C172,4.01770833 167.973233,0 163.005947,0 Z" id="Shape" fill="#EBF0F3" fill-rule="nonzero"></path>
                <g id="Screen" transform="translate(15.000000, 21.000000)">
                    <mask id="mask-2" fill="white">
                        <use xlink:href="#path-1"></use>
                    </mask>
                    <g id="Mask" stroke-linecap="square" stroke-linejoin="round" fill-rule="nonzero">
                        <use fill="#F5F7FA" fill-rule="evenodd" xlink:href="#path-1"></use>
                        <rect stroke="#DBE0E3" stroke-width="2" x="-1" y="-1" width="145" height="201"></rect>
                    </g>
                    <g id="Header" mask="url(#mask-2)" fill-rule="nonzero">
                        <use fill="black" fill-opacity="1" filter="url(#filter-4)" xlink:href="#path-3"></use>
                        <use fill="#FFFFFF" fill-rule="evenodd" xlink:href="#path-3"></use>
                    </g>
                    <g id="Logo" mask="url(#mask-2)">
                        <g transform="translate(57.000000, 7.000000)">
                            <rect id="Rectangle-5" fill="#45C6D6" x="0" y="0" width="14" height="2" rx="1"></rect>
                            <rect id="Rectangle-5-Copy" fill="#9A9EA3" x="15" y="0" width="14" height="2" rx="1"></rect>
                        </g>
                    </g>
                    <g id="Quest" mask="url(#mask-2)">
                        <g transform="translate(12.000000, 27.000000)">
                            <g id="Rectangle-3" fill="none">
                                <use fill="black" fill-opacity="1" filter="url(#filter-6)" xlink:href="#path-5"></use>
                                <use fill="#FFFFFF" fill-rule="evenodd" xlink:href="#path-5"></use>
                            </g>
                            <rect id="Rectangle-4" fill="#9A9EA3" fill-rule="evenodd" x="25" y="8" width="60" height="3" rx="1.5"></rect>
                            <rect id="Rectangle-4-Copy" fill="#D0D4DA" fill-rule="evenodd" x="25" y="16" width="50" height="3" rx="1.5"></rect>
                            <rect id="Rectangle-4-Copy-2" fill="#D0D4DA" fill-rule="evenodd" x="25" y="21" width="40" height="3" rx="1.5"></rect>
                            <circle id="Oval-2" fill="#D0D4DA" fill-rule="evenodd" cx="12.5" cy="15.5" r="7.5"></circle>
                            <circle id="Oval-2-Copy" fill="#4A90E2" fill-rule="evenodd" cx="110" cy="15" r="9"></circle>
                            <path d="M108.556355,12.5323741 C108.920865,12.1774563 109.413266,12 110.033573,12 C110.634695,12 111.112708,12.140686 111.467626,12.4220624 C111.822544,12.7034387 112,13.1063123 112,13.6306954 C112,13.8737023 111.958434,14.0879287 111.8753,14.2733813 C111.792166,14.4588339 111.693046,14.615507 111.577938,14.7434053 C111.462829,14.8713036 111.306156,15.0215819 111.107914,15.1942446 C110.845722,15.4180667 110.649081,15.6211022 110.517986,15.8033573 C110.38689,15.9856124 110.321343,16.2110298 110.321343,16.4796163 L109.36211,16.4796163 C109.36211,16.2238197 109.400479,16.000001 109.477218,15.8081535 C109.553957,15.616306 109.645083,15.4580342 109.7506,15.3333333 C109.856116,15.2086325 110.001598,15.0631503 110.18705,14.8968825 C110.404478,14.6986401 110.564348,14.52598 110.666667,14.3788969 C110.768985,14.2318138 110.820144,14.046364 110.820144,13.822542 C110.820144,13.5731402 110.741807,13.3860918 110.585132,13.2613909 C110.428456,13.13669 110.209434,13.0743405 109.928058,13.0743405 C109.633891,13.0743405 109.403678,13.1526771 109.23741,13.3093525 C109.071142,13.466028 108.981615,13.6978402 108.968825,14.0047962 L108,14.0047962 C108.006395,13.3780944 108.191845,12.8872919 108.556355,12.5323741 Z M110.297362,17.5923261 C110.422063,17.7202245 110.484412,17.8832924 110.484412,18.0815348 C110.484412,18.2861721 110.422063,18.4540361 110.297362,18.5851319 C110.172661,18.7162277 110.014389,18.7817746 109.822542,18.7817746 C109.637089,18.7817746 109.482015,18.714629 109.357314,18.5803357 C109.232613,18.4460425 109.170264,18.2797772 109.170264,18.0815348 C109.170264,17.8832924 109.232613,17.7202245 109.357314,17.5923261 C109.482015,17.4644278 109.637089,17.4004796 109.822542,17.4004796 C110.014389,17.4004796 110.172661,17.4644278 110.297362,17.5923261 Z" id="?" fill="#FFFFFF" fill-rule="evenodd"></path>
                        </g>
                    </g>
                    <g id="Quest-Copy" mask="url(#mask-2)">
                        <g transform="translate(12.000000, 67.000000)">
                            <g id="Rectangle-3" fill="none">
                                <use fill="black" fill-opacity="1" filter="url(#filter-8)" xlink:href="#path-7"></use>
                                <use fill="#FFFFFF" fill-rule="evenodd" xlink:href="#path-7"></use>
                            </g>
                            <rect id="Rectangle-4" fill="#9A9EA3" fill-rule="evenodd" x="25" y="8" width="60" height="3" rx="1.5"></rect>
                            <rect id="Rectangle-4-Copy" fill="#D0D4DA" fill-rule="evenodd" x="25" y="16" width="50" height="3" rx="1.5"></rect>
                            <rect id="Rectangle-4-Copy-2" fill="#D0D4DA" fill-rule="evenodd" x="25" y="21" width="40" height="3" rx="1.5"></rect>
                            <circle id="Oval-2" fill="#D0D4DA" fill-rule="evenodd" cx="12.5" cy="15.5" r="7.5"></circle>
                        </g>
                    </g>
                    <g id="Quest-Copy-2" mask="url(#mask-2)">
                        <g transform="translate(12.000000, 107.000000)">
                            <g id="Rectangle-3" fill="none">
                                <use fill="black" fill-opacity="1" filter="url(#filter-10)" xlink:href="#path-9"></use>
                                <use fill="#FFFFFF" fill-rule="evenodd" xlink:href="#path-9"></use>
                            </g>
                            <rect id="Rectangle-4" fill="#9A9EA3" fill-rule="evenodd" x="25" y="8" width="60" height="3" rx="1.5"></rect>
                            <rect id="Rectangle-4-Copy" fill="#D0D4DA" fill-rule="evenodd" x="25" y="16" width="50" height="3" rx="1.5"></rect>
                            <rect id="Rectangle-4-Copy-2" fill="#D0D4DA" fill-rule="evenodd" x="25" y="21" width="40" height="3" rx="1.5"></rect>
                            <circle id="Oval-2" fill="#D0D4DA" fill-rule="evenodd" cx="12.5" cy="15.5" r="7.5"></circle>
                        </g>
                    </g>
                    <g id="Quest-Copy-3" mask="url(#mask-2)">
                        <g transform="translate(12.000000, 147.000000)">
                            <g id="Rectangle-3" fill="none">
                                <use fill="black" fill-opacity="1" filter="url(#filter-12)" xlink:href="#path-11"></use>
                                <use fill="#FFFFFF" fill-rule="evenodd" xlink:href="#path-11"></use>
                            </g>
                            <rect id="Rectangle-4" fill="#9A9EA3" fill-rule="evenodd" x="25" y="8" width="60" height="3" rx="1.5"></rect>
                            <rect id="Rectangle-4-Copy" fill="#D0D4DA" fill-rule="evenodd" x="25" y="16" width="50" height="3" rx="1.5"></rect>
                            <rect id="Rectangle-4-Copy-2" fill="#D0D4DA" fill-rule="evenodd" x="25" y="21" width="40" height="3" rx="1.5"></rect>
                            <circle id="Oval-2" fill="#D0D4DA" fill-rule="evenodd" cx="12.5" cy="15.5" r="7.5"></circle>
                            <circle id="Oval-2-Copy" fill="#4A90E2" fill-rule="evenodd" cx="110" cy="15" r="9"></circle>
                            <path d="M108.556355,12.5323741 C108.920865,12.1774563 109.413266,12 110.033573,12 C110.634695,12 111.112708,12.140686 111.467626,12.4220624 C111.822544,12.7034387 112,13.1063123 112,13.6306954 C112,13.8737023 111.958434,14.0879287 111.8753,14.2733813 C111.792166,14.4588339 111.693046,14.615507 111.577938,14.7434053 C111.462829,14.8713036 111.306156,15.0215819 111.107914,15.1942446 C110.845722,15.4180667 110.649081,15.6211022 110.517986,15.8033573 C110.38689,15.9856124 110.321343,16.2110298 110.321343,16.4796163 L109.36211,16.4796163 C109.36211,16.2238197 109.400479,16.000001 109.477218,15.8081535 C109.553957,15.616306 109.645083,15.4580342 109.7506,15.3333333 C109.856116,15.2086325 110.001598,15.0631503 110.18705,14.8968825 C110.404478,14.6986401 110.564348,14.52598 110.666667,14.3788969 C110.768985,14.2318138 110.820144,14.046364 110.820144,13.822542 C110.820144,13.5731402 110.741807,13.3860918 110.585132,13.2613909 C110.428456,13.13669 110.209434,13.0743405 109.928058,13.0743405 C109.633891,13.0743405 109.403678,13.1526771 109.23741,13.3093525 C109.071142,13.466028 108.981615,13.6978402 108.968825,14.0047962 L108,14.0047962 C108.006395,13.3780944 108.191845,12.8872919 108.556355,12.5323741 Z M110.297362,17.5923261 C110.422063,17.7202245 110.484412,17.8832924 110.484412,18.0815348 C110.484412,18.2861721 110.422063,18.4540361 110.297362,18.5851319 C110.172661,18.7162277 110.014389,18.7817746 109.822542,18.7817746 C109.637089,18.7817746 109.482015,18.714629 109.357314,18.5803357 C109.232613,18.4460425 109.170264,18.2797772 109.170264,18.0815348 C109.170264,17.8832924 109.232613,17.7202245 109.357314,17.5923261 C109.482015,17.4644278 109.637089,17.4004796 109.822542,17.4004796 C110.014389,17.4004796 110.172661,17.4644278 110.297362,17.5923261 Z" id="?" fill="#FFFFFF" fill-rule="evenodd"></path>
                        </g>
                    </g>
                    <g id="Quest-Copy-4" mask="url(#mask-2)">
                        <g transform="translate(12.000000, 187.000000)">
                            <g id="Rectangle-3" fill="none">
                                <use fill="black" fill-opacity="1" filter="url(#filter-14)" xlink:href="#path-13"></use>
                                <use fill="#FFFFFF" fill-rule="evenodd" xlink:href="#path-13"></use>
                            </g>
                            <rect id="Rectangle-4" fill="#9A9EA3" fill-rule="evenodd" x="25" y="8" width="60" height="3" rx="1.5"></rect>
                            <rect id="Rectangle-4-Copy" fill="#D0D4DA" fill-rule="evenodd" x="25" y="16" width="50" height="3" rx="1.5"></rect>
                            <rect id="Rectangle-4-Copy-2" fill="#D0D4DA" fill-rule="evenodd" x="25" y="21" width="40" height="3" rx="1.5"></rect>
                            <circle id="Oval-2" fill="#D0D4DA" fill-rule="evenodd" cx="12.5" cy="15.5" r="7.5"></circle>
                        </g>
                    </g>
                </g>
                <g id="Group" transform="translate(58.000000, 8.000000)" fill="#64798A" fill-rule="nonzero">
                    <path d="M28.1110909,247.77037 C20.9847273,247.77037 15.1865455,242.027468 15.1865455,234.968383 C15.1865455,227.904436 20.9847273,222.160993 28.1110909,222.160993 C35.2396364,222.160993 41.0372727,227.904436 41.0372727,234.968383 C41.0378182,242.027468 35.2396364,247.77037 28.1110909,247.77037 Z M28.1110909,226.989699 C23.6716364,226.989699 20.0612727,230.56868 20.0612727,234.968383 C20.0612727,239.362684 23.6716364,242.941664 28.1110909,242.941664 C32.55,242.941664 36.1630909,239.362684 36.1630909,234.968383 C36.1630909,230.56868 32.55,226.989699 28.1110909,226.989699 Z" id="Shape"></path>
                    <path d="M39.2290909,5.1539695 L16.9958182,5.1539695 C15.6490909,5.1539695 14.5587273,4.07444009 14.5587273,2.73988671 C14.5587273,1.40587364 15.6490909,0.325803922 16.9958182,0.325803922 L39.2290909,0.325803922 C40.5758182,0.325803922 41.6661818,1.40587364 41.6661818,2.73988671 C41.6667273,4.07444009 40.5758182,5.1539695 39.2290909,5.1539695 Z" id="Shape"></path>
                    <ellipse id="Oval" cx="2.59909091" cy="2.74042702" rx="2.43818182" ry="2.4151634"></ellipse>
                </g>
            </g>
        </g>
    </g>
</svg>