<?xml version="1.0" encoding="UTF-8"?>
<svg width="460px" height="352px" viewBox="0 0 460 352" version="1.1" xmlns="http://www.w3.org/2000/svg" xmlns:xlink="http://www.w3.org/1999/xlink">
    <!-- Generator: Sketch 48.1 (47250) - http://www.bohemiancoding.com/sketch -->
    <title>Ilustra</title>
    <desc>Created with Sketch.</desc>
    <defs></defs>
    <g id="MedPass---Intro-3-/-3" stroke="none" stroke-width="1" fill="none" fill-rule="evenodd" transform="translate(-487.000000, -78.000000)">
        <g id="Ilustra" transform="translate(487.000000, 78.000000)">
            <g id="Background" fill="#000000" fill-rule="nonzero" opacity="0.1">
                <g id="noun_672818_cc" transform="translate(341.000000, 285.000000) rotate(100.000000) translate(-341.000000, -285.000000) translate(287.000000, 231.000000)">
                    <path d="M107.128694,35.1613977 C105.929716,33.9633943 104.011351,33.9633943 102.812373,35.1613977 C102.092986,35.8801997 101.613395,36.359401 100.894008,36.8386023 L71.159351,7.1281198 C71.6389422,6.4093178 72.1185335,5.69051581 72.8379203,5.21131448 C74.0368984,4.01331115 74.0368984,2.09650582 72.8379203,0.898502496 C71.6389422,-0.299500832 69.7205772,-0.299500832 68.5215991,0.898502496 C60.1287523,9.28452579 62.5267086,20.7853577 66.1236429,32.2861897 C54.613453,28.452579 43.1032631,26.296173 34.7104164,34.6821963 C26.3175696,43.0682196 28.7155258,54.5690516 32.3124601,66.0698835 C20.8022702,62.2362729 9.29208037,60.0798669 0.899233584,68.4658902 C-0.299744528,69.6638935 -0.299744528,71.5806988 0.899233584,72.7787022 C2.0982117,73.9767055 4.01657668,73.9767055 5.21555479,72.7787022 C5.93494166,72.0599002 6.4145329,71.5806988 7.13391977,71.1014975 L36.868577,100.81198 C36.3889857,101.530782 35.9093945,102.249584 35.1900076,102.728785 C33.9910295,103.926789 33.9910295,105.843594 35.1900076,107.041597 C35.6695988,107.520799 36.6287813,108 37.3481682,108 C38.0675551,108 38.7869419,107.760399 39.5063288,107.041597 C47.8991756,98.655574 45.5012194,87.1547421 41.904285,75.6539101 C47.65938,77.5707155 53.4144749,79.0083195 58.6899786,79.0083195 C63.9654823,79.0083195 69.0011904,77.5707155 73.0777159,73.2579035 C81.4705627,64.8718802 79.0726065,53.3710483 75.4756722,41.8702163 C86.985862,45.703827 98.4960519,47.8602329 106.888899,39.4742097 C108.327672,38.2762063 108.327672,36.359401 107.128694,35.1613977 Z M68.5215991,39.4742097 C72.1185335,50.0166389 75.2358765,59.8402662 70.9195553,66.5490849 L41.4246938,37.078203 C48.3787668,32.765391 58.2103874,35.8801997 68.5215991,39.4742097 Z M13.6084016,68.7054908 C19.6032921,67.9866889 27.0369564,70.3826955 34.950212,73.0183028 C37.5879638,80.6855241 39.98592,88.1131448 39.2665332,94.3427621 L13.6084016,68.7054908 Z M39.7461244,68.2262895 C36.1491901,57.6838602 33.031847,47.8602329 37.3481682,41.1514143 L66.8430298,70.6222962 C59.8889567,74.9351082 50.0573362,71.8202995 39.7461244,68.2262895 Z M73.3175116,34.6821963 C70.6797597,27.014975 68.2818035,19.5873544 69.0011904,13.3577371 L94.659322,38.9950083 C88.4246358,39.7138103 80.9909715,37.3178037 73.3175116,34.6821963 Z" id="Shape"></path>
                </g>
                <g id="noun_672806_cc" transform="translate(0.000000, 112.000000)">
                    <path d="M94.0660388,100.044796 L38.6051373,100.044796 C40.5082074,97.3492755 41.5956761,94.3842031 41.5956761,90.8800265 C41.5956761,87.645402 40.5082074,84.4107775 38.8770045,81.9848092 L38.8770045,66.0812388 C38.8770045,56.9164694 42.1394104,50.9863245 49.2079567,47.482148 C49.751691,47.482148 50.5672925,47.7517 51.1110268,47.7517 L55.7327686,71.7418316 L53.2859642,72.0113837 C51.382894,72.2809357 50.2954254,74.1678 50.5672925,76.0546643 C50.8391597,77.6719765 52.1984955,78.7501847 53.8296985,78.7501847 C54.1015656,78.7501847 54.3734328,78.7501847 54.3734328,78.7501847 L59.8107761,77.6719765 C59.8107761,77.6719765 59.8107761,77.6719765 59.8107761,77.6719765 L73.4041343,75.2460082 L83.1913522,73.3591439 C85.0944224,73.0895918 86.181891,71.2027275 85.9100238,69.3158633 C85.6381567,67.428999 83.7350865,66.3507908 81.8320164,66.6203429 L79.6570791,66.8898949 L68.7823925,8.93620611 C68.5105253,8.12754999 68.2386582,7.31889386 67.4230567,6.77978978 C66.6074552,6.2406857 65.7918537,5.97113366 64.9762522,6.2406857 L59.5389089,7.31889386 L58.7233074,2.73650917 C58.4514403,0.849644885 56.5483701,-0.228563279 54.6453,0.0409887621 C52.7422298,0.310540803 51.6547612,2.19740509 51.9266283,4.08426937 L52.7422298,8.66665407 L47.0330194,9.74486223 C45.1299492,10.0144143 44.0424806,11.9012786 44.3143477,13.7881428 L45.9455507,22.6833602 C44.0424806,23.4920163 42.4112776,24.8397765 41.0519418,26.4570888 C21.7493731,30.2308173 11.9621552,43.4388673 11.9621552,66.0812388 L11.9621552,81.9848092 C10.3309522,84.4107775 9.24348358,87.645402 9.24348358,90.8800265 C9.24348358,94.3842031 10.3309522,97.3492755 12.2340224,100.044796 L3.26240597,100.044796 C1.35933582,100.044796 0,101.662108 0,103.27942 L0,115.678814 C0,117.565679 1.63120298,118.913439 3.26240597,118.913439 L12.5058895,118.913439 L12.5058895,123.765376 C12.5058895,125.65224 14.1370925,127 15.7682955,127 C17.3994985,127 19.0307015,125.382688 19.0307015,123.765376 L19.0307015,118.913439 L80.7445477,118.913439 L80.7445477,123.765376 C80.7445477,125.65224 82.3757507,127 84.0069537,127 C85.6381567,127 87.2693597,125.382688 87.2693597,123.765376 L87.2693597,118.913439 L93.5223044,118.913439 C95.4253746,118.913439 96.7847104,117.296127 96.7847104,115.678814 L96.7847104,103.27942 C97.6003119,101.392556 95.9691089,100.044796 94.0660388,100.044796 Z M51.6547612,28.074401 C55.1890343,28.074401 58.1795731,31.0394735 58.1795731,34.54365 C58.1795731,37.7782745 56.0046358,40.2042428 53.014097,40.7433469 C53.014097,40.7433469 53.014097,40.7433469 53.014097,40.7433469 C53.014097,40.7433469 53.014097,40.7433469 53.014097,40.7433469 C52.4703627,40.7433469 52.1984955,40.7433469 51.6547612,40.7433469 C48.120488,40.7433469 45.1299492,37.7782745 45.1299492,34.2740979 C45.1299492,31.0394735 48.120488,28.074401 51.6547612,28.074401 Z M57.3639716,14.866351 C57.3639716,14.866351 57.3639716,14.866351 57.3639716,14.866351 C57.3639716,14.866351 57.6358388,14.866351 57.3639716,14.866351 L62.8013149,13.7881428 L73.1322671,68.5072071 L72.3166656,68.7767592 L62.2575806,70.3940714 L57.6358388,46.1343877 C61.9857134,43.9779714 65.2481194,39.3955867 65.2481194,34.2740979 C65.2481194,27.2657449 59.8107761,21.605152 53.014097,21.0660479 L51.9266283,15.4054551 L57.3639716,14.866351 Z M38.6051373,34.0045459 C38.6051373,34.2740979 38.6051373,34.2740979 38.6051373,34.54365 C38.6051373,38.0478265 39.9644731,41.282451 42.4112776,43.7084194 C35.6145985,48.5603561 32.0803254,55.8382612 32.0803254,66.0812388 L32.0803254,76.5937684 C30.1772552,75.7851122 28.0023179,75.2460082 25.8273806,75.2460082 C23.6524433,75.2460082 21.477506,75.7851122 19.5744358,76.5937684 L19.5744358,66.0812388 C19.3025686,48.5603561 25.5555134,38.0478265 38.6051373,34.0045459 Z M16.3120298,90.8800265 C16.3120298,85.7585378 20.3900373,81.7152571 25.5555134,81.7152571 C30.7209895,81.7152571 34.798997,85.7585378 34.798997,90.8800265 C34.798997,96.0015153 30.7209895,100.044796 25.5555134,100.044796 C20.3900373,100.044796 16.3120298,96.0015153 16.3120298,90.8800265 Z M90.8036328,112.44419 L6.52481194,112.44419 L6.52481194,106.783597 L90.5317656,106.783597 L90.5317656,112.44419 L90.8036328,112.44419 Z" id="Shape"></path>
                </g>
                <g id="user" transform="translate(140.000000, 285.500000) rotate(10.000000) translate(-140.000000, -285.500000) translate(91.000000, 224.000000)" stroke="#000000" stroke-width="2">
                    <path d="M31.0308207,47.0952303 L31.0308207,63.6395136 C27.2695091,65.5302888 15.2927011,71.8992159 4.18198461,81.0794272 C1.50947374,83.2687459 0,86.5278453 0,90.0108523 L0,103.171643 C0,104.415574 1.01456431,105.435598 2.25183787,105.435598 C3.48911142,105.435598 4.50367573,104.415574 4.50367573,103.171643 L4.50367573,90.0108523 C4.50367573,87.8961694 5.44400363,85.9058797 7.05245925,84.5624342 C18.7323216,74.9095291 31.4020028,68.4908447 33.8023135,67.2966709 C34.8663687,66.7742199 35.5344965,65.6795605 35.5344965,64.5102653 L35.5344965,45.9756924 C35.5344965,45.2293337 35.1633144,44.5078537 34.5446776,44.1097958 C32.7630037,42.9156219 31.6989484,40.9253322 31.6989484,38.7857708 L31.6989484,19.5545964 C31.6989484,11.2451369 38.4049711,4.50303048 46.6699584,4.50303048 L50.7777066,4.50303048 C59.042694,4.50303048 65.7487166,11.2451369 65.7487166,19.5545964 L65.7487166,38.7608922 C65.7487166,40.9004536 64.6846614,42.8907433 62.9029874,44.0849171 C62.2843507,44.5078537 61.9131686,45.2044551 61.9131686,45.9508137 L61.9131686,64.4853867 C61.9131686,65.6546819 62.6060418,66.7742199 63.6453516,67.2717923 C66.0704077,68.4659661 78.7153435,74.8846504 90.3952058,84.5375556 C92.0036614,85.8810011 92.9439893,87.8712908 92.9439893,89.9859736 L92.9439893,103.171643 C92.9439893,104.415574 93.9585536,105.435598 95.1958272,105.435598 C96.4331007,105.435598 97.4476651,104.415574 97.4476651,103.171643 L97.4476651,90.0108523 C97.4476651,86.5278453 95.9134459,83.2687459 93.2656804,81.0794272 C82.1549639,71.8992159 70.1781559,65.5551674 66.4168443,63.6395136 L66.4168443,47.0952303 C68.8419005,45.0303048 70.2523924,41.9951129 70.2523924,38.7608922 L70.2523924,19.5545964 C70.2523924,8.75727474 61.5172411,0 50.8024521,0 L46.6947039,0 C35.9551695,0 27.2447636,8.78215336 27.2447636,19.5545964 L27.2447636,38.7608922 C27.1952727,41.9951129 28.6057646,45.0303048 31.0308207,47.0952303 Z" id="Shape"></path>
                    <path d="M57.9371713,85.8547009 C54.5868663,85.8547009 51.4169623,87.087065 49.0459772,89.3101532 L48.7367183,89.6001212 L48.4274594,89.3101532 C46.0564743,87.087065 42.8865703,85.8547009 39.5362653,85.8547009 C36.1859603,85.8547009 33.0418279,87.087065 30.6708428,89.3101532 C28.2998577,91.5332414 26.9855072,94.4812497 26.9855072,97.6467341 C26.9855072,100.788054 28.2998577,103.736063 30.6708428,105.959151 L47.0615658,121.327457 L47.0873374,121.351621 C47.5254542,121.762409 48.1182005,122.004049 48.7367183,122.004049 C49.3552362,122.004049 49.9479824,121.762409 50.3860993,121.351621 L66.7768223,105.983315 C69.1478074,103.760227 70.4621578,100.812218 70.4621578,97.6708981 C70.4621578,94.5295777 69.173579,91.5574054 66.7768223,89.3343172 C64.4316088,87.087065 61.2874764,85.8547009 57.9371713,85.8547009 Z M63.4780604,102.866159 L48.7367183,116.687968 L33.9696046,102.841995 C32.4748532,101.440482 31.6501627,99.5798543 31.6501627,97.6225701 C31.6501627,95.6411219 32.4748532,93.8046577 33.9438331,92.4031455 C35.4385845,91.0016334 37.3972244,90.2525493 39.5104937,90.2525493 C41.623763,90.2525493 43.6081745,91.0257974 45.1029259,92.4273095 L47.0873374,94.2879377 C47.5254542,94.6987258 48.1182005,94.9403658 48.7367183,94.9403658 C49.3552362,94.9403658 49.9479824,94.6987258 50.3860993,94.2879377 L52.3447391,92.4514735 C53.8394906,91.0499614 55.823902,90.2767133 57.9113998,90.2767133 C60.0246691,90.2767133 61.9833089,91.0499614 63.4780604,92.4514735 C64.9728119,93.8529857 65.7975024,95.7136139 65.7717308,97.6708981 C65.7975024,99.6040183 64.9728119,101.464646 63.4780604,102.866159 Z" id="Shape"></path>
                </g>
                <g id="noun_672805_cc" transform="translate(346.000000, 67.500000) rotate(20.000000) translate(-346.000000, -67.500000) translate(307.000000, 13.000000)">
                    <path d="M64.7609279,50.4333194 C57.8562702,50.4333194 52.3801623,55.9307903 52.3801623,62.8623839 C52.3801623,69.7939776 57.8562702,75.2914485 64.7609279,75.2914485 C64.7609279,75.2914485 64.7609279,75.2914485 64.9990196,75.2914485 C65.9513862,83.657165 64.2847446,91.0667996 60.2371866,96.0862295 C56.9039036,100.149577 51.903979,102.300762 45.9516878,102.300762 C40.2374883,102.300762 35.4756554,100.149577 32.380464,96.3252499 C28.8090893,91.783861 27.618631,84.8522673 28.8090893,76.9645918 L33.0947389,77.9206736 C33.3328305,77.9206736 33.5709222,77.9206736 33.8090138,77.9206736 C34.2851971,77.9206736 34.9994721,77.6816532 35.4756554,77.4426327 C36.1899303,76.9645918 36.6661136,76.2475303 36.9042052,75.5304689 L39.5232134,62.8623839 C53.5706205,54.257647 61.1895532,26.5312723 61.1895532,10.9949417 C61.1895532,9.32179838 59.7610033,8.12669602 58.3324535,8.12669602 L54.0468038,8.12669602 L54.0468038,7.88767555 C54.0468038,3.58530707 50.4754291,0 46.1897795,0 C41.9041298,0 38.3327551,3.58530707 38.3327551,7.88767555 L38.3327551,15.5363306 C38.3327551,19.8386991 41.9041298,23.4240062 46.1897795,23.4240062 C50.4754291,23.4240062 54.0468038,19.8386991 54.0468038,15.5363306 L54.0468038,14.5802487 L55.2372621,14.5802487 C54.2848955,30.8336408 45.4755045,56.6478517 33.0947389,59.7551178 C33.0947389,59.7551178 33.0947389,59.7551178 33.0947389,59.7551178 C32.8566473,59.7551178 32.380464,59.9941383 32.1423723,59.9941383 C32.1423723,59.9941383 31.9042807,59.9941383 31.9042807,59.9941383 C31.4280974,59.9941383 31.1900057,59.9941383 30.7138224,59.9941383 C30.2376391,59.9941383 29.9995475,59.9941383 29.5233642,59.9941383 C29.5233642,59.9941383 29.2852726,59.9941383 29.2852726,59.9941383 C29.0471809,59.9941383 28.5709976,59.9941383 28.332906,59.7551178 C28.332906,59.7551178 28.332906,59.7551178 28.332906,59.7551178 C15.9521403,56.6478517 7.38084105,31.0726613 6.19038282,14.5802487 L7.38084105,14.5802487 L7.38084105,15.2973102 C7.38084105,19.5996786 10.9522158,23.1849857 15.2378654,23.1849857 C19.523515,23.1849857 23.0948897,19.5996786 23.0948897,15.2973102 L23.0948897,7.88767555 C23.0948897,3.58530707 19.523515,0 15.2378654,0 C10.9522158,0 7.38084105,3.58530707 7.38084105,7.88767555 L7.38084105,8.60473697 L2.85709976,8.60473697 C1.19045823,8.60473697 0,10.0388598 0,11.4729826 C0,26.5312723 7.38084105,53.5405856 20.7139733,62.6233635 L18.3330568,71.4671209 C18.0949652,72.1841823 18.3330568,73.1402642 18.5711484,73.8573256 C19.0473317,74.574387 19.7616067,75.052428 20.4758816,75.2914485 L23.0948897,76.0085099 C21.4282482,85.5693287 23.0948897,94.4130862 27.8567227,100.388598 C32.1423723,105.886069 38.3327551,108.754314 45.9516878,108.754314 C53.5706205,108.754314 60.2371866,105.886069 64.7609279,100.388598 C69.9989442,93.9350452 72.141769,84.6132468 70.7132191,74.0963461 C74.5226854,71.9451619 77.3797852,67.8818138 77.3797852,63.1014044 C77.1416936,56.1698108 71.6655857,50.4333194 64.7609279,50.4333194 Z M47.856421,15.2973102 C47.856421,16.253392 46.9040544,17.2094739 45.9516878,17.2094739 C44.9993212,17.2094739 44.0469547,16.253392 44.0469547,15.2973102 L44.0469547,7.88767555 C44.0469547,6.93159367 44.9993212,5.97551178 45.9516878,5.97551178 C46.9040544,5.97551178 47.856421,6.93159367 47.856421,7.88767555 L47.856421,15.2973102 Z M13.0950406,7.88767555 C13.0950406,6.93159367 14.0474072,5.97551178 14.9997737,5.97551178 C15.9521403,5.97551178 16.9045069,6.93159367 16.9045069,7.88767555 L16.9045069,15.5363306 C16.9045069,16.4924125 15.9521403,17.4484944 14.9997737,17.4484944 C14.0474072,17.4484944 13.0950406,16.4924125 13.0950406,15.5363306 L13.0950406,7.88767555 Z M27.618631,65.7306296 C27.8567227,65.7306296 28.0948143,65.7306296 28.332906,65.9696501 C29.0471809,65.9696501 29.7614558,66.2086705 30.4757308,66.2086705 C31.1900057,66.2086705 31.9042807,66.2086705 32.6185556,65.9696501 C32.6185556,65.9696501 32.8566473,65.9696501 32.8566473,65.9696501 L31.666189,71.9451619 L27.3805394,70.98908 C27.3805394,70.98908 27.3805394,70.98908 27.3805394,70.98908 C27.3805394,70.98908 27.3805394,70.98908 27.3805394,70.98908 L24.9996229,70.511039 L26.1900811,65.7306296 C26.4281728,65.7306296 26.4281728,65.7306296 26.6662644,65.7306296 C26.9043561,65.7306296 27.3805394,65.7306296 27.618631,65.7306296 Z M64.7609279,69.5549571 C61.1895532,69.5549571 58.3324535,66.6867115 58.3324535,63.1014044 C58.3324535,59.5160974 61.1895532,56.6478517 64.7609279,56.6478517 C68.3323026,56.6478517 71.1894024,59.5160974 71.1894024,63.1014044 C71.1894024,66.6867115 68.3323026,69.5549571 64.7609279,69.5549571 Z" id="Shape"></path>
                </g>
                <g id="biology" transform="translate(79.000000, 0.000000)">
                    <path d="M95.7714844,43.4765625 L91.2125977,43.4765625 C90.2294531,39.3368555 88.5742676,35.3431641 86.3372754,31.7138965 L89.2733789,28.777998 C92.8712695,25.1799023 92.8712695,19.325127 89.2731738,15.7270312 C85.674873,12.1287305 79.8198926,12.1289355 76.222002,15.7270312 L73.2861035,18.6629297 C69.6568359,16.4259375 65.6631445,14.7705469 61.5234375,13.7874023 L61.5234375,9.22851562 C61.5234375,4.13991211 57.3835254,0 52.2949219,0 C47.2063184,0 43.0664062,4.13991211 43.0664062,9.22851562 L43.0664062,13.7874023 C38.9266992,14.7703418 34.9330078,16.4257324 31.3039453,18.6627246 L28.3680469,15.7268262 C24.7697461,12.1285254 18.9149707,12.1287305 15.3166699,15.7268262 C11.7187793,19.3249219 11.7187793,25.1796973 15.316875,28.777793 L18.2527734,31.7136914 C16.0157812,35.3431641 14.3603906,39.3368555 13.3772461,43.4765625 L9.22851562,43.4765625 C4.13991211,43.4765625 0,47.6164746 0,52.7050781 C0,57.7936816 4.13991211,61.9335938 9.22851562,61.9335938 L13.3772461,61.9335938 C14.3603906,66.0733008 16.0155762,70.0669922 18.2525684,73.6962598 L15.3164648,76.6321582 C11.7185742,80.2302539 11.7185742,86.0850293 15.3166699,89.683125 C18.9149707,93.2814258 24.7699512,93.2812207 28.3678418,89.683125 L31.3037402,86.7472266 C34.9328027,88.9842187 38.9266992,90.6396094 43.0662012,91.6225488 L43.0662012,95.7714844 C43.0662012,100.860088 47.2061133,105 52.2947168,105 C57.3833203,105 61.5232324,100.860088 61.5232324,95.7714844 L61.5232324,91.6227539 C65.6629395,90.6398145 69.6566309,88.9844238 73.2856934,86.7474316 L76.2215918,89.6833301 C79.8198926,93.2816309 85.674668,93.2814258 89.2729688,89.6833301 C92.8708594,86.0852344 92.8708594,80.230459 89.2727637,76.6323633 L86.3368652,73.6964648 C88.5738574,70.0671973 90.229043,66.0735059 91.2121875,61.9337988 L95.7714844,61.9337988 C100.860088,61.9337988 105,57.7938867 105,52.7052832 C105,47.6166797 100.860088,43.4765625 95.7714844,43.4765625 Z M95.7714844,55.78125 L89.2089844,55.78125 C89.1232617,55.78125 89.0367188,55.7777637 88.9520215,55.770791 C87.3624609,55.6409766 85.9314258,56.7529102 85.6679004,58.3295508 C84.8305664,63.3377637 82.8249023,68.1774023 79.8674707,72.3253125 C78.9396973,73.6267383 79.1628223,75.4219922 80.3816016,76.4562012 C80.4468164,76.5117773 80.5110059,76.5708398 80.5723242,76.6319531 L84.9226465,80.9822754 C86.1221484,82.1817773 86.1221484,84.1333008 84.9228516,85.3328027 C83.7231445,86.5323047 81.7720313,86.5318945 80.5723242,85.3328027 L76.2205664,80.9810449 C76.1606836,80.9211621 76.1022363,80.8575879 76.0468652,80.792373 C75.0124512,79.5729785 73.216582,79.3496484 71.9151563,80.277627 C67.767041,83.2350586 62.9274023,85.2409277 57.9193945,86.0780566 C56.3427539,86.341582 55.2310254,87.7687207 55.3606348,89.3619727 C55.3674023,89.4472852 55.3710938,89.5338281 55.3710938,89.6191406 L55.3710938,95.7714844 C55.3710938,97.4676855 53.991123,98.8476562 52.2949219,98.8476562 C50.5987207,98.8476562 49.21875,97.4676855 49.21875,95.7714844 L49.21875,89.6191406 C49.21875,89.5338281 49.2224414,89.4472852 49.229209,89.3619727 C49.3590234,87.7687207 48.2470898,86.341582 46.6704492,86.0780566 C41.6624414,85.2407227 36.8225977,83.2350586 32.6746875,80.277627 C31.3724414,79.3492383 29.5771875,79.5735937 28.5429785,80.792373 C28.4876074,80.8575879 28.4291602,80.920957 28.3678418,80.9824805 L24.0175195,85.3328027 C22.8180176,86.5320996 20.8662891,86.5323047 19.6671973,85.3328027 C18.4676953,84.1333008 18.4676953,82.1817773 19.6669922,80.9824805 L24.0175195,76.6321582 C24.0788379,76.5710449 24.1428223,76.5117773 24.2082422,76.4564062 C25.4268164,75.4219922 25.6501465,73.6269434 24.722373,72.3255176 C21.7649414,68.1776074 19.7592773,63.3379687 18.9219434,58.3297559 C18.658418,56.7533203 17.2310742,55.6403613 15.6378223,55.7709961 C15.553125,55.7777637 15.466582,55.78125 15.3808594,55.78125 L9.22851563,55.78125 C7.53231445,55.78125 6.15234375,54.4012793 6.15234375,52.7050781 C6.15234375,51.008877 7.53231445,49.6289062 9.22851563,49.6289062 L15.3808594,49.6289062 C15.466582,49.6289062 15.553125,49.6323926 15.6378223,49.6393652 C17.2292285,49.7695898 18.658418,48.6572461 18.9219434,47.0806055 C19.7592773,42.0723926 21.7649414,37.2327539 24.722373,33.0848437 C25.6501465,31.783418 25.4270215,29.9881641 24.2082422,28.9539551 C24.1430273,28.8983789 24.0788379,28.8393164 24.0175195,28.7782031 L19.6671973,24.4278809 C18.4676953,23.2283789 18.4676953,21.2768555 19.6669922,20.0773535 C20.8669043,18.8778516 22.8180176,18.8782617 24.0175195,20.0773535 L28.3692773,24.4291113 C28.4291602,24.4889941 28.4876074,24.5525684 28.5429785,24.6177832 C29.5775977,25.8371777 31.3736719,26.0605078 32.6746875,25.1325293 C36.8228027,22.1750977 41.6624414,20.1692285 46.6704492,19.3320996 C48.2470898,19.0685742 49.3588184,17.6414355 49.229209,16.0481836 C49.2224414,15.9628711 49.21875,15.8763281 49.21875,15.7910156 L49.21875,9.22851562 C49.21875,7.53231445 50.5987207,6.15234375 52.2949219,6.15234375 C53.991123,6.15234375 55.3710938,7.53231445 55.3710938,9.22851562 L55.3710938,15.7910156 C55.3710938,15.8763281 55.3674023,15.9628711 55.3606348,16.0481836 C55.2308203,17.6414355 56.3427539,19.0685742 57.9193945,19.3320996 C62.9274023,20.1694336 67.7672461,22.1750977 71.9151563,25.1325293 C73.2171973,26.0605078 75.0126563,25.8369727 76.0468652,24.6177832 C76.1022363,24.5525684 76.1606836,24.4891992 76.222002,24.4276758 L80.5723242,20.0773535 C81.7720313,18.8780566 83.7237598,18.8778516 84.9226465,20.0773535 C86.1221484,21.2768555 86.1221484,23.2283789 84.9228516,24.4276758 L80.5723242,28.777998 C80.5110059,28.8391113 80.4470215,28.8983789 80.3816016,28.95375 C79.1630273,29.9881641 78.9396973,31.7832129 79.8674707,33.0846387 C82.8249023,37.2325488 84.8305664,42.0721875 85.6679004,47.0804004 C85.9312207,48.6568359 87.3552832,49.7685645 88.9520215,49.6391602 C89.0367188,49.6323926 89.1232617,49.6289062 89.2089844,49.6289062 L95.7714844,49.6289062 C97.4676855,49.6289062 98.8476563,51.008877 98.8476563,52.7050781 C98.8476563,54.4012793 97.4676855,55.78125 95.7714844,55.78125 Z" id="Shape"></path>
                    <path d="M39.1071429,30 C34.0854643,30 30,34.0854643 30,39.1071429 C30,44.1288214 34.0854643,48.2142857 39.1071429,48.2142857 C44.1288214,48.2142857 48.2142857,44.1288214 48.2142857,39.1071429 C48.2142857,34.0854643 44.1288214,30 39.1071429,30 Z M39.1071429,42.1428571 C37.43325,42.1428571 36.0714286,40.7810357 36.0714286,39.1071429 C36.0714286,37.43325 37.43325,36.0714286 39.1071429,36.0714286 C40.7810357,36.0714286 42.1428571,37.43325 42.1428571,39.1071429 C42.1428571,40.7810357 40.7810357,42.1428571 39.1071429,42.1428571 Z" id="Shape"></path>
                    <circle id="Oval" cx="51.9642857" cy="27.3214286" r="2.67857143"></circle>
                    <circle id="Oval" cx="32.6785714" cy="71.25" r="2.67857143"></circle>
                    <circle id="Oval" cx="71.25" cy="71.25" r="2.67857143"></circle>
                    <path d="M77.6903317,40.1282045 L70.232897,32.6727487 C66.6722592,29.1128521 60.9058066,29.1034829 57.3305,32.678248 L57.3162387,32.6925056 C53.7519337,36.255661 53.7515262,42.0226203 57.3162387,45.5861831 L64.7736734,53.0416389 C68.3381821,56.6054054 74.1083019,56.603165 77.6650688,53.0469346 L77.6850346,53.0271777 C77.6868682,53.0253446 77.6887018,53.0235115 77.6903317,53.0218821 C81.2460799,49.4670774 81.2460799,43.6830092 77.6903317,40.1282045 Z M73.370993,48.699005 L73.3489899,48.7210023 C72.176304,49.893377 70.2683465,49.893377 69.0956606,48.7210023 L61.6382259,41.2655465 C60.46554,40.0931718 60.46554,38.1857206 61.6437267,37.0078465 L61.6577842,36.993589 C62.8304701,35.8212143 64.7386314,35.8212143 65.9113172,36.993589 L73.3687519,44.4490448 C74.5406229,45.6206048 74.5412341,47.5264266 73.370993,48.699005 Z" id="Shape"></path>
                    <path d="M51.9642857,54.6428571 C46.9426071,54.6428571 42.8571429,58.7884018 42.8571429,63.8839286 L42.8571429,70.0446429 C42.8571429,75.1401696 46.9426071,79.2857143 51.9642857,79.2857143 C56.9859643,79.2857143 61.0714286,75.1401696 61.0714286,70.0446429 L61.0714286,63.8839286 C61.0714286,58.7884018 56.9859643,54.6428571 51.9642857,54.6428571 Z M55,70.0446429 C55,71.7431518 53.6381786,73.125 51.9642857,73.125 C50.2903929,73.125 48.9285714,71.7431518 48.9285714,70.0446429 L48.9285714,63.8839286 C48.9285714,62.1854196 50.2903929,60.8035714 51.9642857,60.8035714 C53.6381786,60.8035714 55,62.1854196 55,63.8839286 L55,70.0446429 Z" id="Shape"></path>
                    <path d="M35.5655625,57.1129461 L29.6727054,51.2200153 C28.5222232,50.0695187 26.6565446,50.0695187 25.5058661,51.2200153 C24.3551875,52.3707082 24.3551875,54.2362137 25.5058661,55.3869066 L31.3987232,61.2798374 C32.5494018,62.4305304 34.4148839,62.4305304 35.5655625,61.2798374 C36.7162411,60.1291445 36.7162411,58.263639 35.5655625,57.1129461 Z" id="Shape"></path>
                </g>
                <g id="cardiogram" transform="translate(354.000000, 136.000000)">
                    <path d="M102.665197,55.2567903 L100.732612,55.2567903 C103.812412,50.3972287 105.520688,45.1244037 105.520688,38.6662208 C105.520688,22.2862401 94.6743449,8.57731959 79.4739877,8.57731959 C71.3220388,8.57731959 64.2548582,12.7800219 59.0365535,20.7310491 C58.0312799,22.2628842 57.1886354,23.791631 56.4915716,25.2155659 C55.7946994,23.791631 54.9518634,22.2628842 53.9465898,20.7310491 C48.7280935,12.7800219 41.6611045,8.57731959 33.508964,8.57731959 C18.2011452,8.57731959 7.46226415,22.4134426 7.46226415,38.6662208 C7.46226415,45.1244037 9.1703481,50.3972287 12.2505309,55.2567903 L10.3524257,55.2567903 C8.76578678,55.2567903 7.47969553,56.5529436 7.47969553,58.1515649 C7.47969553,59.7501862 8.76597833,61.0463395 10.3524257,61.0463395 L16.6798261,61.0463395 C21.1300006,66.0400524 27.0047597,70.9193024 33.8924545,76.6380119 C40.0037823,81.7122157 46.9307456,87.4637393 54.5268058,94.6397768 C55.0794381,95.1619056 55.7853133,95.4226804 56.4915716,95.4226804 C57.1976384,95.4226804 57.9038967,95.1615195 58.4563375,94.6397768 C66.0522061,87.4641253 72.9791694,81.7126018 79.0904973,76.638205 C85.9781921,70.9193024 91.8531427,66.0404385 96.3033172,61.0463395 L102.665006,61.0463395 C104.251645,61.0463395 105.537736,59.7501862 105.537736,58.1515649 C105.537736,56.5529436 104.251645,55.2567903 102.665197,55.2567903 Z M75.8436838,72.2363353 C70.1835983,76.9724998 63.8335112,82.2858273 56.8659533,88.7988817 C49.8983953,82.2858273 43.5481163,76.972305 37.8880308,72.2361404 C32.9214008,68.0802563 28.5983373,64.4627588 25.0280203,61.0071864 L39.6170643,61.0071864 C40.8556517,61.0071864 41.9553178,60.2022371 42.3469455,59.0089403 L45.3723224,49.7920671 L54.1531494,76.5428429 C54.544969,77.7361397 55.6446351,78.5410889 56.8830306,78.5410889 C58.1214261,78.5410889 59.2212841,77.7361397 59.6131037,76.5428429 L68.3939306,49.7920671 L71.4193075,59.0089403 C71.8111271,60.2022371 72.9107932,60.9877008 74.1493807,60.9877008 L88.7038862,60.9877008 C85.1429714,64.434115 80.819716,68.072657 75.8436838,72.2363353 Z M93.5577032,55.555403 L75.7794234,55.555403 L70.7005701,40.0903518 C70.3103301,38.9024782 69.2150973,38.1011872 67.9815031,38.1011872 C66.747909,38.1011872 65.6526761,38.9022842 65.2626272,40.0903518 L56.5171996,66.7195527 L47.771772,40.0903518 C47.381532,38.9024782 46.2862991,38.1011872 45.0528961,38.1011872 C43.819302,38.1011872 42.7240691,38.9022842 42.3340202,40.0903518 L37.2551669,55.555403 L19.4422968,55.555403 C15.4798892,50.5271131 13.3175162,45.3812773 13.3175162,38.8834691 C13.3175162,24.9628087 22.0247225,14.4651407 33.5712019,14.4651407 C39.7328661,14.4651407 44.9569605,17.654205 49.0974796,23.9440771 C52.3803115,28.9302755 53.7115612,34.0487615 53.7247476,34.0997756 C54.0505846,35.3830826 55.1903454,36.2784491 56.4959868,36.2805828 C56.4977067,36.2805828 56.4992356,36.2805828 56.5005733,36.2805828 C57.8060236,36.2805828 58.9476954,35.3826946 59.2752524,34.0997756 C59.2882476,34.0485675 60.6196885,28.9304694 63.9025204,23.9440771 C68.0430395,17.6543989 73.2669428,14.4651407 79.4287981,14.4651407 C90.9752775,14.4651407 99.6824838,24.9628087 99.6824838,38.8834691 C99.6824838,45.3814713 97.5201108,50.5271131 93.5577032,55.555403 Z" id="Shape" transform="translate(56.500000, 52.000000) rotate(-10.000000) translate(-56.500000, -52.000000) "></path>
                </g>
            </g>
            <g id="Doc" transform="translate(179.000000, 45.000000)">
                <polygon id="Fill-3" fill="#0A0709" points="26.4489796 95.3030759 73.5425801 95.3030759 73.5425801 30.8100358 26.4489796 30.8100358"></polygon>
                <path d="M29.755102,298.319642 L47.5965438,288.169442 L47.5965438,215.184673 C47.5965438,205.122079 43.6028685,196.964158 38.6758229,196.964158 C33.7487773,196.964158 29.755102,205.122079 29.755102,215.184673 L29.755102,298.319642" id="Fill-4" fill="#69443D"></path>
                <path d="M51.7816022,280.153689 L48.3869783,276.613203 C47.8196948,276.021108 46.9286817,276.054337 46.4067809,276.687215 L31.7058202,294.513503 L23.5187858,294.513503 C20.2663609,294.513503 17.6326531,297.476999 17.6326531,301.130768 L17.6326531,304.394843 C17.6326531,305.631899 18.525179,306.636346 19.6249524,306.636346 L33.2079867,306.636346 C34.9975768,307.180106 36.9898761,306.619731 38.3377415,304.983917 L48.1872945,293.042328 L48.1872945,305.50049 C48.1872945,306.127325 48.6970932,306.636346 49.3248868,306.636346 L52.2021484,306.636346 C52.8314548,306.636346 53.3412535,306.127325 53.3412535,305.50049 L53.3412535,285.465929 C53.6513684,283.576361 53.1279549,281.555383 51.7816022,280.153689" id="Fill-5" fill="#FFFFFE"></path>
                <polyline id="Fill-6" fill="#69443D" points="77.1686024 298.281202 59.5102041 283.397263 59.5102041 149.648746 77.1686024 149.648746 77.1686024 298.281202"></polyline>
                <path d="M48.0277041,81.7444989 C48.0277041,72.4537431 40.4820782,64.921147 31.1771173,64.921147 C21.8721565,64.921147 14.3265306,72.4537431 14.3265306,81.7444989 C14.3265306,91.0367651 21.8721565,98.5693612 31.1771173,98.5693612 C40.4820782,98.5693612 48.0277041,91.0367651 48.0277041,81.7444989" id="Fill-7" fill="#0A0709"></path>
                <path d="M55.6287293,280.153475 L58.9885599,276.614499 C59.551305,276.020893 60.4332417,276.054123 60.9506041,276.687 L75.5018021,294.513288 L83.6056348,294.513288 C86.8232664,294.513288 89.4312574,297.476784 89.4312574,301.130554 L89.4312574,304.394629 C89.4312574,305.631684 88.547808,306.636131 87.4571111,306.636131 L74.0147631,306.636131 C72.2433261,307.179892 70.2706926,306.619516 68.9349292,304.983703 L59.1882436,293.042114 L59.1882436,305.622622 C59.1882436,306.182997 58.7329042,306.636131 58.1731845,306.636131 L55.1022903,306.636131 C54.5395451,306.636131 54.0857184,306.182997 54.0857184,305.622622 L54.0857184,285.465714 C53.7786289,283.576146 54.2975042,281.555169 55.6287293,280.153475" id="Fill-8" fill="#FFFFFE"></path>
                <path d="M102.956447,136.555047 L103.422376,136.26051 C106.168027,134.526517 106.993992,130.865195 105.257348,128.123735 L82.9926088,92.9696057 C81.2574779,90.2281455 77.5890451,89.4034418 74.8433933,91.1374343 L74.3774646,91.4319713 C71.6318128,93.1659638 70.8058481,96.8272858 72.540979,99.5702565 L94.8057187,134.722875 C96.5408496,137.464336 100.209282,138.289039 102.956447,136.555047" id="Fill-9" fill="#69443D"></path>
                <path d="M75.6319213,172.219013 L76.1054139,172.499956 C78.9040121,174.149364 82.5452153,173.215908 84.1986573,170.423093 L105.38934,134.61645 C107.042783,131.822125 106.107899,128.187991 103.309301,126.537073 L102.835809,126.25613 C100.03721,124.606722 96.3960073,125.540178 94.7425652,128.332993 L73.5518821,164.139636 C71.89844,166.933961 72.8348358,170.568095 75.6319213,172.219013" id="Fill-10" fill="#69443D"></path>
                <polygon id="Fill-11" fill="#2182A3" points="40.7755102 146.186152 63.6014823 146.186152 63.6014823 84.7275986 40.7755102 84.7275986"></polygon>
                <polygon id="Fill-12" fill="#071621" points="40.7755102 219.351322 63.5999695 219.351322 63.5999695 145.247312 40.7755102 145.247312"></polygon>
                <path d="M3.21137221,136.555047 L2.74544342,136.26051 C-0.00172109092,134.526517 -0.827685752,130.865195 0.91047065,128.123735 L23.1736976,92.9696057 C24.9103412,90.2281455 28.5772613,89.4034418 31.322913,91.1374343 L31.7903546,91.4319713 C34.5360063,93.1659638 35.361971,96.8272858 33.6253273,99.5702565 L11.3621004,134.722875 C9.62545675,137.464336 5.95853672,138.289039 3.21137221,136.555047" id="Fill-13" fill="#69443D"></path>
                <path d="M31.6786059,172.219013 L31.2036006,172.499956 C28.4065151,174.149364 24.7653119,173.215908 23.1118699,170.423093 L1.91816125,134.61645 C0.266231933,131.822125 1.20262777,128.187991 3.99971322,126.537073 L4.47471854,126.25613 C7.27331675,124.606722 10.9130072,125.540178 12.5664493,128.332993 L33.7586451,164.139636 C35.4120872,166.933961 34.4756913,170.568095 31.6786059,172.219013" id="Fill-14" fill="#69443D"></path>
                <path d="M37.7598724,84.7275986 C31.3382241,84.7275986 26.1328314,89.9250446 26.1328314,96.3368895 L26.1328314,132.981829 C26.1328314,141.068759 25.4793209,148.859642 21.5612834,155.668734 C17.679552,162.415898 15.4285714,170.436369 15.4285714,179.042892 L20.0016322,236.846165 L43.4553979,236.846165 L43.4553979,84.7275986 L37.7598724,84.7275986" id="Fill-15" fill="#FFFFFE"></path>
                <path d="M93.9609427,89.2740599 C93.9609427,80.6856618 86.990164,73.7240143 78.3886346,73.7240143 C69.788618,73.7240143 62.8163265,80.6856618 62.8163265,89.2740599 C62.8163265,97.8609477 69.788618,104.822595 78.3886346,104.822595 C86.990164,104.822595 93.9609427,97.8609477 93.9609427,89.2740599" id="Fill-16" fill="#0A0709"></path>
                <path d="M90.8529877,179.042892 C90.8529877,170.227927 88.4930887,162.026203 84.4373904,155.177839 C80.3529498,148.281141 79.5950591,140.334682 79.5950591,132.072541 L79.5950591,96.3368895 C79.5950591,89.9250446 74.3881537,84.7275986 67.9665054,84.7275986 L61.7142857,84.7275986 L61.7142857,236.846165 L84.7006099,236.846165 L90.8529877,179.042892" id="Fill-17" fill="#FFFFFE"></path>
                <polygon id="Fill-18" fill="#A7A9A6" points="40.7755102 236.846165 43.6754631 236.846165 43.6754631 84.7275986 40.7755102 84.7275986"></polygon>
                <polygon id="Fill-19" fill="#A7A9A6" points="61.7142857 236.846165 64.6142386 236.846165 64.6142386 84.7275986 61.7142857 84.7275986"></polygon>
                <path d="M21.0702418,140.633751 L10.1254537,149.531791 L1.185067,134.962025 C-0.436607208,132.318743 -0.391224534,128.980657 1.30457471,126.382689 L23.2032275,92.8235912 C26.0925911,88.3964729 30.7987743,85.47678 36.0556007,84.8514552 L37.0963767,84.7275986 L37.0963767,97.3685244 L15.5925531,131.108876 L21.0702418,140.633751" id="Fill-20" fill="#FFFFFE"></path>
                <path d="M86.5582598,141.391995 L97.5015352,150.290035 L106.441922,135.721779 C108.065109,133.078498 108.018213,129.738901 106.322414,127.142444 L84.4252742,93.5833458 C81.5359106,89.1562274 75.493964,85.9918422 72.1689268,85.1913056 L70.5306122,84.7275986 L70.5306122,98.128279 L92.0359485,131.86863 L86.5582598,141.391995" id="Fill-21" fill="#FFFFFE"></path>
                <path d="M73.3806584,120.261557 C73.3806584,117.045817 70.7681291,114.437276 67.5459593,114.437276 C64.326815,114.437276 61.7142857,117.045817 61.7142857,120.261557 C61.7142857,123.478808 64.326815,126.085839 67.5459593,126.085839 C70.7681291,126.085839 73.3806584,123.478808 73.3806584,120.261557" id="Fill-22" fill="#6F7978"></path>
                <path d="M69.9406481,119.643781 C69.9406481,117.983801 68.5927827,116.637993 66.9287514,116.637993 C65.2677455,116.637993 63.9183673,117.983801 63.9183673,119.643781 C63.9183673,121.303762 65.2677455,122.65108 66.9287514,122.65108 C68.5927827,122.65108 69.9406481,121.303762 69.9406481,119.643781" id="Fill-23" fill="#B3B6B2"></path>
                <path d="M42.3790491,134.698418 C40.7830917,134.394818 36.0602682,133.1487 33.40992,131.064284 C30.8004163,129.011587 29.9517603,111.130923 29.755102,105.700868 L31.5583069,105.634409 C31.9485979,116.3329 33.1935959,128.553922 34.5278466,129.647485 C36.8832073,131.499293 41.3412986,132.663847 42.7179064,132.926664 L42.3790491,134.698418" id="Fill-24" fill="#6B7374"></path>
                <path d="M30.585605,136.132585 L29.755102,134.528491 C29.8004847,134.505834 34.2041168,132.22506 36.1328804,130.586226 C37.2856004,129.51532 40.4986937,117.617533 42.9387687,106.734767 L44.6996165,107.128994 C43.4969756,112.503162 39.4034585,130.175385 37.3052662,131.959222 C35.2176632,133.733996 30.7731867,136.034406 30.585605,136.132585" id="Fill-25" fill="#6B7374"></path>
                <path d="M44.2104968,108.840823 L43.8035655,108.79551 C42.8323763,108.571964 42.2242484,107.603768 42.449649,106.632551 C42.8868355,104.73543 42.5313379,102.782423 41.470896,101.273487 C40.7114926,100.192007 39.6858442,99.4760556 38.7222188,99.3597512 C37.7253127,99.2585513 36.4999805,99.7283001 35.4955107,100.64061 C34.0901605,101.916937 33.3171423,103.791401 33.3700888,105.78519 C33.3973184,106.780574 32.6121981,107.609809 31.6152921,107.638508 C30.6320008,107.643039 29.7878831,106.881774 29.7591407,105.88488 C29.6759392,102.838309 30.8816055,99.9563775 33.0675376,97.9731614 C34.8798191,96.3252644 37.1005446,95.5171756 39.160918,95.7799933 C41.1517046,96.0231751 43.0729044,97.2692934 44.4283336,99.2041752 C46.0757247,101.549898 46.6369571,104.552666 45.9698318,107.44366 C45.776199,108.277427 45.0334359,108.840823 44.2104968,108.840823" id="Fill-26" fill="#071621"></path>
                <path d="M45.4900118,133.846484 C45.4900118,132.8511 44.6822003,132.043011 43.6837814,132.043011 C42.6853626,132.043011 41.877551,132.8511 41.877551,133.846484 C41.877551,134.841868 42.6853626,135.649957 43.6837814,135.649957 C44.6822003,135.649957 45.4900118,134.841868 45.4900118,133.846484" id="Fill-27" fill="#639BC7"></path>
                <path d="M30.8609301,135.897666 C30.8609301,134.983846 30.1211925,134.243728 29.2059752,134.243728 C28.2922707,134.243728 27.5510204,134.983846 27.5510204,135.897666 C27.5510204,136.809976 28.2922707,137.550095 29.2059752,137.550095 C30.1211925,137.550095 30.8609301,136.809976 30.8609301,135.897666" id="Fill-28" fill="#639BC7"></path>
                <path d="M67.8649127,118.568942 L67.7711218,118.564411 C67.1191241,118.513056 66.6335295,117.943618 66.6864759,117.294126 C68.191668,98.5222978 66.9799506,87.8978179 62.8728186,83.8558634 C60.0182484,81.0464331 55.7310985,81.4527432 50.7677468,81.922492 C49.8147106,82.0116083 48.8420087,82.1037456 47.8587174,82.176247 C44.9678411,82.386199 42.7335008,83.4737204 41.220745,85.4101127 C37.6566924,89.9716608 38.9773282,97.8229612 38.990943,97.9015044 C39.1028869,98.5434441 38.6732642,99.1551749 38.0318558,99.2669479 C37.3843963,99.3817418 36.7762685,98.9512646 36.6628118,98.3108353 C36.5977633,97.9483282 35.1409795,89.3614405 39.3524916,83.966126 C41.2933573,81.4769103 44.0964937,80.0827683 47.6862632,79.8214611 C48.6529142,79.7519805 49.6074631,79.6613537 50.5438589,79.5722374 C55.864221,79.0677483 60.8895958,78.5919577 64.5323117,82.1747365 C69.238495,86.8057652 70.6287175,97.6960837 69.0433495,117.482931 C68.9919158,118.100704 68.476066,118.568942 67.8649127,118.568942" id="Fill-29" fill="#071621"></path>
                <path d="M52.3745563,91.5170835 L51.9146786,91.5170835 C48.8180675,91.5170835 46.2857143,88.9885962 46.2857143,85.8967124 L46.2857143,72.7422348 C46.2857143,69.6503511 48.8180675,67.1218638 51.9146786,67.1218638 L52.3745563,67.1218638 C55.4711674,67.1218638 58.0050334,69.6503511 58.0050334,72.7422348 L58.0050334,85.8967124 C58.0050334,88.9885962 55.4711674,91.5170835 52.3745563,91.5170835" id="Fill-30" fill="#69443D"></path>
                <path d="M51.6341103,32.9307274 C51.6341103,23.2517869 43.7768568,15.4050179 34.0816049,15.4050179 C24.3878658,15.4050179 16.5306122,23.2517869 16.5306122,32.9307274 C16.5306122,42.6081574 24.3878658,50.4549264 34.0816049,50.4549264 C43.7768568,50.4549264 51.6341103,42.6081574 51.6341103,32.9307274" id="Fill-31" fill="#0A0709"></path>
                <path d="M46.2713946,57.7609131 C46.2713946,48.9535002 39.1190852,41.8136201 30.2982062,41.8136201 C21.4773272,41.8136201 14.3265306,48.9535002 14.3265306,57.7609131 C14.3265306,66.5698364 21.4773272,73.7097165 30.2982062,73.7097165 C39.1190852,73.7097165 46.2713946,66.5698364 46.2713946,57.7609131" id="Fill-32" fill="#0A0709"></path>
                <path d="M87.8010189,42.1821974 C87.8010189,32.2555437 79.7410561,24.2078853 69.7977123,24.2078853 C59.8558812,24.2078853 51.7959184,32.2555437 51.7959184,42.1821974 C51.7959184,52.108851 59.8558812,60.1565094 69.7977123,60.1565094 C79.7410561,60.1565094 87.8010189,52.108851 87.8010189,42.1821974" id="Fill-33" fill="#0A0709"></path>
                <path d="M91.1056286,65.2897242 C91.1056286,55.3630706 83.0456658,47.3154122 73.1053475,47.3154122 C63.1620037,47.3154122 55.1020408,55.3630706 55.1020408,65.2897242 C55.1020408,75.2163779 63.1620037,83.2640363 73.1053475,83.2640363 C83.0456658,83.2640363 91.1056286,75.2163779 91.1056286,65.2897242" id="Fill-34" fill="#0A0709"></path>
                <path d="M35.3084392,51.1882003 C35.3084392,47.8350093 32.583966,45.1146953 29.2256482,45.1146953 C25.8658176,45.1146953 23.1428571,47.8350093 23.1428571,51.1882003 C23.1428571,54.5429017 25.8658176,57.2617052 29.2256482,57.2617052 C32.583966,57.2617052 35.3084392,54.5429017 35.3084392,51.1882003" id="Fill-35" fill="#69443D"></path>
                <path d="M32.2655292,50.2192471 C32.2655292,48.0094641 30.469888,46.2150538 28.2552136,46.2150538 C26.0405391,46.2150538 24.244898,48.0094641 24.244898,50.2192471 C24.244898,52.4305407 26.0405391,54.2234405 28.2552136,54.2234405 C30.469888,54.2234405 32.2655292,52.4305407 32.2655292,50.2192471" id="Fill-36" fill="#4A332D"></path>
                <path d="M82.6961943,50.0878419 C82.6961943,46.7346509 79.9732339,44.0143369 76.6134033,44.0143369 C73.2550854,44.0143369 70.5306122,46.7346509 70.5306122,50.0878419 C70.5306122,53.4425433 73.2550854,56.1613468 76.6134033,56.1613468 C79.9732339,56.1613468 82.6961943,53.4425433 82.6961943,50.0878419" id="Fill-37" fill="#69443D"></path>
                <path d="M80.7553251,50.2192471 C80.7553251,48.0079536 78.9596839,46.2150538 76.7450095,46.2150538 C74.5318478,46.2150538 72.7346939,48.0079536 72.7346939,50.2192471 C72.7346939,52.4305407 74.5318478,54.2234405 76.7450095,54.2234405 C78.9596839,54.2234405 80.7553251,52.4305407 80.7553251,50.2192471" id="Fill-38" fill="#4A332D"></path>
                <path d="M28.6530612,53.0763115 L28.6530612,36.0263926 C28.6530612,22.814518 39.3784998,12.1039427 52.6120874,12.1039427 C65.8441623,12.1039427 76.5696008,22.814518 76.5696008,36.0263926 L76.5696008,53.0763115 C76.5696008,66.2881861 65.8441623,76.9987614 52.6120874,76.9987614 C39.3784998,76.9987614 28.6530612,66.2881861 28.6530612,53.0763115 Z" id="Fill-39" fill="#69443D"></path>
                <path d="M44.8032456,0 C34.666269,0 26.4489796,8.2047448 26.4489796,18.3247356 C26.4489796,28.4462369 34.666269,36.6509817 44.8032456,36.6509817 C54.9387094,36.6509817 63.1575116,28.4462369 63.1575116,18.3247356 C63.1575116,8.2047448 54.9387094,0 44.8032456,0 Z" id="Fill-41" fill="#0A0709"></path>
                <path d="M81.7620942,22.661213 C81.7620942,15.0077812 75.5476935,8.80286738 67.8810471,8.80286738 C60.2159135,8.80286738 54,15.0077812 54,22.661213 C54,30.3161553 60.2159135,36.5210691 67.8810471,36.5210691 C75.5476935,36.5210691 81.7620942,30.3161553 81.7620942,22.661213" id="Fill-42" fill="#0A0709"></path>
                <polyline id="Fill-55" fill="#E99F72" points="47.6691277 70.4229391 47.3877551 70.4229391 47.5874389 70.608724 47.6691277 70.4229391"></polyline>
                <polyline id="Fill-56" fill="#E99F72" points="58.4081633 70.439554 58.4338801 70.439554 58.4263163 70.4229391 58.4081633 70.439554"></polyline>
                <path d="M79.492925,56.7413405 C79.492925,55.7897593 78.7199068,55.0179211 77.7668707,55.0179211 C76.8138345,55.0179211 76.0408163,55.7897593 76.0408163,56.7413405 C76.0408163,57.6944322 76.8138345,58.4647598 77.7668707,58.4647598 C78.7199068,58.4647598 79.492925,57.6944322 79.492925,56.7413405" id="Fill-60" fill="#FFFFFE"></path>
                <path d="M28.7990475,56.7413405 C28.7990475,55.7897593 28.0260293,55.0179211 27.0714804,55.0179211 C26.119957,55.0179211 25.3469388,55.7897593 25.3469388,56.7413405 C25.3469388,57.6929217 26.119957,58.4647598 27.0714804,58.4647598 C28.0260293,58.4647598 28.7990475,57.6929217 28.7990475,56.7413405" id="Fill-61" fill="#FFFFFE"></path>
                <path d="M29.1575671,52.6586464 C28.2726049,52.6586464 27.5510204,51.9366531 27.5510204,51.0545524 L27.5510204,30.2134131 C27.5510204,29.3313124 28.2726049,28.609319 29.1575671,28.609319 C30.0425292,28.609319 30.7656265,29.3313124 30.7656265,30.2134131 L30.7656265,51.0545524 C30.7656265,51.9366531 30.0425292,52.6586464 29.1575671,52.6586464" id="Fill-62" fill="#0A0709"></path>
                <path d="M75.3736946,52.6586464 C74.5295768,52.6586464 73.8367347,51.9683724 73.8367347,51.1240329 L73.8367347,30.1439325 C73.8367347,29.299593 74.5295768,28.609319 75.3736946,28.609319 C76.2208378,28.609319 76.9121672,29.299593 76.9121672,30.1439325 L76.9121672,51.1240329 C76.9121672,51.9683724 76.2208378,52.6586464 75.3736946,52.6586464" id="Fill-63" fill="#0A0709"></path>
            </g>
        </g>
    </g>
</svg>