<?xml version="1.0" encoding="UTF-8"?>
<svg width="290px" height="412px" viewBox="0 0 290 412" version="1.1" xmlns="http://www.w3.org/2000/svg" xmlns:xlink="http://www.w3.org/1999/xlink">
    <!-- Generator: Sketch 48.1 (47250) - http://www.bohemiancoding.com/sketch -->
    <title>Weak</title>
    <desc>Created with Sketch.</desc>
    <defs></defs>
    <g id="Hábitos----1-/-5" stroke="none" stroke-width="1" fill="none" fill-rule="evenodd" transform="translate(-835.000000, -165.000000)">
        <g id="Arm" transform="translate(835.000000, 165.000000)" fill-rule="nonzero">
            <g id="Weak">
                <g id="Layer_1">
                    <path d="M283.325246,275.047903 L282.688989,274.082368 L283.665956,274.79799 L283.852951,259.559688 C284.509809,205.692881 268.890219,153.293813 255.67224,118.823372 C240.104153,78.218577 223.425191,50.1601715 221.785027,47.4389045 C221.437186,45.5046628 218.627514,32.5822144 205.054563,26.9786257 C189.897705,16.9273918 157.680765,0 132.539508,0 C121.822978,0 113.209344,3.0267154 106.934727,8.99366862 C85.7148087,29.1627797 82.2253005,42.7952963 83.035082,50.679037 C83.7608743,57.7765458 87.872377,61.7592749 89.9372404,63.3372924 L89.6028689,64.6844386 C88.6314481,68.6608207 89.6274317,76.8460429 107.180355,86.9980351 C115.078497,91.5678596 122.738934,93.7893021 130.603798,93.7893021 C141.275956,93.7893021 150.197814,89.5217524 157.439891,86.0586823 C158.604645,85.5009415 159.737705,84.960655 160.838279,84.4560702 C163.491066,83.2374503 165.999645,83.1279649 168.225355,84.168076 C172.624481,86.222117 195.019531,113.042969 195.019531,152.472656 L195.019531,241.136719 C182.128194,258.210091 80.1041803,258.376647 77.0496721,260.60999 C69.8757377,257.173101 29.5744536,266.019996 29.5744536,266.019996 C34.1629508,295.502505 49.3546721,348.956881 91.2153005,394.177517 L94.7159016,397.957142 L141.733934,371.773476 C143.220383,371.843292 246.01112,330.696624 252.055164,330.696624 C269.898087,330.696624 282.383142,323.131025 287.210929,309.393784 C292.526011,294.268934 288.031803,282.368349 283.325246,275.047903 Z" id="SVGCleanerId_0_1_" fill="#FCCC9A"></path>
                    <g id="Group" opacity="0.19" transform="translate(160.000000, 319.000000) rotate(-10.000000) translate(-160.000000, -319.000000) translate(101.000000, 306.000000)" fill="#202121">
                        <path d="M37.1310929,25.1399796 C19.7659563,25.1399796 7.04478142,23.3802311 5.84991803,23.209061 C2.3295082,22.7035587 0.122814208,20.4913606 0.923087432,18.2686521 C1.72256831,16.0459436 5.2215847,14.6560626 8.73882514,15.1560594 L8.73882514,15.1560594 C9.35685792,15.2441469 70.9620492,23.6845334 106.584508,1.48047103 C109.154098,-0.120119353 113.291749,-0.102601947 115.82806,1.52051081 C118.361995,3.14262257 118.334262,5.75722049 115.764672,7.35781087 C92.3642077,21.9433033 60.5331421,25.1399796 37.1310929,25.1399796 Z" id="Shape"></path>
                    </g>
                    <g id="Group" opacity="0.19" transform="translate(236.000000, 181.005848) rotate(-4.000000) translate(-236.000000, -181.005848) translate(229.000000, 119.005848)" fill="#202121">
                        <path d="M8.17338019,123.954111 C7.97500899,123.954111 7.77339246,123.920789 7.57137025,123.847006 C5.7523591,123.201201 4.54631089,119.79446 4.87774089,116.237772 C10.2272726,58.6936842 0.376864711,9.5617232 0.276664944,9.07300585 C-0.410129411,5.71783431 0.424733426,1.90806043 2.14070515,0.565674464 C3.85708253,-0.776711501 5.80428448,0.857635478 6.49067317,4.21360039 C6.92838794,6.35411891 17.1536322,57.3679591 11.4625288,118.5806 C11.1684202,121.739016 9.75953845,123.954111 8.17338019,123.954111 Z" id="Shape"></path>
                    </g>
                    <path d="M96.2126503,399.483758 L93.5028142,396.553041 C72.8518033,374.218817 56.357459,342.423628 44.480929,302.054464 C36.7808743,275.882698 33.2834426,253.645265 31.884153,242.722908 L31.6876503,241.199634 C31.2415574,237.715142 28.2805464,235.104154 24.7736066,235.104154 L7.35855191,235.104154 C3.50773224,235.104154 0.385874317,238.230041 0.385874317,242.08583 L0.385874317,404.225745 C0.385874317,408.079947 3.50773224,411.207421 7.35855191,411.207421 L91.0964481,411.207421 C93.8665027,411.207421 96.375082,409.564347 97.4835792,407.021589 C98.5944536,404.477244 98.0960656,401.518758 96.2126503,399.483758 Z" id="Shape" fill="#485D6D"></path>
                    <path d="M13.3296995,309.77953 C6.31344262,285.936312 2.42538251,265.022224 0.385874317,251.519821 L0.385874317,404.226538 C0.385874317,408.080741 3.50773224,411.208214 7.35855191,411.208214 L64.4600273,411.208214 C43.0800546,386.551789 25.889235,352.466928 13.3296995,309.77953 Z" id="Shape" fill="#202121" opacity="0.19"></path>
                </g>
            </g>
        </g>
    </g>
</svg>