<?xml version="1.0" encoding="UTF-8"?>
<svg width="290px" height="412px" viewBox="0 0 290 412" version="1.1" xmlns="http://www.w3.org/2000/svg" xmlns:xlink="http://www.w3.org/1999/xlink">
    <!-- Generator: Sketch 48.1 (47250) - http://www.bohemiancoding.com/sketch -->
    <title>strong</title>
    <desc>Created with Sketch.</desc>
    <defs></defs>
    <g id="Hábitos----1-/-5" stroke="none" stroke-width="1" fill="none" fill-rule="evenodd" transform="translate(-835.000000, -165.000000)">
        <g id="Arm" transform="translate(835.000000, 165.000000)" fill-rule="nonzero">
            <g id="strong">
                <g id="Layer_1">
                    <path d="M283.325246,275.047903 L282.688989,274.082368 L283.665956,274.79799 L283.852951,259.559688 C284.509809,205.692881 268.890219,153.293813 255.67224,118.823372 C240.104153,78.218577 223.425191,50.1601715 221.785027,47.4389045 C221.437186,45.5046628 218.627514,32.5822144 205.054563,26.9786257 C189.897705,16.9273918 157.680765,0 132.539508,0 C121.822978,0 113.209344,3.0267154 106.934727,8.99366862 C85.7148087,29.1627797 82.2253005,42.7952963 83.035082,50.679037 C83.7608743,57.7765458 87.872377,61.7592749 89.9372404,63.3372924 L89.6028689,64.6844386 C88.6314481,68.6608207 89.6274317,76.8460429 107.180355,86.9980351 C115.078497,91.5678596 122.738934,93.7893021 130.603798,93.7893021 C141.275956,93.7893021 150.197814,89.5217524 157.439891,86.0586823 C158.604645,85.5009415 159.737705,84.960655 160.838279,84.4560702 C163.491066,83.2374503 165.999645,83.1279649 168.225355,84.168076 C172.624481,86.222117 175.407213,92.3509181 176.350109,95.5561423 C175.335109,101.258903 160.998333,183.871969 172.451749,228.808577 C160.995956,223.71116 148.897568,221.057329 136.489372,221.057329 C128.663333,221.057329 120.593251,222.119655 112.50653,224.214158 C93.5154918,229.13386 80.1041803,238.376647 77.0496721,240.60999 C69.8757377,237.173101 61.559235,235.430062 52.3164754,235.430062 C47.0790437,235.430062 41.5318033,235.992563 35.8292623,237.101698 L28.4136612,238.542462 L29.5744536,246.019996 C34.1629508,275.502505 49.3546721,348.956881 91.2153005,394.177517 L94.7159016,397.957142 L99.5690437,396.248218 C110.456721,392.413057 120.302459,387.330713 128.828934,381.140029 L141.733934,371.773476 C143.220383,371.843292 145.368443,371.913109 148.036284,371.913109 C168.70235,371.913109 218.677432,367.750285 238.895027,329.382799 C241.049426,329.829468 246.01112,330.696624 252.055164,330.696624 C269.898087,330.696624 282.383142,323.131025 287.210929,309.393784 C292.526011,294.268934 288.031803,282.368349 283.325246,275.047903 Z" id="SVGCleanerId_0" fill="#FCCC9A"></path>
                    <path d="M283.325246,275.047903 L282.688989,274.082368 L283.665956,274.79799 L283.852951,259.559688 C284.509809,205.692881 268.890219,153.293813 255.67224,118.823372 C240.104153,78.218577 223.425191,50.1601715 221.785027,47.4389045 C221.437186,45.5046628 218.627514,32.5822144 205.054563,26.9786257 C189.897705,16.9273918 157.680765,0 132.539508,0 C121.822978,0 113.209344,3.0267154 106.934727,8.99366862 C85.7148087,29.1627797 82.2253005,42.7952963 83.035082,50.679037 C83.7608743,57.7765458 87.872377,61.7592749 89.9372404,63.3372924 L89.6028689,64.6844386 C88.6314481,68.6608207 89.6274317,76.8460429 107.180355,86.9980351 C115.078497,91.5678596 122.738934,93.7893021 130.603798,93.7893021 C141.275956,93.7893021 150.197814,89.5217524 157.439891,86.0586823 C158.604645,85.5009415 159.737705,84.960655 160.838279,84.4560702 C163.491066,83.2374503 165.999645,83.1279649 168.225355,84.168076 C172.624481,86.222117 175.407213,92.3509181 176.350109,95.5561423 C175.335109,101.258903 160.998333,183.871969 172.451749,228.808577 L172.48582,228.946624 C160.995956,223.71116 148.897568,221.057329 136.489372,221.057329 C128.663333,221.057329 120.593251,222.119655 112.50653,224.214158 C93.5154918,229.13386 80.1041803,238.376647 77.0496721,240.60999 C69.8757377,237.173101 61.559235,235.430062 52.3164754,235.430062 C47.0790437,235.430062 41.5318033,235.992563 35.8292623,237.101698 L28.4136612,238.542462 L29.5744536,246.019996 C34.1629508,275.502505 49.3546721,348.956881 91.2153005,394.177517 L94.7159016,397.957142 L99.5690437,396.248218 C110.456721,392.413057 120.302459,387.330713 128.828934,381.140029 L141.733934,371.773476 C143.220383,371.843292 145.368443,371.913109 148.036284,371.913109 C168.70235,371.913109 218.677432,367.750285 238.895027,329.382799 C241.049426,329.829468 246.01112,330.696624 252.055164,330.696624 C269.898087,330.696624 282.383142,323.131025 287.210929,309.393784 C292.526011,294.268934 288.031803,282.368349 283.325246,275.047903 Z" id="SVGCleanerId_0_1_" fill="#FCCC9A"></path>
                    <g id="Group" opacity="0.19" transform="translate(82.404372, 283.233918)" fill="#202121">
                        <path d="M37.1310929,39.8510916 C19.7659563,39.8510916 7.04478142,37.0615945 5.84991803,36.7902612 C2.3295082,35.9889552 0.122814208,32.4822495 0.923087432,28.958883 C1.72256831,25.4355166 5.2215847,23.2323216 8.73882514,24.0249006 L8.73882514,24.0249006 C9.35685792,24.1645341 70.9620492,37.5439649 106.584508,2.34679532 C109.154098,-0.190409357 113.291749,-0.162641326 115.82806,2.41026511 C118.361995,4.9815848 118.334262,9.12616179 115.764672,11.6633665 C92.3642077,34.7838226 60.5331421,39.8510916 37.1310929,39.8510916 Z" id="Shape"></path>
                    </g>
                    <g id="Group" opacity="0.19" transform="translate(216.311475, 119.005848)" fill="#202121">
                        <path d="M15.9642623,123.954111 C15.5768033,123.954111 15.1830055,123.920789 14.7884153,123.847006 C11.2355191,123.201201 8.87986339,119.79446 9.52721311,116.237772 C19.975929,58.6936842 0.736092896,9.5617232 0.540382514,9.07300585 C-0.801065574,5.71783431 0.829590164,1.90806043 4.18122951,0.565674464 C7.5336612,-0.776711501 11.3369399,0.857635478 12.6775956,4.21360039 C13.532541,6.35411891 33.5045082,57.3679591 22.3886339,118.5806 C21.8141803,121.739016 19.0623497,123.954111 15.9642623,123.954111 Z" id="Shape"></path>
                    </g>
                    <path d="M96.2126503,399.483758 L93.5028142,396.553041 C72.8518033,374.218817 56.357459,342.423628 44.480929,302.054464 C36.7808743,275.882698 33.2834426,253.645265 31.884153,242.722908 L31.6876503,241.199634 C31.2415574,237.715142 28.2805464,235.104154 24.7736066,235.104154 L7.35855191,235.104154 C3.50773224,235.104154 0.385874317,238.230041 0.385874317,242.08583 L0.385874317,404.225745 C0.385874317,408.079947 3.50773224,411.207421 7.35855191,411.207421 L91.0964481,411.207421 C93.8665027,411.207421 96.375082,409.564347 97.4835792,407.021589 C98.5944536,404.477244 98.0960656,401.518758 96.2126503,399.483758 Z" id="Shape" fill="#485D6D"></path>
                    <path d="M13.3296995,309.77953 C6.31344262,285.936312 2.42538251,265.022224 0.385874317,251.519821 L0.385874317,404.226538 C0.385874317,408.080741 3.50773224,411.208214 7.35855191,411.208214 L64.4600273,411.208214 C43.0800546,386.551789 25.889235,352.466928 13.3296995,309.77953 Z" id="Shape" fill="#202121" opacity="0.19"></path>
                </g>
            </g>
        </g>
    </g>
</svg>