<?xml version="1.0" encoding="UTF-8"?>
<svg width="521px" height="374px" viewBox="0 0 521 374" version="1.1" xmlns="http://www.w3.org/2000/svg" xmlns:xlink="http://www.w3.org/1999/xlink">
    <!-- Generator: Sketch 48.1 (47250) - http://www.bohemiancoding.com/sketch -->
    <title>Coffee</title>
    <desc>Created with Sketch.</desc>
    <defs></defs>
    <g id="Hábitos----3-/-5" stroke="none" stroke-width="1" fill="none" fill-rule="evenodd" transform="translate(-724.000000, -247.000000)">
        <g id="Icon" transform="translate(721.000000, 228.000000)">
            <g id="Coffee" transform="translate(3.000000, 19.000000)">
                <path d="M124.582477,356.172617 L129.257984,371.195798 L190.369353,355.98208 C190.369353,355.98208 184.279468,335.894987 162.067145,351.160005 L155.097855,352.22262 L124.582477,356.172617" id="Fill-635" fill="#984A47"></path>
                <path d="M164.612528,97.058667 C164.612528,97.058667 157.005669,93.9367767 154.514019,100.107273 C154.514019,100.107273 152.916432,105.23714 154.858453,108.366359 C156.785817,111.488249 161.175517,116.346966 169.163453,117.043162 L166.811042,112.404297 C166.811042,112.404297 160.750471,110.506246 158.815779,107.464968 C158.815779,107.464968 156.521995,104.005972 158.955018,101.499666 C159.937021,100.488349 161.373384,99.3304651 164.612528,101.80013 L164.612528,97.058667" id="Fill-636" fill="#EB8D2D"></path>
                <path d="M161.490969,88.9405717 L204.493909,88.9405717 C205.285374,104.161619 204.281386,109.804472 201.298735,115.176176 C195.736494,125.230714 182.985111,124.629787 182.985111,124.629787 C182.985111,124.629787 170.248385,125.230714 164.671487,115.176176 C161.696164,109.804472 160.684847,104.161619 161.490969,88.9405717" id="Fill-637" fill="#EB8D2D"></path>
                <path d="M189.911883,89.5634841 C189.911883,89.5634841 183.49955,82.0518936 186.84862,78.2557922 C188.746671,76.1305618 192.000472,75.1778722 188.138415,66.9554288 C188.138415,66.9554288 188.548804,72.4736997 185.316988,76.211174 C183.169773,78.6881667 180.384988,83.136494 189.911883,89.5634841" id="Fill-638" fill="#7B9AC3"></path>
                <path d="M185.521636,92.1357458 C185.521636,92.1357458 176.302532,81.3263839 181.131936,75.8813968 C183.836108,72.8108052 188.511615,71.4477263 182.978688,59.6270478 C182.978688,59.6270478 183.55763,67.556356 178.911436,72.9280593 C175.818859,76.4969808 171.824892,82.9019858 185.521636,92.1357458" id="Fill-639" fill="#7B9AC3"></path>
                <polyline id="Fill-640" fill="#FADAAB" points="137.363173 122.057525 133.369205 101.669969 142.522353 96.2689527 150.429676 96.2689527 157.450265 96.4961325 157.120488 101.047057 153.053237 104.528038 154.973272 113.725156 157.120488 123.515873 149.806764 133.497128 131.910858 133.497128 137.363173 122.057525"></polyline>
                <polyline id="Fill-641" fill="#FADAAB" points="66.5270425 41.972978 96.1630152 78.0139557 78.4503183 84.5655283 81.6235073 106.60197 49.2687053 110.654565 34.3774352 111.519313 14.4002686 52.0934722 7.32838098 39.1222378 57.3519095 19.6800431 65.5230543 11.3330172 60.9867865 1 73.2325111 8.53357564 77.5122856 27.9537852 66.5270425 41.972978"></polyline>
                <polyline id="Fill-642" fill="#D8762D" points="135.457794 118.254096 120.31003 149.971328 86.9365835 124.036188 80.6121907 160.040524 122.420604 182.73652 132.416516 180.65526 159.253047 133.724308 135.457794 118.254096"></polyline>
                <polyline id="Fill-643" fill="#8D9D9A" points="143.922074 252.707901 138.074026 246.757256 129.727 238.59344 14.5688214 235.508191 7.32838098 259.303444 10.6847795 274.355939 116.118197 273.645086 126.026168 359.167292 160.528185 353.070079 143.922074 252.707901"></polyline>
                <polyline id="Fill-644" fill="#984A47" points="63.2878981 119.866339 32.6259521 118.503261 25.5027658 161.344976 7.32838098 258.966339 69.4070962 247.204287 91.0258201 118.254096 63.2878981 119.866339"></polyline>
                <polygon id="Fill-645" fill="#B2642F" points="33.8424633 71.1106208 23.795253 80.0732307 14.3562983 52.8629522 7.32838098 39.1222378 57.3152676 19.8485959 65.4644273 11.3623307 60.8109053 1 73.1958692 8.46029183 77.6881667 27.9830988 66.4687242 42.0122808 29.2695536 51.9688897"></polygon>
                <polyline id="Fill-646" fill="#D29A3B" points="80.8173854 291.357783 8.14183126 291.357783 0 281.816231 8.05389069 272.150096 79.5935458 272.150096 87.7280487 281.200647 80.8173854 291.357783"></polyline>
                <polygon id="Fill-647" fill="#D29A3B" points="36.6419049 360.281206 53.8342866 360.281206 53.8342866 272.150096 36.6419049 272.150096"></polygon>
                <polyline id="Fill-648" fill="#D29A3B" points="71.7082078 373.670158 14.656762 373.670158 22.7326378 360.090668 63.0387332 360.090668 71.7082078 373.670158"></polyline>
                <path d="M388.235639,356.172617 L383.560132,371.195798 L322.448763,355.98208 C322.448763,355.98208 328.538648,335.894987 350.75097,351.160005 L357.720261,352.22262 L388.235639,356.172617" id="Fill-649" fill="#30414F"></path>
                <path d="M329.999688,163.010402 C329.999688,163.010402 337.599219,159.89584 340.090868,166.066337 C340.090868,166.066337 341.688455,171.188876 339.746434,174.325423 C337.81907,177.439985 333.42937,182.306029 325.448763,182.987569 L327.808502,178.348704 C327.808502,178.348704 333.854416,176.46531 335.789108,173.416703 C335.789108,173.416703 338.09022,169.950379 335.657198,167.444073 C334.667866,166.432756 333.231504,165.2822 329.999688,167.751865 L329.999688,163.010402" id="Fill-650" fill="#338BAD"></path>
                <path d="M332.07386,154.896 L289.063592,154.896 C288.279456,170.117048 289.276115,175.774558 292.266095,181.138933 C297.828336,191.186143 310.57239,190.592544 310.57239,190.592544 C310.57239,190.592544 323.316445,191.186143 328.893343,181.138933 C331.861337,175.774558 332.872654,170.117048 332.07386,154.896" id="Fill-651" fill="#408CBF"></path>
                <path d="M303.500001,155.53357 C303.500001,155.53357 309.912335,148.014651 306.563265,144.225878 C304.665214,142.093319 301.404084,141.147958 305.266141,132.910858 C305.266141,132.910858 304.855752,138.443785 308.087568,142.173931 C310.242112,144.643596 313.019568,149.10658 303.500001,155.53357" id="Fill-652" fill="#7B9AC3"></path>
                <path d="M310.827811,150.755465 C310.827811,150.755465 320.046915,139.953432 315.217512,134.493788 C312.513339,131.430525 307.84516,130.067446 313.37076,118.254096 C313.37076,118.254096 312.799146,126.183404 317.445339,131.54045 C320.537916,135.109372 324.524555,141.514377 310.827811,150.755465" id="Fill-653" fill="#7B9AC3"></path>
                <polyline id="Fill-654" fill="#FADAAB" points="356.899482 160.553511 336.922315 154.896 330.781132 163.572804 330.121578 171.450813 329.777144 178.464074 334.335397 178.515372 338.138827 174.748585 347.145407 177.423444 356.723601 180.376781 367.276469 173.905821 368.764131 156.07587 356.899482 160.553511"></polyline>
                <polyline id="Fill-655" fill="#E8C494" points="447.353688 41.972978 417.717716 78.0139557 435.423084 84.5655283 432.257223 106.60197 464.597369 110.654565 479.495967 111.519313 499.480462 52.0934722 506.55235 39.1222378 456.528821 19.6800431 448.350348 11.3330172 452.886616 1 440.64822 8.53357564 436.368445 27.9537852 447.353688 41.972978"></polyline>
                <polyline id="Fill-656" fill="#8D9D9A" points="354.762287 155.760749 407.321435 154.698134 432.42114 118.254096 443.259816 154.698134 422.476527 178.200252 413.396663 182.861102 354.762287 182.861102 354.762287 155.760749"></polyline>
                <polyline id="Fill-657" fill="#2D6D67" points="375.696779 252.707901 381.537499 246.757256 389.891853 238.59344 505.050032 235.508191 512.2978 259.303444 508.934074 274.355939 403.493328 273.645086 393.592685 359.167292 359.090668 353.070079 375.696779 252.707901"></polyline>
                <polyline id="Fill-658" fill="#8D9D9A" points="460.105071 119.866339 490.774346 118.503261 497.90486 161.344976 516.079245 258.966339 453.985873 247.204287 432.374478 118.254096 460.105071 119.866339"></polyline>
                <polygon id="Fill-659" fill="#79563F" points="480.55589 71.1106208 490.603101 80.0732307 500.042055 52.8629522 507.069973 39.1222378 457.075758 19.8485959 448.926598 11.3623307 453.587448 0 440.202484 8.46029183 435.702859 27.9830988 447.303685 41.9956792 485.1288 51.9688897"></polygon>
                <polyline id="Fill-660" fill="#D29A3B" points="439.277812 291.357783 511.946038 291.357783 520.102526 281.816231 512.041307 272.150096 440.501652 272.150096 432.374478 281.200647 439.277812 291.357783"></polyline>
                <polygon id="Fill-661" fill="#D29A3B" points="461.688001 360.281206 478.887712 360.281206 478.887712 272.150096 461.688001 272.150096"></polygon>
                <polyline id="Fill-662" fill="#D29A3B" points="447.03124 373.670158 504.082685 373.670158 495.992153 360.090668 455.693386 360.090668 447.03124 373.670158"></polyline>
                <polygon id="Fill-663" fill="#D29A3B" points="249.164953 366.920719 268.717074 366.920719 268.717074 206.194667 249.164953 206.194667"></polygon>
                <polyline id="Fill-664" fill="#D29A3B" points="306.57549 372.878693 212.523048 372.878693 225.069237 352.762287 294.234496 352.762287 306.57549 372.878693"></polyline>
                <polyline id="Fill-665" fill="#D29A3B" points="396.084335 202.369252 382.497517 191.537905 138.828849 191.537905 124.582477 202.369252 124.582477 217.245866 138.660296 217.245866 138.660296 210.151993 382.013844 210.151993 382.013844 217.245866 396.084335 217.245866 396.084335 202.369252"></polyline>
                <polyline id="Fill-666" fill="#FADAAB" points="96 236.638117 107.615484 251.631984 131.843111 239.11511 113.551472 223 96 236.638117"></polyline>
                <polyline id="Fill-667" fill="#FADAAB" points="424.247303 236.489546 412.631819 251.483414 388.404192 238.966539 406.695831 222.851429 424.247303 236.489546"></polyline>
                <path d="M97.2249824,238.14576 L129.975517,228.355043 L58.2673091,120.254096 L31.3135239,124.695094 C31.3135239,124.695094 35.6739106,151.626895 37.0223327,156.133849 L97.2249824,238.14576" id="Fill-668" fill="#D8762D"></path>
                <path d="M422.906209,238.14576 L395.732573,230.025914 L461.871211,120.254096 L488.817668,124.695094 C488.817668,124.695094 484.457281,151.626895 483.108859,156.133849 L422.906209,238.14576" id="Fill-669" fill="#8D9D9A"></path>
            </g>
        </g>
    </g>
</svg>