<?xml version="1.0" encoding="UTF-8"?>
<svg width="528px" height="393px" viewBox="0 0 528 393" version="1.1" xmlns="http://www.w3.org/2000/svg" xmlns:xlink="http://www.w3.org/1999/xlink">
    <!-- Generator: Sketch 48.1 (47250) - http://www.bohemiancoding.com/sketch -->
    <title>Beer</title>
    <desc>Created with Sketch.</desc>
    <defs></defs>
    <g id="Hábitos----3-/-5" stroke="none" stroke-width="1" fill="none" fill-rule="evenodd" transform="translate(-721.000000, -228.000000)">
        <g id="Icon" transform="translate(721.000000, 228.000000)">
            <g id="Beer">
                <polyline id="Fill-19" fill="#30414F" points="276.387487 98 269.440639 99.8490204 237.297632 117.785821 224.46517 148.880615 199.809394 124.394116 178.513105 128.183306 176 146.862318 213.950494 161.53729 278.243018 140.130321 276.387487 98"></polyline>
                <polyline id="Fill-20" fill="#E5E5E0" points="38.768255 123.546893 53.3130144 123 62.479989 136.171015 61.8875211 166.705895 52.3754829 176.426274 38 176.406742 39.4258291 168.587469 48.4495698 168.945554 53.7752695 163.190152 53.8859503 138.221865 48.7751015 131.522422 38 130.506763 38.768255 123.546893"></polyline>
                <polygon id="Fill-21" fill="#E5E5E0" points="0 180.369585 40.1771308 180.369585 40.1771308 109 0 109"></polygon>
                <polygon id="Fill-22" fill="#E9BF29" points="3 174.194361 35.5596874 174.194361 35.5596874 125 3 125"></polygon>
                <polyline id="Fill-23" fill="#FADAAB" points="66.4720754 160.615645 69.6362442 139.742548 45 129 45.3711062 156.26003 66.4720754 160.615645"></polyline>
                <polyline id="Fill-24" fill="#D8762D" points="137.608008 98 130.661161 99.8490204 95.4711764 150.267381 62.553404 136.295557 62 164.929332 98.0103242 185.014642 114.397593 180.353027 139.476561 140.130321 137.608008 98"></polyline>
                <polyline id="Fill-25" fill="#D8762D" points="249.881574 98 256.802379 99.8490204 288.951896 117.785821 301.784359 148.880615 326.433624 124.394116 347.729912 128.183306 350.26255 146.862318 312.305545 161.53729 248 140.130321 249.881574 98"></polyline>
                <polyline id="Fill-26" fill="#8D9D9A" points="203.729972 230 141 230 141 252.715607 144.066509 382.999931 177.713473 382.999931 183.83347 270.418024 190.539424 262.012794 193.97704 262.012794 200.656952 270.398492 206.802992 382.999931 240.436934 382.999931 243.490422 252.715607 243.490422 230 203.729972 230"></polyline>
                <polyline id="Fill-27" fill="#FADAAB" points="165.013189 41.4388504 162.402424 40 160 40.7226805 160 52.4939093 167.676039 59.694672 165.013189 41.4388504"></polyline>
                <polyline id="Fill-28" fill="#FADAAB" points="219.66936 41.4388504 222.286636 40 224.676039 40.7226805 224.676039 52.4939093 217 59.694672 219.66936 41.4388504"></polyline>
                <polyline id="Fill-29" fill="#FADAAB" points="163 22.8327982 200.006451 8.41825152 206.692874 0 215.352019 9.59667652 221.60874 25.3133503 217.982316 80.6472402 192.51271 87.6722158 167.049615 81.239708 163 22.8327982"></polyline>
                <polyline id="Fill-30" fill="#B2642F" points="163 22.8327982 200.006451 8.41825152 206.692874 0 215.352019 9.59667652 221.60874 25.3133503 219.733677 45.5939794 216.764827 45.5939794 214.616317 28.353817 169.751529 33.2953892 167.524892 45.5939794 164.74485 45.5939794 163 22.8327982"></polyline>
                <path d="M146.256752,391.807823 L175.294186,391.807823 C175.294186,391.807823 180.919375,379.053488 160.762447,376 C160.762447,376 143.724115,377.015659 146.256752,391.807823" id="Fill-31" fill="#984A47"></path>
                <path d="M237.776137,391.807823 L208.719171,391.807823 C208.719171,391.807823 203.107003,379.053488 223.237888,376 C223.237888,376 240.315284,377.015659 237.776137,391.807823" id="Fill-32" fill="#984A47"></path>
                <polyline id="Fill-33" fill="#1C639F" points="243.490422 230 141 230 141 231.315148 243.490422 230.10417 243.490422 230"></polyline>
                <polyline id="Fill-34" fill="#984A47" points="243.558334 235.667385 141.126508 235.667385 135 98 174.135429 98 192.371719 104.367401 210.171796 98 249.710884 98 243.558334 235.667385"></polyline>
                <polyline id="Fill-35" fill="#FADAAB" points="174 80 174 97.8326303 192.23629 101.940841 210.036367 97.8326303 210.036367 81.1588931 174 80"></polyline>
                <polyline id="Fill-36" fill="#D8762D" points="192.23629 102.108211 174 98 192.021439 120.976032 210.036367 98 192.23629 102.108211"></polyline>
                <polyline id="Fill-37" fill="#E5E5E0" points="487.692202 123.546893 473.160464 123 464 136.171015 464.585957 166.705895 474.091485 176.426274 488.473478 176.406742 487.041139 168.587469 478.017398 168.945554 472.685188 163.190152 472.574507 138.221865 477.685356 131.522422 488.473478 130.506763 487.692202 123.546893"></polyline>
                <polygon id="Fill-38" fill="#E5E5E0" points="487 180.369585 527.196663 180.369585 527.196663 109 487 109"></polygon>
                <polygon id="Fill-39" fill="#E9BF29" points="491 174.194361 523.579219 174.194361 523.579219 125 491 125"></polygon>
                <polyline id="Fill-40" fill="#FADAAB" points="460.17719 160.615645 457 139.742548 481.642755 129 481.265138 156.26003 460.17719 160.615645"></polyline>
                <polyline id="Fill-41" fill="#30414F" points="388.862042 98 395.8154 99.8490204 431.018406 150.267381 463.936178 136.295557 464.483071 164.929332 428.472747 185.014642 412.078967 180.353027 387 140.130321 388.862042 98"></polyline>
                <polyline id="Fill-42" fill="#FADAAB" points="316 82 316 99.8391409 334.027949 102.254587 352.049388 99.8391409 352.049388 83.1523825 316 82"></polyline>
                <polyline id="Fill-43" fill="#338BAD" points="344.729972 230 282 230 282 252.702586 285.079531 382.98691 318.706962 382.98691 324.839981 270.405003 331.545935 262.006283 334.97704 262.006283 341.663462 270.398492 347.822523 382.98691 381.436934 382.98691 384.490422 252.702586 384.490422 230 344.729972 230"></polyline>
                <polyline id="Fill-44" fill="#FADAAB" points="307.0197 42.445361 304.402424 41 302 41.7291912 302 53.4873986 309.68906 60.694672 307.0197 42.445361"></polyline>
                <polyline id="Fill-45" fill="#FADAAB" points="360.682382 41.4518717 363.293147 40 365.695571 40.7226805 365.695571 52.4939093 358 59.7011826 360.682382 41.4518717"></polyline>
                <polyline id="Fill-46" fill="#FADAAB" points="304 23.8393088 341.012962 9.42476216 347.692874 1 356.371551 10.6096978 362.61525 26.3328822 359.001848 81.6537508 333.519221 88.6787264 308.062636 82.2462187 304 23.8393088"></polyline>
                <polyline id="Fill-47" fill="#3E2D1D" points="304 23.8393088 341.012962 9.42476216 347.692874 1 356.371551 10.6096978 362.61525 26.3328822 360.733677 46.6004901 357.764827 46.6004901 355.622828 29.3603276 310.771061 34.3018999 308.518381 46.6004901 305.751361 46.6004901 304 23.8393088"></polyline>
                <path d="M287.258918,392.794801 L316.309373,392.794801 C316.309373,392.794801 321.92154,380.053488 301.777635,377 C301.777635,377 284.713259,378.02217 287.258918,392.794801" id="Fill-48" fill="#30414F"></path>
                <path d="M379.769626,392.794801 L350.719171,392.794801 C350.719171,392.794801 345.107003,380.053488 365.237888,377 C365.237888,377 382.315284,378.02217 379.769626,392.794801" id="Fill-49" fill="#30414F"></path>
                <polyline id="Fill-50" fill="#1C639F" points="384.490422 230 282 230 282 231.315148 384.490422 230.091149 384.490422 230"></polyline>
                <polyline id="Fill-51" fill="#30414F" points="384.577866 235.667385 282.113487 235.667385 276 98 305.603859 98 333.983719 103.267104 361.224217 98 390.691353 98 384.577866 235.667385"></polyline>
                <polyline id="Fill-52" fill="#EEF1EF" points="333.806924 235.667385 333.806924 101.945445 306 98 326.977267 235.667385 333.806924 235.667385"></polyline>
                <polyline id="Fill-53" fill="#EEF1EF" points="334 235.667385 334 101.945445 361.813434 98 340.823146 235.667385 334 235.667385"></polyline>
            </g>
        </g>
    </g>
</svg>