<?xml version="1.0" encoding="UTF-8"?>
<svg width="60px" height="59px" viewBox="0 0 60 59" version="1.1" xmlns="http://www.w3.org/2000/svg" xmlns:xlink="http://www.w3.org/1999/xlink">
    <!-- Generator: Sketch 48.1 (47250) - http://www.bohemiancoding.com/sketch -->
    <title>piece-of-cake</title>
    <desc>Created with Sketch.</desc>
    <defs></defs>
    <g id="Hábitos----5-/-5" stroke="none" stroke-width="1" fill="none" fill-rule="evenodd" transform="translate(-329.000000, -479.000000)">
        <g id="Content" transform="translate(268.000000, 177.000000)" fill-rule="nonzero">
            <g id="1">
                <g id="Tipos-alimentos?" transform="translate(0.000000, 201.000000)">
                    <g id="Doce" transform="translate(6.000000, 101.000000)">
                        <g id="piece-of-cake" transform="translate(55.000000, 0.000000)">
                            <g id="Group" transform="translate(12.000000, 0.000000)" fill="#368B4C">
                                <path d="M37.5791589,4.32529412 C36.3062181,3.87035294 35.2738255,3.88541176 34.4496636,4.13223529 L35.4896324,2.59964706 C35.7787165,2.17352941 35.6655452,1.59529412 35.236891,1.30811765 C34.8082368,1.02070588 34.2263988,1.13317647 33.9371963,1.55917647 L32.9152212,3.06529412 C32.8284486,2.22364706 32.4528287,1.28141176 31.5659252,0.295058824 C31.3298754,0.0324705882 30.9084424,0.0557647059 30.7012773,0.341411765 C29.9282555,1.40694118 28.5525607,3.95364706 31.0122617,6.14635294 L32.3004735,7.01564706 C35.2843614,8.488 37.1537009,6.25447059 37.8601931,5.13929412 C38.0487726,4.84129412 37.9126355,4.44435294 37.5791589,4.32529412 Z" id="Shape"></path>
                                <path d="M4.52389408,3.60494118 C4.20770093,3.44588235 3.82272897,3.61776471 3.73453583,3.95870588 C3.39762617,5.26011765 3.50807477,6.28035294 3.832081,7.07294118 L2.20068536,6.18717647 C1.7468162,5.94117647 1.17823676,6.10694118 0.93023053,6.55764706 C0.682342679,7.00870588 0.849376947,7.57388235 1.30300935,7.82023529 L2.90694081,8.69094118 C2.07188785,8.85529412 1.16296573,9.31494118 0.257595016,10.2843529 C0.0165732087,10.5424706 0.0790778816,10.9571765 0.384616822,11.1356471 C1.52438006,11.8014118 4.20497819,12.9256471 6.17257321,10.2854118 L6.9225109,8.93011765 C8.11814953,5.84117647 5.70686604,4.20011765 4.52389408,3.60494118 Z" id="Shape"></path>
                            </g>
                            <path d="M45.4654141,16.0034627 C41.7473575,18.4964316 38.357472,18.9889144 36.3043366,18.9999514 C35.0137735,19.0072706 33.8769646,18.187744 33.527037,17.000627 C32.9977093,15.2058939 32.93876,13.3279766 33.0425593,11.7807047 C33.175894,9.78382008 33.5757765,8.33948279 33.5757765,8.33948279 C34.4511424,4.75861374 38.640793,2.86222398 41.5424329,4.73166022 L43.7596538,6.16124277 L45.9768747,7.59082533 C46.9624818,8.22667298 47.5827251,9.15645349 47.8493945,10.1903304 C48.3669324,12.2019697 47.5454109,14.6080367 45.4654141,16.0034627 Z" id="Shape" fill="#C70024"></path>
                            <path d="M47,10.4125856 C46.7031546,11.7437297 45.945699,13.0153026 44.7460208,13.8959927 C41.230535,16.4783712 38.0253405,16.9885168 36.084066,16.9999496 C34.8638166,17.0075314 33.7889444,16.1586127 33.4580819,14.92892 C33.2012297,13.9759022 33.0618284,13.0013425 33,12.0597576 C33.1260702,9.99125525 33.5041659,8.49511718 33.5041659,8.49511718 C34.3318393,4.78582122 38.2932253,2.82141794 41.0367753,4.75790101 L43.1331954,6.23875517 L45.2296156,7.71960933 C46.1615239,8.37838183 46.7479745,9.34150867 47,10.4125856 Z" id="Shape" fill="#FF0C38"></path>
                            <ellipse id="Oval" fill="#000000" transform="translate(38.000000, 8.500000) rotate(-146.006413) translate(-38.000000, -8.500000) " cx="38" cy="8.5" rx="1" ry="1.5"></ellipse>
                            <circle id="Oval" fill="#000000" transform="translate(37.000000, 13.000000) rotate(-146.006413) translate(-37.000000, -13.000000) " cx="37" cy="13" r="1"></circle>
                            <circle id="Oval" fill="#000000" transform="translate(42.000000, 9.000000) rotate(-146.006413) translate(-42.000000, -9.000000) " cx="42" cy="9" r="1"></circle>
                            <circle id="Oval" fill="#000000" transform="translate(41.000000, 14.000000) rotate(-146.006413) translate(-41.000000, -14.000000) " cx="41" cy="14" r="1"></circle>
                            <ellipse id="Oval" fill="#000000" transform="translate(45.000000, 12.500000) rotate(-146.006413) translate(-45.000000, -12.500000) " cx="45" cy="12.5" rx="1" ry="1.5"></ellipse>
                            <path d="M29.2674205,17.0576332 C25.3385617,18.5711593 20.7585785,17.8071966 20.7585785,17.8071966 C17.5014673,17.3613898 15.3654632,14.2415422 16.1701168,11.5096756 C16.2535267,11.2277465 16.3682153,10.9505029 16.5168179,10.6794304 L17.726147,8.47302385 L18.9343304,6.26536023 C20.5157961,3.37692985 24.8892022,3.2189947 27.2390015,5.97371733 C29.5079115,8.63198752 30.4442106,11.2083189 30.8150868,13.1099403 C30.8972364,13.5341481 30.9516591,13.9245291 30.9866042,14.2752548 C31.1073652,15.4814816 30.4018182,16.6214259 29.2674205,17.0576332 Z" id="Shape" fill="#C70024"></path>
                            <path d="M32,13.4322511 C31.7241064,14.147161 31.1597625,14.7347549 30.4148145,15.0242922 C26.3907104,16.591367 21.6996972,15.8003752 21.6996972,15.8003752 C19.3362358,15.4734477 17.5469758,13.7555106 17,11.7753688 C17.085432,11.483465 17.2029009,11.1964125 17.355106,10.9157495 L18.5937522,8.63127999 L19.8312249,6.34550895 C21.4510292,3.35488555 25.9304574,3.19136264 28.3372216,6.04354769 C30.6611355,8.79586781 31.6201328,11.4633501 32,13.4322511 Z" id="Shape" fill="#FF0C38"></path>
                            <circle id="Oval" fill="#000000" transform="translate(22.000000, 14.000000) rotate(118.646127) translate(-22.000000, -14.000000) " cx="22" cy="14" r="1"></circle>
                            <circle id="Oval" fill="#000000" transform="translate(26.000000, 14.000000) rotate(118.646127) translate(-26.000000, -14.000000) " cx="26" cy="14" r="1"></circle>
                            <circle id="Oval" fill="#000000" transform="translate(22.000000, 11.000000) rotate(118.646127) translate(-22.000000, -11.000000) " cx="22" cy="11" r="1"></circle>
                            <ellipse id="Oval" fill="#000000" transform="translate(27.000000, 11.500000) rotate(118.646127) translate(-27.000000, -11.500000) " cx="27" cy="11.5" rx="1" ry="1.5"></ellipse>
                            <circle id="Oval" fill="#000000" transform="translate(25.000000, 7.000000) rotate(118.646127) translate(-25.000000, -7.000000) " cx="25" cy="7" r="1"></circle>
                            <path d="M52,30.7449833 L52,58 L5.96858832,58 C4.88149231,58 4,57.1380739 4,56.0739662 L4,27 L48.171171,27 C50.2862855,27 52,28.6769315 52,30.7449833 Z" id="Shape" fill="#FF728B"></path>
                            <rect id="Rectangle-path" fill="#FFA5B5" x="4" y="32" width="48" height="22"></rect>
                            <path d="M60,24.9420968 L60,56.6300644 C60,57.9388573 58.9298437,59 57.6101953,59 L51.4836328,59 L51.4849219,32.0531821 C51.4849219,29.5067186 49.4040234,27.4431209 46.8363281,27.4431209 L4.258125,27.4431209 C3.08179687,27.4431209 2.01785156,26.9712953 1.24675781,26.2067287 C0.476953125,25.4432081 0,24.3882247 0,23.2215605 C0,23.1848371 0,23.1479975 0.0012890625,23.1112741 C0.0605859375,20.8308226 1.9425,19 4.25695312,19 L54.0082031,19 C57.3173437,19 60,21.6603524 60,24.9420968 Z" id="Shape" fill="#FFB655"></path>
                            <polyline id="Shape" fill="#FFDAAA" points="4 38 52 38 52 49 4 49"></polyline>
                            <g id="Group" transform="translate(9.000000, 40.000000)" fill="#FF0C38">
                                <path d="M0.250751592,3.41888889 L3.30336943,0.272666667 C3.53397134,0.0351111111 3.92635987,0.0218888889 4.17416561,0.243777778 L8.36270701,3.99244444 C8.78207962,4.36766667 8.46475159,5.03144444 7.88865924,4.98355556 L0.647617834,4.38111111 C0.143757962,4.33911111 -0.0904968153,3.77088889 0.250751592,3.41888889 Z" id="Shape"></path>
                                <path d="M28.8389076,1.147 L30.5455032,4.50166667 C30.6913822,4.78833333 31.0560796,4.90922222 31.3600924,4.77177778 L36.6031338,2.40022222 C37.1455255,2.15488889 37.0245096,1.39588889 36.4296815,1.31177778 L29.4800446,0.328555556 C28.9955096,0.260111111 28.6270414,0.730555556 28.8389076,1.147 Z" id="Shape"></path>
                                <path d="M22.7520541,0.854777778 L21.9466561,4.51111111 C21.8699459,4.85922222 21.4805032,5.05922222 21.1288854,4.931 L14.9106465,2.66555556 C14.3435096,2.459 14.4102038,1.68288889 15.0051497,1.56522222 L22.0287866,0.174333333 C22.4595892,0.089 22.8416083,0.448444444 22.7520541,0.854777778 Z" id="Shape"></path>
                            </g>
                            <path d="M56,29.391959 L56,59 L51.5301811,59 L51.5314713,31.9696326 C51.5314713,29.4152737 49.4486914,27.3452778 46.8786746,27.3452778 L4.26197493,27.3452778 C3.08458324,27.3452778 2.01967598,26.8719893 1.24788505,26.1050522 C0.477384356,25.3391642 0,24.2809098 0,23.1106283 C0,23.073791 0,23.0368372 0.00129022799,23 L49.5686826,23 C53.1059013,23 56,25.8763349 56,29.391959 Z" id="Shape" fill="#FFA733"></path>
                        </g>
                    </g>
                </g>
            </g>
        </g>
    </g>
</svg>