<?xml version="1.0" encoding="UTF-8"?>
<svg width="54px" height="45px" viewBox="0 0 54 45" version="1.1" xmlns="http://www.w3.org/2000/svg" xmlns:xlink="http://www.w3.org/1999/xlink">
    <!-- Generator: Sketch 48.1 (47250) - http://www.bohemiancoding.com/sketch -->
    <title>cheese</title>
    <desc>Created with Sketch.</desc>
    <defs></defs>
    <g id="Hábitos----5-/-5" stroke="none" stroke-width="1" fill="none" fill-rule="evenodd" transform="translate(-1051.000000, -493.000000)">
        <g id="Content" transform="translate(268.000000, 177.000000)" fill-rule="nonzero">
            <g id="1">
                <g id="Tipos-alimentos?" transform="translate(0.000000, 201.000000)">
                    <g id="Derivados" transform="translate(726.000000, 115.000000)">
                        <g id="cheese" transform="translate(57.000000, 0.000000)">
                            <path d="M54,13.5999252 L26.6816953,0.97107604 C25.0143398,0.205279522 23.1652617,-0.109582245 21.328418,0.0335928836 C5.41044141,1.27389504 0,12.1955532 0,17 L54,17 L54,13.5999252 Z" id="Shape" fill="#FFF082"></path>
                            <path d="M53.27775,28.7129849 C53.6918203,28.6266453 54,28.2865004 54,27.8681494 L54,14 L3.48384375,14 C1.55977734,14 0,15.542122 0,17.444514 L0,41.5555903 C0,43.457878 1.55977734,45 3.48384375,45 L21.2068125,45 C21.5728945,45 21.8992148,44.7729935 22.0206094,44.4315973 C22.6168242,42.7564205 24.2308125,41.5555903 26.1290391,41.5555903 C28.0272656,41.5555903 29.6412539,42.7564205 30.2374687,44.4315973 C30.3589687,44.7729935 30.6851836,45 31.0512656,45 L53.1290391,45 C53.610082,45 54,44.6143913 54,44.1388976 L54,36.2984651 C54,35.8800098 53.6918203,35.5399693 53.27775,35.4536296 C51.7002539,35.1248507 50.5161562,33.7408095 50.5161562,32.0833594 C50.5161562,30.425805 51.7002539,29.0417638 53.27775,28.7129849 Z" id="Shape" fill="#FFDC64"></path>
                            <g id="Group" transform="translate(20.000000, 21.000000)" fill="#E1A546">
                                <ellipse id="Oval" cx="24.2416064" cy="1.81333333" rx="1.72456225" ry="1.76170667"></ellipse>
                                <ellipse id="Oval" cx="1.82208835" cy="14.1450667" rx="1.72456225" ry="1.76170667"></ellipse>
                            </g>
                            <circle id="Oval" fill="#FFC850" cx="8.5" cy="37.5" r="2.5"></circle>
                            <path d="M8.3823461,35 C7.32023837,35 6.41049428,35.6352359 6,36.5441347 C6.32828977,36.3958919 6.68986285,36.3088269 7.07351916,36.3088269 C8.51917753,36.3088269 9.69117305,37.4808225 9.69117305,38.9264808 C9.69117305,39.3101371 9.60410811,39.6717102 9.45586526,40 C10.3647641,39.5895057 11,38.6797616 11,37.6176539 C11,36.1719955 9.82800448,35 8.3823461,35 Z" id="Shape" fill="#E1A546"></path>
                            <circle id="Oval" fill="#FFC850" cx="31.5" cy="20.5" r="2.5"></circle>
                            <path d="M31.3823461,18 C30.3202384,18 29.4104943,18.6352359 29,19.5441347 C29.3282898,19.3958919 29.6898629,19.3088269 30.0735192,19.3088269 C31.5191775,19.3088269 32.6911731,20.4808225 32.6911731,21.9264808 C32.6911731,22.3101371 32.6041081,22.6717102 32.4558653,23 C33.3647641,22.5895057 34,21.6797616 34,20.6176539 C34.0001057,19.1718899 32.8281101,18 31.3823461,18 Z" id="Shape" fill="#E1A546"></path>
                            <circle id="Oval" fill="#FFC850" cx="14.5" cy="24.5" r="4.5"></circle>
                            <path d="M13.73323,20 C12.1144223,20 10.723064,20.9121746 10,22.240496 C10.6053607,21.9109475 11.2887425,21.7067493 12.0263773,21.7067493 C14.3829232,21.7067493 16.2932507,23.6170768 16.2932507,25.9736227 C16.2932507,26.7113608 16.0890525,27.3947426 15.759504,28 C17.0878254,27.276936 18,25.8856811 18,24.2668733 C18.0001033,21.9103275 16.0897759,20 13.73323,20 Z" id="Shape" fill="#E1A546"></path>
                            <circle id="Oval" fill="#FFC850" cx="37.5" cy="34.5" r="4.5"></circle>
                            <path d="M37.7331267,30 C36.1143189,30 34.7229607,30.9121746 34,32.240496 C34.6053607,31.9109475 35.2887425,31.7067493 36.0263773,31.7067493 C38.3829232,31.7067493 40.2932507,33.6170768 40.2932507,35.9736227 C40.2932507,36.7113608 40.0890525,37.3947426 39.759504,38 C41.0878254,37.276936 42,35.8856811 42,34.2668733 C42,31.9103275 40.0896725,30 37.7331267,30 Z" id="Shape" fill="#E1A546"></path>
                            <path d="M0,18 C1.94402546,18 3.51998295,19.5597834 3.51998295,21.4838574 L3.51998295,37.1613209 C3.51998295,40.0474846 5.88397247,42.387107 8.79995737,42.387107 L20.6800064,42.387107 C21.4090026,42.387107 22,42.972039 22,43.6935535 C22,44.415068 21.4090026,45 20.6800064,45 L3.51998295,45 C1.57595749,45.0001055 0,43.440322 0,41.5161426 L0,18 Z" id="Shape" fill="#FFC850"></path>
                        </g>
                    </g>
                </g>
            </g>
        </g>
    </g>
</svg>