<?xml version="1.0" encoding="UTF-8"?>
<svg width="307px" height="331px" viewBox="0 0 307 331" version="1.1" xmlns="http://www.w3.org/2000/svg" xmlns:xlink="http://www.w3.org/1999/xlink">
    <!-- Generator: Sketch 48.1 (47250) - http://www.bohemiancoding.com/sketch -->
    <title>Cigarret Pack</title>
    <desc>Created with Sketch.</desc>
    <defs></defs>
    <g id="Hábitos----2-/-5" stroke="none" stroke-width="1" fill="none" fill-rule="evenodd" transform="translate(-894.000000, -269.000000)">
        <g id="Cigarret-Pack" transform="translate(895.000000, 259.000000)" fill-rule="nonzero">
            <g id="Back-pack" transform="translate(0.000000, 11.221122)">
                <rect id="Rectangle-path" stroke="#D0D4DA" stroke-width="2" fill="#F2F2F2" x="0.682886029" y="0.379169494" width="303.811397" height="6.01503867"></rect>
                <polygon id="Shape" stroke="#D0D4DA" stroke-width="2" fill="#D8D8D8" points="7.24150735 6.62761725 7.24150735 327.027409 297.936783 327.028274 297.936783 6.62761725"></polygon>
                <rect id="Rectangle-path" fill="#9E9D86" transform="translate(32.348329, 150.827562) rotate(94.025607) translate(-32.348329, -150.827562) " x="31.131733" y="137.694184" width="2.43319211" height="26.2667544"></rect>
            </g>
            <g id="Front-pack" transform="translate(0.000000, 40.273927)">
                <path d="M265.60454,17.4778218 C258.808199,29.2353135 259.874577,86.8490429 247.237261,86.8490429 L56.9946324,86.8490429 C44.075864,86.8490429 46.2545956,33.3568317 38.3402941,17.0581518 C30.4248713,0.761716172 7.50726103,0.117623762 7.50726103,0.117623762 L7.50726103,299.471353 L297.669908,299.472475 L297.669908,0.117623762 C297.669908,0.117623762 272.399761,5.72145215 265.60454,17.4778218 Z" id="Shape" fill="#E0D1D1"></path>
                <path d="M270.919614,20.4906931 C270.919614,20.4906931 264.919412,96.3140594 251.688915,96.3140594 L52.498125,96.3140594 C38.9715993,96.3140594 41.2534926,36.8286469 32.9657904,20.0586799 C24.6792096,3.2909571 0.684007353,2.62891089 0.684007353,2.62891089 L0.684007353,299.630693 L304.493162,299.631815 L304.493162,2.62891089 L270.919614,20.4906931 Z" id="Shape" stroke="#D0D4DA" stroke-width="2" fill="#EFEDED"></path>
                <polygon id="Shape" fill="#575957" points="1.80533088 298.508581 33.7395037 299.075248 153.056176 299.243762 271.580074 299.010165 303.371838 298.509703 303.371838 112.968449 1.80533088 112.968449"></polygon>
            </g>
        </g>
    </g>
</svg>