<?xml version="1.0" encoding="UTF-8"?>
<svg width="241px" height="217px" viewBox="0 0 241 217" version="1.1" xmlns="http://www.w3.org/2000/svg" xmlns:xlink="http://www.w3.org/1999/xlink">
    <!-- Generator: Sketch 48.1 (47250) - http://www.bohemiancoding.com/sketch -->
    <title>fruit</title>
    <desc>Created with Sketch.</desc>
    <defs></defs>
    <g id="Hábitos----5-/-5" stroke="none" stroke-width="1" fill="none" fill-rule="evenodd" transform="translate(-802.000000, -126.000000)">
        <g id="Foods" transform="translate(720.000000, 126.000000)" fill-rule="nonzero">
            <g id="fruit" transform="translate(82.847145, 0.000000)">
                <path d="M182.115646,90 C180.159788,90 178.574292,88.3723485 178.574292,86.3644882 C178.574292,79.7404785 176.325995,74.3592059 171.892198,70.3693658 C170.421294,69.0456932 170.274157,66.7489119 171.563548,65.2393698 C172.852938,63.7288867 175.089776,63.5783089 176.561138,64.9019815 C180.710747,68.63631 185.657459,75.3906635 185.657459,86.3654294 C185.656542,88.3723485 184.071504,90 182.115646,90 Z" id="Shape" fill="#6B5445"></path>
                <path d="M179.550923,125 L211.716915,125 C216.451955,105.303248 201.696493,87 182.018419,87 C176.221256,87 170.310788,88.6072694 165.694291,91.4004391 C177.319561,98.4295764 182.678258,111.985905 179.550923,125 Z" id="Shape" fill="#FF6536"></path>
                <path d="M184.717531,125 C182.500493,111.250977 187.396355,99.0049245 196.637201,91.0701345 C186.637907,85.1976031 174.428572,86.0076237 165.694291,91.400494 C177.085006,98.4299947 182.334903,111.98611 179.271258,124.999526 L184.717531,124.999526 L184.717531,125 Z" id="Shape" fill="#F95428"></path>
                <path d="M205.210842,202.043054 L226.581952,138 C214.795671,138 24.9839819,138 12.9760589,138 L34.3476368,202.043054 C34.3957994,202.169653 40.0490622,217 56.7769219,217 L119.779707,217 L182.781089,217 C199.509416,217 205.162679,202.169184 205.210842,202.043054 Z" id="Shape" fill="#93482B"></path>
                <path d="M40.3515655,165.243126 C40.3515655,155.61177 42.2217232,146.417883 45.612117,138 L12.9760589,138 L34.4146239,202.043054 C34.4629375,202.169653 40.1339199,217 56.9142114,217 L61.8858195,217 C48.5864511,203.779802 40.3515655,185.473146 40.3515655,165.243126 Z" id="Shape" fill="#843A24"></path>
                <path d="M103.55215,49.6897244 C99.3844774,43.0244731 89.3697419,43.5577683 86.0024328,50.6915307 C85.7593383,51.2065174 85.7934568,51.8088217 86.0938894,52.2942331 C87.9201784,55.2405013 91.0969924,57 94.5927198,57 C94.7841627,57 94.9765532,56.9943666 95.1722609,56.9835692 C98.8423719,56.7751334 102.090266,54.5964159 103.647398,51.298999 C103.891914,50.7802568 103.856374,50.1756051 103.55215,49.6897244 Z" id="Shape" fill="#9AD14B"></path>
                <g id="Group" transform="translate(73.863720, 44.000000)" fill="#6B5445">
                    <path d="M11.7661459,26.3850404 C9.76038725,26.3850404 8.13443948,24.7428889 8.13443948,22.7171414 C8.13443948,16.0360202 5.82878068,10.6068081 1.28139162,6.58047475 C-0.227040409,5.24453535 -0.377460555,2.92729293 0.945296608,1.40430303 C2.26758371,-0.119636364 4.561961,-0.271080808 6.07039304,1.06438384 C10.3254029,4.83292929 15.3983224,11.6479293 15.3983224,22.7180909 C15.3978523,24.7428889 13.7719045,26.3850404 11.7661459,26.3850404 Z" id="Shape"></path>
                    <path d="M76.8477726,46.6078586 C74.8420139,46.6078586 73.2160662,44.9657071 73.2160662,42.9399596 C73.2160662,36.2559899 70.9108774,30.8267778 66.3639584,26.8028182 C64.8550563,25.4673535 64.7041661,23.1501111 66.0264532,21.6266465 C67.3482703,20.1027071 69.6426476,19.9507879 71.1515497,21.2857778 C75.4070296,25.0524242 80.479479,31.8669495 80.479479,42.9409091 C80.479479,44.9657071 78.8535312,46.6078586 76.8477726,46.6078586 Z" id="Shape"></path>
                </g>
                <path d="M52.2365385,125 C51.7087659,119.355517 52.3469162,114.064455 53.9005525,109.271997 C51.6201854,106.076536 47.5255422,104 43.4397107,104 C36.5378555,104 30.9429098,109.897207 30.9429098,117.171439 C30.9429098,119.881983 31.721583,122.904399 33.0535362,124.999511 L52.2370022,124.999511 L52.2370022,125 L52.2365385,125 Z" id="Shape" fill="#80AD1F"></path>
                <path d="M49.907919,105.534991 C40.8189117,100.867456 30.9429098,107.444926 30.9429098,117.171564 C30.9429098,119.882235 31.7374762,122.904791 33.0966155,125 L45.2843846,125 C41.3016144,118.86005 42.7520885,109.462897 49.907919,105.534991 Z" id="Shape" fill="#78991D"></path>
                <path d="M120.594356,124 C121.126179,118.554638 120.499872,113.205098 118.685967,108.151522 C116.457175,102.042011 113.566059,98.3898985 109.499975,94.3629927 C109.479394,94.3143734 107.059295,92.0155771 107.021876,88.470144 L107.021876,86.8704272 C107.021876,75.3448194 97.7624483,66 86.3425187,66 C86.342051,66 86.3415832,66 86.3411155,66 C74.9207182,66 65.6617583,75.3457635 65.6617583,86.8704272 L65.6617583,88.470144 C65.6243389,92.0127449 63.2056432,94.3143734 63.1845948,94.3629927 C63.1471754,94.4163323 50.216438,104.822752 52.0897461,124 L120.594356,124 Z" id="Shape" fill="#9AD14B"></path>
                <path d="M74.874134,96.308237 C74.8944,96.2596177 77.2765709,93.9570451 77.3134181,90.4153882 L77.3134181,88.8156715 C77.3134181,78.2832193 84.9301933,69.5751711 94.825046,68.1529384 C92.1084868,66.7764928 89.0515517,66 85.8159076,66 C85.8159076,66 85.8159076,66 85.815447,66 L85.8145259,66 C74.5687629,66 65.4513859,75.3457635 65.4513859,86.8704272 L65.4513859,88.470144 C65.4149993,91.9480765 62.9637398,94.4786405 63.0121018,94.3629927 C62.9752546,94.4163323 50.2422469,104.822752 52.0869094,124 L63.8250429,124 C63.0728996,105.439226 74.9450649,96.2072221 74.874134,96.308237 Z" id="Shape" fill="#93C43D"></path>
                <path d="M179.794743,125 C184.429598,105.305618 169.985349,87 150.721689,87 C131.42261,87 117.022636,105.328843 121.647704,125 L179.794743,125 Z" id="Shape" fill="#FF822E"></path>
                <path d="M156.710866,87.6128574 C154.772291,87.2113955 152.766163,87 150.711581,87 C131.419017,87 117.023903,105.328843 121.64741,125 L133.645978,125 C129.543804,107.54423 140.418642,90.9904455 156.710866,87.6128574 Z" id="Shape" fill="#ED6C24"></path>
                <path d="M216.05026,155.892888 L225.103877,142.877747 L226.581952,138 L219.351496,138 L211.645494,149.561147 L203.939492,138 L188.626618,138 L180.920616,149.561147 L173.214613,138 L157.90174,138 L150.195737,149.561147 L142.489735,138 L127.177796,138 L119.470859,149.561616 L111.764389,138 L96.452918,138 L88.7464482,149.561616 L81.0399784,138 L65.7280397,138 L58.0215698,149.561616 L50.3151,138 L35.0017585,138 L27.2957563,149.561616 L19.5892865,138 L12.9760589,138 L15.0311487,144.594782 L22.8909905,155.894295 L20.1536763,159.830064 L23.0247233,168.368349 L27.2962239,162.227442 L38.2534296,177.97896 L30.1658681,189.606219 L33.0364474,198.144035 L42.6586631,184.311638 L53.6158688,200.063625 L44.2129562,213.580466 C46.1590959,214.776107 48.4353592,215.772944 51.0786863,216.375922 L58.0211022,206.396304 L65.397916,217 L81.3696344,217 L88.745513,206.396304 L96.1213916,217 L112.093578,217 L119.469456,206.396304 L126.845802,217 L142.818456,217 L150.194335,206.396304 L157.570213,217 L173.542399,217 L180.918745,206.396304 L187.936444,216.485171 C190.611101,215.938927 192.922434,214.995074 194.904111,213.836943 L185.323511,200.064094 L196.280717,184.312107 L206.318626,198.742793 L209.189206,190.204508 L200.685483,177.979429 L211.643156,162.226973 L216.330818,168.965701 L219.201398,160.427416 L216.05026,155.892888 Z M165.557241,139.657487 L176.514447,155.893826 L165.557241,171.645812 L154.599568,155.893357 L165.557241,139.657487 Z M134.832831,139.658425 L145.789569,155.893357 L134.832363,171.645812 L123.875157,155.894295 L134.832831,139.658425 Z M104.107485,139.658894 L115.06469,155.894295 L104.107485,171.645812 L93.1507464,155.893826 L104.107485,139.658894 Z M73.3835414,139.658425 L84.3407472,155.893826 L73.3835414,171.645812 L62.4263357,155.893826 L73.3835414,139.658425 Z M31.7009897,155.893357 L42.6581955,139.657487 L53.6158688,155.893357 L42.6581955,171.645344 L31.7009897,155.893357 Z M47.0634289,177.977553 L58.0206347,162.226035 L68.9778404,177.978022 L58.0206347,193.730009 L47.0634289,177.977553 Z M73.3835414,215.814674 L62.4263357,200.062687 L73.3835414,184.310701 L84.3407472,200.062687 L73.3835414,215.814674 Z M77.7887749,177.978022 L88.7459806,162.226035 L99.7031863,177.978022 L88.7459806,193.730009 L77.7887749,177.978022 Z M104.107952,215.814674 L93.1507464,200.062687 L104.107485,184.311169 L115.06469,200.063156 L104.107952,215.814674 Z M108.512718,177.978022 L119.469924,162.226035 L130.426662,177.978022 L119.469456,193.730009 L108.512718,177.978022 Z M134.832831,215.815143 L123.875625,200.063156 L134.832831,184.310701 L145.790504,200.063156 L134.832831,215.815143 Z M139.237129,177.978022 L150.194335,162.225566 L161.152008,177.978022 L150.194802,193.730009 L139.237129,177.978022 Z M165.557241,215.814674 L154.600036,200.063156 L165.557241,184.311169 L176.514447,200.062687 L165.557241,215.814674 Z M180.91968,193.730478 L169.962475,177.978491 L180.91968,162.226035 L191.876886,177.978491 L180.91968,193.730478 Z M196.282587,171.645812 L185.325382,155.893826 L196.283055,139.657956 L207.240261,155.893357 L196.282587,171.645812 Z" id="Shape" fill="#AA563C"></path>
                <g id="Group" transform="translate(12.976059, 138.000000)" fill="#9E4C36">
                    <path d="M42.7397965,72.5262321 C41.1699212,70.4886905 39.7045487,68.3660357 38.3516101,66.1653214 L31.4427593,76.1484762 C31.7147466,76.3163512 31.9946649,76.4790536 32.2797151,76.6389345 C32.3958812,76.7042976 32.5157795,76.7673095 32.6342783,76.8303214 C32.8264889,76.9337738 33.0219652,77.034875 33.2202407,77.1340952 C33.3499361,77.1989881 33.4805647,77.263881 33.6125928,77.3264226 C33.8365275,77.4326964 34.065594,77.5356786 34.2965266,77.6358393 C34.4024291,77.6823929 34.5059988,77.7308274 34.6137674,77.7759702 C34.928209,77.9071667 35.2505816,78.030369 35.578086,78.1498095 C35.7194448,78.2015357 35.8640693,78.2490298 36.0077607,78.2984048 C36.2265635,78.3731726 36.4481655,78.445119 36.6730332,78.514244 C36.8274548,78.5617381 36.9828095,78.6087619 37.1404968,78.6539048 C37.3952225,78.7258512 37.6546135,78.7930952 37.9168037,78.8579881 C38.0418339,78.8885536 38.1635983,78.922881 38.2904946,78.9520357 L38.2909612,78.9520357 L42.7397965,72.5262321 Z" id="Shape"></path>
                    <path d="M10.1689663,18.2950833 L7.50974221,22.1373988 L10.3593108,30.7215952 L14.5636841,24.646119 L25.4958944,40.4432976 L17.4482425,52.0736964 L20.2973445,60.6569524 L29.8910787,46.7943333 L30.0912203,47.084 C28.6655029,41.8478988 27.8033545,36.3780893 27.5724219,30.7422857 L18.9584018,18.2946131 L29.8906121,2.01261905 L31.3377899,4.16819048 C31.7711968,2.87926786 32.2349281,1.60492262 32.7364485,0.349857143 L22.2521075,0.349857143 L14.5636841,11.9449881 L6.87479414,0.349857143 L0.276652614,0.349857143 L2.60603963,7.36722024 L10.1689663,18.2950833 Z" id="Shape"></path>
                </g>
                <path d="M22.1099129,124 L22.1099129,112.835444 C22.1099129,58.9594943 65.9239927,15.1294281 119.778298,15.1294281 C173.632604,15.1294281 217.447155,58.9594943 217.447155,112.835444 L217.447155,124 C226.319156,124 223.673915,124 232.570902,124 L232.570902,112.835444 C232.570902,50.6180294 181.972822,0 119.77877,0 C57.5851886,0 6.98710866,50.6180294 6.98710866,112.835444 L6.98710866,124 L22.1099129,124 Z" id="Shape" fill="#F2D59F"></path>
                <path d="M120.776461,9 C62.9861633,9 15.9705341,55.9440061 15.9705341,113.645585 L15.9705341,124 L23.7332421,124 L23.7332421,112.928133 C23.7332421,59.4994632 67.2670822,16.0332759 120.77693,16.0332759 C174.286777,16.0332759 217.820617,59.4994632 217.820617,112.928133 L217.820617,124 C222.314669,124 221.043837,124 225.583794,124 L225.583794,113.645585 C225.583325,55.9444738 178.567228,9 120.776461,9 Z" id="Shape" fill="#EDBF77"></path>
                <path d="M232.053458,139 L7.50502058,139 C3.35994718,139 0,135.6423 0,131.5 C0,127.356764 3.35994718,124 7.50502058,124 L232.05299,124 C236.198064,124 239.558011,127.356764 239.558011,131.5 C239.558479,135.6423 236.198532,139 232.053458,139 Z" id="Shape" fill="#F6B138"></path>
                <path d="M232.051772,131.666971 L7.50697996,131.666971 C4.73054173,131.666971 2.31203664,130.189851 1.01411962,128 C-1.85542801,132.838244 1.69629807,139 7.50697996,139 L232.051304,139 C237.864326,139 241.412309,132.835959 238.544165,128 C237.246716,130.190308 234.82821,131.666971 232.051772,131.666971 Z" id="Shape" fill="#F2902F"></path>
            </g>
        </g>
    </g>
</svg>