<?xml version="1.0" encoding="UTF-8"?>
<svg width="47px" height="57px" viewBox="0 0 47 57" version="1.1" xmlns="http://www.w3.org/2000/svg" xmlns:xlink="http://www.w3.org/1999/xlink">
    <!-- Generator: Sketch 48.1 (47250) - http://www.bohemiancoding.com/sketch -->
    <title>apple</title>
    <desc>Created with Sketch.</desc>
    <defs></defs>
    <g id="Hábitos----5-/-5" stroke="none" stroke-width="1" fill="none" fill-rule="evenodd" transform="translate(-696.000000, -481.000000)">
        <g id="Content" transform="translate(268.000000, 177.000000)" fill-rule="nonzero">
            <g id="1">
                <g id="Tipos-alimentos?" transform="translate(0.000000, 201.000000)">
                    <g id="Frutas" transform="translate(366.000000, 103.000000)">
                        <g id="apple" transform="translate(62.000000, 0.000000)">
                            <path d="M26.483,16.213 C24.418,16.724 22.256,16.724 20.191,16.213 C9.435,13.553 0.429,14.573 0.533,34.856 C0.586,45.246 10.316,58.718 20.542,56.413 C22.376,56 24.297,56 26.131,56.413 C36.357,58.718 46.087,45.246 46.14,34.856 C46.244,14.574 37.239,13.553 26.483,16.213 Z" id="Shape" fill="#D13834"></path>
                            <path d="M5.533,29.674 C4.98,29.674 4.533,29.226 4.533,28.674 C4.533,23.16 8.57,18.674 13.533,18.674 C14.086,18.674 14.533,19.122 14.533,19.674 C14.533,20.226 14.086,20.674 13.533,20.674 C9.674,20.674 6.533,24.263 6.533,28.674 C6.533,29.226 6.085,29.674 5.533,29.674 Z" id="Shape" fill="#F75B57"></path>
                            <path d="M23.265,19.999 C22.728,19.999 22.284,19.572 22.267,19.031 C22.132,14.799 20.506,9.486 16.345,7.267 C15.858,7.007 15.673,6.402 15.933,5.914 C16.194,5.427 16.797,5.242 17.287,5.502 C22.201,8.122 24.114,14.175 24.266,18.967 C24.284,19.519 23.851,19.981 23.298,19.998 C23.286,19.999 23.276,19.999 23.265,19.999 Z" id="Shape" fill="#4C312C"></path>
                            <path d="M23.176,23.592 C21.496,23.592 19.915,22.937 18.726,21.747 C18.335,21.357 18.335,20.724 18.726,20.333 C19.117,19.942 19.749,19.942 20.14,20.333 C20.952,21.145 22.031,21.592 23.176,21.592 C24.321,21.592 25.4,21.145 26.211,20.333 C26.602,19.942 27.234,19.942 27.625,20.333 C28.016,20.723 28.016,21.356 27.625,21.747 C26.436,22.937 24.856,23.592 23.176,23.592 Z" id="Shape" fill="#994530"></path>
                            <path d="M22.305,13.04 L22.914,8.954 C23.557,4.639 26.945,1.251 31.26,0.608 L35.345,0 L34.736,4.086 C34.093,8.401 30.705,11.789 26.39,12.432 L22.305,13.04 Z" id="Shape" fill="#659C35"></path>
                        </g>
                    </g>
                </g>
            </g>
        </g>
    </g>
</svg>