<?xml version="1.0" encoding="UTF-8"?>
<svg width="174px" height="89px" viewBox="0 0 174 89" version="1.1" xmlns="http://www.w3.org/2000/svg" xmlns:xlink="http://www.w3.org/1999/xlink">
    <!-- Generator: Sketch 48.1 (47250) - http://www.bohemiancoding.com/sketch -->
    <title>meat</title>
    <desc>Created with Sketch.</desc>
    <defs></defs>
    <g id="Hábitos----5-/-5" stroke="none" stroke-width="1" fill="none" fill-rule="evenodd" transform="translate(-894.000000, -289.000000)">
        <g id="Foods" transform="translate(720.000000, 126.000000)" fill-rule="nonzero">
            <g id="meat" transform="translate(245.561019, 212.014083) scale(-1, 1) rotate(40.000000) translate(-245.561019, -212.014083) translate(163.712031, 130.014083)">
                <ellipse id="Oval" fill="#C56458" transform="translate(120.777164, 43.500000) rotate(45.000000) translate(-120.777164, -43.500000) " cx="120.777164" cy="43.5" rx="43.9189687" ry="16.5"></ellipse>
                <path d="M116.37275,47.4128117 C109.796216,40.8236866 105.196507,34.5637411 102.236791,29.4711386 C100.698953,26.8294029 103.636582,23.8861497 106.27603,25.4241654 C111.356141,28.3895484 117.606885,32.9980632 124.18342,39.5871883 C130.759954,46.1763134 135.359662,52.4362589 138.319379,57.5288614 C139.857217,60.1705971 136.919588,63.1138503 134.280139,61.5758346 C129.200029,58.6076854 122.949284,54.0019368 116.37275,47.4128117 Z" id="Shape" fill="#FBD490"></path>
                <path d="M109.023226,54.7756243 C91.8742218,37.5949802 83.1844417,18.4427416 89.6153182,12 C66.5706579,35.0871781 41.4125641,88.1497406 58.561568,105.330385 C75.710572,122.511029 128.675413,97.306518 151.720074,74.2193399 C145.289197,80.6620815 126.17223,71.9590183 109.023226,54.7756243 Z" id="Shape" fill="#773F3A"></path>
                <path d="M61.8858195,108.167374 C60.4676889,107.387034 59.1777355,106.446766 58.0514125,105.307966 C56.5623753,103.802434 55.4142349,102.010133 54.538812,100 L35.7976703,118.948748 C29.4133553,125.403786 20.599128,128.742979 11.5912713,128.177715 C10.5467636,128.111538 9.45862103,128.197017 8.34593392,128.453453 C4.40789425,129.36339 1.20346446,132.589531 0.298042596,136.571194 C-1.3464435,143.7983 4.03972572,150.214734 10.9067506,150.214734 C11.0431093,150.214734 11.1685593,150.178888 11.304918,150.173373 C10.5194918,153.19271 10.5194918,156.52363 14.8966066,160.880298 C16.8492633,162.824254 19.4155343,164.078865 22.1536173,163.996143 C28.0224964,163.816913 32.7241449,158.950129 32.7241449,152.972119 C32.7241449,152.930758 32.7241449,152.889397 32.7241449,152.848036 C32.6232394,143.73488 35.4922268,134.853343 41.8656331,128.409335 L61.8858195,108.167374 Z" id="Shape" fill="#FBD490"></path>
                <path d="M105.081574,70 C104.553868,70 104.018001,69.8421434 103.550138,69.5153527 C100.732078,67.554608 97.9548197,65.1867596 95.2972474,62.4838121 C92.6396752,59.7808647 90.3139595,56.9505242 88.3881037,54.081412 C87.2619677,52.4031475 85.4013951,51.4421611 83.3612937,51.5446294 C81.3320727,51.6332506 79.5340633,52.7493242 78.5466541,54.5272876 C76.8248085,57.6428776 75.3341743,60.7889312 74.1182738,63.8795965 C73.5606461,65.2975361 71.9802475,65.98712 70.5820979,65.4221597 C69.1866685,64.8516606 68.5093548,63.239862 69.0697027,61.8191529 C70.3726475,58.5041651 71.9666468,55.1365585 73.8081784,51.8132625 C75.7204335,48.3514958 79.2049269,46.1830451 83.1246419,46.0113415 C87.0633978,45.8368684 90.6838979,47.6840671 92.876327,50.9547443 C94.5872921,53.5081434 96.75524,56.1390861 99.1380785,58.5678616 C101.558999,61.0298701 104.072404,63.1733961 106.615731,64.9458206 C107.856112,65.8098776 108.174368,67.5324527 107.325686,68.7953052 C106.80342,69.5762798 105.949297,70 105.081574,70 Z" id="Shape" fill="#994530"></path>
                <path d="M76.2876403,100.999995 C72.0025583,101.002697 68.2739097,99.9163838 65.6335791,97.2978819 C63.1405397,94.8280051 61.8803819,91.2583034 61.8858372,86.69957 C61.8885648,85.2052134 63.1078083,84 64.6134514,84 C64.6134514,84 64.616179,84 64.616179,84 C66.1218221,84.0027023 67.3437932,85.2133203 67.3410656,86.7076768 C67.338338,89.7828627 68.0584282,92.058176 69.4904256,93.4768689 C73.7836904,97.7302455 86.2270666,95.4414209 99.7423951,87.9020812 C101.059833,87.1643609 102.718222,87.6291517 103.457406,88.9316469 C104.196589,90.2287376 103.730167,91.879826 102.418185,92.6094395 C94.0798679,97.2627524 84.2304529,100.999995 76.2876403,100.999995 Z" id="Shape" fill="#994530"></path>
            </g>
        </g>
    </g>
</svg>