<?xml version="1.0" encoding="UTF-8"?>
<svg width="210px" height="177px" viewBox="0 0 210 177" version="1.1" xmlns="http://www.w3.org/2000/svg" xmlns:xlink="http://www.w3.org/1999/xlink">
    <!-- Generator: Sketch 48.1 (47250) - http://www.bohemiancoding.com/sketch -->
    <title>vegetables</title>
    <desc>Created with Sketch.</desc>
    <defs></defs>
    <g id="Hábitos----5-/-5" stroke="none" stroke-width="1" fill="none" fill-rule="evenodd" transform="translate(-1052.000000, -171.000000)">
        <g id="Foods" transform="translate(720.000000, 126.000000)" fill-rule="nonzero">
            <g id="vegetables" transform="translate(332.386740, 45.000000)">
                <path d="M50.4491628,76.2972899 L50.4491628,75.9961914 C35.9726768,50.5436936 21.4957808,54.1795294 21.4957808,54.1795294 C12.9789708,65.7979749 11.5849905,81.2054828 17.8763518,94.176194 C17.8763518,94.176194 32.5016657,111.511391 39.1398821,107.356974 C43.3759424,104.705989 181.381638,108.523061 189.565122,96.6760112 C189.951337,96.1166519 189.155538,95.6512056 184.357786,94.176194 C183.292211,93.848734 162.100839,76.8690062 160.837647,76.5069467 C157.11039,75.4393035 152.868179,74.4948182 148.306994,73.6574268 C147.497255,73.5087311 148.490261,64.7183867 147.661253,64.5762814 C116.837477,59.2920244 71.7770622,67.1654808 72.1657367,65.9965104 C72.855757,63.923009 49.3429984,76.4571068 50.4491628,76.2972899 Z" id="Shape" fill="#71C285"></path>
                <g id="Group" transform="translate(187.653775, 0.000000)" fill="#527F72">
                    <path d="M7.5845619,18.2714074 C6.13279599,18.271 4.82417339,17.3946667 4.26867976,16.051037 C3.71318614,14.7074074 4.02021226,13.1608889 5.04661483,12.1321852 L15.8197752,1.34281481 C17.2251822,-0.0399259259 19.4800959,-0.0297407407 20.8728965,1.36562963 C22.2656972,2.761 22.2758636,5.02007407 20.8956693,6.42807407 L10.122509,17.2174444 C9.4498981,17.8933333 8.53654621,18.2726296 7.5845619,18.2714074 Z" id="Shape"></path>
                    <path d="M7.5845619,18.2714074 C6.03926485,18.2714074 4.66679708,17.2814074 4.17718191,15.8131111 L0.590872792,5.02374074 C-0.0365991406,3.13825926 0.98045031,1.10040741 2.86245945,0.472185185 C4.74446859,-0.156444444 6.77856749,0.862481481 7.40563277,2.74796296 L10.9919419,13.5373333 C11.6165672,15.4224074 10.6003311,17.4586296 8.72035523,18.0888889 C8.35355051,18.2090741 7.97007285,18.2705926 7.5845619,18.2714074 Z" id="Shape"></path>
                    <path d="M18.3573156,21.868 C17.9709913,21.8675926 17.5875137,21.8048519 17.2215223,21.6818148 L6.44836191,18.0852222 C5.22839056,17.6814815 4.31707196,16.6552222 4.05884469,15.3947037 C3.80061742,14.1341852 4.23452056,12.8312963 5.1966713,11.9785926 C6.15882204,11.1258889 7.50282382,10.8537407 8.71994857,11.2648148 L19.4931089,14.8614074 C21.1624364,15.419963 22.1811125,17.1082593 21.8992991,18.8487037 C21.6170791,20.5887407 20.1173276,21.8671852 18.3573156,21.868 Z" id="Shape"></path>
                </g>
                <path d="M194.184131,38.8833173 L154.772328,73.7354754 C147.020896,78.6183555 151.983906,76.5764538 145.542587,76.5764538 C144.305442,76.5764538 134.538959,69.1610397 133.337679,69.3066255 L133.373956,69.0886581 C127.801648,61.4873549 131.554309,55.4747459 140.652132,53.4776714 L146.256182,47.1607306 L151.132622,41.7152479 L158.228997,33.6919928 L163.069159,28.2099081 L168.49141,22.1471255 L172.676515,17.4275153 C172.862437,17.146214 173.068972,16.8793068 173.295294,16.62885 C177.094539,12.0054744 183.235332,9.99811841 189.040558,11.4815302 C194.845783,12.9653533 199.26257,17.6709807 200.365736,23.5470517 C201.469315,29.4235339 199.058097,35.4048873 194.184131,38.8833173 Z" id="Shape" fill="#F18D46"></path>
                <g id="Group" transform="translate(145.731123, 16.000000)" fill="#FAC176">
                    <path d="M33.6158018,11.9369043 C32.1850885,13.3533511 29.8945499,13.3533511 28.4638366,11.9369043 L22.5136971,5.93048936 L26.686234,1.16917021 C26.8715979,0.885382979 27.0775121,0.616117021 27.3031546,0.363446809 L33.6162128,6.73621277 C35.0308968,8.17547872 35.0308968,10.4976383 33.6158018,11.9369043 Z" id="Shape"></path>
                    <path d="M22.7311195,22.9245319 C21.3004062,24.3409787 19.0098676,24.3409787 17.5791544,22.9245319 L12.282104,17.577383 L17.10773,12.0468511 L22.7315305,17.7238404 C24.1462145,19.1631064 24.1462145,21.4848511 22.7311195,22.9245319 Z" id="Shape"></path>
                    <path d="M11.8468482,37.5744255 C10.416135,38.9908723 8.12559636,38.9908723 6.69488311,37.5744255 L0.345656375,31.1651489 L5.20745098,25.6715426 L11.8468482,32.373734 C13.2615322,33.813 13.2615322,36.1351596 11.8468482,37.5744255 Z" id="Shape"></path>
                </g>
                <path d="M101.767371,58.8060478 L101.767781,58.8056392 C101.776798,58.5126865 101.812049,58.2270883 101.812049,57.9320927 C101.8432,46.4158252 95.0013294,35.9839319 84.4056928,31.3927058 C73.8100563,26.8014798 61.4904257,28.930596 53.063923,36.8088572 C44.6370104,44.6871184 41.7173694,56.8060432 45.6355005,67.6399802 L45.6363203,67.641206 C46.5056953,68.7652126 47.3808088,69.9856445 48.2620707,71.3033186 C48.305109,71.3670572 48.3469177,71.4185385 48.3899561,71.4830943 C49.3097475,72.8673671 50.233228,74.355011 51.1567084,75.9660464 L51.1567084,76.2647192 C63.6079135,74.3219159 75.5619229,81.9252021 79.039833,94 L90.9573623,94 C95.4046604,89.8937597 98.3165134,84.3999779 99.2121214,78.4236618 C100.450807,71.9402966 101.304196,65.3895154 101.767371,58.8060478 Z" id="Shape" fill="#D75E72"></path>
                <g id="Group" transform="translate(50.906077, 8.000000)" fill="#527F72">
                    <path d="M21.9648203,25.6525079 C21.0035285,25.6529206 20.0816406,25.2695238 19.4019227,24.5860952 C18.7222049,23.9026667 18.3408897,22.975746 18.3413001,22.0092063 C18.3339119,13.9657143 11.8515542,7.44631746 3.85132414,7.4368254 C1.85034309,7.4368254 0.227803996,5.80584127 0.227803996,3.79352381 C0.227803996,1.78120635 1.84993263,0.150222222 3.85132414,0.150222222 C15.851464,0.165079365 25.5752058,9.94355556 25.58793,22.0092063 C25.5883404,22.975746 25.2070253,23.9026667 24.5273074,24.5860952 C23.8475895,25.2695238 22.9257017,25.6533333 21.9648203,25.6525079 Z" id="Shape"></path>
                    <path d="M21.9648203,25.6525079 C21.0035285,25.6529206 20.0816406,25.2695238 19.4019227,24.5860952 C18.7222049,23.9026667 18.3408897,22.975746 18.3413001,22.0092063 C18.3544348,9.94231746 28.0802288,0.163428571 40.0816001,0.150222222 C42.0825812,0.150222222 43.7051203,1.78120635 43.7051203,3.79352381 C43.7051203,5.80584127 42.0829916,7.4368254 40.0816001,7.4368254 C32.0805491,7.44466667 25.5961391,13.9644762 25.5883404,22.0092063 C25.5887509,22.975746 25.2074357,23.9026667 24.5277179,24.5860952 C23.8475895,25.2695238 22.9257017,25.6533333 21.9648203,25.6525079 Z" id="Shape"></path>
                </g>
                <path d="M208.866575,98.6193777 L207.493282,101.97558 C198.000196,125.128883 181.851099,144.956233 161.083822,158.956626 C159.24048,160.219801 157.361107,161.410619 155.445293,162.565464 L155.409262,162.565464 L155.409262,170.17967 C155.410899,171.988994 154.691497,173.724736 153.40992,175.003854 C152.128343,176.28338 150.39023,177.001224 148.578007,176.999997 L61.0356625,176.999997 C59.2234391,177.001632 57.4849166,176.28338 56.2037492,175.003854 C54.9221724,173.724327 54.2031791,171.988994 54.2044075,170.17967 L54.2044075,162.565464 C52.2885934,161.410619 50.4092203,160.219801 48.5658788,158.956626 C27.7785386,144.968496 11.6147018,125.138285 2.11997802,101.975172 L0.746684495,98.6189689 C-0.00301748704,97.8242724 -0.208561122,96.6612521 0.222998621,95.6584792 C0.654558364,94.6557064 1.64133159,94.0040879 2.73456168,94 L206.878698,94 C207.971928,94.0040879 208.958701,94.6557064 209.390261,95.6584792 C209.821821,96.6616609 209.616277,97.8246812 208.866575,98.6193777 Z" id="Shape" fill="#E6E7E8"></path>
                <path d="M155.354221,147.999995 C153.792556,148.002431 152.404455,147.018292 151.90844,145.556293 C151.412014,144.094699 151.919133,142.483292 153.166574,141.556399 L153.180969,141.545843 C153.296541,141.459365 153.41746,141.379789 153.542492,141.307928 C167.047172,133.145335 177.862432,121.289782 184.67626,107.179722 C185.184202,106.001921 186.290158,105.180993 187.577493,105.026308 C188.864828,104.871622 190.13818,105.406728 190.917573,106.429843 C191.696966,107.452959 191.86436,108.808993 191.356418,109.986793 C183.890286,125.484961 172.030763,138.513036 157.215715,147.492498 C156.652661,147.823792 156.009816,147.999183 155.354221,147.999995 Z" id="Shape" fill="#FFFFFF"></path>
                <g id="Group" transform="translate(47.911602, 159.000000)" fill="#BDC3C7">
                    <path d="M56.3836884,3.97866667 C56.3775585,6.14266667 54.7661873,7.89555556 52.7759824,7.90222222 L5.87825596,7.90222222 L5.87825596,3.97866667 C3.96610637,2.72311111 2.09032809,1.42844444 0.250512438,0.0551111111 L52.7763911,0.0551111111 C54.7661873,0.0617777778 56.3775585,1.81422222 56.3836884,3.97866667 Z" id="Shape"></path>
                    <path d="M112.552827,0.0551111111 C110.713011,1.42844444 108.837233,2.72311111 106.925084,3.97866667 L106.889121,3.97866667 L106.889121,7.90222222 L96.0664115,7.90222222 C94.0741633,7.90222222 92.4587055,6.14577778 92.4587055,3.97866667 C92.4587055,1.81155556 94.0737547,0.0551111111 96.0664115,0.0551111111 L112.552827,0.0551111111 Z" id="Shape"></path>
                </g>
                <path d="M77.8563536,94 C74.7003663,83.3210386 64.9572317,76 53.9005525,76 C42.8438733,76 33.1007387,83.3206307 29.9447514,94 L77.8563536,94 Z" id="Shape" fill="#805333"></path>
                <path d="M171.683241,95 C166.952419,79.5258933 153.011007,69 137.246777,69 C121.482547,69 107.541545,79.5258933 102.810313,95 L171.683241,95 Z" id="Shape" fill="#59474E"></path>
                <g id="Group" transform="translate(88.836096, 40.000000)" fill="#71C285">
                    <path d="M44.9849903,29.5226866 L45.0141557,29.3199254 C59.5184067,9.2408209 48.6405266,0.33369403 48.6405266,0.33369403 C48.6405266,0.33369403 -9.37729871,14.8266045 1.50099218,54.6827239 L14.0445875,54.6827239 C18.40338,40.8744403 30.5682357,30.9822388 44.9849903,29.5226866 Z" id="Shape"></path>
                    <path d="M70.3966976,36.5663806 L70.3966976,36.5725373 C76.4635157,41.1219403 80.9533473,47.4547388 83.2360549,54.6827239 L95.7796502,54.6827239 C106.657941,40.1898134 106.657941,29.3199254 106.657941,29.3199254 C83.0910493,18.4504478 70.3966976,36.5663806 70.3966976,36.5663806 Z" id="Shape"></path>
                </g>
                <path d="M57.561227,61.9999987 C56.5900785,62.000414 55.658738,61.6145439 54.9720506,60.9267064 C54.2853632,60.238869 53.9001382,59.3059687 53.9005528,58.3331938 C53.9109195,48.2137593 62.0968472,40.0124608 72.1993626,40 C74.2208609,40 75.8600368,41.6415058 75.8600368,43.6668049 C75.8600368,45.692104 74.2212756,47.3336098 72.1993626,47.3336098 C66.1385998,47.341917 61.2277066,52.2622807 61.2214866,58.3336091 C61.2219013,59.3063841 60.8366763,60.2392843 60.1499888,60.9271218 C59.4637161,61.6145439 58.5323756,62.0008294 57.561227,61.9999987 Z" id="Shape" fill="#802D40"></path>
            </g>
        </g>
    </g>
</svg>