<?xml version="1.0" encoding="UTF-8"?>
<svg width="203px" height="96px" viewBox="0 0 203 96" version="1.1" xmlns="http://www.w3.org/2000/svg" xmlns:xlink="http://www.w3.org/1999/xlink">
    <!-- Generator: Sketch 48.1 (47250) - http://www.bohemiancoding.com/sketch -->
    <title>sandwich</title>
    <desc>Created with Sketch.</desc>
    <defs></defs>
    <g id="Hábitos----5-/-5" stroke="none" stroke-width="1" fill="none" fill-rule="evenodd" transform="translate(-720.000000, -265.000000)">
        <g id="Foods" transform="translate(720.000000, 126.000000)" fill-rule="nonzero">
            <g id="sandwich" transform="translate(0.000000, 139.000000)">
                <path d="M185.618343,67.4587799 C183.374546,67.7881286 181.00629,67.9703215 178.54558,67.9703215 C172.016876,67.9703215 166.110461,66.7124897 161.676204,64.6873454 C157.234836,66.7159934 151.30353,67.9703215 144.764157,67.9703215 C136.820189,67.9703215 129.765206,66.1308739 125.206492,63.2753504 C120.647778,66.1308739 113.592794,67.9703215 105.648826,67.9703215 C96.577625,67.9703215 88.6621043,65.5702803 84.3131906,62 C79.9642769,65.5702803 72.0487562,67.9703215 62.9775552,67.9703215 C55.033587,67.9703215 47.9786036,66.1308739 43.4198895,63.2753504 C38.8611754,66.1308739 31.806192,67.9703215 23.8622238,67.9703215 C20.7258854,67.9703215 17.7353405,67.6725062 14.9723757,67.1504534 C14.9723757,68.3487222 14.9723757,69.5364798 14.9723757,69.7221764 C14.9723757,84.2345425 26.9132196,96 41.6419199,96 L158.987914,96 C173.716615,96 185.657459,84.2345425 185.657459,69.7221764 C185.657459,69.3262572 185.614787,68.9408491 185.597008,68.5519373 C185.604119,68.4888706 185.611231,68.0298846 185.618343,67.4587799 Z" id="Shape" fill="#EEAF4B"></path>
                <path d="M185.150305,43 C184.885467,46.6131291 181.892096,49.4945295 178.233146,49.4945295 L167.134328,49.4945295 C168.650179,51.0875274 169.521358,52.8625821 169.521358,54.7461707 C169.521358,58.2962801 166.50011,61.4822757 161.701657,63.7194748 C166.047097,65.7466083 171.835209,67 178.233146,67 C191.705054,67 202.626151,61.5137856 202.626151,54.7461707 C202.626151,49.1864333 195.249009,44.4984683 185.150305,43 Z" id="Shape" fill="#7A3726"></path>
                <path d="M128.635465,50 C130.205768,51.6416 131.158011,53.456 131.158011,55.4 C131.158011,58.3376 129.134944,61.034 125.767956,63.176 C130.374656,66.11 137.503903,68 145.531492,68 C159.423461,68 170.685083,62.3588 170.685083,55.4 C170.685083,53.4632 169.78674,51.638 168.230811,50 L128.635465,50 Z" id="Shape" fill="#C56458"></path>
                <path d="M185.657459,26.25 C185.657459,11.753 173.716615,0 158.987914,0 C151.250191,0 144.301885,3.2655 139.430249,8.4455 C134.558612,3.262 127.610307,0 119.872583,0 C112.134859,0 105.186554,3.2655 100.314917,8.4455 C95.4432804,3.262 88.4949751,0 80.7572514,0 C73.0195276,0 66.0712224,3.2655 61.1995856,8.4455 C56.3279489,3.262 49.3796436,0 41.6419199,0 C26.9132196,0 14.9723757,11.753 14.9723757,26.25 C14.9723757,26.6455 15.015047,27.0305 15.0328267,27.419 C15.015047,27.615 14.9723757,27.8005 14.9723757,28 L14.9723757,42 C14.9723757,45.85 18.172721,49 22.0842541,49 L178.54558,49 C182.457113,49 185.657459,45.85 185.657459,42 L185.657459,28 C185.657459,27.8005 185.614787,27.615 185.597008,27.419 C185.614787,27.027 185.657459,26.6455 185.657459,26.25 Z" id="Shape" fill="#EEAF4B"></path>
                <path d="M22.7081031,50.2747415 C19.1411842,50.2747415 16.2065985,47.5131462 15.8013462,44 C6.57486924,45.7725258 0,50.2853767 0,55.5923191 C0,62.444904 10.9487993,68 24.4548803,68 C37.9609613,68 48.9097606,62.444904 48.9097606,55.5923191 C48.9097606,53.6850812 48.036372,51.88774 46.523663,50.2747415 L22.7081031,50.2747415 Z" id="Shape" fill="#7A3726"></path>
                <path d="M47.7846365,50 C49.3549392,51.6416 50.3071823,53.456 50.3071823,55.4 C50.3071823,58.3376 48.2841149,61.034 44.9171271,63.176 C49.5238276,66.11 56.653074,68 64.680663,68 C78.572632,68 89.8342541,62.3588 89.8342541,55.4 C89.8342541,53.4632 88.9359116,51.638 87.3799823,50 L47.7846365,50 Z" id="Shape" fill="#C56458"></path>
                <path d="M84.9225471,50 C86.4660071,51.638 87.3772489,53.4596 87.3772489,55.4 C87.3772489,57.7688 86.0739612,59.972 83.8453039,61.8656 C88.1648726,65.534 96.0269823,68 105.036974,68 C118.691474,68 129.760589,62.3588 129.760589,55.4 C129.760589,53.4632 128.877603,51.638 127.348271,50 L84.9225471,50 Z" id="Shape" fill="#7A3726"></path>
                <ellipse id="Oval" fill="#FBD490" cx="38.4290976" cy="77.5" rx="3.49355433" ry="3.5"></ellipse>
                <ellipse id="Oval" fill="#FBD490" cx="56.3959484" cy="85.5" rx="3.49355433" ry="3.5"></ellipse>
                <ellipse id="Oval" fill="#FBD490" cx="70.3701657" cy="77.5" rx="3.49355433" ry="3.5"></ellipse>
                <ellipse id="Oval" fill="#FBD490" cx="80.3517495" cy="85.5" rx="3.49355433" ry="3.5"></ellipse>
                <ellipse id="Oval" fill="#FBD490" cx="95.3241252" cy="77.5" rx="3.49355433" ry="3.5"></ellipse>
                <ellipse id="Oval" fill="#FBD490" cx="109.298343" cy="85.5" rx="3.49355433" ry="3.5"></ellipse>
                <ellipse id="Oval" fill="#FBD490" cx="124.270718" cy="74.5" rx="3.49355433" ry="3.5"></ellipse>
                <ellipse id="Oval" fill="#FBD490" cx="133.254144" cy="85.5" rx="3.49355433" ry="3.5"></ellipse>
                <ellipse id="Oval" fill="#FBD490" cx="151.220994" cy="77.5" rx="3.49355433" ry="3.5"></ellipse>
                <ellipse id="Oval" fill="#FBD490" cx="166.19337" cy="81.5" rx="3.49355433" ry="3.5"></ellipse>
                <path d="M56.4747504,34 C54.4992374,34 52.9023941,32.4002105 52.9023941,30.4210526 C52.9023941,13.6465263 66.5237887,0 83.2674227,0 C85.2429357,0 86.839779,1.59978947 86.839779,3.57894737 C86.839779,5.55810526 85.2429357,7.15789474 83.2674227,7.15789474 C70.4640977,7.15789474 60.0471067,17.5941053 60.0471067,30.4210526 C60.0471067,32.4002105 58.4502634,34 56.4747504,34 Z" id="Shape" fill="#FBD490"></path>
                <path d="M94.4047688,34 C92.4292558,34 90.8324125,32.4002105 90.8324125,30.4210526 C90.8324125,13.6465263 104.453807,0 121.197441,0 C123.172954,0 124.769797,1.59978947 124.769797,3.57894737 C124.769797,5.55810526 123.172954,7.15789474 121.197441,7.15789474 C108.394116,7.15789474 97.9771251,17.5941053 97.9771251,30.4210526 C97.9771251,32.4002105 96.3802819,34 94.4047688,34 Z" id="Shape" fill="#FBD490"></path>
                <g id="Group" transform="translate(128.762431, 0.000000)">
                    <path d="M4.06036569,29.8021632 C4.06036569,15.3487632 15.8635458,3.63111053 30.4224415,3.63111053" id="Shape" fill="#EEAF4B"></path>
                    <path d="M4.06036569,33.2916368 C2.11660197,33.2916368 0.545422257,31.7318421 0.545422257,29.8021632 C0.545422257,13.447 13.9479016,0.141636842 30.4224415,0.141636842 C32.3662052,0.141636842 33.9373849,1.70143158 33.9373849,3.63111053 C33.9373849,5.56078947 32.3662052,7.12058421 30.4224415,7.12058421 C17.8248842,7.12058421 7.57530913,17.2958895 7.57530913,29.8021632 C7.57530913,31.7318421 6.00412941,33.2916368 4.06036569,33.2916368 Z" id="Shape" fill="#FBD490"></path>
                </g>
                <path d="M51.1556169,43.3333333 C50.4569061,43.3333333 49.7861436,43.3993333 49.1363425,43.4946667 C48.458593,41.28 46.5022026,39.6666667 44.1685083,39.6666667 C43.4767845,39.6666667 42.8234899,39.8133333 42.219105,40.07 C41.6147201,37.7306667 39.5989392,36 37.1813996,36 C34.8127698,36 32.8319245,37.661 32.1856169,39.927 C31.5428029,39.7693333 30.8825212,39.6666667 30.194291,39.6666667 C28.3322265,39.6666667 26.6133978,40.29 25.1950147,41.3313333 C23.6927864,40.3046667 21.8027735,39.6666667 19.713628,39.6666667 C14.8890295,39.6666667 10.9797422,42.9483333 10.9797422,47 C10.9797422,51.048 14.8890295,54.3333333 19.713628,54.3333333 C20.8350589,54.3333333 21.8970994,54.139 22.8787882,53.8163333 C24.4369134,56.328 27.1234567,58 30.194291,58 C31.8991455,58 33.4817256,57.4646667 34.826744,56.5773333 C35.9796169,57.461 37.3910129,58 38.9281768,58 C42.0025046,58 44.5877348,55.899 45.5205138,53.0023333 C47.0437035,53.82 48.9966004,54.3333333 51.1556169,54.3333333 C55.9802155,54.3333333 59.8895028,51.8693333 59.8895028,48.8333333 C59.8895028,45.7973333 55.9802155,43.3333333 51.1556169,43.3333333 Z" id="Shape" fill="#88C057"></path>
                <path d="M93.0782689,43.3333333 C92.379558,43.3333333 91.7087956,43.3993333 91.0589945,43.4946667 C90.3812449,41.28 88.4248545,39.6666667 86.0911602,39.6666667 C85.3994365,39.6666667 84.7461418,39.8133333 84.1417569,40.07 C83.537372,37.7306667 81.5215912,36 79.1040516,36 C76.7354217,36 74.7545764,37.661 74.1082689,39.927 C73.4654549,39.7693333 72.8051731,39.6666667 72.1169429,39.6666667 C70.2548785,39.6666667 68.5360497,40.29 67.1176667,41.3313333 C65.6154383,40.3046667 63.7254254,39.6666667 61.6362799,39.6666667 C56.8116814,39.6666667 52.9023941,42.9483333 52.9023941,47 C52.9023941,51.048 56.8116814,54.3333333 61.6362799,54.3333333 C62.7577109,54.3333333 63.8197514,54.139 64.8014401,53.8163333 C66.3595654,56.328 69.0461087,58 72.1169429,58 C73.8217974,58 75.4043775,57.4646667 76.7493959,56.5773333 C77.9022689,57.461 79.3136648,58 80.8508287,58 C83.9251565,58 86.5103867,55.899 87.4431657,53.0023333 C88.9663554,53.82 90.9192523,54.3333333 93.0782689,54.3333333 C97.9028674,54.3333333 101.812155,51.8693333 101.812155,48.8333333 C101.812155,45.7973333 97.9028674,43.3333333 93.0782689,43.3333333 Z" id="Shape" fill="#88C057"></path>
                <path d="M138.993554,43.3333333 C138.294843,43.3333333 137.624081,43.3993333 136.97428,43.4946667 C136.29653,41.28 134.34014,39.6666667 132.006446,39.6666667 C131.314722,39.6666667 130.661427,39.8133333 130.057042,40.07 C129.452657,37.7306667 127.436877,36 125.019337,36 C122.650707,36 120.669862,37.661 120.023554,39.927 C119.38074,39.7693333 118.720459,39.6666667 118.032228,39.6666667 C116.170164,39.6666667 114.451335,40.29 113.032952,41.3313333 C111.530724,40.3046667 109.640711,39.6666667 107.551565,39.6666667 C102.726967,39.6666667 98.8176796,42.9483333 98.8176796,47 C98.8176796,51.048 102.726967,54.3333333 107.551565,54.3333333 C108.672996,54.3333333 109.735037,54.139 110.716726,53.8163333 C112.274851,56.328 114.961394,58 118.032228,58 C119.737083,58 121.319663,57.4646667 122.664681,56.5773333 C123.817554,57.461 125.22895,58 126.766114,58 C129.840442,58 132.425672,55.899 133.358451,53.0023333 C134.881641,53.82 136.834538,54.3333333 138.993554,54.3333333 C143.818153,54.3333333 147.72744,51.8693333 147.72744,48.8333333 C147.72744,45.7973333 143.818153,43.3333333 138.993554,43.3333333 Z" id="Shape" fill="#88C057"></path>
                <path d="M184.90884,43.3333333 C184.210129,43.3333333 183.539366,43.3993333 182.889565,43.4946667 C182.211816,41.28 180.255425,39.6666667 177.921731,39.6666667 C177.230007,39.6666667 176.576713,39.8133333 175.972328,40.07 C175.367943,37.7306667 173.352162,36 170.934622,36 C168.565993,36 166.585147,37.661 165.93884,39.927 C165.296026,39.7693333 164.635744,39.6666667 163.947514,39.6666667 C162.085449,39.6666667 160.366621,40.29 158.948238,41.3313333 C157.446009,40.3046667 155.555996,39.6666667 153.466851,39.6666667 C148.642252,39.6666667 144.732965,42.9483333 144.732965,47 C144.732965,51.048 148.642252,54.3333333 153.466851,54.3333333 C154.588282,54.3333333 155.650322,54.139 156.632011,53.8163333 C158.190136,56.328 160.87668,58 163.947514,58 C165.652368,58 167.234948,57.4646667 168.579967,56.5773333 C169.73284,57.461 171.144236,58 172.6814,58 C175.755727,58 178.340958,55.899 179.273737,53.0023333 C180.796926,53.82 182.749823,54.3333333 184.90884,54.3333333 C189.733438,54.3333333 193.642726,51.8693333 193.642726,48.8333333 C193.642726,45.7973333 189.733438,43.3333333 184.90884,43.3333333 Z" id="Shape" fill="#88C057"></path>
            </g>
        </g>
    </g>
</svg>