<?xml version="1.0" encoding="UTF-8"?>
<svg width="50px" height="50px" viewBox="0 0 50 50" version="1.1" xmlns="http://www.w3.org/2000/svg" xmlns:xlink="http://www.w3.org/1999/xlink">
    <!-- Generator: Sketch 48.1 (47250) - http://www.bohemiancoding.com/sketch -->
    <title>steak</title>
    <desc>Created with Sketch.</desc>
    <defs></defs>
    <g id="Hábitos----5-/-5" stroke="none" stroke-width="1" fill="none" fill-rule="evenodd" transform="translate(-514.000000, -488.000000)">
        <g id="Content" transform="translate(268.000000, 177.000000)" fill-rule="nonzero">
            <g id="1">
                <g id="Tipos-alimentos?" transform="translate(0.000000, 201.000000)">
                    <g id="Carnes" transform="translate(186.000000, 110.000000)">
                        <g id="steak" transform="translate(60.000000, 0.000000)">
                            <path d="M0.953,38.891 C0.953,38.891 4.137,45.812 12.358,48.531 C14.185,49.135 16.109,49.282 18.025,49.453 C25.891,50.156 44.739,48.482 49.091,30.477 C50.458,24.821 49.851,18.865 47.662,13.474 C44.51,5.711 37.447,-4.233 22.831,2.427 C14.503,6.222 15.135,12.706 16.918,17.214 C19.075,22.67 14.675,28.295 8.858,27.53 C1.669,26.584 -1.825,30.904 0.953,38.891 Z" id="Shape" fill="#994530"></path>
                            <g id="Group" transform="translate(2.000000, 3.000000)">
                                <path d="M2.69,34.18 C3.092,34.965 5.748,39.732 11.801,41.734 C13.136,42.175 14.664,42.311 16.283,42.454 L16.565,42.479 C17.383,42.552 18.263,42.589 19.182,42.589 C37.362,42.589 42.036,31.371 43.202,26.548 C44.336,21.855 43.908,16.845 41.967,12.06 C39.049,4.874 34.856,1.229 29.506,1.229 C27.296,1.229 24.823,1.844 22.157,3.059 C19.165,4.423 15.481,6.98 18.027,13.419 C19.311,16.669 18.939,20.165 17.004,23.01 C14.834,26.201 11.002,27.911 7.109,27.4 C6.616,27.335 6.143,27.301 5.705,27.301 C4.628,27.301 3.203,27.499 2.532,28.444 C1.765,29.524 1.823,31.609 2.69,34.18 Z" id="Shape" fill="#D75A4A"></path>
                                <path d="M19.184,43.589 C18.236,43.589 17.326,43.551 16.478,43.475 L16.195,43.45 C14.521,43.303 12.938,43.163 11.489,42.683 C5.113,40.575 2.301,35.61 1.801,34.636 L1.743,34.499 C0.759,31.582 0.75,29.226 1.717,27.864 C2.629,26.579 4.607,26.057 7.241,26.408 C10.778,26.874 14.2,25.354 16.177,22.447 C17.923,19.882 18.259,16.724 17.098,13.786 C13.909,5.721 19.805,3.032 21.743,2.148 C31.423,-2.259 38.553,0.993 42.895,11.683 C44.916,16.664 45.359,21.885 44.175,26.782 C42.953,31.836 38.073,43.589 19.184,43.589 Z M3.613,33.787 C4.014,34.545 6.549,38.942 12.116,40.784 C13.345,41.19 14.815,41.32 16.372,41.457 L16.656,41.482 C17.444,41.552 18.295,41.588 19.183,41.588 C36.652,41.588 41.121,30.905 42.231,26.312 C43.315,21.825 42.903,17.026 41.041,12.435 C38.29,5.663 34.409,2.229 29.506,2.229 C27.439,2.229 25.106,2.814 22.572,3.969 C19.552,5.345 16.762,7.501 18.957,13.052 C20.365,16.615 19.955,20.45 17.831,23.573 C15.427,27.107 11.268,28.959 6.979,28.391 C5.186,28.155 3.782,28.41 3.347,29.023 C2.912,29.636 2.756,31.207 3.613,33.787 Z" id="Shape" fill="#C64940"></path>
                            </g>
                            <g id="Group" transform="translate(27.000000, 7.000000)">
                                <circle id="Oval" fill="#E6E6E6" cx="5.455" cy="5.779" r="4"></circle>
                                <path d="M5.455,10.779 C2.698,10.779 0.455,8.536 0.455,5.779 C0.455,3.022 2.698,0.779 5.455,0.779 C8.212,0.779 10.455,3.022 10.455,5.779 C10.455,8.536 8.212,10.779 5.455,10.779 Z M5.455,2.779 C3.801,2.779 2.455,4.125 2.455,5.779 C2.455,7.433 3.801,8.779 5.455,8.779 C7.109,8.779 8.455,7.433 8.455,5.779 C8.455,4.125 7.109,2.779 5.455,2.779 Z" id="Shape" fill="#7A3726"></path>
                            </g>
                            <path d="M25.617,45.684 L23.676,45.205 C24.111,43.444 22.613,41.989 20.23,40.346 C17.355,38.362 15.413,35.229 14.903,31.751 C14.717,30.485 14.478,29.466 14.475,29.456 L16.397,28.908 C16.407,28.936 17.487,32.012 20.375,33.222 C22.469,34.099 25.042,33.82 28.023,32.39 C39.601,26.836 45.125,29.744 45.355,29.87 L44.388,31.622 C44.348,31.601 39.418,29.142 28.888,34.192 C25.358,35.886 22.226,36.176 19.576,35.055 C18.775,34.716 18.086,34.276 17.498,33.79 C18.267,35.764 19.608,37.485 21.365,38.697 C23.149,39.931 26.472,42.222 25.617,45.684 Z" id="Shape" fill="#C64940"></path>
                            <path d="M27.074,27.586 C21.704,27.586 19.469,23.892 19.441,23.846 L21.168,22.836 L20.305,23.341 L21.164,22.83 C21.272,23.009 23.878,27.165 30.902,24.935 C32.442,24.141 42.94,18.933 46.521,22.646 L45.082,24.035 C43.103,21.983 35.853,24.611 31.75,26.749 L31.596,26.813 C29.892,27.364 28.389,27.586 27.074,27.586 Z" id="Shape" fill="#C64940"></path>
                        </g>
                    </g>
                </g>
            </g>
        </g>
    </g>
</svg>