<?xml version="1.0" encoding="UTF-8"?>
<svg width="392px" height="442px" viewBox="0 0 392 442" version="1.1" xmlns="http://www.w3.org/2000/svg" xmlns:xlink="http://www.w3.org/1999/xlink">
    <!-- Generator: Sketch 48.1 (47250) - http://www.bohemiancoding.com/sketch -->
    <title>Sleep</title>
    <desc>Created with Sketch.</desc>
    <defs></defs>
    <g id="Hábitos----4-/-5" stroke="none" stroke-width="1" fill="none" fill-rule="evenodd" transform="translate(-720.000000, -114.000000)">
        <g id="Icon" transform="translate(720.000000, 114.000000)">
            <g id="Sleep">
                <g id="People" transform="translate(0.000000, 129.000000)">
                    <path d="M278.69,177.723 L275.717,167.881 L246.089,156.289 L246.079,156.276 L228.618,144.064 L164.275,144.064 L146.795,156.276 L117.109,167.881 L114.251,177.386 C121.281,185.336 129.441,192.246 138.482,197.895 L138.482,197.914 C142.888,200.667 147.515,203.112 152.311,205.233 C152.333,205.238 152.351,205.25 152.371,205.257 C154.803,206.327 157.268,207.31 159.789,208.21 C159.8,208.21 159.8,208.21 159.815,208.21 C171.322,212.308 183.701,214.558 196.615,214.558 C206.529,214.558 216.131,213.223 225.276,210.757 L225.276,210.765 C225.282,210.757 225.284,210.757 225.292,210.749 C227.776,210.081 230.211,209.324 232.616,208.488 C232.893,208.389 233.164,208.304 233.433,208.194 C235.776,207.357 238.097,206.467 240.361,205.48 C240.509,205.412 240.657,205.344 240.793,205.284 C242.905,204.354 244.974,203.343 247.034,202.292 C247.346,202.124 247.673,201.962 247.999,201.795 C249.997,200.735 251.962,199.604 253.889,198.422 C254.373,198.124 254.847,197.818 255.336,197.522 C257.209,196.325 259.057,195.103 260.851,193.804 C261.214,193.538 261.563,193.256 261.928,192.995 C263.475,191.847 264.989,190.663 266.468,189.434 C266.917,189.071 267.372,188.715 267.804,188.339 C267.923,188.248 268.048,188.14 268.169,188.042 L268.152,188.022 C271.881,184.819 275.414,181.395 278.69,177.723" id="Fill-3" fill="#535B61"></path>
                    <polygon id="Fill-4" fill="#B3B5B1" points="164.275 161.52 228.74 161.52 228.74 144.064 164.275 144.064"></polygon>
                    <path d="M173.228,189.682 L177.779,212.912 C183.904,213.979 190.192,214.558 196.615,214.558 C202.912,214.558 209.078,214.007 215.073,212.983 L219.671,189.574 L196.496,167.881 L173.228,189.682" id="Fill-5" fill="#CACCC6"></path>
                    <path d="M158.156,89.285 C159.789,96.904 158.423,103.661 155.104,104.369 C151.793,105.076 147.783,99.474 146.152,91.858 C144.519,84.234 145.885,77.49 149.206,76.771 C152.516,76.064 156.51,81.673 158.156,89.285" id="Fill-6" fill="#F2C790"></path>
                    <path d="M234.806,89.285 C233.178,96.904 234.55,103.661 237.859,104.369 C241.172,105.076 245.176,99.474 246.821,91.858 C248.456,84.234 247.078,77.49 243.768,76.771 C240.454,76.064 236.44,81.673 234.806,89.285" id="Fill-7" fill="#F2C790"></path>
                    <polyline id="Fill-8" fill="#FFFFFE" points="164.275 144.064 196.496 167.881 173.034 189.852 164.275 144.064"></polyline>
                    <polyline id="Fill-9" fill="#FFFFFE" points="228.74 144.064 196.496 167.881 219.963 189.852 228.74 144.064"></polyline>
                    <path d="M196.496,167.881 L225.583,146.399 L225.583,128.321 C212.347,146.003 196.496,148.46 196.496,148.46 C196.496,148.46 180.549,145.994 167.285,128.141 L167.285,146.287 L196.496,167.881" id="Fill-10" fill="#FBDAA0"></path>
                    <path d="M196.496,18.395 C141.915,18.395 149.967,70.794 149.967,70.794 C153.267,141.865 196.496,148.46 196.496,148.46 C196.496,148.46 239.734,141.865 243.038,70.794 C243.038,70.794 251.079,18.395 196.496,18.395" id="Fill-11" fill="#F6D098"></path>
                    <path d="M188.117,214.196 C190.924,214.416 193.75,214.558 196.615,214.558 C199.356,214.558 202.066,214.424 204.75,214.223 L203.261,177.217 L189.613,177.217 L188.117,214.196" id="Fill-12" fill="#CA4B40"></path>
                    <path d="M164.275,144.064 L146.795,156.276 L146.795,189.852 L158.839,188.518 L148.269,200.486 L150.813,204.554 C159.277,208.447 168.314,211.288 177.779,212.912 L164.275,144.064" id="Fill-13" fill="#363B3E"></path>
                    <path d="M215.073,212.983 C224.492,211.39 233.485,208.605 241.923,204.778 L244.599,200.486 L234.039,188.518 L246.079,189.852 L246.079,156.276 L228.618,144.064 L215.073,212.983" id="Fill-14" fill="#363B3E"></path>
                    <polyline id="Fill-15" fill="#E37659" points="181.741 181.703 196.434 196.398 211.271 181.703 196.496 167.881 181.741 181.703"></polyline>
                    <path d="M196.5,148.453 C196.5,148.453 180.542,145.994 167.284,128.141 L167.284,135.288 C180.542,153.146 196.5,155.606 196.5,155.606 C196.5,155.606 212.344,153.164 225.585,135.47 L225.585,128.326 C212.344,146.002 196.5,148.453 196.5,148.453" id="Fill-16" fill="#E3AB74"></path>
                    <path d="M234.393,33.496 C238.726,29.316 244.447,27.141 244.447,27.141 C237.814,25.303 231.387,24.787 225.32,25.152 L225.342,25.169 C225.179,25.065 225.023,24.962 224.857,24.864 C229.17,20.831 234.668,18.736 234.668,18.736 C228.991,17.164 223.472,16.564 218.18,16.654 C222.404,12.931 227.476,11.003 227.476,11.003 C216.907,8.067 206.86,8.505 197.957,10.549 C204.564,4.08 210.531,0.202 210.531,0.202 C182.808,5.44 169.513,16.431 163.24,27.016 C160.972,21.016 163.38,14.597 163.38,14.597 C151.493,23.541 150.273,39.688 150.911,50.139 C148.462,60.928 149.887,70.26 149.887,70.26 C150.083,74.726 150.454,78.935 150.961,82.91 L158.755,82.91 C151.638,57.002 164.183,40.351 164.183,40.351 C171.625,51.281 196.416,51.281 196.416,51.281 C196.416,51.281 221.217,51.281 228.65,40.351 C228.65,40.351 241.197,57.002 234.079,82.91 L242.025,82.91 C242.518,78.935 243.08,74.881 243.287,70.411 C243.287,70.411 246.211,48.925 234.374,33.48 L234.393,33.496" id="Fill-18" fill="#282B2B"></path>
                    <polyline id="Fill-21" fill="#F6D098" points="196.507 89.271 208.251 107.656 196.507 118.044 196.507 89.271"></polyline>
                    <path d="M211.098,70.673 C209.723,70.394 208.833,69.049 209.112,67.674 C209.4,66.261 210.745,65.369 212.12,65.649 L228.881,68.436 C230.255,68.716 231.146,70.062 230.866,71.437 C230.579,72.85 229.233,73.74 227.859,73.461 L211.098,70.673" id="Fill-34" fill="#282B2B"></path>
                    <path d="M181.868,70.673 C183.243,70.394 184.133,69.049 183.854,67.674 C183.566,66.261 182.221,65.369 180.846,65.649 L164.085,68.436 C162.711,68.716 161.82,70.062 162.1,71.437 C162.387,72.85 163.733,73.74 165.107,73.461 L181.868,70.673" id="Fill-35" fill="#282B2B"></path>
                    <path d="M232.734,94.416 C228.937,101.084 218.979,99.397 218.979,99.397 C210.693,98.293 207.745,93.739 207.745,93.739 C202.512,86.127 203.858,79.468 203.858,79.468 C204.96,73.391 218.979,73.136 218.979,73.136 C232.813,73.312 233.585,76.935 233.585,76.935 C237.038,86.478 232.734,94.416 232.734,94.416 Z M185.271,93.739 C185.271,93.739 182.315,98.293 174.043,99.397 C174.043,99.397 164.068,101.084 160.279,94.416 C160.279,94.416 155.96,86.478 159.434,76.935 C159.434,76.935 160.191,73.312 174.043,73.136 C174.043,73.136 188.065,73.391 189.155,79.468 C189.155,79.468 190.506,86.127 185.271,93.739 Z M241.404,72.682 C219.928,69.228 211.271,71.417 211.271,71.417 C200.488,74.573 196.503,73.883 196.503,73.883 C196.503,73.883 192.53,74.573 181.743,71.417 C181.743,71.417 173.164,69.255 151.917,72.63 L145.443,73.493 L146.319,77.678 L151.604,78.879 C151.604,78.879 154.077,79.412 154.342,81.27 C154.253,86.181 155.014,92.813 158.281,96.717 C163.707,103.235 176.19,102.557 182.898,99.023 C182.898,99.023 190.139,95.226 192.885,84.099 C192.885,84.099 193.5,80.378 196.503,80.378 C199.514,80.378 200.13,84.099 200.13,84.099 C202.862,95.226 210.112,99.023 210.112,99.023 C216.824,102.557 229.301,103.235 234.731,96.717 C237.983,92.813 238.756,86.181 238.665,81.27 C238.923,79.412 241.404,78.879 241.404,78.879 L246.355,78.159 L247.417,73.142 L241.404,72.682 Z" id="Fill-22" fill="#E26255"></path>
                    <polyline id="Fill-23" fill="#535B61" points="117.036 167.881 87.874 247.656 93.383 254.283 92.936 263.847 196.283 261.78 196.283 204.361 117.036 167.881"></polyline>
                    <path d="M220.865,251.874 C220.865,260.59 213.801,267.655 205.085,267.655 L103.076,267.655 C94.363,267.655 87.298,260.59 87.298,251.874 C87.298,243.161 94.363,236.095 103.076,236.095 L205.085,236.095 C213.801,236.095 220.865,243.161 220.865,251.874" id="Fill-24" fill="#363B3E"></path>
                    <polyline id="Fill-25" fill="#535B61" points="274.964 167.881 304.126 247.656 298.617 254.283 299.064 263.847 195.717 261.78 195.717 204.361 274.964 167.881"></polyline>
                    <path d="M171.135,251.874 C171.135,260.59 178.2,267.655 186.914,267.655 L288.924,267.655 C297.638,267.655 304.702,260.59 304.702,251.874 C304.702,243.161 297.638,236.095 288.924,236.095 L186.914,236.095 C178.2,236.095 171.135,243.161 171.135,251.874" id="Fill-26" fill="#363B3E"></path>
                    <path d="M278.952,257.577 C278.952,263.189 274.403,267.737 268.791,267.737 L122.189,267.737 C116.576,267.737 112.029,263.189 112.029,257.577 L112.029,175.769 C112.029,170.158 116.576,165.61 122.189,165.61 L268.791,165.61 C274.403,165.61 278.952,170.158 278.952,175.769 L278.952,257.577" id="Fill-27" fill="#FFFFFE"></path>
                    <path d="M268.791,165.61 L122.189,165.61 C116.576,165.61 112.029,170.158 112.029,175.769 L112.029,180.324 C112.029,174.712 116.576,170.163 122.189,170.163 L268.791,170.163 C274.403,170.163 278.952,174.712 278.952,180.324 L278.952,175.769 C278.952,170.158 274.403,165.61 268.791,165.61" id="Fill-28" fill="#D0D1CA"></path>
                    <path d="M195.49,229.065 C190.86,229.065 187.107,225.313 187.107,220.685 C187.107,216.056 190.86,212.301 195.49,212.301 C200.119,212.301 203.873,216.056 203.873,220.685 C203.873,225.313 200.119,229.065 195.49,229.065 Z" id="Fill-29" fill="#E1E2DB"></path>
                    <path d="M296.875,227.822 L296.875,227.823 C294.174,236.396 286.68,236.095 286.68,236.095 L286.68,250.869 L298.624,254.433 L298.617,254.283 L304.126,247.656 L296.875,227.822" id="Fill-31" fill="#363B3E"></path>
                    <path d="M95.123,227.822 L95.123,227.823 C97.827,236.396 105.32,236.095 105.32,236.095 L105.32,250.869 L93.376,254.433 L93.383,254.283 L87.874,247.656 L95.123,227.822" id="Fill-32" fill="#363B3E"></path>
                    <g id="Group-44" transform="translate(0.000000, 267.000000)">
                        <polygon id="Fill-40" fill="#8A5A5A" points="0.839 12.247 391.161 12.247 391.161 0.737 0.839 0.737"></polygon>
                        <polygon id="Fill-42" fill="#5A3737" points="17.839 45.94 36.881 45.94 36.881 12.247 17.839 12.247"></polygon>
                        <polygon id="Fill-43" fill="#5A3737" points="355.115 45.94 374.157 45.94 374.157 12.247 355.115 12.247"></polygon>
                    </g>
                    <polygon id="Fill-45" fill="#351C1D" points="17.839 291.9 36.881 291.9 36.881 279.247 17.839 279.247"></polygon>
                    <g id="Group-49" transform="translate(36.000000, 279.000000)">
                        <polygon id="Fill-46" fill="#351C1D" points="319.115 12.9 338.157 12.9 338.157 0.247 319.115 0.247"></polygon>
                        <polygon id="Fill-48" fill="#8A5A5A" points="0.881 33.94 319.115 33.94 319.115 0.247 0.881 0.247"></polygon>
                    </g>
                    <polygon id="Fill-50" fill="#5A3737" points="36.881 291.9 355.115 291.9 355.115 279.247 36.881 279.247"></polygon>
                </g>
                <g id="Icon" transform="translate(181.000000, 0.000000)" fill="#45C6D6">
                    <path d="M41.194,115.423683 C41.523,115.596683 41.797,115.817683 42.019,116.088683 C42.238,116.360683 42.401,116.662683 42.504,116.995683 C42.607,117.328683 42.643,117.668683 42.617,118.016683 C42.587,118.366683 42.486,118.703683 42.314,119.031683 C42.143,119.357683 41.92,119.631683 41.649,119.852683 C41.378,120.073683 41.077,120.233683 40.748,120.331683 C40.418,120.427683 40.079,120.461683 39.729,120.432683 C39.382,120.403683 39.045,120.303683 38.717,120.131683 L22.813,111.759683 C22.377,111.529683 22.019,111.267683 21.74,110.973683 C21.461,110.679683 21.262,110.373683 21.144,110.056683 C21.024,109.738683 20.979,109.412683 21.009,109.078683 C21.036,108.745683 21.132,108.428683 21.291,108.124683 C21.501,107.725683 21.852,107.330683 22.344,106.938683 C22.836,106.547683 23.358,106.211683 23.909,105.929683 C27.35,104.180683 30.775,102.432683 34.18,100.681683 C37.587,98.9306826 41.004,97.1786826 44.434,95.4236826 L34.166,90.0176826 C33.838,89.8456826 33.564,89.6246826 33.343,89.3536826 C33.121,89.0826826 32.96,88.7846826 32.861,88.4616826 C32.76,88.1376826 32.723,87.8006826 32.754,87.4516826 C32.781,87.1056826 32.882,86.7666826 33.054,86.4386826 C33.227,86.1116826 33.448,85.8376826 33.72,85.6166826 C33.99,85.3976826 34.29,85.2316826 34.617,85.1256826 C34.943,85.0196826 35.281,84.9796826 35.628,85.0096826 C35.979,85.0386826 36.315,85.1376826 36.643,85.3096826 L51.875,93.3286826 C52.298,93.5526826 52.676,93.8016826 53.005,94.0736826 C53.331,94.3476826 53.589,94.6456826 53.776,94.9676826 C53.961,95.2896826 54.06,95.6396826 54.07,96.0156826 C54.08,96.3926826 53.977,96.7886826 53.761,97.2006826 C53.543,97.6126826 53.196,98.0006826 52.717,98.3686826 C52.238,98.7346826 51.734,99.0506826 51.207,99.3156826 L30.58,109.835683 L41.194,115.423683" id="Fill-36"></path>
                    <path d="M15.7687395,80.7563667 C16.0257395,80.8913667 16.2387395,81.0633667 16.4117395,81.2753667 C16.5827395,81.4873667 16.7107395,81.7243667 16.7907395,81.9843667 C16.8717395,82.2423667 16.9007395,82.5093667 16.8797395,82.7823667 C16.8567395,83.0543667 16.7767395,83.3183667 16.6437395,83.5733667 C16.5077395,83.8283667 16.3347395,84.0423667 16.1237395,84.2153667 C15.9107395,84.3873667 15.6777395,84.5113667 15.4207395,84.5883667 C15.1627395,84.6633667 14.8987395,84.6903667 14.6247395,84.6683667 C14.3537395,84.6453667 14.0917395,84.5663667 13.8347395,84.4323667 L1.41573946,77.8953667 C1.07473946,77.7163667 0.795739461,77.5113667 0.576739461,77.2813667 C0.360739461,77.0523667 0.205739461,76.8143667 0.112739461,76.5643667 C0.0197394606,76.3173667 -0.0162605394,76.0633667 0.00673946058,75.8023667 C0.0277394606,75.5413667 0.102739461,75.2943667 0.226739461,75.0573667 C0.390739461,74.7463667 0.665739461,74.4363667 1.04973946,74.1323667 C1.43373946,73.8253667 1.84173946,73.5643667 2.27173946,73.3433667 C4.95873946,71.9793667 7.63273946,70.6133667 10.2917395,69.2453667 C12.9507395,67.8773667 15.6187395,66.5103667 18.2997395,65.1403667 L10.2807395,60.9183667 C10.0237395,60.7833667 9.81073946,60.6123667 9.63773946,60.3993667 C9.46473946,60.1883667 9.33973946,59.9553667 9.26073946,59.7023667 C9.18273946,59.4503667 9.15573946,59.1873667 9.17673946,58.9153667 C9.19873946,58.6443667 9.27773946,58.3803667 9.41273946,58.1233667 C9.54773946,57.8673667 9.71973946,57.6543667 9.93173946,57.4813667 C10.1417395,57.3093667 10.3767395,57.1813667 10.6327395,57.0983667 C10.8867395,57.0153667 11.1517395,56.9843667 11.4227395,57.0073667 C11.6947395,57.0303667 11.9597395,57.1073667 12.2147395,57.2433667 L24.1087395,63.5033667 C24.4387395,63.6783667 24.7327395,63.8723667 24.9907395,64.0863667 C25.2457395,64.2993667 25.4467395,64.5323667 25.5927395,64.7823667 C25.7367395,65.0353667 25.8157395,65.3083667 25.8237395,65.6023667 C25.8307395,65.8973667 25.7497395,66.2053667 25.5807395,66.5263667 C25.4117395,66.8483667 25.1397395,67.1523667 24.7657395,67.4393667 C24.3907395,67.7253667 23.9977395,67.9723667 23.5887395,68.1783667 L7.47973946,76.3933667 L15.7687395,80.7563667" id="Fill-37"></path>
                    <path d="M57.9870548,72.1124041 C58.3140548,72.2834041 58.5850548,72.5034041 58.8020548,72.7704041 C59.0200548,73.0404041 59.1810548,73.3384041 59.2840548,73.6694041 C59.3850548,73.9974041 59.4220548,74.3354041 59.3960548,74.6804041 C59.3670548,75.0254041 59.2650548,75.3594041 59.0960548,75.6834041 C58.9260548,76.0064041 58.7050548,76.2774041 58.4380548,76.4964041 C58.1690548,76.7154041 57.8710548,76.8734041 57.5460548,76.9694041 C57.2190548,77.0654041 56.8850548,77.0994041 56.5370548,77.0704041 C56.1940548,77.0414041 55.8600548,76.9434041 55.5360548,76.7734041 L39.7940548,68.4854041 C39.3630548,68.2594041 39.0100548,67.9984041 38.7310548,67.7084041 C38.4580548,67.4184041 38.2600548,67.1154041 38.1430548,66.7994041 C38.0250548,66.4844041 37.9800548,66.1634041 38.0080548,65.8324041 C38.0350548,65.5024041 38.1300548,65.1894041 38.2870548,64.8884041 C38.4950548,64.4954041 38.8440548,64.1024041 39.3300548,63.7154041 C39.8160548,63.3284041 40.3340548,62.9954041 40.8790548,62.7154041 C44.2850548,60.9864041 47.6760548,59.2554041 51.0460548,57.5224041 C54.4160548,55.7884041 57.7980548,54.0544041 61.1960548,52.3184041 L51.0290548,46.9664041 C50.7050548,46.7954041 50.4350548,46.5784041 50.2160548,46.3084041 C49.9960548,46.0414041 49.8380548,45.7454041 49.7390548,45.4264041 C49.6410548,45.1054041 49.6050548,44.7714041 49.6340548,44.4274041 C49.6610548,44.0844041 49.7610548,43.7494041 49.9310548,43.4234041 C50.1020548,43.0994041 50.3200548,42.8294041 50.5890548,42.6104041 C50.8570548,42.3934041 51.1540548,42.2294041 51.4760548,42.1244041 C51.8000548,42.0184041 52.1350548,41.9804041 52.4790548,42.0094041 C52.8250548,42.0384041 53.1600548,42.1364041 53.4830548,42.3084041 L68.5590548,50.2434041 C68.9780548,50.4654041 69.3510548,50.7114041 69.6770548,50.9804041 C70.0010548,51.2514041 70.2550548,51.5474041 70.4400548,51.8644041 C70.6220548,52.1854041 70.7220548,52.5324041 70.7330548,52.9034041 C70.7420548,53.2774041 70.6390548,53.6684041 70.4250548,54.0754041 C70.2110548,54.4824041 69.8670548,54.8674041 69.3920548,55.2324041 C68.9170548,55.5944041 68.4190548,55.9074041 67.8980548,56.1684041 L47.4810548,66.5824041 L57.9870548,72.1124041" id="Fill-38"></path>
                    <path d="M35.9168645,40.5555357 C36.3568645,40.7845357 36.7218645,41.0805357 37.0158645,41.4405357 C37.3078645,41.8045357 37.5248645,42.2065357 37.6638645,42.6515357 C37.8008645,43.0935357 37.8508645,43.5475357 37.8148645,44.0135357 C37.7748645,44.4775357 37.6398645,44.9275357 37.4118645,45.3635357 C37.1818645,45.8005357 36.8858645,46.1645357 36.5248645,46.4595357 C36.1628645,46.7545357 35.7628645,46.9665357 35.3238645,47.0965357 C34.8838645,47.2255357 34.4318645,47.2705357 33.9648645,47.2325357 C33.5028645,47.1935357 33.0528645,47.0605357 32.6168645,46.8315357 L11.4158645,35.6715357 C10.8358645,35.3655357 10.3578645,35.0155357 9.98586454,34.6245357 C9.61486454,34.2335357 9.34986454,33.8255357 9.19186454,33.3995357 C9.03486454,32.9775357 8.97286454,32.5435357 9.01086454,32.0985357 C9.04786454,31.6535357 9.17486454,31.2315357 9.38686454,30.8255357 C9.66586454,30.2965357 10.1368645,29.7675357 10.7908645,29.2455357 C11.4468645,28.7245357 12.1438645,28.2775357 12.8768645,27.9005357 C17.4668645,25.5705357 22.0308645,23.2395357 26.5688645,20.9045357 C31.1098645,18.5715357 35.6648645,16.2355357 40.2398645,13.8965357 L26.5498645,6.69053571 C26.1118645,6.45953571 25.7468645,6.16553571 25.4518645,5.80353571 C25.1558645,5.44253571 24.9428645,5.04553571 24.8098645,4.61553571 C24.6758645,4.18253571 24.6278645,3.73453571 24.6678645,3.27053571 C24.7028645,2.80753571 24.8388645,2.35753571 25.0688645,1.91853571 C25.2988645,1.48153571 25.5928645,1.11853571 25.9548645,0.823535714 C26.3138645,0.529535714 26.7128645,0.309535714 27.1498645,0.168535714 C27.5858645,0.0255357143 28.0368645,-0.0264642857 28.4988645,0.0125357143 C28.9658645,0.0525357143 29.4158645,0.184535714 29.8528645,0.415535714 L50.1568645,11.1035357 C50.7208645,11.4015357 51.2218645,11.7325357 51.6608645,12.0965357 C52.0968645,12.4615357 52.4408645,12.8595357 52.6888645,13.2865357 C52.9348645,13.7175357 53.0678645,14.1855357 53.0828645,14.6855357 C53.0948645,15.1895357 52.9568645,15.7155357 52.6678645,16.2635357 C52.3798645,16.8125357 51.9158645,17.3315357 51.2768645,17.8205357 C50.6368645,18.3095357 49.9668645,18.7315357 49.2658645,19.0825357 L21.7698645,33.1075357 L35.9168645,40.5555357" id="Fill-39"></path>
                </g>
            </g>
        </g>
    </g>
</svg>