<?xml version="1.0" encoding="UTF-8"?>
<svg width="392px" height="313px" viewBox="0 0 392 313" version="1.1" xmlns="http://www.w3.org/2000/svg" xmlns:xlink="http://www.w3.org/1999/xlink">
    <!-- Generator: Sketch 48.1 (47250) - http://www.bohemiancoding.com/sketch -->
    <title>Vigor</title>
    <desc>Created with Sketch.</desc>
    <defs></defs>
    <g id="Hábitos----4-/-5" stroke="none" stroke-width="1" fill="none" fill-rule="evenodd" transform="translate(-720.000000, -243.000000)">
        <g id="Icon" transform="translate(720.000000, 114.000000)">
            <g id="Vigor" transform="translate(0.000000, 129.000000)">
                <g id="People">
                    <path d="M278.69,177.723 L275.717,167.881 L246.089,156.289 L246.079,156.276 L228.618,144.064 L164.275,144.064 L146.795,156.276 L117.109,167.881 L114.251,177.386 C121.281,185.336 129.441,192.246 138.482,197.895 L138.482,197.914 C142.888,200.667 147.515,203.112 152.311,205.233 C152.333,205.238 152.351,205.25 152.371,205.257 C154.803,206.327 157.268,207.31 159.789,208.21 C159.8,208.21 159.8,208.21 159.815,208.21 C171.322,212.308 183.701,214.558 196.615,214.558 C206.529,214.558 216.131,213.223 225.276,210.757 L225.276,210.765 C225.282,210.757 225.284,210.757 225.292,210.749 C227.776,210.081 230.211,209.324 232.616,208.488 C232.893,208.389 233.164,208.304 233.433,208.194 C235.776,207.357 238.097,206.467 240.361,205.48 C240.509,205.412 240.657,205.344 240.793,205.284 C242.905,204.354 244.974,203.343 247.034,202.292 C247.346,202.124 247.673,201.962 247.999,201.795 C249.997,200.735 251.962,199.604 253.889,198.422 C254.373,198.124 254.847,197.818 255.336,197.522 C257.209,196.325 259.057,195.103 260.851,193.804 C261.214,193.538 261.563,193.256 261.928,192.995 C263.475,191.847 264.989,190.663 266.468,189.434 C266.917,189.071 267.372,188.715 267.804,188.339 C267.923,188.248 268.048,188.14 268.169,188.042 L268.152,188.022 C271.881,184.819 275.414,181.395 278.69,177.723" id="Fill-3" fill="#535B61"></path>
                    <polygon id="Fill-4" fill="#B3B5B1" points="164.275 161.52 228.74 161.52 228.74 144.064 164.275 144.064"></polygon>
                    <path d="M173.228,189.682 L177.779,212.912 C183.904,213.979 190.192,214.558 196.615,214.558 C202.912,214.558 209.078,214.007 215.073,212.983 L219.671,189.574 L196.496,167.881 L173.228,189.682" id="Fill-5" fill="#CACCC6"></path>
                    <path d="M158.156,89.285 C159.789,96.904 158.423,103.661 155.104,104.369 C151.793,105.076 147.783,99.474 146.152,91.858 C144.519,84.234 145.885,77.49 149.206,76.771 C152.516,76.064 156.51,81.673 158.156,89.285" id="Fill-6" fill="#F2C790"></path>
                    <path d="M234.806,89.285 C233.178,96.904 234.55,103.661 237.859,104.369 C241.172,105.076 245.176,99.474 246.821,91.858 C248.456,84.234 247.078,77.49 243.768,76.771 C240.454,76.064 236.44,81.673 234.806,89.285" id="Fill-7" fill="#F2C790"></path>
                    <polyline id="Fill-8" fill="#FFFFFE" points="164.275 144.064 196.496 167.881 173.034 189.852 164.275 144.064"></polyline>
                    <polyline id="Fill-9" fill="#FFFFFE" points="228.74 144.064 196.496 167.881 219.963 189.852 228.74 144.064"></polyline>
                    <path d="M196.496,167.881 L225.583,146.399 L225.583,128.321 C212.347,146.003 196.496,148.46 196.496,148.46 C196.496,148.46 180.549,145.994 167.285,128.141 L167.285,146.287 L196.496,167.881" id="Fill-10" fill="#FBDAA0"></path>
                    <path d="M196.496,18.395 C141.915,18.395 149.967,70.794 149.967,70.794 C153.267,141.865 196.496,148.46 196.496,148.46 C196.496,148.46 239.734,141.865 243.038,70.794 C243.038,70.794 251.079,18.395 196.496,18.395" id="Fill-11" fill="#F6D098"></path>
                    <path d="M185,125.556 C185,124.144 186.144,123 187.556,123 C191.439748,124.076823 194.352559,124.615234 196.294434,124.615234 C198.129671,124.615234 200.882526,124.076823 204.553,123 C205.965,123 207.109,124.144 207.109,125.556 C207.109,126.249924 201.485617,128.490938 196.0545,128.502808 C190.434352,128.51509 185,126.274076 185,125.556 Z" id="Fill-33" fill="#FFFFFE"></path>
                    <path d="M188.117,214.196 C190.924,214.416 193.75,214.558 196.615,214.558 C199.356,214.558 202.066,214.424 204.75,214.223 L203.261,177.217 L189.613,177.217 L188.117,214.196" id="Fill-12" fill="#CA4B40"></path>
                    <path d="M164.275,144.064 L146.795,156.276 L146.795,189.852 L158.839,188.518 L148.269,200.486 L150.813,204.554 C159.277,208.447 168.314,211.288 177.779,212.912 L164.275,144.064" id="Fill-13" fill="#363B3E"></path>
                    <path d="M215.073,212.983 C224.492,211.39 233.485,208.605 241.923,204.778 L244.599,200.486 L234.039,188.518 L246.079,189.852 L246.079,156.276 L228.618,144.064 L215.073,212.983" id="Fill-14" fill="#363B3E"></path>
                    <polyline id="Fill-15" fill="#E37659" points="181.741 181.703 196.434 196.398 211.271 181.703 196.496 167.881 181.741 181.703"></polyline>
                    <path d="M196.5,148.453 C196.5,148.453 180.542,145.994 167.284,128.141 L167.284,135.288 C180.542,153.146 196.5,155.606 196.5,155.606 C196.5,155.606 212.344,153.164 225.585,135.47 L225.585,128.326 C212.344,146.002 196.5,148.453 196.5,148.453" id="Fill-16" fill="#E3AB74"></path>
                    <path d="M234.393,33.496 C238.726,29.316 244.447,27.141 244.447,27.141 C237.814,25.303 231.387,24.787 225.32,25.152 L225.342,25.169 C225.179,25.065 225.023,24.962 224.857,24.864 C229.17,20.831 234.668,18.736 234.668,18.736 C228.991,17.164 223.472,16.564 218.18,16.654 C222.404,12.931 227.476,11.003 227.476,11.003 C216.907,8.067 206.86,8.505 197.957,10.549 C204.564,4.08 210.531,0.202 210.531,0.202 C182.808,5.44 169.513,16.431 163.24,27.016 C160.972,21.016 163.38,14.597 163.38,14.597 C151.493,23.541 150.273,39.688 150.911,50.139 C148.462,60.928 149.887,70.26 149.887,70.26 C150.083,74.726 150.454,78.935 150.961,82.91 L158.755,82.91 C151.638,57.002 164.183,40.351 164.183,40.351 C171.625,51.281 196.416,51.281 196.416,51.281 C196.416,51.281 221.217,51.281 228.65,40.351 C228.65,40.351 241.197,57.002 234.079,82.91 L242.025,82.91 C242.518,78.935 243.08,74.881 243.287,70.411 C243.287,70.411 246.211,48.925 234.374,33.48 L234.393,33.496" id="Fill-18" fill="#282B2B"></path>
                    <polyline id="Fill-21" fill="#F6D098" points="196.507 89.271 208.251 107.656 196.507 118.044 196.507 89.271"></polyline>
                    <path d="M211.098,65.673 C209.723,65.394 208.833,64.049 209.112,62.674 C209.4,61.261 210.745,60.369 212.12,60.649 L228.881,63.436 C230.255,63.716 231.146,65.062 230.866,66.437 C230.579,67.85 229.233,68.74 227.859,68.461 L211.098,65.673" id="Fill-34" fill="#282B2B" transform="translate(219.989144, 64.554879) rotate(-10.000000) translate(-219.989144, -64.554879) "></path>
                    <path d="M181.868,65.673 C183.243,65.394 184.133,64.049 183.854,62.674 C183.566,61.261 182.221,60.369 180.846,60.649 L164.085,63.436 C162.711,63.716 161.82,65.062 162.1,66.437 C162.387,67.85 163.733,68.74 165.107,68.461 L181.868,65.673" id="Fill-35" fill="#282B2B" transform="translate(172.976856, 64.554879) rotate(10.000000) translate(-172.976856, -64.554879) "></path>
                    <path d="M232.734,94.416 C228.937,101.084 218.979,99.397 218.979,99.397 C210.693,98.293 207.745,93.739 207.745,93.739 C202.512,86.127 203.858,79.468 203.858,79.468 C204.96,73.391 218.979,73.136 218.979,73.136 C232.813,73.312 233.585,76.935 233.585,76.935 C237.038,86.478 232.734,94.416 232.734,94.416 Z M185.271,93.739 C185.271,93.739 182.315,98.293 174.043,99.397 C174.043,99.397 164.068,101.084 160.279,94.416 C160.279,94.416 155.96,86.478 159.434,76.935 C159.434,76.935 160.191,73.312 174.043,73.136 C174.043,73.136 188.065,73.391 189.155,79.468 C189.155,79.468 190.506,86.127 185.271,93.739 Z M241.404,72.682 C219.928,69.228 211.271,71.417 211.271,71.417 C200.488,74.573 196.503,73.883 196.503,73.883 C196.503,73.883 192.53,74.573 181.743,71.417 C181.743,71.417 173.164,69.255 151.917,72.63 L145.443,73.493 L146.319,77.678 L151.604,78.879 C151.604,78.879 154.077,79.412 154.342,81.27 C154.253,86.181 155.014,92.813 158.281,96.717 C163.707,103.235 176.19,102.557 182.898,99.023 C182.898,99.023 190.139,95.226 192.885,84.099 C192.885,84.099 193.5,80.378 196.503,80.378 C199.514,80.378 200.13,84.099 200.13,84.099 C202.862,95.226 210.112,99.023 210.112,99.023 C216.824,102.557 229.301,103.235 234.731,96.717 C237.983,92.813 238.756,86.181 238.665,81.27 C238.923,79.412 241.404,78.879 241.404,78.879 L246.355,78.159 L247.417,73.142 L241.404,72.682 Z" id="Fill-22" fill="#E26255"></path>
                    <polyline id="Fill-23" fill="#535B61" points="117.036 167.881 87.874 247.656 93.383 254.283 92.936 263.847 196.283 261.78 196.283 204.361 117.036 167.881"></polyline>
                    <path d="M220.865,251.874 C220.865,260.59 213.801,267.655 205.085,267.655 L103.076,267.655 C94.363,267.655 87.298,260.59 87.298,251.874 C87.298,243.161 94.363,236.095 103.076,236.095 L205.085,236.095 C213.801,236.095 220.865,243.161 220.865,251.874" id="Fill-24" fill="#363B3E"></path>
                    <polyline id="Fill-25" fill="#535B61" points="274.964 167.881 304.126 247.656 298.617 254.283 299.064 263.847 195.717 261.78 195.717 204.361 274.964 167.881"></polyline>
                    <path d="M171.135,251.874 C171.135,260.59 178.2,267.655 186.914,267.655 L288.924,267.655 C297.638,267.655 304.702,260.59 304.702,251.874 C304.702,243.161 297.638,236.095 288.924,236.095 L186.914,236.095 C178.2,236.095 171.135,243.161 171.135,251.874" id="Fill-26" fill="#363B3E"></path>
                    <path d="M278.952,257.577 C278.952,263.189 274.403,267.737 268.791,267.737 L122.189,267.737 C116.576,267.737 112.029,263.189 112.029,257.577 L112.029,175.769 C112.029,170.158 116.576,165.61 122.189,165.61 L268.791,165.61 C274.403,165.61 278.952,170.158 278.952,175.769 L278.952,257.577" id="Fill-27" fill="#FFFFFE"></path>
                    <path d="M268.791,165.61 L122.189,165.61 C116.576,165.61 112.029,170.158 112.029,175.769 L112.029,180.324 C112.029,174.712 116.576,170.163 122.189,170.163 L268.791,170.163 C274.403,170.163 278.952,174.712 278.952,180.324 L278.952,175.769 C278.952,170.158 274.403,165.61 268.791,165.61" id="Fill-28" fill="#D0D1CA"></path>
                    <path d="M195.49,229.065 C190.86,229.065 187.107,225.313 187.107,220.685 C187.107,216.056 190.86,212.301 195.49,212.301 C200.119,212.301 203.873,216.056 203.873,220.685 C203.873,225.313 200.119,229.065 195.49,229.065 Z" id="Fill-29" fill="#E1E2DB"></path>
                    <path d="M296.875,227.822 L296.875,227.823 C294.174,236.396 286.68,236.095 286.68,236.095 L286.68,250.869 L298.624,254.433 L298.617,254.283 L304.126,247.656 L296.875,227.822" id="Fill-31" fill="#363B3E"></path>
                    <path d="M95.123,227.822 L95.123,227.823 C97.827,236.396 105.32,236.095 105.32,236.095 L105.32,250.869 L93.376,254.433 L93.383,254.283 L87.874,247.656 L95.123,227.822" id="Fill-32" fill="#363B3E"></path>
                    <g id="Group-44" transform="translate(0.000000, 267.000000)">
                        <polygon id="Fill-40" fill="#8A5A5A" points="0.839 12.247 391.161 12.247 391.161 0.737 0.839 0.737"></polygon>
                        <polygon id="Fill-42" fill="#5A3737" points="17.839 45.94 36.881 45.94 36.881 12.247 17.839 12.247"></polygon>
                        <polygon id="Fill-43" fill="#5A3737" points="355.115 45.94 374.157 45.94 374.157 12.247 355.115 12.247"></polygon>
                    </g>
                    <polygon id="Fill-45" fill="#351C1D" points="17.839 291.9 36.881 291.9 36.881 279.247 17.839 279.247"></polygon>
                    <g id="Group-49" transform="translate(36.000000, 279.000000)">
                        <polygon id="Fill-46" fill="#351C1D" points="319.115 12.9 338.157 12.9 338.157 0.247 319.115 0.247"></polygon>
                        <polygon id="Fill-48" fill="#8A5A5A" points="0.881 33.94 319.115 33.94 319.115 0.247 0.881 0.247"></polygon>
                    </g>
                    <polygon id="Fill-50" fill="#5A3737" points="36.881 291.9 355.115 291.9 355.115 279.247 36.881 279.247"></polygon>
                </g>
            </g>
        </g>
    </g>
</svg>