<?xml version="1.0" encoding="UTF-8"?>
<svg width="140px" height="170px" viewBox="0 0 140 170" version="1.1" xmlns="http://www.w3.org/2000/svg" xmlns:xlink="http://www.w3.org/1999/xlink">
    <!-- Generator: Sketch 48.1 (47250) - http://www.bohemiancoding.com/sketch -->
    <title>toaster</title>
    <desc>Created with Sketch.</desc>
    <defs></defs>
    <g id="Hábitos----5-/-5" stroke="none" stroke-width="1" fill="none" fill-rule="evenodd" transform="translate(-993.000000, -187.000000)">
        <g id="Foods" transform="translate(720.000000, 126.000000)" fill-rule="nonzero">
            <g id="toaster" transform="translate(273.495396, 61.000000)">
                <path d="M123.23903,26.7558813 C120.989516,12.815752 109.417943,1.8572872 95.3808537,0.223076074 C91.4526904,-0.233269675 87.6510429,0.0226539543 84.0839126,0.879843943 C74.7124813,3.1276551 64.9800168,3.12457168 55.6085855,0.879843943 C51.4027044,-0.12843349 46.8728192,-0.304188271 42.1917322,0.540668048 C29.1173975,2.90256564 18.6536096,13.5126043 16.4812396,26.6109607 C14.1360675,40.7545955 20.0144266,53.5322765 31.0984508,59.9118667 C31.3051962,60.0290366 31.4317121,60.2448758 31.4317121,60.4822989 L31.4317121,74 L108.242271,74 L108.242271,60.5994687 C120.026762,54.5128031 125.599631,41.3774458 123.23903,26.7558813 Z" id="Shape" fill="#FBD490"></path>
                <path d="M138.744015,157 L0,157 L0,104.780704 C0,87.7810741 13.8219871,74 30.8720849,74 L107.875013,74 C124.922028,74 138.744015,87.7810741 138.744015,104.780704 L138.744015,157 Z" id="Shape" fill="#E6E6E6"></path>
                <path d="M15.4714549,170 C10.2339515,170 5.98895028,165.971 5.98895028,161 L5.98895028,158 L24.9539595,158 L24.9539595,161 C24.9539595,165.971 20.7089583,170 15.4714549,170 Z" id="Shape" fill="#A5A5A5"></path>
                <path d="M123.27256,170 C118.035056,170 113.790055,165.971 113.790055,161 L113.790055,158 L132.755064,158 L132.755064,161 C132.755064,165.971 128.510063,170 123.27256,170 Z" id="Shape" fill="#A5A5A5"></path>
                <path d="M30.9429098,102 C29.286965,102 27.9484346,100.659 27.9484346,99 L27.9484346,90 C27.9484346,88.341 29.286965,87 30.9429098,87 C32.5988545,87 33.9373849,88.341 33.9373849,90 L33.9373849,99 C33.9373849,100.659 32.5988545,102 30.9429098,102 Z" id="Shape" fill="#A5A5A5"></path>
                <path d="M30.9429098,130 C29.286965,130 27.9484346,128.595143 27.9484346,126.857143 L27.9484346,111.142857 C27.9484346,109.404857 29.286965,108 30.9429098,108 C32.5988545,108 33.9373849,109.404857 33.9373849,111.142857 L33.9373849,126.857143 C33.9373849,128.595143 32.5988545,130 30.9429098,130 Z" id="Shape" fill="#A5A5A5"></path>
                <rect id="Rectangle-path" fill="#D2D5D7" x="0" y="142" width="138.744015" height="15"></rect>
                <path d="M37.6804788,111 L25.2034991,111 C21.7723297,111 18.9650092,108.3 18.9650092,105 C18.9650092,101.7 21.7723297,99 25.2034991,99 L37.6804788,99 C41.1116483,99 43.9189687,101.7 43.9189687,105 C43.9189687,108.3 41.1116483,111 37.6804788,111 Z" id="Shape" fill="#38454F"></path>
                <path d="M33.9966838,40 C33.215113,40 32.4335423,39.7002441 31.8382052,39.1037911 C30.644478,37.9078262 30.644478,35.9747066 31.8382052,34.7787418 L51.682775,14.8969736 C52.8765022,13.7010088 54.806005,13.7010088 55.9997322,14.8969736 C57.1934594,16.0929384 57.1934594,18.0260581 55.9997322,19.2220229 L36.1551624,39.1037911 C35.5598253,39.7002441 34.7782545,40 33.9966838,40 Z" id="Shape" fill="#D8AF6F"></path>
                <path d="M39.9893887,58 C39.206857,58 38.4243253,57.6998797 37.8282562,57.1027015 C36.6330613,55.9052827 36.6330613,53.969813 37.8282562,52.7723942 L80.6229594,9.89806409 C81.8181543,8.7006453 83.7500295,8.7006453 84.9452244,9.89806409 C86.1404194,11.0954829 86.1404194,13.0309526 84.9452244,14.2283714 L42.1505213,57.1027015 C41.5544522,57.6998797 40.7719205,58 39.9893887,58 Z" id="Shape" fill="#D8AF6F"></path>
                <path d="M56.0149861,68 C55.2183617,68 54.4217373,67.6944751 53.8149336,67.0865428 C52.5982143,65.8675608 52.5982143,63.8972368 53.8149336,62.6782547 L100.492144,15.9142366 C101.708863,14.6952545 103.675529,14.6952545 104.892249,15.9142366 C106.108968,17.1332186 106.108968,19.1035426 104.892249,20.3225247 L58.2150386,67.0865428 C57.6082348,67.6944751 56.8116105,68 56.0149861,68 Z" id="Shape" fill="#D8AF6F"></path>
                <path d="M79.9058064,68 C79.1258129,68 78.3458194,67.70085 77.7516838,67.1056025 C76.5603657,65.9120549 76.5603657,63.9828426 77.7516838,62.789295 L100.603055,39.8951607 C101.794373,38.7016131 103.719981,38.7016131 104.9113,39.8951607 C106.102618,41.0887082 106.102618,43.0179206 104.9113,44.2114681 L82.0599289,67.1056025 C81.4657933,67.70085 80.6857998,68 79.9058064,68 Z" id="Shape" fill="#D8AF6F"></path>
            </g>
        </g>
    </g>
</svg>