<?xml version="1.0" encoding="UTF-8"?>
<svg width="57px" height="55px" viewBox="0 0 57 55" version="1.1" xmlns="http://www.w3.org/2000/svg" xmlns:xlink="http://www.w3.org/1999/xlink">
    <!-- Generator: Sketch 48.1 (47250) - http://www.bohemiancoding.com/sketch -->
    <title>broccoli</title>
    <desc>Created with Sketch.</desc>
    <defs></defs>
    <g id="Hábitos----5-/-5" stroke="none" stroke-width="1" fill="none" fill-rule="evenodd" transform="translate(-871.000000, -483.000000)">
        <g id="Content" transform="translate(268.000000, 177.000000)" fill-rule="nonzero">
            <g id="1">
                <g id="Tipos-alimentos?" transform="translate(0.000000, 201.000000)">
                    <g id="Vegetais" transform="translate(546.000000, 105.000000)">
                        <g id="broccoli" transform="translate(57.000000, 0.000000)">
                            <path d="M45.146,12.699 C45.146,11.704 44.583,10.848 43.759,10.392 C44.149,9.596 44.374,8.708 44.374,7.766 C44.374,4.413 41.607,1.695 38.194,1.695 C37.302,1.695 36.456,1.884 35.69,2.219 C34.777,0.984 33.3,0.177 31.628,0.177 C29.733,0.177 28.085,1.209 27.23,2.731 C26.288,2.08 25.142,1.695 23.903,1.695 C20.703,1.695 18.109,4.243 18.109,7.387 C18.109,7.622 18.128,7.853 18.156,8.08 C15.882,8.849 14.246,10.963 14.246,13.458 C14.246,15.404 15.241,17.12 16.757,18.146 C16.152,18.961 15.791,19.961 15.791,21.047 C15.791,23.771 18.039,25.98 20.812,25.98 C21.973,25.98 23.038,25.589 23.889,24.94 C25.009,26.486 26.844,27.498 28.924,27.498 C31.122,27.498 33.047,26.367 34.143,24.669 C34.88,25.906 36.244,26.739 37.808,26.739 C40.155,26.739 42.057,24.87 42.057,22.565 C42.057,22.048 41.957,21.555 41.782,21.098 C43.306,20.464 44.375,18.981 44.375,17.253 C44.375,16.435 44.132,15.673 43.717,15.029 C44.563,14.58 45.146,13.711 45.146,12.699 Z" id="Shape" fill="#88C057"></path>
                            <path d="M22.832,25.543 C22.212,25.814 21.534,25.98 20.811,25.98 C18.038,25.98 15.79,23.771 15.79,21.047 C15.79,19.961 16.151,18.961 16.756,18.146 C15.24,17.12 14.245,15.404 14.245,13.458 C14.245,12.516 14.48,11.628 14.893,10.847 C13.236,9.862 11.055,10.061 9.624,11.466 C9.498,11.59 9.385,11.721 9.278,11.855 C7.671,11.085 5.679,11.352 4.344,12.663 C3.303,13.686 2.908,15.102 3.155,16.425 C2.4,16.54 1.675,16.88 1.094,17.451 C-0.364,18.883 -0.364,21.206 1.094,22.638 C1.704,23.238 2.474,23.583 3.269,23.68 C3.03,25.072 3.454,26.552 4.547,27.626 C5.703,28.761 7.32,29.161 8.805,28.834 C8.531,29.865 8.802,31.007 9.624,31.816 C10.858,33.028 12.858,33.028 14.092,31.816 C14.369,31.544 14.58,31.233 14.733,30.902 C15.874,31.356 17.229,31.128 18.154,30.22 C18.592,29.79 18.871,29.264 18.998,28.711 C19.684,28.913 20.455,28.757 20.997,28.225 C21.529,27.702 21.692,26.961 21.502,26.296 C21.979,26.131 22.42,25.864 22.832,25.543 Z" id="Shape" fill="#659C35"></path>
                            <path d="M55.484,18.249 C55.358,18.125 55.225,18.014 55.088,17.909 C55.872,16.33 55.6,14.373 54.265,13.062 C53.224,12.039 51.782,11.651 50.435,11.894 C50.317,11.153 49.972,10.44 49.391,9.87 C47.933,8.437 45.569,8.437 44.11,9.87 C44.015,9.964 43.936,10.068 43.854,10.169 C43.821,10.243 43.794,10.321 43.759,10.393 C44.583,10.848 45.146,11.705 45.146,12.7 C45.146,13.712 44.563,14.581 43.716,15.029 C44.13,15.673 44.374,16.434 44.374,17.253 C44.374,18.981 43.305,20.464 41.781,21.098 C41.956,21.555 42.056,22.048 42.056,22.565 C42.056,24.87 40.154,26.739 37.807,26.739 C37.258,26.739 36.736,26.631 36.254,26.444 C36.306,26.503 36.336,26.573 36.392,26.628 C36.83,27.058 37.365,27.333 37.928,27.458 C37.722,28.132 37.881,28.89 38.423,29.422 C38.955,29.945 39.71,30.105 40.387,29.918 C40.608,30.538 40.965,31.121 41.47,31.616 C43.265,33.379 46.174,33.379 47.969,31.616 C48.438,31.155 48.781,30.619 49.005,30.047 C50.146,30.225 51.354,29.886 52.234,29.022 C53.23,28.043 53.545,26.649 53.18,25.407 C54.023,25.263 54.832,24.874 55.484,24.233 C57.166,22.581 57.166,19.902 55.484,18.249 Z" id="Shape" fill="#659C35"></path>
                            <path d="M40.387,29.918 C39.71,30.104 38.956,29.945 38.423,29.422 C38.106,29.111 37.92,28.722 37.862,28.318 C37.829,28.093 37.753,27.876 37.64,27.683 C33.722,31.727 30.985,39.177 30.985,39.177 C32.286,34.551 32.081,29.935 31.678,26.856 C30.849,27.265 29.914,27.498 28.922,27.498 C27.956,27.498 27.047,27.272 26.234,26.883 C27.985,33.074 26.985,43.177 26.985,43.177 C25.111,35.682 20.991,30.996 19.044,29.119 C18.905,29.228 18.78,29.354 18.692,29.512 C18.552,29.766 18.372,30.005 18.153,30.221 C17.228,31.13 15.872,31.357 14.732,30.903 C14.579,31.234 14.368,31.545 14.091,31.817 C13.761,32.141 13.374,32.372 12.964,32.523 C17.985,32.523 23.744,42.517 24.487,53.178 C24.542,53.962 25.199,54.57 25.985,54.57 L30.985,54.57 C31.755,54.57 32.397,53.993 32.484,53.229 C32.943,49.173 34.36,32.217 42.23,32.217 C41.961,32.046 41.705,31.849 41.469,31.618 C40.966,31.121 40.608,30.538 40.387,29.918 Z" id="Shape" fill="#436B1C"></path>
                            <path d="M23.468,14.177 C23.347,14.177 23.224,14.155 23.104,14.108 C20.587,13.124 19.339,10.275 20.323,7.758 C21.307,5.242 24.151,3.994 26.674,4.976 C27.188,5.177 27.443,5.757 27.241,6.271 C27.04,6.786 26.462,7.039 25.945,6.839 C24.454,6.256 22.768,6.995 22.186,8.485 C21.603,9.976 22.342,11.662 23.832,12.244 C24.346,12.445 24.601,13.025 24.399,13.539 C24.245,13.936 23.867,14.177 23.468,14.177 Z" id="Shape" fill="#659C35"></path>
                            <path d="M49.084,24.647 C48.48,24.647 47.877,24.534 47.298,24.308 C46.079,23.831 45.118,22.909 44.593,21.709 C44.371,21.203 44.602,20.613 45.108,20.392 C45.618,20.17 46.205,20.402 46.425,20.907 C46.736,21.617 47.305,22.163 48.027,22.446 C48.75,22.728 49.538,22.711 50.248,22.401 C50.958,22.09 51.504,21.521 51.786,20.799 C52.068,20.077 52.053,19.289 51.741,18.579 C51.519,18.073 51.75,17.483 52.256,17.262 C52.765,17.041 53.352,17.271 53.573,17.777 C54.098,18.976 54.126,20.308 53.649,21.528 C53.172,22.748 52.25,23.709 51.05,24.234 C50.419,24.508 49.752,24.647 49.084,24.647 Z" id="Shape" fill="#88C057"></path>
                            <path d="M35.391,22.175 C33.68,22.175 32.016,21.279 31.116,19.686 C30.844,19.205 31.013,18.595 31.494,18.323 C31.973,18.051 32.585,18.22 32.856,18.701 C33.238,19.376 33.859,19.862 34.606,20.07 C35.351,20.276 36.135,20.181 36.81,19.8 C37.485,19.419 37.971,18.798 38.179,18.05 C38.386,17.303 38.29,16.52 37.909,15.846 C37.637,15.365 37.806,14.755 38.287,14.483 C38.766,14.212 39.378,14.38 39.649,14.861 C40.294,16.001 40.456,17.323 40.105,18.585 C39.754,19.847 38.933,20.896 37.793,21.54 C37.034,21.971 36.207,22.175 35.391,22.175 Z" id="Shape" fill="#659C35"></path>
                            <path d="M31.881,16.778 C31.165,16.778 30.44,16.621 29.753,16.289 C27.32,15.111 26.299,12.174 27.476,9.741 C27.717,9.245 28.313,9.036 28.812,9.276 C29.309,9.517 29.517,10.115 29.277,10.612 C28.58,12.052 29.184,13.791 30.625,14.488 C32.065,15.183 33.804,14.581 34.501,13.14 C34.741,12.644 35.337,12.434 35.837,12.675 C36.334,12.916 36.542,13.514 36.302,14.011 C35.455,15.759 33.702,16.778 31.881,16.778 Z" id="Shape" fill="#659C35"></path>
                            <path d="M24.279,22.391 C23.612,22.391 22.946,22.253 22.317,21.978 C19.841,20.895 18.707,18 19.789,15.523 C20.01,15.019 20.595,14.786 21.105,15.007 C21.611,15.228 21.842,15.818 21.621,16.324 C20.981,17.79 21.652,19.505 23.118,20.145 C23.83,20.456 24.618,20.471 25.339,20.188 C26.061,19.905 26.629,19.359 26.94,18.648 C27.161,18.144 27.747,17.912 28.256,18.132 C28.762,18.353 28.993,18.943 28.772,19.449 C28.249,20.649 27.289,21.573 26.069,22.05 C25.489,22.278 24.884,22.391 24.279,22.391 Z" id="Shape" fill="#659C35"></path>
                            <path d="M35.404,11.479 C35.246,11.479 35.087,11.472 34.927,11.457 C33.623,11.332 32.447,10.707 31.614,9.697 C31.262,9.271 31.323,8.641 31.749,8.289 C32.177,7.936 32.806,7.999 33.157,8.424 C33.65,9.022 34.346,9.392 35.118,9.466 C35.9,9.545 36.645,9.308 37.242,8.816 C38.476,7.798 38.652,5.965 37.634,4.731 C37.282,4.305 37.343,3.675 37.769,3.323 C38.197,2.97 38.826,3.033 39.177,3.458 C40.897,5.542 40.6,8.638 38.516,10.358 C37.628,11.089 36.538,11.479 35.404,11.479 Z" id="Shape" fill="#659C35"></path>
                            <path d="M9.882,23.546 C9.269,23.546 8.647,23.431 8.045,23.187 C5.541,22.171 4.33,19.307 5.346,16.802 C5.553,16.29 6.136,16.045 6.649,16.251 C7.161,16.459 7.407,17.042 7.2,17.554 C6.598,19.036 7.315,20.732 8.798,21.334 C10.284,21.938 11.978,21.219 12.578,19.736 C12.786,19.223 13.371,18.978 13.881,19.185 C14.393,19.393 14.64,19.976 14.432,20.488 C13.658,22.39 11.82,23.546 9.882,23.546 Z" id="Shape" fill="#88C057"></path>
                        </g>
                    </g>
                </g>
            </g>
        </g>
    </g>
</svg>