<?xml version="1.0" encoding="UTF-8"?>
<svg width="108px" height="307px" viewBox="0 0 108 307" version="1.1" xmlns="http://www.w3.org/2000/svg" xmlns:xlink="http://www.w3.org/1999/xlink">
    <!-- Generator: Sketch 47.1 (45422) - http://www.bohemiancoding.com/sketch -->
    <title>Doc</title>
    <desc>Created with Sketch.</desc>
    <defs></defs>
    <g id="Questions" stroke="none" stroke-width="1" fill="none" fill-rule="evenodd">
        <g id="MedPass---Intro-3-/-3" transform="translate(-666.000000, -123.000000)">
            <g id="Ilustra" transform="translate(487.000000, 78.000000)">
                <g id="Doc" transform="translate(179.000000, 45.000000)">
                    <polygon id="Fill-3" fill="#0A0709" points="26.4489796 95.3030759 73.5425801 95.3030759 73.5425801 30.8100358 26.4489796 30.8100358"></polygon>
                    <path d="M29.755102,298.319642 L47.5965438,288.169442 L47.5965438,215.184673 C47.5965438,205.122079 43.6028685,196.964158 38.6758229,196.964158 C33.7487773,196.964158 29.755102,205.122079 29.755102,215.184673 L29.755102,298.319642" id="Fill-4" fill="#69443D"></path>
                    <path d="M51.7816022,280.153689 L48.3869783,276.613203 C47.8196948,276.021108 46.9286817,276.054337 46.4067809,276.687215 L31.7058202,294.513503 L23.5187858,294.513503 C20.2663609,294.513503 17.6326531,297.476999 17.6326531,301.130768 L17.6326531,304.394843 C17.6326531,305.631899 18.525179,306.636346 19.6249524,306.636346 L33.2079867,306.636346 C34.9975768,307.180106 36.9898761,306.619731 38.3377415,304.983917 L48.1872945,293.042328 L48.1872945,305.50049 C48.1872945,306.127325 48.6970932,306.636346 49.3248868,306.636346 L52.2021484,306.636346 C52.8314548,306.636346 53.3412535,306.127325 53.3412535,305.50049 L53.3412535,285.465929 C53.6513684,283.576361 53.1279549,281.555383 51.7816022,280.153689" id="Fill-5" fill="#FFFFFE"></path>
                    <polyline id="Fill-6" fill="#69443D" points="77.1686024 298.281202 59.5102041 283.397263 59.5102041 149.648746 77.1686024 149.648746 77.1686024 298.281202"></polyline>
                    <path d="M48.0277041,81.7444989 C48.0277041,72.4537431 40.4820782,64.921147 31.1771173,64.921147 C21.8721565,64.921147 14.3265306,72.4537431 14.3265306,81.7444989 C14.3265306,91.0367651 21.8721565,98.5693612 31.1771173,98.5693612 C40.4820782,98.5693612 48.0277041,91.0367651 48.0277041,81.7444989" id="Fill-7" fill="#0A0709"></path>
                    <path d="M55.6287293,280.153475 L58.9885599,276.614499 C59.551305,276.020893 60.4332417,276.054123 60.9506041,276.687 L75.5018021,294.513288 L83.6056348,294.513288 C86.8232664,294.513288 89.4312574,297.476784 89.4312574,301.130554 L89.4312574,304.394629 C89.4312574,305.631684 88.547808,306.636131 87.4571111,306.636131 L74.0147631,306.636131 C72.2433261,307.179892 70.2706926,306.619516 68.9349292,304.983703 L59.1882436,293.042114 L59.1882436,305.622622 C59.1882436,306.182997 58.7329042,306.636131 58.1731845,306.636131 L55.1022903,306.636131 C54.5395451,306.636131 54.0857184,306.182997 54.0857184,305.622622 L54.0857184,285.465714 C53.7786289,283.576146 54.2975042,281.555169 55.6287293,280.153475" id="Fill-8" fill="#FFFFFE"></path>
                    <path d="M102.956447,136.555047 L103.422376,136.26051 C106.168027,134.526517 106.993992,130.865195 105.257348,128.123735 L82.9926088,92.9696057 C81.2574779,90.2281455 77.5890451,89.4034418 74.8433933,91.1374343 L74.3774646,91.4319713 C71.6318128,93.1659638 70.8058481,96.8272858 72.540979,99.5702565 L94.8057187,134.722875 C96.5408496,137.464336 100.209282,138.289039 102.956447,136.555047" id="Fill-9" fill="#69443D"></path>
                    <path d="M75.6319213,172.219013 L76.1054139,172.499956 C78.9040121,174.149364 82.5452153,173.215908 84.1986573,170.423093 L105.38934,134.61645 C107.042783,131.822125 106.107899,128.187991 103.309301,126.537073 L102.835809,126.25613 C100.03721,124.606722 96.3960073,125.540178 94.7425652,128.332993 L73.5518821,164.139636 C71.89844,166.933961 72.8348358,170.568095 75.6319213,172.219013" id="Fill-10" fill="#69443D"></path>
                    <polygon id="Fill-11" fill="#2182A3" points="40.7755102 146.186152 63.6014823 146.186152 63.6014823 84.7275986 40.7755102 84.7275986"></polygon>
                    <polygon id="Fill-12" fill="#071621" points="40.7755102 219.351322 63.5999695 219.351322 63.5999695 145.247312 40.7755102 145.247312"></polygon>
                    <path d="M3.21137221,136.555047 L2.74544342,136.26051 C-0.00172109092,134.526517 -0.827685752,130.865195 0.91047065,128.123735 L23.1736976,92.9696057 C24.9103412,90.2281455 28.5772613,89.4034418 31.322913,91.1374343 L31.7903546,91.4319713 C34.5360063,93.1659638 35.361971,96.8272858 33.6253273,99.5702565 L11.3621004,134.722875 C9.62545675,137.464336 5.95853672,138.289039 3.21137221,136.555047" id="Fill-13" fill="#69443D"></path>
                    <path d="M31.6786059,172.219013 L31.2036006,172.499956 C28.4065151,174.149364 24.7653119,173.215908 23.1118699,170.423093 L1.91816125,134.61645 C0.266231933,131.822125 1.20262777,128.187991 3.99971322,126.537073 L4.47471854,126.25613 C7.27331675,124.606722 10.9130072,125.540178 12.5664493,128.332993 L33.7586451,164.139636 C35.4120872,166.933961 34.4756913,170.568095 31.6786059,172.219013" id="Fill-14" fill="#69443D"></path>
                    <path d="M37.7598724,84.7275986 C31.3382241,84.7275986 26.1328314,89.9250446 26.1328314,96.3368895 L26.1328314,132.981829 C26.1328314,141.068759 25.4793209,148.859642 21.5612834,155.668734 C17.679552,162.415898 15.4285714,170.436369 15.4285714,179.042892 L20.0016322,236.846165 L43.4553979,236.846165 L43.4553979,84.7275986 L37.7598724,84.7275986" id="Fill-15" fill="#FFFFFE"></path>
                    <path d="M93.9609427,89.2740599 C93.9609427,80.6856618 86.990164,73.7240143 78.3886346,73.7240143 C69.788618,73.7240143 62.8163265,80.6856618 62.8163265,89.2740599 C62.8163265,97.8609477 69.788618,104.822595 78.3886346,104.822595 C86.990164,104.822595 93.9609427,97.8609477 93.9609427,89.2740599" id="Fill-16" fill="#0A0709"></path>
                    <path d="M90.8529877,179.042892 C90.8529877,170.227927 88.4930887,162.026203 84.4373904,155.177839 C80.3529498,148.281141 79.5950591,140.334682 79.5950591,132.072541 L79.5950591,96.3368895 C79.5950591,89.9250446 74.3881537,84.7275986 67.9665054,84.7275986 L61.7142857,84.7275986 L61.7142857,236.846165 L84.7006099,236.846165 L90.8529877,179.042892" id="Fill-17" fill="#FFFFFE"></path>
                    <polygon id="Fill-18" fill="#A7A9A6" points="40.7755102 236.846165 43.6754631 236.846165 43.6754631 84.7275986 40.7755102 84.7275986"></polygon>
                    <polygon id="Fill-19" fill="#A7A9A6" points="61.7142857 236.846165 64.6142386 236.846165 64.6142386 84.7275986 61.7142857 84.7275986"></polygon>
                    <path d="M21.0702418,140.633751 L10.1254537,149.531791 L1.185067,134.962025 C-0.436607208,132.318743 -0.391224534,128.980657 1.30457471,126.382689 L23.2032275,92.8235912 C26.0925911,88.3964729 30.7987743,85.47678 36.0556007,84.8514552 L37.0963767,84.7275986 L37.0963767,97.3685244 L15.5925531,131.108876 L21.0702418,140.633751" id="Fill-20" fill="#FFFFFE"></path>
                    <path d="M86.5582598,141.391995 L97.5015352,150.290035 L106.441922,135.721779 C108.065109,133.078498 108.018213,129.738901 106.322414,127.142444 L84.4252742,93.5833458 C81.5359106,89.1562274 75.493964,85.9918422 72.1689268,85.1913056 L70.5306122,84.7275986 L70.5306122,98.128279 L92.0359485,131.86863 L86.5582598,141.391995" id="Fill-21" fill="#FFFFFE"></path>
                    <path d="M73.3806584,120.261557 C73.3806584,117.045817 70.7681291,114.437276 67.5459593,114.437276 C64.326815,114.437276 61.7142857,117.045817 61.7142857,120.261557 C61.7142857,123.478808 64.326815,126.085839 67.5459593,126.085839 C70.7681291,126.085839 73.3806584,123.478808 73.3806584,120.261557" id="Fill-22" fill="#6F7978"></path>
                    <path d="M69.9406481,119.643781 C69.9406481,117.983801 68.5927827,116.637993 66.9287514,116.637993 C65.2677455,116.637993 63.9183673,117.983801 63.9183673,119.643781 C63.9183673,121.303762 65.2677455,122.65108 66.9287514,122.65108 C68.5927827,122.65108 69.9406481,121.303762 69.9406481,119.643781" id="Fill-23" fill="#B3B6B2"></path>
                    <path d="M42.3790491,134.698418 C40.7830917,134.394818 36.0602682,133.1487 33.40992,131.064284 C30.8004163,129.011587 29.9517603,111.130923 29.755102,105.700868 L31.5583069,105.634409 C31.9485979,116.3329 33.1935959,128.553922 34.5278466,129.647485 C36.8832073,131.499293 41.3412986,132.663847 42.7179064,132.926664 L42.3790491,134.698418" id="Fill-24" fill="#6B7374"></path>
                    <path d="M30.585605,136.132585 L29.755102,134.528491 C29.8004847,134.505834 34.2041168,132.22506 36.1328804,130.586226 C37.2856004,129.51532 40.4986937,117.617533 42.9387687,106.734767 L44.6996165,107.128994 C43.4969756,112.503162 39.4034585,130.175385 37.3052662,131.959222 C35.2176632,133.733996 30.7731867,136.034406 30.585605,136.132585" id="Fill-25" fill="#6B7374"></path>
                    <path d="M44.2104968,108.840823 L43.8035655,108.79551 C42.8323763,108.571964 42.2242484,107.603768 42.449649,106.632551 C42.8868355,104.73543 42.5313379,102.782423 41.470896,101.273487 C40.7114926,100.192007 39.6858442,99.4760556 38.7222188,99.3597512 C37.7253127,99.2585513 36.4999805,99.7283001 35.4955107,100.64061 C34.0901605,101.916937 33.3171423,103.791401 33.3700888,105.78519 C33.3973184,106.780574 32.6121981,107.609809 31.6152921,107.638508 C30.6320008,107.643039 29.7878831,106.881774 29.7591407,105.88488 C29.6759392,102.838309 30.8816055,99.9563775 33.0675376,97.9731614 C34.8798191,96.3252644 37.1005446,95.5171756 39.160918,95.7799933 C41.1517046,96.0231751 43.0729044,97.2692934 44.4283336,99.2041752 C46.0757247,101.549898 46.6369571,104.552666 45.9698318,107.44366 C45.776199,108.277427 45.0334359,108.840823 44.2104968,108.840823" id="Fill-26" fill="#071621"></path>
                    <path d="M45.4900118,133.846484 C45.4900118,132.8511 44.6822003,132.043011 43.6837814,132.043011 C42.6853626,132.043011 41.877551,132.8511 41.877551,133.846484 C41.877551,134.841868 42.6853626,135.649957 43.6837814,135.649957 C44.6822003,135.649957 45.4900118,134.841868 45.4900118,133.846484" id="Fill-27" fill="#639BC7"></path>
                    <path d="M30.8609301,135.897666 C30.8609301,134.983846 30.1211925,134.243728 29.2059752,134.243728 C28.2922707,134.243728 27.5510204,134.983846 27.5510204,135.897666 C27.5510204,136.809976 28.2922707,137.550095 29.2059752,137.550095 C30.1211925,137.550095 30.8609301,136.809976 30.8609301,135.897666" id="Fill-28" fill="#639BC7"></path>
                    <path d="M67.8649127,118.568942 L67.7711218,118.564411 C67.1191241,118.513056 66.6335295,117.943618 66.6864759,117.294126 C68.191668,98.5222978 66.9799506,87.8978179 62.8728186,83.8558634 C60.0182484,81.0464331 55.7310985,81.4527432 50.7677468,81.922492 C49.8147106,82.0116083 48.8420087,82.1037456 47.8587174,82.176247 C44.9678411,82.386199 42.7335008,83.4737204 41.220745,85.4101127 C37.6566924,89.9716608 38.9773282,97.8229612 38.990943,97.9015044 C39.1028869,98.5434441 38.6732642,99.1551749 38.0318558,99.2669479 C37.3843963,99.3817418 36.7762685,98.9512646 36.6628118,98.3108353 C36.5977633,97.9483282 35.1409795,89.3614405 39.3524916,83.966126 C41.2933573,81.4769103 44.0964937,80.0827683 47.6862632,79.8214611 C48.6529142,79.7519805 49.6074631,79.6613537 50.5438589,79.5722374 C55.864221,79.0677483 60.8895958,78.5919577 64.5323117,82.1747365 C69.238495,86.8057652 70.6287175,97.6960837 69.0433495,117.482931 C68.9919158,118.100704 68.476066,118.568942 67.8649127,118.568942" id="Fill-29" fill="#071621"></path>
                    <path d="M52.3745563,91.5170835 L51.9146786,91.5170835 C48.8180675,91.5170835 46.2857143,88.9885962 46.2857143,85.8967124 L46.2857143,72.7422348 C46.2857143,69.6503511 48.8180675,67.1218638 51.9146786,67.1218638 L52.3745563,67.1218638 C55.4711674,67.1218638 58.0050334,69.6503511 58.0050334,72.7422348 L58.0050334,85.8967124 C58.0050334,88.9885962 55.4711674,91.5170835 52.3745563,91.5170835" id="Fill-30" fill="#69443D"></path>
                    <path d="M51.6341103,32.9307274 C51.6341103,23.2517869 43.7768568,15.4050179 34.0816049,15.4050179 C24.3878658,15.4050179 16.5306122,23.2517869 16.5306122,32.9307274 C16.5306122,42.6081574 24.3878658,50.4549264 34.0816049,50.4549264 C43.7768568,50.4549264 51.6341103,42.6081574 51.6341103,32.9307274" id="Fill-31" fill="#0A0709"></path>
                    <path d="M46.2713946,57.7609131 C46.2713946,48.9535002 39.1190852,41.8136201 30.2982062,41.8136201 C21.4773272,41.8136201 14.3265306,48.9535002 14.3265306,57.7609131 C14.3265306,66.5698364 21.4773272,73.7097165 30.2982062,73.7097165 C39.1190852,73.7097165 46.2713946,66.5698364 46.2713946,57.7609131" id="Fill-32" fill="#0A0709"></path>
                    <path d="M87.8010189,42.1821974 C87.8010189,32.2555437 79.7410561,24.2078853 69.7977123,24.2078853 C59.8558812,24.2078853 51.7959184,32.2555437 51.7959184,42.1821974 C51.7959184,52.108851 59.8558812,60.1565094 69.7977123,60.1565094 C79.7410561,60.1565094 87.8010189,52.108851 87.8010189,42.1821974" id="Fill-33" fill="#0A0709"></path>
                    <path d="M91.1056286,65.2897242 C91.1056286,55.3630706 83.0456658,47.3154122 73.1053475,47.3154122 C63.1620037,47.3154122 55.1020408,55.3630706 55.1020408,65.2897242 C55.1020408,75.2163779 63.1620037,83.2640363 73.1053475,83.2640363 C83.0456658,83.2640363 91.1056286,75.2163779 91.1056286,65.2897242" id="Fill-34" fill="#0A0709"></path>
                    <path d="M35.3084392,51.1882003 C35.3084392,47.8350093 32.583966,45.1146953 29.2256482,45.1146953 C25.8658176,45.1146953 23.1428571,47.8350093 23.1428571,51.1882003 C23.1428571,54.5429017 25.8658176,57.2617052 29.2256482,57.2617052 C32.583966,57.2617052 35.3084392,54.5429017 35.3084392,51.1882003" id="Fill-35" fill="#69443D"></path>
                    <path d="M32.2655292,50.2192471 C32.2655292,48.0094641 30.469888,46.2150538 28.2552136,46.2150538 C26.0405391,46.2150538 24.244898,48.0094641 24.244898,50.2192471 C24.244898,52.4305407 26.0405391,54.2234405 28.2552136,54.2234405 C30.469888,54.2234405 32.2655292,52.4305407 32.2655292,50.2192471" id="Fill-36" fill="#4A332D"></path>
                    <path d="M82.6961943,50.0878419 C82.6961943,46.7346509 79.9732339,44.0143369 76.6134033,44.0143369 C73.2550854,44.0143369 70.5306122,46.7346509 70.5306122,50.0878419 C70.5306122,53.4425433 73.2550854,56.1613468 76.6134033,56.1613468 C79.9732339,56.1613468 82.6961943,53.4425433 82.6961943,50.0878419" id="Fill-37" fill="#69443D"></path>
                    <path d="M80.7553251,50.2192471 C80.7553251,48.0079536 78.9596839,46.2150538 76.7450095,46.2150538 C74.5318478,46.2150538 72.7346939,48.0079536 72.7346939,50.2192471 C72.7346939,52.4305407 74.5318478,54.2234405 76.7450095,54.2234405 C78.9596839,54.2234405 80.7553251,52.4305407 80.7553251,50.2192471" id="Fill-38" fill="#4A332D"></path>
                    <path d="M28.6530612,53.0763115 L28.6530612,36.0263926 C28.6530612,22.814518 39.3784998,12.1039427 52.6120874,12.1039427 C65.8441623,12.1039427 76.5696008,22.814518 76.5696008,36.0263926 L76.5696008,53.0763115 C76.5696008,66.2881861 65.8441623,76.9987614 52.6120874,76.9987614 C39.3784998,76.9987614 28.6530612,66.2881861 28.6530612,53.0763115 Z" id="Fill-39" fill="#69443D"></path>
                    <path d="M44.8032456,0 C34.666269,0 26.4489796,8.2047448 26.4489796,18.3247356 C26.4489796,28.4462369 34.666269,36.6509817 44.8032456,36.6509817 C54.9387094,36.6509817 63.1575116,28.4462369 63.1575116,18.3247356 C63.1575116,8.2047448 54.9387094,0 44.8032456,0 Z" id="Fill-41" fill="#0A0709"></path>
                    <path d="M81.7620942,22.661213 C81.7620942,15.0077812 75.5476935,8.80286738 67.8810471,8.80286738 C60.2159135,8.80286738 54,15.0077812 54,22.661213 C54,30.3161553 60.2159135,36.5210691 67.8810471,36.5210691 C75.5476935,36.5210691 81.7620942,30.3161553 81.7620942,22.661213" id="Fill-42" fill="#0A0709"></path>
                    <polyline id="Fill-55" fill="#E99F72" points="47.6691277 70.4229391 47.3877551 70.4229391 47.5874389 70.608724 47.6691277 70.4229391"></polyline>
                    <polyline id="Fill-56" fill="#E99F72" points="58.4081633 70.439554 58.4338801 70.439554 58.4263163 70.4229391 58.4081633 70.439554"></polyline>
                    <path d="M79.492925,56.7413405 C79.492925,55.7897593 78.7199068,55.0179211 77.7668707,55.0179211 C76.8138345,55.0179211 76.0408163,55.7897593 76.0408163,56.7413405 C76.0408163,57.6944322 76.8138345,58.4647598 77.7668707,58.4647598 C78.7199068,58.4647598 79.492925,57.6944322 79.492925,56.7413405" id="Fill-60" fill="#FFFFFE"></path>
                    <path d="M28.7990475,56.7413405 C28.7990475,55.7897593 28.0260293,55.0179211 27.0714804,55.0179211 C26.119957,55.0179211 25.3469388,55.7897593 25.3469388,56.7413405 C25.3469388,57.6929217 26.119957,58.4647598 27.0714804,58.4647598 C28.0260293,58.4647598 28.7990475,57.6929217 28.7990475,56.7413405" id="Fill-61" fill="#FFFFFE"></path>
                    <path d="M29.1575671,52.6586464 L29.1575671,52.6586464 C28.2726049,52.6586464 27.5510204,51.9366531 27.5510204,51.0545524 L27.5510204,30.2134131 C27.5510204,29.3313124 28.2726049,28.609319 29.1575671,28.609319 C30.0425292,28.609319 30.7656265,29.3313124 30.7656265,30.2134131 L30.7656265,51.0545524 C30.7656265,51.9366531 30.0425292,52.6586464 29.1575671,52.6586464" id="Fill-62" fill="#0A0709"></path>
                    <path d="M75.3736946,52.6586464 L75.3736946,52.6586464 C74.5295768,52.6586464 73.8367347,51.9683724 73.8367347,51.1240329 L73.8367347,30.1439325 C73.8367347,29.299593 74.5295768,28.609319 75.3736946,28.609319 C76.2208378,28.609319 76.9121672,29.299593 76.9121672,30.1439325 L76.9121672,51.1240329 C76.9121672,51.9683724 76.2208378,52.6586464 75.3736946,52.6586464" id="Fill-63" fill="#0A0709"></path>
                </g>
            </g>
        </g>
    </g>
</svg>