<?xml version="1.0" encoding="UTF-8"?>
<svg width="542px" height="252px" viewBox="0 0 542 252" version="1.1" xmlns="http://www.w3.org/2000/svg" xmlns:xlink="http://www.w3.org/1999/xlink">
    <!-- Generator: Sketch 47.1 (45422) - http://www.bohemiancoding.com/sketch -->
    <title>Foods</title>
    <desc>Created with Sketch.</desc>
    <defs></defs>
    <g id="Questions" stroke="none" stroke-width="1" fill="none" fill-rule="evenodd">
        <g id="Hábitos----5-/-5" transform="translate(-720.000000, -126.000000)" fill-rule="nonzero">
            <g id="Foods" transform="translate(720.000000, 126.000000)">
                <g id="vegetables" transform="translate(332.386740, 45.000000)">
                    <path d="M50.4491628,76.2972899 L50.4491628,75.9961914 C35.9726768,50.5436936 21.4957808,54.1795294 21.4957808,54.1795294 C12.9789708,65.7979749 11.5849905,81.2054828 17.8763518,94.176194 C17.8763518,94.176194 32.5016657,111.511391 39.1398821,107.356974 C43.3759424,104.705989 181.381638,108.523061 189.565122,96.6760112 C189.951337,96.1166519 189.155538,95.6512056 184.357786,94.176194 C183.292211,93.848734 162.100839,76.8690062 160.837647,76.5069467 C157.11039,75.4393035 152.868179,74.4948182 148.306994,73.6574268 C147.497255,73.5087311 148.490261,64.7183867 147.661253,64.5762814 C116.837477,59.2920244 71.7770622,67.1654808 72.1657367,65.9965104 C72.855757,63.923009 49.3429984,76.4571068 50.4491628,76.2972899 Z" id="Shape" fill="#71C285"></path>
                    <g id="Group" transform="translate(187.653775, 0.000000)" fill="#527F72">
                        <path d="M7.5845619,18.2714074 C6.13279599,18.271 4.82417339,17.3946667 4.26867976,16.051037 C3.71318614,14.7074074 4.02021226,13.1608889 5.04661483,12.1321852 L15.8197752,1.34281481 C17.2251822,-0.0399259259 19.4800959,-0.0297407407 20.8728965,1.36562963 C22.2656972,2.761 22.2758636,5.02007407 20.8956693,6.42807407 L10.122509,17.2174444 C9.4498981,17.8933333 8.53654621,18.2726296 7.5845619,18.2714074 Z" id="Shape"></path>
                        <path d="M7.5845619,18.2714074 C6.03926485,18.2714074 4.66679708,17.2814074 4.17718191,15.8131111 L0.590872792,5.02374074 C-0.0365991406,3.13825926 0.98045031,1.10040741 2.86245945,0.472185185 C4.74446859,-0.156444444 6.77856749,0.862481481 7.40563277,2.74796296 L10.9919419,13.5373333 C11.6165672,15.4224074 10.6003311,17.4586296 8.72035523,18.0888889 C8.35355051,18.2090741 7.97007285,18.2705926 7.5845619,18.2714074 Z" id="Shape"></path>
                        <path d="M18.3573156,21.868 C17.9709913,21.8675926 17.5875137,21.8048519 17.2215223,21.6818148 L6.44836191,18.0852222 C5.22839056,17.6814815 4.31707196,16.6552222 4.05884469,15.3947037 C3.80061742,14.1341852 4.23452056,12.8312963 5.1966713,11.9785926 C6.15882204,11.1258889 7.50282382,10.8537407 8.71994857,11.2648148 L19.4931089,14.8614074 C21.1624364,15.419963 22.1811125,17.1082593 21.8992991,18.8487037 C21.6170791,20.5887407 20.1173276,21.8671852 18.3573156,21.868 Z" id="Shape"></path>
                    </g>
                    <path d="M194.184131,38.8833173 L154.772328,73.7354754 C147.020896,78.6183555 151.983906,76.5764538 145.542587,76.5764538 C144.305442,76.5764538 134.538959,69.1610397 133.337679,69.3066255 L133.373956,69.0886581 C127.801648,61.4873549 131.554309,55.4747459 140.652132,53.4776714 L146.256182,47.1607306 L151.132622,41.7152479 L158.228997,33.6919928 L163.069159,28.2099081 L168.49141,22.1471255 L172.676515,17.4275153 C172.862437,17.146214 173.068972,16.8793068 173.295294,16.62885 C177.094539,12.0054744 183.235332,9.99811841 189.040558,11.4815302 C194.845783,12.9653533 199.26257,17.6709807 200.365736,23.5470517 C201.469315,29.4235339 199.058097,35.4048873 194.184131,38.8833173 L194.184131,38.8833173 Z" id="Shape" fill="#F18D46"></path>
                    <g id="Group" transform="translate(145.731123, 16.000000)" fill="#FAC176">
                        <path d="M33.6158018,11.9369043 C32.1850885,13.3533511 29.8945499,13.3533511 28.4638366,11.9369043 L22.5136971,5.93048936 L26.686234,1.16917021 C26.8715979,0.885382979 27.0775121,0.616117021 27.3031546,0.363446809 L33.6162128,6.73621277 C35.0308968,8.17547872 35.0308968,10.4976383 33.6158018,11.9369043 Z" id="Shape"></path>
                        <path d="M22.7311195,22.9245319 C21.3004062,24.3409787 19.0098676,24.3409787 17.5791544,22.9245319 L12.282104,17.577383 L17.10773,12.0468511 L22.7315305,17.7238404 C24.1462145,19.1631064 24.1462145,21.4848511 22.7311195,22.9245319 Z" id="Shape"></path>
                        <path d="M11.8468482,37.5744255 C10.416135,38.9908723 8.12559636,38.9908723 6.69488311,37.5744255 L0.345656375,31.1651489 L5.20745098,25.6715426 L11.8468482,32.373734 C13.2615322,33.813 13.2615322,36.1351596 11.8468482,37.5744255 L11.8468482,37.5744255 Z" id="Shape"></path>
                    </g>
                    <path d="M101.767371,58.8060478 L101.767781,58.8056392 C101.776798,58.5126865 101.812049,58.2270883 101.812049,57.9320927 C101.8432,46.4158252 95.0013294,35.9839319 84.4056928,31.3927058 C73.8100563,26.8014798 61.4904257,28.930596 53.063923,36.8088572 C44.6370104,44.6871184 41.7173694,56.8060432 45.6355005,67.6399802 L45.6363203,67.641206 C46.5056953,68.7652126 47.3808088,69.9856445 48.2620707,71.3033186 C48.305109,71.3670572 48.3469177,71.4185385 48.3899561,71.4830943 C49.3097475,72.8673671 50.233228,74.355011 51.1567084,75.9660464 L51.1567084,76.2647192 C63.6079135,74.3219159 75.5619229,81.9252021 79.039833,94 L90.9573623,94 C95.4046604,89.8937597 98.3165134,84.3999779 99.2121214,78.4236618 C100.450807,71.9402966 101.304196,65.3895154 101.767371,58.8060478 L101.767371,58.8060478 Z" id="Shape" fill="#D75E72"></path>
                    <g id="Group" transform="translate(50.906077, 8.000000)" fill="#527F72">
                        <path d="M21.9648203,25.6525079 C21.0035285,25.6529206 20.0816406,25.2695238 19.4019227,24.5860952 C18.7222049,23.9026667 18.3408897,22.975746 18.3413001,22.0092063 C18.3339119,13.9657143 11.8515542,7.44631746 3.85132414,7.4368254 C1.85034309,7.4368254 0.227803996,5.80584127 0.227803996,3.79352381 C0.227803996,1.78120635 1.84993263,0.150222222 3.85132414,0.150222222 C15.851464,0.165079365 25.5752058,9.94355556 25.58793,22.0092063 C25.5883404,22.975746 25.2070253,23.9026667 24.5273074,24.5860952 C23.8475895,25.2695238 22.9257017,25.6533333 21.9648203,25.6525079 Z" id="Shape"></path>
                        <path d="M21.9648203,25.6525079 C21.0035285,25.6529206 20.0816406,25.2695238 19.4019227,24.5860952 C18.7222049,23.9026667 18.3408897,22.975746 18.3413001,22.0092063 C18.3544348,9.94231746 28.0802288,0.163428571 40.0816001,0.150222222 C42.0825812,0.150222222 43.7051203,1.78120635 43.7051203,3.79352381 C43.7051203,5.80584127 42.0829916,7.4368254 40.0816001,7.4368254 C32.0805491,7.44466667 25.5961391,13.9644762 25.5883404,22.0092063 C25.5887509,22.975746 25.2074357,23.9026667 24.5277179,24.5860952 C23.8475895,25.2695238 22.9257017,25.6533333 21.9648203,25.6525079 Z" id="Shape"></path>
                    </g>
                    <path d="M208.866575,98.6193777 L207.493282,101.97558 C198.000196,125.128883 181.851099,144.956233 161.083822,158.956626 C159.24048,160.219801 157.361107,161.410619 155.445293,162.565464 L155.409262,162.565464 L155.409262,170.17967 C155.410899,171.988994 154.691497,173.724736 153.40992,175.003854 C152.128343,176.28338 150.39023,177.001224 148.578007,176.999997 L61.0356625,176.999997 C59.2234391,177.001632 57.4849166,176.28338 56.2037492,175.003854 C54.9221724,173.724327 54.2031791,171.988994 54.2044075,170.17967 L54.2044075,162.565464 C52.2885934,161.410619 50.4092203,160.219801 48.5658788,158.956626 C27.7785386,144.968496 11.6147018,125.138285 2.11997802,101.975172 L0.746684495,98.6189689 C-0.00301748704,97.8242724 -0.208561122,96.6612521 0.222998621,95.6584792 C0.654558364,94.6557064 1.64133159,94.0040879 2.73456168,94 L206.878698,94 C207.971928,94.0040879 208.958701,94.6557064 209.390261,95.6584792 C209.821821,96.6616609 209.616277,97.8246812 208.866575,98.6193777 Z" id="Shape" fill="#E6E7E8"></path>
                    <path d="M155.354221,147.999995 C153.792556,148.002431 152.404455,147.018292 151.90844,145.556293 C151.412014,144.094699 151.919133,142.483292 153.166574,141.556399 L153.180969,141.545843 C153.296541,141.459365 153.41746,141.379789 153.542492,141.307928 C167.047172,133.145335 177.862432,121.289782 184.67626,107.179722 C185.184202,106.001921 186.290158,105.180993 187.577493,105.026308 C188.864828,104.871622 190.13818,105.406728 190.917573,106.429843 C191.696966,107.452959 191.86436,108.808993 191.356418,109.986793 C183.890286,125.484961 172.030763,138.513036 157.215715,147.492498 C156.652661,147.823792 156.009816,147.999183 155.354221,147.999995 Z" id="Shape" fill="#FFFFFF"></path>
                    <g id="Group" transform="translate(47.911602, 159.000000)" fill="#BDC3C7">
                        <path d="M56.3836884,3.97866667 C56.3775585,6.14266667 54.7661873,7.89555556 52.7759824,7.90222222 L5.87825596,7.90222222 L5.87825596,3.97866667 C3.96610637,2.72311111 2.09032809,1.42844444 0.250512438,0.0551111111 L52.7763911,0.0551111111 C54.7661873,0.0617777778 56.3775585,1.81422222 56.3836884,3.97866667 L56.3836884,3.97866667 Z" id="Shape"></path>
                        <path d="M112.552827,0.0551111111 C110.713011,1.42844444 108.837233,2.72311111 106.925084,3.97866667 L106.889121,3.97866667 L106.889121,7.90222222 L96.0664115,7.90222222 C94.0741633,7.90222222 92.4587055,6.14577778 92.4587055,3.97866667 C92.4587055,1.81155556 94.0737547,0.0551111111 96.0664115,0.0551111111 L112.552827,0.0551111111 Z" id="Shape"></path>
                    </g>
                    <path d="M77.8563536,94 C74.7003663,83.3210386 64.9572317,76 53.9005525,76 C42.8438733,76 33.1007387,83.3206307 29.9447514,94 L77.8563536,94 Z" id="Shape" fill="#805333"></path>
                    <path d="M171.683241,95 C166.952419,79.5258933 153.011007,69 137.246777,69 C121.482547,69 107.541545,79.5258933 102.810313,95 L171.683241,95 Z" id="Shape" fill="#59474E"></path>
                    <g id="Group" transform="translate(88.836096, 40.000000)" fill="#71C285">
                        <path d="M44.9849903,29.5226866 L45.0141557,29.3199254 C59.5184067,9.2408209 48.6405266,0.33369403 48.6405266,0.33369403 C48.6405266,0.33369403 -9.37729871,14.8266045 1.50099218,54.6827239 L14.0445875,54.6827239 C18.40338,40.8744403 30.5682357,30.9822388 44.9849903,29.5226866 L44.9849903,29.5226866 Z" id="Shape"></path>
                        <path d="M70.3966976,36.5663806 L70.3966976,36.5725373 C76.4635157,41.1219403 80.9533473,47.4547388 83.2360549,54.6827239 L95.7796502,54.6827239 C106.657941,40.1898134 106.657941,29.3199254 106.657941,29.3199254 C83.0910493,18.4504478 70.3966976,36.5663806 70.3966976,36.5663806 Z" id="Shape"></path>
                    </g>
                    <path d="M57.561227,61.9999987 C56.5900785,62.000414 55.658738,61.6145439 54.9720506,60.9267064 C54.2853632,60.238869 53.9001382,59.3059687 53.9005528,58.3331938 C53.9109195,48.2137593 62.0968472,40.0124608 72.1993626,40 C74.2208609,40 75.8600368,41.6415058 75.8600368,43.6668049 C75.8600368,45.692104 74.2212756,47.3336098 72.1993626,47.3336098 C66.1385998,47.341917 61.2277066,52.2622807 61.2214866,58.3336091 C61.2219013,59.3063841 60.8366763,60.2392843 60.1499888,60.9271218 C59.4637161,61.6145439 58.5323756,62.0008294 57.561227,61.9999987 L57.561227,61.9999987 Z" id="Shape" fill="#802D40"></path>
                </g>
                <g id="fruit" transform="translate(82.847145, 0.000000)">
                    <path d="M182.115646,90 C180.159788,90 178.574292,88.3723485 178.574292,86.3644882 C178.574292,79.7404785 176.325995,74.3592059 171.892198,70.3693658 C170.421294,69.0456932 170.274157,66.7489119 171.563548,65.2393698 C172.852938,63.7288867 175.089776,63.5783089 176.561138,64.9019815 C180.710747,68.63631 185.657459,75.3906635 185.657459,86.3654294 C185.656542,88.3723485 184.071504,90 182.115646,90 Z" id="Shape" fill="#6B5445"></path>
                    <path d="M179.550923,125 L211.716915,125 C216.451955,105.303248 201.696493,87 182.018419,87 C176.221256,87 170.310788,88.6072694 165.694291,91.4004391 C177.319561,98.4295764 182.678258,111.985905 179.550923,125 Z" id="Shape" fill="#FF6536"></path>
                    <path d="M184.717531,125 C182.500493,111.250977 187.396355,99.0049245 196.637201,91.0701345 C186.637907,85.1976031 174.428572,86.0076237 165.694291,91.400494 C177.085006,98.4299947 182.334903,111.98611 179.271258,124.999526 L184.717531,124.999526 L184.717531,125 Z" id="Shape" fill="#F95428"></path>
                    <path d="M205.210842,202.043054 L226.581952,138 C214.795671,138 24.9839819,138 12.9760589,138 L34.3476368,202.043054 C34.3957994,202.169653 40.0490622,217 56.7769219,217 L119.779707,217 L182.781089,217 C199.509416,217 205.162679,202.169184 205.210842,202.043054 Z" id="Shape" fill="#93482B"></path>
                    <path d="M40.3515655,165.243126 C40.3515655,155.61177 42.2217232,146.417883 45.612117,138 L12.9760589,138 L34.4146239,202.043054 C34.4629375,202.169653 40.1339199,217 56.9142114,217 L61.8858195,217 C48.5864511,203.779802 40.3515655,185.473146 40.3515655,165.243126 Z" id="Shape" fill="#843A24"></path>
                    <path d="M103.55215,49.6897244 C99.3844774,43.0244731 89.3697419,43.5577683 86.0024328,50.6915307 C85.7593383,51.2065174 85.7934568,51.8088217 86.0938894,52.2942331 C87.9201784,55.2405013 91.0969924,57 94.5927198,57 C94.7841627,57 94.9765532,56.9943666 95.1722609,56.9835692 C98.8423719,56.7751334 102.090266,54.5964159 103.647398,51.298999 C103.891914,50.7802568 103.856374,50.1756051 103.55215,49.6897244 Z" id="Shape" fill="#9AD14B"></path>
                    <g id="Group" transform="translate(73.863720, 44.000000)" fill="#6B5445">
                        <path d="M11.7661459,26.3850404 C9.76038725,26.3850404 8.13443948,24.7428889 8.13443948,22.7171414 C8.13443948,16.0360202 5.82878068,10.6068081 1.28139162,6.58047475 C-0.227040409,5.24453535 -0.377460555,2.92729293 0.945296608,1.40430303 C2.26758371,-0.119636364 4.561961,-0.271080808 6.07039304,1.06438384 C10.3254029,4.83292929 15.3983224,11.6479293 15.3983224,22.7180909 C15.3978523,24.7428889 13.7719045,26.3850404 11.7661459,26.3850404 Z" id="Shape"></path>
                        <path d="M76.8477726,46.6078586 C74.8420139,46.6078586 73.2160662,44.9657071 73.2160662,42.9399596 C73.2160662,36.2559899 70.9108774,30.8267778 66.3639584,26.8028182 C64.8550563,25.4673535 64.7041661,23.1501111 66.0264532,21.6266465 C67.3482703,20.1027071 69.6426476,19.9507879 71.1515497,21.2857778 C75.4070296,25.0524242 80.479479,31.8669495 80.479479,42.9409091 C80.479479,44.9657071 78.8535312,46.6078586 76.8477726,46.6078586 Z" id="Shape"></path>
                    </g>
                    <path d="M52.2365385,125 C51.7087659,119.355517 52.3469162,114.064455 53.9005525,109.271997 C51.6201854,106.076536 47.5255422,104 43.4397107,104 C36.5378555,104 30.9429098,109.897207 30.9429098,117.171439 C30.9429098,119.881983 31.721583,122.904399 33.0535362,124.999511 L52.2370022,124.999511 L52.2370022,125 L52.2365385,125 Z" id="Shape" fill="#80AD1F"></path>
                    <path d="M49.907919,105.534991 C40.8189117,100.867456 30.9429098,107.444926 30.9429098,117.171564 C30.9429098,119.882235 31.7374762,122.904791 33.0966155,125 L45.2843846,125 C41.3016144,118.86005 42.7520885,109.462897 49.907919,105.534991 Z" id="Shape" fill="#78991D"></path>
                    <path d="M120.594356,124 C121.126179,118.554638 120.499872,113.205098 118.685967,108.151522 C116.457175,102.042011 113.566059,98.3898985 109.499975,94.3629927 C109.479394,94.3143734 107.059295,92.0155771 107.021876,88.470144 L107.021876,86.8704272 C107.021876,75.3448194 97.7624483,66 86.3425187,66 C86.342051,66 86.3415832,66 86.3411155,66 C74.9207182,66 65.6617583,75.3457635 65.6617583,86.8704272 L65.6617583,88.470144 C65.6243389,92.0127449 63.2056432,94.3143734 63.1845948,94.3629927 C63.1471754,94.4163323 50.216438,104.822752 52.0897461,124 L120.594356,124 L120.594356,124 Z" id="Shape" fill="#9AD14B"></path>
                    <path d="M74.874134,96.308237 C74.8944,96.2596177 77.2765709,93.9570451 77.3134181,90.4153882 L77.3134181,88.8156715 C77.3134181,78.2832193 84.9301933,69.5751711 94.825046,68.1529384 C92.1084868,66.7764928 89.0515517,66 85.8159076,66 C85.8159076,66 85.8159076,66 85.815447,66 L85.8145259,66 C74.5687629,66 65.4513859,75.3457635 65.4513859,86.8704272 L65.4513859,88.470144 C65.4149993,91.9480765 62.9637398,94.4786405 63.0121018,94.3629927 C62.9752546,94.4163323 50.2422469,104.822752 52.0869094,124 L63.8250429,124 C63.0728996,105.439226 74.9450649,96.2072221 74.874134,96.308237 Z" id="Shape" fill="#93C43D"></path>
                    <path d="M179.794743,125 C184.429598,105.305618 169.985349,87 150.721689,87 C131.42261,87 117.022636,105.328843 121.647704,125 L179.794743,125 Z" id="Shape" fill="#FF822E"></path>
                    <path d="M156.710866,87.6128574 C154.772291,87.2113955 152.766163,87 150.711581,87 C131.419017,87 117.023903,105.328843 121.64741,125 L133.645978,125 C129.543804,107.54423 140.418642,90.9904455 156.710866,87.6128574 Z" id="Shape" fill="#ED6C24"></path>
                    <path d="M216.05026,155.892888 L225.103877,142.877747 L226.581952,138 L219.351496,138 L211.645494,149.561147 L203.939492,138 L188.626618,138 L180.920616,149.561147 L173.214613,138 L157.90174,138 L150.195737,149.561147 L142.489735,138 L127.177796,138 L119.470859,149.561616 L111.764389,138 L96.452918,138 L88.7464482,149.561616 L81.0399784,138 L65.7280397,138 L58.0215698,149.561616 L50.3151,138 L35.0017585,138 L27.2957563,149.561616 L19.5892865,138 L12.9760589,138 L15.0311487,144.594782 L22.8909905,155.894295 L20.1536763,159.830064 L23.0247233,168.368349 L27.2962239,162.227442 L38.2534296,177.97896 L30.1658681,189.606219 L33.0364474,198.144035 L42.6586631,184.311638 L53.6158688,200.063625 L44.2129562,213.580466 C46.1590959,214.776107 48.4353592,215.772944 51.0786863,216.375922 L58.0211022,206.396304 L65.397916,217 L81.3696344,217 L88.745513,206.396304 L96.1213916,217 L112.093578,217 L119.469456,206.396304 L126.845802,217 L142.818456,217 L150.194335,206.396304 L157.570213,217 L173.542399,217 L180.918745,206.396304 L187.936444,216.485171 C190.611101,215.938927 192.922434,214.995074 194.904111,213.836943 L185.323511,200.064094 L196.280717,184.312107 L206.318626,198.742793 L209.189206,190.204508 L200.685483,177.979429 L211.643156,162.226973 L216.330818,168.965701 L219.201398,160.427416 L216.05026,155.892888 Z M165.557241,139.657487 L176.514447,155.893826 L165.557241,171.645812 L154.599568,155.893357 L165.557241,139.657487 Z M134.832831,139.658425 L145.789569,155.893357 L134.832363,171.645812 L123.875157,155.894295 L134.832831,139.658425 Z M104.107485,139.658894 L115.06469,155.894295 L104.107485,171.645812 L93.1507464,155.893826 L104.107485,139.658894 Z M73.3835414,139.658425 L84.3407472,155.893826 L73.3835414,171.645812 L62.4263357,155.893826 L73.3835414,139.658425 Z M31.7009897,155.893357 L42.6581955,139.657487 L53.6158688,155.893357 L42.6581955,171.645344 L31.7009897,155.893357 Z M47.0634289,177.977553 L58.0206347,162.226035 L68.9778404,177.978022 L58.0206347,193.730009 L47.0634289,177.977553 Z M73.3835414,215.814674 L62.4263357,200.062687 L73.3835414,184.310701 L84.3407472,200.062687 L73.3835414,215.814674 Z M77.7887749,177.978022 L88.7459806,162.226035 L99.7031863,177.978022 L88.7459806,193.730009 L77.7887749,177.978022 Z M104.107952,215.814674 L93.1507464,200.062687 L104.107485,184.311169 L115.06469,200.063156 L104.107952,215.814674 Z M108.512718,177.978022 L119.469924,162.226035 L130.426662,177.978022 L119.469456,193.730009 L108.512718,177.978022 Z M134.832831,215.815143 L123.875625,200.063156 L134.832831,184.310701 L145.790504,200.063156 L134.832831,215.815143 Z M139.237129,177.978022 L150.194335,162.225566 L161.152008,177.978022 L150.194802,193.730009 L139.237129,177.978022 Z M165.557241,215.814674 L154.600036,200.063156 L165.557241,184.311169 L176.514447,200.062687 L165.557241,215.814674 Z M180.91968,193.730478 L169.962475,177.978491 L180.91968,162.226035 L191.876886,177.978491 L180.91968,193.730478 Z M196.282587,171.645812 L185.325382,155.893826 L196.283055,139.657956 L207.240261,155.893357 L196.282587,171.645812 Z" id="Shape" fill="#AA563C"></path>
                    <g id="Group" transform="translate(12.976059, 138.000000)" fill="#9E4C36">
                        <path d="M42.7397965,72.5262321 C41.1699212,70.4886905 39.7045487,68.3660357 38.3516101,66.1653214 L31.4427593,76.1484762 C31.7147466,76.3163512 31.9946649,76.4790536 32.2797151,76.6389345 C32.3958812,76.7042976 32.5157795,76.7673095 32.6342783,76.8303214 C32.8264889,76.9337738 33.0219652,77.034875 33.2202407,77.1340952 C33.3499361,77.1989881 33.4805647,77.263881 33.6125928,77.3264226 C33.8365275,77.4326964 34.065594,77.5356786 34.2965266,77.6358393 C34.4024291,77.6823929 34.5059988,77.7308274 34.6137674,77.7759702 C34.928209,77.9071667 35.2505816,78.030369 35.578086,78.1498095 C35.7194448,78.2015357 35.8640693,78.2490298 36.0077607,78.2984048 C36.2265635,78.3731726 36.4481655,78.445119 36.6730332,78.514244 C36.8274548,78.5617381 36.9828095,78.6087619 37.1404968,78.6539048 C37.3952225,78.7258512 37.6546135,78.7930952 37.9168037,78.8579881 C38.0418339,78.8885536 38.1635983,78.922881 38.2904946,78.9520357 L38.2909612,78.9520357 L42.7397965,72.5262321 Z" id="Shape"></path>
                        <path d="M10.1689663,18.2950833 L7.50974221,22.1373988 L10.3593108,30.7215952 L14.5636841,24.646119 L25.4958944,40.4432976 L17.4482425,52.0736964 L20.2973445,60.6569524 L29.8910787,46.7943333 L30.0912203,47.084 C28.6655029,41.8478988 27.8033545,36.3780893 27.5724219,30.7422857 L18.9584018,18.2946131 L29.8906121,2.01261905 L31.3377899,4.16819048 C31.7711968,2.87926786 32.2349281,1.60492262 32.7364485,0.349857143 L22.2521075,0.349857143 L14.5636841,11.9449881 L6.87479414,0.349857143 L0.276652614,0.349857143 L2.60603963,7.36722024 L10.1689663,18.2950833 Z" id="Shape"></path>
                    </g>
                    <path d="M22.1099129,124 L22.1099129,112.835444 C22.1099129,58.9594943 65.9239927,15.1294281 119.778298,15.1294281 C173.632604,15.1294281 217.447155,58.9594943 217.447155,112.835444 L217.447155,124 C226.319156,124 223.673915,124 232.570902,124 L232.570902,112.835444 C232.570902,50.6180294 181.972822,0 119.77877,0 C57.5851886,0 6.98710866,50.6180294 6.98710866,112.835444 L6.98710866,124 L22.1099129,124 Z" id="Shape" fill="#F2D59F"></path>
                    <path d="M120.776461,9 C62.9861633,9 15.9705341,55.9440061 15.9705341,113.645585 L15.9705341,124 L23.7332421,124 L23.7332421,112.928133 C23.7332421,59.4994632 67.2670822,16.0332759 120.77693,16.0332759 C174.286777,16.0332759 217.820617,59.4994632 217.820617,112.928133 L217.820617,124 C222.314669,124 221.043837,124 225.583794,124 L225.583794,113.645585 C225.583325,55.9444738 178.567228,9 120.776461,9 Z" id="Shape" fill="#EDBF77"></path>
                    <path d="M232.053458,139 L7.50502058,139 C3.35994718,139 0,135.6423 0,131.5 C0,127.356764 3.35994718,124 7.50502058,124 L232.05299,124 C236.198064,124 239.558011,127.356764 239.558011,131.5 C239.558479,135.6423 236.198532,139 232.053458,139 Z" id="Shape" fill="#F6B138"></path>
                    <path d="M232.051772,131.666971 L7.50697996,131.666971 C4.73054173,131.666971 2.31203664,130.189851 1.01411962,128 C-1.85542801,132.838244 1.69629807,139 7.50697996,139 L232.051304,139 C237.864326,139 241.412309,132.835959 238.544165,128 C237.246716,130.190308 234.82821,131.666971 232.051772,131.666971 Z" id="Shape" fill="#F2902F"></path>
                </g>
                <g id="sandwich" transform="translate(0.000000, 139.000000)">
                    <path d="M185.618343,67.4587799 C183.374546,67.7881286 181.00629,67.9703215 178.54558,67.9703215 C172.016876,67.9703215 166.110461,66.7124897 161.676204,64.6873454 C157.234836,66.7159934 151.30353,67.9703215 144.764157,67.9703215 C136.820189,67.9703215 129.765206,66.1308739 125.206492,63.2753504 C120.647778,66.1308739 113.592794,67.9703215 105.648826,67.9703215 C96.577625,67.9703215 88.6621043,65.5702803 84.3131906,62 C79.9642769,65.5702803 72.0487562,67.9703215 62.9775552,67.9703215 C55.033587,67.9703215 47.9786036,66.1308739 43.4198895,63.2753504 C38.8611754,66.1308739 31.806192,67.9703215 23.8622238,67.9703215 C20.7258854,67.9703215 17.7353405,67.6725062 14.9723757,67.1504534 C14.9723757,68.3487222 14.9723757,69.5364798 14.9723757,69.7221764 C14.9723757,84.2345425 26.9132196,96 41.6419199,96 L158.987914,96 C173.716615,96 185.657459,84.2345425 185.657459,69.7221764 C185.657459,69.3262572 185.614787,68.9408491 185.597008,68.5519373 C185.604119,68.4888706 185.611231,68.0298846 185.618343,67.4587799 Z" id="Shape" fill="#EEAF4B"></path>
                    <path d="M185.150305,43 C184.885467,46.6131291 181.892096,49.4945295 178.233146,49.4945295 L167.134328,49.4945295 C168.650179,51.0875274 169.521358,52.8625821 169.521358,54.7461707 C169.521358,58.2962801 166.50011,61.4822757 161.701657,63.7194748 C166.047097,65.7466083 171.835209,67 178.233146,67 C191.705054,67 202.626151,61.5137856 202.626151,54.7461707 C202.626151,49.1864333 195.249009,44.4984683 185.150305,43 Z" id="Shape" fill="#7A3726"></path>
                    <path d="M128.635465,50 C130.205768,51.6416 131.158011,53.456 131.158011,55.4 C131.158011,58.3376 129.134944,61.034 125.767956,63.176 C130.374656,66.11 137.503903,68 145.531492,68 C159.423461,68 170.685083,62.3588 170.685083,55.4 C170.685083,53.4632 169.78674,51.638 168.230811,50 L128.635465,50 L128.635465,50 Z" id="Shape" fill="#C56458"></path>
                    <path d="M185.657459,26.25 C185.657459,11.753 173.716615,0 158.987914,0 C151.250191,0 144.301885,3.2655 139.430249,8.4455 C134.558612,3.262 127.610307,0 119.872583,0 C112.134859,0 105.186554,3.2655 100.314917,8.4455 C95.4432804,3.262 88.4949751,0 80.7572514,0 C73.0195276,0 66.0712224,3.2655 61.1995856,8.4455 C56.3279489,3.262 49.3796436,0 41.6419199,0 C26.9132196,0 14.9723757,11.753 14.9723757,26.25 C14.9723757,26.6455 15.015047,27.0305 15.0328267,27.419 C15.015047,27.615 14.9723757,27.8005 14.9723757,28 L14.9723757,42 C14.9723757,45.85 18.172721,49 22.0842541,49 L178.54558,49 C182.457113,49 185.657459,45.85 185.657459,42 L185.657459,28 C185.657459,27.8005 185.614787,27.615 185.597008,27.419 C185.614787,27.027 185.657459,26.6455 185.657459,26.25 Z" id="Shape" fill="#EEAF4B"></path>
                    <path d="M22.7081031,50.2747415 C19.1411842,50.2747415 16.2065985,47.5131462 15.8013462,44 C6.57486924,45.7725258 0,50.2853767 0,55.5923191 C0,62.444904 10.9487993,68 24.4548803,68 C37.9609613,68 48.9097606,62.444904 48.9097606,55.5923191 C48.9097606,53.6850812 48.036372,51.88774 46.523663,50.2747415 L22.7081031,50.2747415 L22.7081031,50.2747415 Z" id="Shape" fill="#7A3726"></path>
                    <path d="M47.7846365,50 C49.3549392,51.6416 50.3071823,53.456 50.3071823,55.4 C50.3071823,58.3376 48.2841149,61.034 44.9171271,63.176 C49.5238276,66.11 56.653074,68 64.680663,68 C78.572632,68 89.8342541,62.3588 89.8342541,55.4 C89.8342541,53.4632 88.9359116,51.638 87.3799823,50 L47.7846365,50 L47.7846365,50 Z" id="Shape" fill="#C56458"></path>
                    <path d="M84.9225471,50 C86.4660071,51.638 87.3772489,53.4596 87.3772489,55.4 C87.3772489,57.7688 86.0739612,59.972 83.8453039,61.8656 C88.1648726,65.534 96.0269823,68 105.036974,68 C118.691474,68 129.760589,62.3588 129.760589,55.4 C129.760589,53.4632 128.877603,51.638 127.348271,50 L84.9225471,50 L84.9225471,50 Z" id="Shape" fill="#7A3726"></path>
                    <ellipse id="Oval" fill="#FBD490" cx="38.4290976" cy="77.5" rx="3.49355433" ry="3.5"></ellipse>
                    <ellipse id="Oval" fill="#FBD490" cx="56.3959484" cy="85.5" rx="3.49355433" ry="3.5"></ellipse>
                    <ellipse id="Oval" fill="#FBD490" cx="70.3701657" cy="77.5" rx="3.49355433" ry="3.5"></ellipse>
                    <ellipse id="Oval" fill="#FBD490" cx="80.3517495" cy="85.5" rx="3.49355433" ry="3.5"></ellipse>
                    <ellipse id="Oval" fill="#FBD490" cx="95.3241252" cy="77.5" rx="3.49355433" ry="3.5"></ellipse>
                    <ellipse id="Oval" fill="#FBD490" cx="109.298343" cy="85.5" rx="3.49355433" ry="3.5"></ellipse>
                    <ellipse id="Oval" fill="#FBD490" cx="124.270718" cy="74.5" rx="3.49355433" ry="3.5"></ellipse>
                    <ellipse id="Oval" fill="#FBD490" cx="133.254144" cy="85.5" rx="3.49355433" ry="3.5"></ellipse>
                    <ellipse id="Oval" fill="#FBD490" cx="151.220994" cy="77.5" rx="3.49355433" ry="3.5"></ellipse>
                    <ellipse id="Oval" fill="#FBD490" cx="166.19337" cy="81.5" rx="3.49355433" ry="3.5"></ellipse>
                    <path d="M56.4747504,34 C54.4992374,34 52.9023941,32.4002105 52.9023941,30.4210526 C52.9023941,13.6465263 66.5237887,0 83.2674227,0 C85.2429357,0 86.839779,1.59978947 86.839779,3.57894737 C86.839779,5.55810526 85.2429357,7.15789474 83.2674227,7.15789474 C70.4640977,7.15789474 60.0471067,17.5941053 60.0471067,30.4210526 C60.0471067,32.4002105 58.4502634,34 56.4747504,34 Z" id="Shape" fill="#FBD490"></path>
                    <path d="M94.4047688,34 C92.4292558,34 90.8324125,32.4002105 90.8324125,30.4210526 C90.8324125,13.6465263 104.453807,0 121.197441,0 C123.172954,0 124.769797,1.59978947 124.769797,3.57894737 C124.769797,5.55810526 123.172954,7.15789474 121.197441,7.15789474 C108.394116,7.15789474 97.9771251,17.5941053 97.9771251,30.4210526 C97.9771251,32.4002105 96.3802819,34 94.4047688,34 Z" id="Shape" fill="#FBD490"></path>
                    <g id="Group" transform="translate(128.762431, 0.000000)">
                        <path d="M4.06036569,29.8021632 C4.06036569,15.3487632 15.8635458,3.63111053 30.4224415,3.63111053" id="Shape" fill="#EEAF4B"></path>
                        <path d="M4.06036569,33.2916368 C2.11660197,33.2916368 0.545422257,31.7318421 0.545422257,29.8021632 C0.545422257,13.447 13.9479016,0.141636842 30.4224415,0.141636842 C32.3662052,0.141636842 33.9373849,1.70143158 33.9373849,3.63111053 C33.9373849,5.56078947 32.3662052,7.12058421 30.4224415,7.12058421 C17.8248842,7.12058421 7.57530913,17.2958895 7.57530913,29.8021632 C7.57530913,31.7318421 6.00412941,33.2916368 4.06036569,33.2916368 Z" id="Shape" fill="#FBD490"></path>
                    </g>
                    <path d="M51.1556169,43.3333333 C50.4569061,43.3333333 49.7861436,43.3993333 49.1363425,43.4946667 C48.458593,41.28 46.5022026,39.6666667 44.1685083,39.6666667 C43.4767845,39.6666667 42.8234899,39.8133333 42.219105,40.07 C41.6147201,37.7306667 39.5989392,36 37.1813996,36 C34.8127698,36 32.8319245,37.661 32.1856169,39.927 C31.5428029,39.7693333 30.8825212,39.6666667 30.194291,39.6666667 C28.3322265,39.6666667 26.6133978,40.29 25.1950147,41.3313333 C23.6927864,40.3046667 21.8027735,39.6666667 19.713628,39.6666667 C14.8890295,39.6666667 10.9797422,42.9483333 10.9797422,47 C10.9797422,51.048 14.8890295,54.3333333 19.713628,54.3333333 C20.8350589,54.3333333 21.8970994,54.139 22.8787882,53.8163333 C24.4369134,56.328 27.1234567,58 30.194291,58 C31.8991455,58 33.4817256,57.4646667 34.826744,56.5773333 C35.9796169,57.461 37.3910129,58 38.9281768,58 C42.0025046,58 44.5877348,55.899 45.5205138,53.0023333 C47.0437035,53.82 48.9966004,54.3333333 51.1556169,54.3333333 C55.9802155,54.3333333 59.8895028,51.8693333 59.8895028,48.8333333 C59.8895028,45.7973333 55.9802155,43.3333333 51.1556169,43.3333333 Z" id="Shape" fill="#88C057"></path>
                    <path d="M93.0782689,43.3333333 C92.379558,43.3333333 91.7087956,43.3993333 91.0589945,43.4946667 C90.3812449,41.28 88.4248545,39.6666667 86.0911602,39.6666667 C85.3994365,39.6666667 84.7461418,39.8133333 84.1417569,40.07 C83.537372,37.7306667 81.5215912,36 79.1040516,36 C76.7354217,36 74.7545764,37.661 74.1082689,39.927 C73.4654549,39.7693333 72.8051731,39.6666667 72.1169429,39.6666667 C70.2548785,39.6666667 68.5360497,40.29 67.1176667,41.3313333 C65.6154383,40.3046667 63.7254254,39.6666667 61.6362799,39.6666667 C56.8116814,39.6666667 52.9023941,42.9483333 52.9023941,47 C52.9023941,51.048 56.8116814,54.3333333 61.6362799,54.3333333 C62.7577109,54.3333333 63.8197514,54.139 64.8014401,53.8163333 C66.3595654,56.328 69.0461087,58 72.1169429,58 C73.8217974,58 75.4043775,57.4646667 76.7493959,56.5773333 C77.9022689,57.461 79.3136648,58 80.8508287,58 C83.9251565,58 86.5103867,55.899 87.4431657,53.0023333 C88.9663554,53.82 90.9192523,54.3333333 93.0782689,54.3333333 C97.9028674,54.3333333 101.812155,51.8693333 101.812155,48.8333333 C101.812155,45.7973333 97.9028674,43.3333333 93.0782689,43.3333333 Z" id="Shape" fill="#88C057"></path>
                    <path d="M138.993554,43.3333333 C138.294843,43.3333333 137.624081,43.3993333 136.97428,43.4946667 C136.29653,41.28 134.34014,39.6666667 132.006446,39.6666667 C131.314722,39.6666667 130.661427,39.8133333 130.057042,40.07 C129.452657,37.7306667 127.436877,36 125.019337,36 C122.650707,36 120.669862,37.661 120.023554,39.927 C119.38074,39.7693333 118.720459,39.6666667 118.032228,39.6666667 C116.170164,39.6666667 114.451335,40.29 113.032952,41.3313333 C111.530724,40.3046667 109.640711,39.6666667 107.551565,39.6666667 C102.726967,39.6666667 98.8176796,42.9483333 98.8176796,47 C98.8176796,51.048 102.726967,54.3333333 107.551565,54.3333333 C108.672996,54.3333333 109.735037,54.139 110.716726,53.8163333 C112.274851,56.328 114.961394,58 118.032228,58 C119.737083,58 121.319663,57.4646667 122.664681,56.5773333 C123.817554,57.461 125.22895,58 126.766114,58 C129.840442,58 132.425672,55.899 133.358451,53.0023333 C134.881641,53.82 136.834538,54.3333333 138.993554,54.3333333 C143.818153,54.3333333 147.72744,51.8693333 147.72744,48.8333333 C147.72744,45.7973333 143.818153,43.3333333 138.993554,43.3333333 Z" id="Shape" fill="#88C057"></path>
                    <path d="M184.90884,43.3333333 C184.210129,43.3333333 183.539366,43.3993333 182.889565,43.4946667 C182.211816,41.28 180.255425,39.6666667 177.921731,39.6666667 C177.230007,39.6666667 176.576713,39.8133333 175.972328,40.07 C175.367943,37.7306667 173.352162,36 170.934622,36 C168.565993,36 166.585147,37.661 165.93884,39.927 C165.296026,39.7693333 164.635744,39.6666667 163.947514,39.6666667 C162.085449,39.6666667 160.366621,40.29 158.948238,41.3313333 C157.446009,40.3046667 155.555996,39.6666667 153.466851,39.6666667 C148.642252,39.6666667 144.732965,42.9483333 144.732965,47 C144.732965,51.048 148.642252,54.3333333 153.466851,54.3333333 C154.588282,54.3333333 155.650322,54.139 156.632011,53.8163333 C158.190136,56.328 160.87668,58 163.947514,58 C165.652368,58 167.234948,57.4646667 168.579967,56.5773333 C169.73284,57.461 171.144236,58 172.6814,58 C175.755727,58 178.340958,55.899 179.273737,53.0023333 C180.796926,53.82 182.749823,54.3333333 184.90884,54.3333333 C189.733438,54.3333333 193.642726,51.8693333 193.642726,48.8333333 C193.642726,45.7973333 189.733438,43.3333333 184.90884,43.3333333 Z" id="Shape" fill="#88C057"></path>
                </g>
                <g id="toaster" transform="translate(273.495396, 61.000000)">
                    <path d="M123.23903,26.7558813 C120.989516,12.815752 109.417943,1.8572872 95.3808537,0.223076074 C91.4526904,-0.233269675 87.6510429,0.0226539543 84.0839126,0.879843943 C74.7124813,3.1276551 64.9800168,3.12457168 55.6085855,0.879843943 C51.4027044,-0.12843349 46.8728192,-0.304188271 42.1917322,0.540668048 C29.1173975,2.90256564 18.6536096,13.5126043 16.4812396,26.6109607 C14.1360675,40.7545955 20.0144266,53.5322765 31.0984508,59.9118667 C31.3051962,60.0290366 31.4317121,60.2448758 31.4317121,60.4822989 L31.4317121,74 L108.242271,74 L108.242271,60.5994687 C120.026762,54.5128031 125.599631,41.3774458 123.23903,26.7558813 Z" id="Shape" fill="#FBD490"></path>
                    <path d="M138.744015,157 L0,157 L0,104.780704 C0,87.7810741 13.8219871,74 30.8720849,74 L107.875013,74 C124.922028,74 138.744015,87.7810741 138.744015,104.780704 L138.744015,157 Z" id="Shape" fill="#E6E6E6"></path>
                    <path d="M15.4714549,170 L15.4714549,170 C10.2339515,170 5.98895028,165.971 5.98895028,161 L5.98895028,158 L24.9539595,158 L24.9539595,161 C24.9539595,165.971 20.7089583,170 15.4714549,170 Z" id="Shape" fill="#A5A5A5"></path>
                    <path d="M123.27256,170 L123.27256,170 C118.035056,170 113.790055,165.971 113.790055,161 L113.790055,158 L132.755064,158 L132.755064,161 C132.755064,165.971 128.510063,170 123.27256,170 Z" id="Shape" fill="#A5A5A5"></path>
                    <path d="M30.9429098,102 C29.286965,102 27.9484346,100.659 27.9484346,99 L27.9484346,90 C27.9484346,88.341 29.286965,87 30.9429098,87 C32.5988545,87 33.9373849,88.341 33.9373849,90 L33.9373849,99 C33.9373849,100.659 32.5988545,102 30.9429098,102 Z" id="Shape" fill="#A5A5A5"></path>
                    <path d="M30.9429098,130 C29.286965,130 27.9484346,128.595143 27.9484346,126.857143 L27.9484346,111.142857 C27.9484346,109.404857 29.286965,108 30.9429098,108 C32.5988545,108 33.9373849,109.404857 33.9373849,111.142857 L33.9373849,126.857143 C33.9373849,128.595143 32.5988545,130 30.9429098,130 Z" id="Shape" fill="#A5A5A5"></path>
                    <rect id="Rectangle-path" fill="#D2D5D7" x="0" y="142" width="138.744015" height="15"></rect>
                    <path d="M37.6804788,111 L25.2034991,111 C21.7723297,111 18.9650092,108.3 18.9650092,105 L18.9650092,105 C18.9650092,101.7 21.7723297,99 25.2034991,99 L37.6804788,99 C41.1116483,99 43.9189687,101.7 43.9189687,105 L43.9189687,105 C43.9189687,108.3 41.1116483,111 37.6804788,111 Z" id="Shape" fill="#38454F"></path>
                    <path d="M33.9966838,40 C33.215113,40 32.4335423,39.7002441 31.8382052,39.1037911 C30.644478,37.9078262 30.644478,35.9747066 31.8382052,34.7787418 L51.682775,14.8969736 C52.8765022,13.7010088 54.806005,13.7010088 55.9997322,14.8969736 C57.1934594,16.0929384 57.1934594,18.0260581 55.9997322,19.2220229 L36.1551624,39.1037911 C35.5598253,39.7002441 34.7782545,40 33.9966838,40 Z" id="Shape" fill="#D8AF6F"></path>
                    <path d="M39.9893887,58 C39.206857,58 38.4243253,57.6998797 37.8282562,57.1027015 C36.6330613,55.9052827 36.6330613,53.969813 37.8282562,52.7723942 L80.6229594,9.89806409 C81.8181543,8.7006453 83.7500295,8.7006453 84.9452244,9.89806409 C86.1404194,11.0954829 86.1404194,13.0309526 84.9452244,14.2283714 L42.1505213,57.1027015 C41.5544522,57.6998797 40.7719205,58 39.9893887,58 Z" id="Shape" fill="#D8AF6F"></path>
                    <path d="M56.0149861,68 C55.2183617,68 54.4217373,67.6944751 53.8149336,67.0865428 C52.5982143,65.8675608 52.5982143,63.8972368 53.8149336,62.6782547 L100.492144,15.9142366 C101.708863,14.6952545 103.675529,14.6952545 104.892249,15.9142366 C106.108968,17.1332186 106.108968,19.1035426 104.892249,20.3225247 L58.2150386,67.0865428 C57.6082348,67.6944751 56.8116105,68 56.0149861,68 Z" id="Shape" fill="#D8AF6F"></path>
                    <path d="M79.9058064,68 C79.1258129,68 78.3458194,67.70085 77.7516838,67.1056025 C76.5603657,65.9120549 76.5603657,63.9828426 77.7516838,62.789295 L100.603055,39.8951607 C101.794373,38.7016131 103.719981,38.7016131 104.9113,39.8951607 C106.102618,41.0887082 106.102618,43.0179206 104.9113,44.2114681 L82.0599289,67.1056025 C81.4657933,67.70085 80.6857998,68 79.9058064,68 Z" id="Shape" fill="#D8AF6F"></path>
                </g>
                <g id="meat" transform="translate(245.561019, 212.014083) scale(-1, 1) rotate(40.000000) translate(-245.561019, -212.014083) translate(163.712031, 130.014083)">
                    <ellipse id="Oval" fill="#C56458" transform="translate(120.777164, 43.500000) rotate(45.000000) translate(-120.777164, -43.500000) " cx="120.777164" cy="43.5" rx="43.9189687" ry="16.5"></ellipse>
                    <path d="M116.37275,47.4128117 C109.796216,40.8236866 105.196507,34.5637411 102.236791,29.4711386 C100.698953,26.8294029 103.636582,23.8861497 106.27603,25.4241654 C111.356141,28.3895484 117.606885,32.9980632 124.18342,39.5871883 C130.759954,46.1763134 135.359662,52.4362589 138.319379,57.5288614 C139.857217,60.1705971 136.919588,63.1138503 134.280139,61.5758346 C129.200029,58.6076854 122.949284,54.0019368 116.37275,47.4128117 Z" id="Shape" fill="#FBD490"></path>
                    <path d="M109.023226,54.7756243 C91.8742218,37.5949802 83.1844417,18.4427416 89.6153182,12 C66.5706579,35.0871781 41.4125641,88.1497406 58.561568,105.330385 C75.710572,122.511029 128.675413,97.306518 151.720074,74.2193399 C145.289197,80.6620815 126.17223,71.9590183 109.023226,54.7756243 Z" id="Shape" fill="#773F3A"></path>
                    <path d="M61.8858195,108.167374 C60.4676889,107.387034 59.1777355,106.446766 58.0514125,105.307966 C56.5623753,103.802434 55.4142349,102.010133 54.538812,100 L35.7976703,118.948748 C29.4133553,125.403786 20.599128,128.742979 11.5912713,128.177715 C10.5467636,128.111538 9.45862103,128.197017 8.34593392,128.453453 C4.40789425,129.36339 1.20346446,132.589531 0.298042596,136.571194 C-1.3464435,143.7983 4.03972572,150.214734 10.9067506,150.214734 C11.0431093,150.214734 11.1685593,150.178888 11.304918,150.173373 C10.5194918,153.19271 10.5194918,156.52363 14.8966066,160.880298 C16.8492633,162.824254 19.4155343,164.078865 22.1536173,163.996143 C28.0224964,163.816913 32.7241449,158.950129 32.7241449,152.972119 C32.7241449,152.930758 32.7241449,152.889397 32.7241449,152.848036 C32.6232394,143.73488 35.4922268,134.853343 41.8656331,128.409335 L61.8858195,108.167374 Z" id="Shape" fill="#FBD490"></path>
                    <path d="M105.081574,70 C104.553868,70 104.018001,69.8421434 103.550138,69.5153527 C100.732078,67.554608 97.9548197,65.1867596 95.2972474,62.4838121 C92.6396752,59.7808647 90.3139595,56.9505242 88.3881037,54.081412 C87.2619677,52.4031475 85.4013951,51.4421611 83.3612937,51.5446294 C81.3320727,51.6332506 79.5340633,52.7493242 78.5466541,54.5272876 C76.8248085,57.6428776 75.3341743,60.7889312 74.1182738,63.8795965 C73.5606461,65.2975361 71.9802475,65.98712 70.5820979,65.4221597 C69.1866685,64.8516606 68.5093548,63.239862 69.0697027,61.8191529 C70.3726475,58.5041651 71.9666468,55.1365585 73.8081784,51.8132625 C75.7204335,48.3514958 79.2049269,46.1830451 83.1246419,46.0113415 C87.0633978,45.8368684 90.6838979,47.6840671 92.876327,50.9547443 C94.5872921,53.5081434 96.75524,56.1390861 99.1380785,58.5678616 C101.558999,61.0298701 104.072404,63.1733961 106.615731,64.9458206 C107.856112,65.8098776 108.174368,67.5324527 107.325686,68.7953052 C106.80342,69.5762798 105.949297,70 105.081574,70 Z" id="Shape" fill="#994530"></path>
                    <path d="M76.2876403,100.999995 C72.0025583,101.002697 68.2739097,99.9163838 65.6335791,97.2978819 C63.1405397,94.8280051 61.8803819,91.2583034 61.8858372,86.69957 C61.8885648,85.2052134 63.1078083,84 64.6134514,84 C64.6134514,84 64.616179,84 64.616179,84 C66.1218221,84.0027023 67.3437932,85.2133203 67.3410656,86.7076768 C67.338338,89.7828627 68.0584282,92.058176 69.4904256,93.4768689 C73.7836904,97.7302455 86.2270666,95.4414209 99.7423951,87.9020812 C101.059833,87.1643609 102.718222,87.6291517 103.457406,88.9316469 C104.196589,90.2287376 103.730167,91.879826 102.418185,92.6094395 C94.0798679,97.2627524 84.2304529,100.999995 76.2876403,100.999995 Z" id="Shape" fill="#994530"></path>
                </g>
            </g>
        </g>
    </g>
</svg>