<?xml version="1.0" encoding="UTF-8"?>
<svg width="120px" height="428px" viewBox="0 0 120 428" version="1.1" xmlns="http://www.w3.org/2000/svg" xmlns:xlink="http://www.w3.org/1999/xlink">
    <!-- Generator: Sketch 47.1 (45422) - http://www.bohemiancoding.com/sketch -->
    <title>Group 2</title>
    <desc>Created with Sketch.</desc>
    <defs></defs>
    <g id="Questions" stroke="none" stroke-width="1" fill="none" fill-rule="evenodd">
        <g id="Problemas-Comuns----3-/-3" transform="translate(-722.000000, -138.000000)">
            <g id="Content" transform="translate(251.000000, 138.000000)">
                <g id="Group-2" transform="translate(471.000000, 0.000000)">
                    <path d="M70.5451126,211.177045 C67.2841213,212.451363 64.0244864,213.725682 60.763495,215 C55.8774339,214.614297 51.7225185,211.76991 50.4379266,207.900616 C48.6270184,202.453076 52.5377663,195.056578 60.2195443,193.158048 C63.5076654,187.949017 66.0442934,185.58301 67.828072,186.060027 C70.7431595,186.838247 71.6492919,195.21195 70.5451126,211.177045" id="Fill-50" fill="#F9D2A5"></path>
                    <path d="M65.1856523,119 C59.4575563,112.687075 53.7294604,106.37551 48,100.062585 C52.542361,95.0421769 57.0860864,90.0217687 61.6284474,85 C64.3041968,88.752381 67.3565433,92.7156463 70.8236924,96.7877551 C74.286748,100.863946 77.7252429,104.512925 81,107.757823 C75.733099,111.504762 70.4580112,115.251701 65.1856523,119" id="Fill-51" fill="#F6C58B"></path>
                    <path d="M114.973472,227 C98.6908892,225.934042 82.4083062,224.866709 66.1201849,223.800751 C68.498882,212.167243 70.3971321,197.088601 69.6106944,179.556606 C68.4933437,154.602738 62.3762985,134.458046 57,120.884933 C68.3285794,116.25708 79.6530052,111.629227 90.9926612,107 C113.796585,133.219007 118.365677,152.95847 117.977996,166.50411 C117.756465,173.952082 115.665759,192.942902 115.001164,225.589253 C114.987318,226.182674 114.987318,226.671696 114.973472,227" id="Fill-52" fill="#F0AA3A"></path>
                    <path d="M41.667315,186.539341 C44.77821,188.359112 47.889105,190.180229 51,192 C47.4444936,186.753194 43.8889871,181.507734 40.3334807,176.262273 C36.8887808,178.992603 33.444081,181.721587 29.9993811,184.451917 C30.1115728,184.078009 30.2223794,183.702757 30.333186,183.327505 C26.9992927,178.885003 23.6667845,174.442502 20.3328913,170 C14.8881325,170.106254 9.44337371,170.213853 4,170.320108 C11.5556243,177.172831 19.1112486,184.02421 26.666873,190.875588 C31.6670203,189.429724 36.6671677,187.985205 41.667315,186.539341" id="Fill-53" fill="#DD472A"></path>
                    <path d="M32.2268823,168.29199 C33.4845882,170.19466 34.7422941,172.09733 36,174 C34.5626218,168.516387 33.1252436,163.031431 31.6878654,157.547818 C30.2957482,160.401823 28.903631,163.255828 27.5101422,166.109832 C27.5554032,165.717474 27.6006641,165.326459 27.6459251,164.934101 C26.2976972,160.290296 24.950841,155.645148 23.6026132,151 C21.4012849,151.111527 19.2013282,151.224397 17,151.335923 C20.0544286,158.499153 23.1088573,165.662382 26.1632859,172.825612 C28.1849419,171.313957 30.2052263,169.803645 32.2268823,168.29199" id="Fill-54" fill="#DD472A"></path>
                    <path d="M77.0046224,183.483254 C81.2974518,193.848763 70.5111832,207.827074 67.2894219,206.961691 C65.7477114,206.547398 65.8946089,200.515615 66.1884039,188.453411 C66.4422656,178.104255 67.2808648,176.516585 68.4317994,176.111831 C70.8049782,175.280519 75.2361479,179.217668 77.0046224,183.483254" id="Fill-55" fill="#DD472A"></path>
                    <path d="M89,107.91989 C83.4870449,110.567624 77.2519898,114.007895 70.7253175,118.480658 C63.5223709,123.410022 57.6178154,128.453193 52.9005588,133 C51.2675021,127.719616 49.6330567,122.440603 48,117.160219 C53.8712278,114.223169 59.8132769,111.28886 65.82337,108.360037 C71.6529382,105.520339 77.4464014,102.734117 83.1954276,100 C84.0702794,100.883035 84.9729043,101.9073 85.8755292,103.081024 C87.1947502,104.79636 88.2084674,106.449994 89,107.91989" id="Fill-56" fill="#CE8830"></path>
                    <path d="M120,187.429288 C115.903259,191.22261 110.624236,195.339351 104.025459,198.95863 C85.6588602,209.027104 67.7143086,209.391635 58.3124249,208.842097 C58.1639524,208.763983 55.1766307,207.127702 55.007537,203.900363 C54.8686877,201.271898 56.6599809,198.747585 59.413596,197.860923 C73.3686364,190.540141 87.3223021,183.219359 101.275968,175.898576 C91.8589619,157.012821 82.4557034,138.125696 73.052445,119.239941 C77.6165997,115.682331 83.6654794,114.99164 88.4908357,117.480322 C93.8935851,120.271867 95.3233203,125.822067 95.5432795,126.715581 C103.69552,146.95257 111.84776,167.190929 120,187.429288" id="Fill-57" fill="#CE8830"></path>
                    <path d="M82.7817636,226.67062 C81.8554576,226.173814 80.9982789,225.894617 77.9981534,225.236314 C73.4080997,224.235858 69.3641518,223.518704 66.0349803,223 C55.3561927,254.101734 44.6787876,285.203467 34,316.305201 C36.9130251,332.153741 39.7942515,348.137774 42.645062,364.156022 C45.4917248,380.155109 48.2803207,395.576642 51.0108497,412 C57.29314,412 63.5754304,412 69.8577208,412 C65.8524842,379.153285 61.8472475,348.333485 57.8420109,316.446168 C68.1723969,290.770985 78.4958701,265.149179 88.8373164,239.473996 C89.6668442,234.099453 87.2750391,229.086223 82.7817636,226.67062" id="Fill-58" fill="#2C6482"></path>
                    <path d="M101.08072,231.025296 C99.9928963,230.035623 98.7122942,229.800902 95.5589834,229.375384 C92.3092832,228.93614 87.9992995,228.424145 82.8768908,228 C73.2517195,259.469116 63.6237943,290.936859 54,322.405974 C56.9013213,338.299758 59.7723488,353.640369 62.6103285,369.705732 C65.4455542,385.753252 68.2229462,403.273613 70.9425046,417 C77.2036854,417 83.4552273,417 89.7067691,417 C85.7272634,386.801948 81.7339878,353.836656 77.7407121,321.856919 C81.4585894,309.070789 85.2728562,296.496045 89.2110521,283.498529 C93.4108765,269.671939 97.6382407,256.174783 101.906915,242.688607 C102.416402,241.052422 104.495659,234.120596 101.08072,231.025296" id="Fill-59" fill="#3782A7"></path>
                    <path d="M70,424 L24,424 C24,421.630762 24,419.262935 24,416.893697 C33.1460794,415.262465 42.2921588,413.631232 51.4382382,412 C57.6254921,412.031044 63.8127461,412.060677 70,412.091722 C70,416.061148 70,420.030574 70,424" id="Fill-60" fill="#0E1720"></path>
                    <path d="M89,428 L43,428 C43,425.631895 43,423.262378 43,420.894273 C52.145538,419.262848 61.2910759,417.631424 70.4366139,416 C76.6235016,416.029637 82.804943,416.060684 89,416.091732 C89,420.061625 89,424.030107 89,428" id="Fill-90" fill="#101F30"></path>
                    <path d="M98.7609323,255 C92.0939018,254.191561 87.8700687,251.950992 85.2198206,249.991014 C81.1616281,246.997569 78.442363,245.119547 77.890228,244.565308 C76.3028398,242.963711 74.991519,241.274602 73.4179342,238.76872 C71.405402,235.568303 68.5398212,230.382906 66,223 C82.2658981,223.650085 98.5400783,224.29878 114.800455,224.947476 C115.131736,227.870079 115.31118,233.054087 113.14405,238.861788 C109.361925,248.975604 101.16272,253.726223 98.7609323,255" id="Fill-91" fill="#3782A7"></path>
                    <polygon id="Fill-92" fill="#472218" points="65 228 115 228 115 219 65 219"></polygon>
                    <path d="M28.1924637,96.8107455 C25.9738308,97.5009373 23.5959395,96.2431626 22.9081083,94.016915 L6.18873191,39.8788724 C5.50090077,37.6526248 6.75300056,35.2665723 8.97163354,34.5763805 L48.8068041,22.1887455 C51.0254371,21.4999313 53.4033284,22.7563284 54.0911595,24.982576 L70.8119088,79.1219962 C71.4983671,81.3482438 70.2462673,83.7342963 68.0262614,84.4244881 L28.1924637,96.8107455 Z" id="Fill-276" fill="#FAD59D"></path>
                    <path d="M19,72.4964443 C17.7241554,76.8646204 13.2420939,78.9509551 9.91687195,77.5852019 C7.01093518,76.3926116 5.44449689,72.7506029 6.18066754,70.2578938 C6.95143267,67.6534665 9.86152077,67.7791493 11.5262074,65.0881406 C12.6816632,63.2210526 13.1258564,60.1893038 11.0280468,55 C12.0077626,55.2360044 12.9874785,55.4706123 13.9671943,55.7052202 C15.6457187,61.3022949 17.3228594,66.8993696 19,72.4964443" id="Fill-277" fill="#FAD59D"></path>
                    <path d="M70.1251153,88.4278906 C66.9093014,102.370462 56.2572616,109.496696 52.6401582,111.635668 C43.9835721,116.753775 27.1994976,121.936616 19.7756401,113.631399 C13.3701238,106.467978 15.9304063,91.504815 21.3959156,89.1248126 C24.4124589,87.8094757 27.2146146,90.7583096 30.9389119,89.1165487 C34.3869789,87.5987463 35.8203524,83.2161262 36.5995688,79.3582636 C40.7732554,58.7191807 28.8747442,40.1736185 36.4140411,28.7969869 C38.1937329,26.1112203 41.8438191,22.6362516 50.317626,21 C53.647505,32.1424878 56.9760098,43.2849757 60.3058888,54.4274635 C61.3407212,55.5031475 74.4582183,69.6275248 70.1251153,88.4278906" id="Fill-278" fill="#B1422E"></path>
                    <path d="M43.9809936,72.0221948 C44.3281914,72.4349296 39.89442,77.9291268 32.6634668,80.8745525 C29.845285,82.0216336 23.8869235,84.4471207 19.180154,81.8273267 C18.7839565,81.6062187 15.8453755,79.97002 16.0063745,78.0296304 C16.2163731,75.4888992 21.6763378,73.1907167 26.5497063,73.1156741 C31.8794719,73.0339311 33.6392605,75.6537251 38.3222302,74.6594094 C41.8978071,73.8996022 43.759795,71.7595454 43.9809936,72.0221948" id="Fill-279" fill="#913227"></path>
                    <path d="M23.9923669,43.8507094 C24.1647068,44.7543355 21.3978437,46.0020146 17.8110196,46.6368898 C14.225542,47.271765 11.179973,47.0523501 11.0076331,46.148724 C10.8352932,45.2450979 13.6021563,43.9974188 17.1889804,43.3625436 C20.774458,42.7289667 23.820027,42.9470833 23.9923669,43.8507094" id="Fill-280" fill="#913227"></path>
                    <path d="M56.919169,25.7437565 L6.7431884,41 L0.2350763,20.397215 C-0.61735769,17.699506 0.92145172,14.8348024 3.67110487,13.9984719 L48.8694798,0.25604096 C51.9263413,-0.672611755 55.1714025,1.00412231 56.1193202,4.00323613 L60.7385161,18.6308741 C61.6864337,21.6299879 59.9760305,24.8151038 56.919169,25.7437565" id="Fill-281" fill="#B1422E"></path>
                    <polyline id="Fill-282" fill="#B1422E" points="65 61.8889319 61.4895619 63 50 25.1110681 53.5104381 24 65 61.8889319"></polyline>
                    <path d="M53.9972762,49.7669541 C54.148223,55.6271004 47.9845598,60.7764327 45.6770296,59.9028368 C44.748986,59.5514993 45.0299149,58.4500089 43.6420424,52.9764695 C42.3086785,47.718616 41.5749091,46.8612983 42.2625559,45.3392881 C43.257687,43.1363072 46.3227467,41.5532537 48.9992581,42.1134946 C52.608006,42.8717867 53.9315863,47.1963576 53.9972762,49.7669541" id="Fill-293" fill="#FAD59D"></path>
                </g>
            </g>
        </g>
    </g>
</svg>