<?xml version="1.0" encoding="UTF-8"?>
<svg width="773px" height="204px" viewBox="0 0 773 204" version="1.1" xmlns="http://www.w3.org/2000/svg" xmlns:xlink="http://www.w3.org/1999/xlink">
    <!-- Generator: Sketch 47.1 (45422) - http://www.bohemiancoding.com/sketch -->
    <title>shorts maior 46</title>
    <desc>Created with Sketch.</desc>
    <defs>
        <rect id="path-1" x="0" y="0" width="796" height="242"></rect>
    </defs>
    <g id="Questions" stroke="none" stroke-width="1" fill="none" fill-rule="evenodd">
        <g id="Demograficos---3-/-3" transform="translate(-130.000000, -371.000000)">
            <g id="Carachter" transform="translate(114.000000, 214.000000)">
                <g id="Person">
                    <g id="shorts-maior-46" transform="translate(0.000000, 119.000000)">
                        <mask id="mask-2" fill="white">
                            <use xlink:href="#path-1"></use>
                        </mask>
                        <g id="Mask"></g>
                        <g id="shorts" mask="url(#mask-2)">
                            <g transform="translate(3.000000, 38.000000)">
                                <rect id="Rectangle-path" fill="#AF360B" fill-rule="nonzero" x="186.794999" y="52.5156167" width="427.685767" height="413.559673"></rect>
                                <polygon id="Shape" fill="#E8621F" fill-rule="nonzero" points="321.14017 724.550086 0 724.550086 18.3516075 0.820657477 412.872287 0.820657477"></polygon>
                                <polygon id="Shape" fill="#D3520B" fill-rule="nonzero" points="321.14017 724.550086 64.8008738 724.550086 18.3516075 0.820657477 412.872287 0.820657477"></polygon>
                                <polygon id="Shape" fill="#E8621F" fill-rule="nonzero" points="477.55652 724.550086 798.69669 724.550086 780.345083 0.820657477 385.811443 0.820657477"></polygon>
                                <g id="Group" stroke-width="1" fill="none" fill-rule="evenodd" transform="translate(186.302512, 0.000000)">
                                    <polygon id="Shape" fill="#D3520B" fill-rule="nonzero" points="291.254007 724.550086 547.593304 724.550086 594.04257 0.820657477 199.50893 0.820657477"></polygon>
                                    <rect id="Rectangle-path" fill="#D3520B" fill-rule="nonzero" x="0.492486641" y="0.820657477" width="427.685767" height="413.559673"></rect>
                                </g>
                                <g id="Group" stroke-width="1" fill="none" fill-rule="evenodd" transform="translate(0.000000, 90.466179)">
                                    <path d="M15.9150946,6.14523827 L10.7828654,209.69414 C11.6641573,210.094776 12.4806483,209.90092 13.4137809,210.172318 C44.2460366,219.464487 91.1748295,157.13329 118.209754,67.7268584 C125.545213,43.4173038 130.586721,13.7443973 133.541641,0.820657477 L19.0125764,0.820657477 C17.949842,0.820657477 16.9648688,3.36663422 15.9150946,6.14523827 Z" id="Shape" fill="#C64106" fill-rule="nonzero"></path>
                                </g>
                                <path d="M15.9150946,152.015489 L10.7828654,298.648241 C11.6641573,299.048877 12.4806483,299.604598 13.4137809,299.88892 C44.2460366,309.181089 91.1748295,244.200525 118.209754,154.794093 C125.545213,130.484539 130.586721,112.985795 133.541641,91.286836" id="Shape" fill="#AF360B" fill-rule="nonzero"></path>
                                <path d="M100.156231,155.905535 L31.2729017,155.905535 L31.2729017,269.039953 C57.1932512,245.84184 83.3339237,207.600494 100.156231,155.905535 Z" id="Shape" fill="#D3520B" fill-rule="nonzero"></path>
                                <g id="Group" stroke-width="1" fill="none" fill-rule="evenodd" transform="translate(30.780415, 90.466179)">
                                    <path d="M69.3758155,65.4393565 L26.7238804,76.088518 L0.492486641,178.573775 C26.477637,155.840916 52.5535087,117.470333 69.3758155,65.4393565 Z" id="Shape" fill="#C64106" fill-rule="nonzero"></path>
                                    <path d="M752.117822,6.14523827 L757.250051,209.69414 C756.368759,210.094776 755.552268,209.90092 754.619136,210.172318 C723.78688,219.464487 676.858087,157.13329 649.836123,67.7268584 C642.487704,43.4173038 637.446196,13.7443973 634.504236,0.820657477 L749.0333,0.820657477 C750.096035,0.820657477 751.081008,3.36663422 752.117822,6.14523827 Z" id="Shape" fill="#C64106" fill-rule="nonzero"></path>
                                </g>
                                <path d="M782.898237,152.015489 L788.030466,298.648241 C787.149174,299.048877 786.332683,299.604598 785.399551,299.88892 C754.567295,309.181089 707.638502,244.200525 680.616538,154.794093 C673.268119,130.484539 668.226611,112.985795 665.271691,91.286836" id="Shape" fill="#AF360B" fill-rule="nonzero"></path>
                                <path d="M698.657101,155.905535 L757.042688,155.905535 L757.042688,269.039953 C744.082514,245.84184 715.492368,207.600494 698.657101,155.905535 Z" id="Shape" fill="#D3520B" fill-rule="nonzero"></path>
                                <path d="M698.657101,155.905535 L741.309036,166.554697 L757.042688,269.039953 C734.971511,232.801787 715.492368,207.936511 698.657101,155.905535 Z" id="Shape" fill="#C64106" fill-rule="nonzero"></path>
                                <g id="Group" stroke-width="1" fill="none" fill-rule="evenodd" transform="translate(30.780415, 11.308272)">
                                    <rect id="Rectangle-path" fill="#AF360B" fill-rule="nonzero" x="363.37738" y="15.3598647" width="12.9601748" height="426.483413"></rect>
                                    <rect id="Rectangle-path" fill="#AF360B" fill-rule="nonzero" x="0.492486641" y="0" width="725.769787" height="46.8485568"></rect>
                                </g>
                                <g id="Belt" stroke-width="1" fill="none" fill-rule="evenodd" transform="translate(0.000000, 6.461870)">
                                    <polygon id="Fill-235" fill="#F0EFEC" points="358.024828 6.4618699 400.145396 6.4618699 400.145396 1.61546747 358.024828 1.61546747"></polygon>
                                    <polygon id="Fill-236" fill="#F0EFEC" points="358.024828 56.5413616 400.145396 56.5413616 400.145396 51.6949592 358.024828 51.6949592"></polygon>
                                    <g id="Group-3" transform="translate(0.000000, 4.846402)">
                                        <polygon id="Fill-244" fill="#69401D" points="30.9451829 0 30.9451829 46.1279813 361.749889 46.1279813 361.749889 0 0.765336675 0"></polygon>
                                        <path d="M195.981585,7.06074677 L203.884789,7.06074677 L203.884789,4.46176731 L195.981585,4.46176731 L195.981585,7.06074677 Z M211.787992,7.06074677 L219.691195,7.06074677 L219.691195,4.46176731 L211.787992,4.46176731 L211.787992,7.06074677 Z M227.594399,7.06074677 L235.497602,7.06074677 L235.497602,4.46176731 L227.594399,4.46176731 L227.594399,7.06074677 Z M243.401936,7.06074677 L251.305139,7.06074677 L251.305139,4.46176731 L243.401936,4.46176731 L243.401936,7.06074677 Z M259.208343,7.06074677 L267.111546,7.06074677 L267.111546,4.46176731 L259.208343,4.46176731 L259.208343,7.06074677 Z M275.01475,7.06074677 L282.917953,7.06074677 L282.917953,4.46176731 L275.01475,4.46176731 L275.01475,7.06074677 Z M290.821156,7.06074677 L298.72549,7.06074677 L298.72549,4.46176731 L290.821156,4.46176731 L290.821156,7.06074677 Z M306.628694,7.06074677 L314.531897,7.06074677 L314.531897,4.46176731 L306.628694,4.46176731 L306.628694,7.06074677 Z M322.4351,7.06074677 L330.338304,7.06074677 L330.338304,4.46176731 L322.4351,4.46176731 L322.4351,7.06074677 Z M338.241507,7.06074677 L346.145841,7.06074677 L346.145841,4.46176731 L338.241507,4.46176731 L338.241507,7.06074677 Z M354.049045,7.06074677 L361.952248,7.06074677 L361.952248,4.46176731 L354.049045,4.46176731 L354.049045,7.06074677 Z M207.829042,41.4654345 L215.732246,41.4654345 L215.732246,38.8653396 L207.829042,38.8653396 L207.829042,41.4654345 Z M180.981585,7.06074677 L188.884789,7.06074677 L188.884789,4.46176731 L180.981585,4.46176731 L180.981585,7.06074677 Z M192.829042,41.4654345 L200.732246,41.4654345 L200.732246,38.8653396 L192.829042,38.8653396 L192.829042,41.4654345 Z M165.981585,7.06074677 L173.884789,7.06074677 L173.884789,4.46176731 L165.981585,4.46176731 L165.981585,7.06074677 Z M177.829042,41.4654345 L185.732246,41.4654345 L185.732246,38.8653396 L177.829042,38.8653396 L177.829042,41.4654345 Z M150.981585,7.06074677 L158.884789,7.06074677 L158.884789,4.46176731 L150.981585,4.46176731 L150.981585,7.06074677 Z M162.829042,41.4654345 L170.732246,41.4654345 L170.732246,38.8653396 L162.829042,38.8653396 L162.829042,41.4654345 Z M135.981585,7.06074677 L143.884789,7.06074677 L143.884789,4.46176731 L135.981585,4.46176731 L135.981585,7.06074677 Z M147.829042,41.4654345 L155.732246,41.4654345 L155.732246,38.8653396 L147.829042,38.8653396 L147.829042,41.4654345 Z M120.981585,7.06074677 L128.884789,7.06074677 L128.884789,4.46176731 L120.981585,4.46176731 L120.981585,7.06074677 Z M132.829042,41.4654345 L140.732246,41.4654345 L140.732246,38.8653396 L132.829042,38.8653396 L132.829042,41.4654345 Z M105.981585,7.06074677 L113.884789,7.06074677 L113.884789,4.46176731 L105.981585,4.46176731 L105.981585,7.06074677 Z M117.829042,41.4654345 L125.732246,41.4654345 L125.732246,38.8653396 L117.829042,38.8653396 L117.829042,41.4654345 Z M90.9815852,7.06074677 L98.8847886,7.06074677 L98.8847886,4.46176731 L90.9815852,4.46176731 L90.9815852,7.06074677 Z M102.829042,41.4654345 L110.732246,41.4654345 L110.732246,38.8653396 L102.829042,38.8653396 L102.829042,41.4654345 Z M75.9815852,7.06074677 L83.8847886,7.06074677 L83.8847886,4.46176731 L75.9815852,4.46176731 L75.9815852,7.06074677 Z M87.8290422,41.4654345 L95.7322456,41.4654345 L95.7322456,38.8653396 L87.8290422,38.8653396 L87.8290422,41.4654345 Z M60.9815852,7.06074677 L68.8847886,7.06074677 L68.8847886,4.46176731 L60.9815852,4.46176731 L60.9815852,7.06074677 Z M72.8290422,41.4654345 L80.7322456,41.4654345 L80.7322456,38.8653396 L72.8290422,38.8653396 L72.8290422,41.4654345 Z M45.9815852,7.06074677 L53.8847886,7.06074677 L53.8847886,4.46176731 L45.9815852,4.46176731 L45.9815852,7.06074677 Z M57.8290422,41.4654345 L65.7322456,41.4654345 L65.7322456,38.8653396 L57.8290422,38.8653396 L57.8290422,41.4654345 Z M42.8290422,41.4654345 L50.7322456,41.4654345 L50.7322456,38.8653396 L42.8290422,38.8653396 L42.8290422,41.4654345 Z M223.635449,41.4654345 L231.538652,41.4654345 L231.538652,38.8653396 L223.635449,38.8653396 L223.635449,41.4654345 Z M239.441856,41.4654345 L247.345059,41.4654345 L247.345059,38.8653396 L239.441856,38.8653396 L239.441856,41.4654345 Z M255.248263,41.4654345 L263.152596,41.4654345 L263.152596,38.8653396 L255.248263,38.8653396 L255.248263,41.4654345 Z M271.0558,41.4654345 L278.959003,41.4654345 L278.959003,38.8653396 L271.0558,38.8653396 L271.0558,41.4654345 Z M286.862207,41.4654345 L294.76541,41.4654345 L294.76541,38.8653396 L286.862207,38.8653396 L286.862207,41.4654345 Z M302.668613,41.4654345 L310.572947,41.4654345 L310.572947,38.8653396 L302.668613,38.8653396 L302.668613,41.4654345 Z M318.476151,41.4654345 L326.379354,41.4654345 L326.379354,38.8653396 L318.476151,38.8653396 L318.476151,41.4654345 Z M334.282557,41.4654345 L342.185761,41.4654345 L342.185761,38.8653396 L334.282557,38.8653396 L334.282557,41.4654345 Z M350.088964,41.4654345 L357.993298,41.4654345 L357.993298,38.8653396 L350.088964,38.8653396 L350.088964,41.4654345 Z" id="Fill-245" fill="#4C2E15"></path>
                                    </g>
                                    <g id="Group-2" transform="translate(228.423080, 4.846402)">
                                        <path d="M206.449156,30.8620445 C202.09879,30.8620445 198.572075,27.3707116 198.572075,23.0639907 C198.572075,18.7572698 202.09879,15.2659369 206.449156,15.2659369 C210.799522,15.2659369 214.327364,18.7572698 214.327364,23.0639907 C214.327364,27.3707116 210.799522,30.8620445 206.449156,30.8620445 Z M250.449156,30.8620445 C246.09879,30.8620445 242.572075,27.3707116 242.572075,23.0639907 C242.572075,18.7572698 246.09879,15.2659369 250.449156,15.2659369 C254.799522,15.2659369 258.327364,18.7572698 258.327364,23.0639907 C258.327364,27.3707116 254.799522,30.8620445 250.449156,30.8620445 Z M293.449156,30.8620445 C289.09879,30.8620445 285.572075,27.3707116 285.572075,23.0639907 C285.572075,18.7572698 289.09879,15.2659369 293.449156,15.2659369 C297.799522,15.2659369 301.327364,18.7572698 301.327364,23.0639907 C301.327364,27.3707116 297.799522,30.8620445 293.449156,30.8620445 Z M163.78154,30.8620445 C159.431174,30.8620445 155.903332,27.3707116 155.903332,23.0639907 C155.903332,18.7572698 159.431174,15.2659369 163.78154,15.2659369 C168.131906,15.2659369 171.658621,18.7572698 171.658621,23.0639907 C171.658621,27.3707116 168.131906,30.8620445 163.78154,30.8620445 Z M121.112797,30.8620445 C116.762431,30.8620445 113.235716,27.3707116 113.235716,23.0639907 C113.235716,18.7572698 116.762431,15.2659369 121.112797,15.2659369 C125.463163,15.2659369 128.989878,18.7572698 128.989878,23.0639907 C128.989878,27.3707116 125.463163,30.8620445 121.112797,30.8620445 Z M78.4440539,30.8620445 C74.0936878,30.8620445 70.5669729,27.3707116 70.5669729,23.0639907 C70.5669729,18.7572698 74.0936878,15.2659369 78.4440539,15.2659369 C82.7944201,15.2659369 86.321135,18.7572698 86.321135,23.0639907 C86.321135,27.3707116 82.7944201,30.8620445 78.4440539,30.8620445 Z M35.7753111,30.8620445 C31.4249449,30.8620445 27.89823,27.3707116 27.89823,23.0639907 C27.89823,18.7572698 31.4249449,15.2659369 35.7753111,15.2659369 C40.126804,15.2659369 43.6535188,18.7572698 43.6535188,23.0639907 C43.6535188,27.3707116 40.126804,30.8620445 35.7753111,30.8620445 Z M0,23.0639907 C0,35.8012209 10.4302874,46.1279813 23.2977263,46.1279813 L528.122615,46.1279813 L528.122615,0 L23.2977263,0 C10.4302874,0 0,10.325645 0,23.0639907 Z" id="Fill-244" fill="#8B572A"></path>
                                        <path d="M27.6875312,7.06074677 L35.5646122,7.06074677 L35.5646122,4.46176731 L27.6875312,4.46176731 L27.6875312,7.06074677 Z M43.4416933,7.06074677 L51.319901,7.06074677 L51.319901,4.46176731 L43.4416933,4.46176731 L43.4416933,7.06074677 Z M59.1969821,7.06074677 L67.0740631,7.06074677 L67.0740631,4.46176731 L59.1969821,4.46176731 L59.1969821,7.06074677 Z M74.9511441,7.06074677 L82.8282251,7.06074677 L82.8282251,4.46176731 L74.9511441,4.46176731 L74.9511441,7.06074677 Z M90.7053062,7.06074677 L98.5835139,7.06074677 L98.5835139,4.46176731 L90.7053062,4.46176731 L90.7053062,7.06074677 Z M106.460595,7.06074677 L114.337676,7.06074677 L114.337676,4.46176731 L106.460595,4.46176731 L106.460595,7.06074677 Z M122.214757,7.06074677 L130.091838,7.06074677 L130.091838,4.46176731 L122.214757,4.46176731 L122.214757,7.06074677 Z M137.968919,7.06074677 L145.846,7.06074677 L145.846,4.46176731 L137.968919,4.46176731 L137.968919,7.06074677 Z M153.724208,7.06074677 L161.601289,7.06074677 L161.601289,4.46176731 L153.724208,4.46176731 L153.724208,7.06074677 Z M169.47837,7.06074677 L177.355451,7.06074677 L177.355451,4.46176731 L169.47837,4.46176731 L169.47837,7.06074677 Z M185.232532,7.06074677 L193.109613,7.06074677 L193.109613,4.46176731 L185.232532,4.46176731 L185.232532,7.06074677 Z M200.986694,7.06074677 L208.864902,7.06074677 L208.864902,4.46176731 L200.986694,4.46176731 L200.986694,7.06074677 Z M216.741983,7.06074677 L224.619064,7.06074677 L224.619064,4.46176731 L216.741983,4.46176731 L216.741983,7.06074677 Z M232.496145,7.06074677 L240.373226,7.06074677 L240.373226,4.46176731 L232.496145,4.46176731 L232.496145,7.06074677 Z M248.250307,7.06074677 L256.127388,7.06074677 L256.127388,4.46176731 L248.250307,4.46176731 L248.250307,7.06074677 Z M264.005596,7.06074677 L271.882677,7.06074677 L271.882677,4.46176731 L264.005596,4.46176731 L264.005596,7.06074677 Z M279.759758,7.06074677 L287.636839,7.06074677 L287.636839,4.46176731 L279.759758,4.46176731 L279.759758,7.06074677 Z M295.51392,7.06074677 L303.391001,7.06074677 L303.391001,4.46176731 L295.51392,4.46176731 L295.51392,7.06074677 Z M311.268082,7.06074677 L319.14629,7.06074677 L319.14629,4.46176731 L311.268082,4.46176731 L311.268082,7.06074677 Z M327.023371,7.06074677 L334.900452,7.06074677 L334.900452,4.46176731 L327.023371,4.46176731 L327.023371,7.06074677 Z M342.777533,7.06074677 L350.654614,7.06074677 L350.654614,4.46176731 L342.777533,4.46176731 L342.777533,7.06074677 Z M14.1801006,11.6318274 L12.3378709,9.78019394 C14.351366,7.81590089 16.8245734,6.31005442 19.4904543,5.42216272 L20.3276266,7.88617372 C18.036952,8.64802049 15.9119091,9.94304845 14.1801006,11.6318274 Z M6.87878675,25.0494771 C6.79991454,24.362365 6.76047843,23.6596366 6.76047843,22.9636009 C6.75935168,20.8476078 7.1176569,18.7706551 7.82638011,16.7907458 L10.301841,17.6574441 C9.69339817,19.3584929 9.38579652,21.1431998 9.38579652,22.9624855 C9.38579652,23.5637086 9.42072565,24.1671626 9.48720366,24.7583468 L6.87878675,25.0494771 Z M15.6572646,38.7259094 C13.2595491,37.2624497 11.1919703,35.2446154 9.67649698,32.8910332 L11.8905528,31.4945 C13.1941979,33.5190269 14.972203,35.2546544 17.0352749,36.5128728 L15.6572646,38.7259094 Z M31.6187479,41.4654345 L25.4498137,41.4654345 C24.8379907,41.4654345 24.2216606,41.4342021 23.616598,41.3761992 L23.8723694,38.7894896 C24.3917993,38.8396844 24.9179896,38.8653396 25.4498137,38.8653396 L31.6187479,38.8653396 L31.6187479,41.4654345 Z M39.4969556,41.4654345 L47.3740367,41.4654345 L47.3740367,38.8653396 L39.4969556,38.8653396 L39.4969556,41.4654345 Z M55.2511177,41.4654345 L63.1281987,41.4654345 L63.1281987,38.8653396 L55.2511177,38.8653396 L55.2511177,41.4654345 Z M71.0052797,41.4654345 L78.8823608,41.4654345 L78.8823608,38.8653396 L71.0052797,38.8653396 L71.0052797,41.4654345 Z M86.7605685,41.4654345 L94.6376496,41.4654345 L94.6376496,38.8653396 L86.7605685,38.8653396 L86.7605685,41.4654345 Z M102.514731,41.4654345 L110.391812,41.4654345 L110.391812,38.8653396 L102.514731,38.8653396 L102.514731,41.4654345 Z M118.268893,41.4654345 L126.145974,41.4654345 L126.145974,38.8653396 L118.268893,38.8653396 L118.268893,41.4654345 Z M134.023055,41.4654345 L141.900136,41.4654345 L141.900136,38.8653396 L134.023055,38.8653396 L134.023055,41.4654345 Z M149.777217,41.4654345 L157.654298,41.4654345 L157.654298,38.8653396 L149.777217,38.8653396 L149.777217,41.4654345 Z M165.531379,41.4654345 L173.409587,41.4654345 L173.409587,38.8653396 L165.531379,38.8653396 L165.531379,41.4654345 Z M181.286668,41.4654345 L189.163749,41.4654345 L189.163749,38.8653396 L181.286668,38.8653396 L181.286668,41.4654345 Z M197.04083,41.4654345 L204.917911,41.4654345 L204.917911,38.8653396 L197.04083,38.8653396 L197.04083,41.4654345 Z M212.794992,41.4654345 L220.673199,41.4654345 L220.673199,38.8653396 L212.794992,38.8653396 L212.794992,41.4654345 Z M228.550281,41.4654345 L236.427362,41.4654345 L236.427362,38.8653396 L228.550281,38.8653396 L228.550281,41.4654345 Z M244.304443,41.4654345 L252.181524,41.4654345 L252.181524,38.8653396 L244.304443,38.8653396 L244.304443,41.4654345 Z M260.058605,41.4654345 L267.935686,41.4654345 L267.935686,38.8653396 L260.058605,38.8653396 L260.058605,41.4654345 Z M275.812767,41.4654345 L283.690974,41.4654345 L283.690974,38.8653396 L275.812767,38.8653396 L275.812767,41.4654345 Z M291.568055,41.4654345 L299.445137,41.4654345 L299.445137,38.8653396 L291.568055,38.8653396 L291.568055,41.4654345 Z M307.322218,41.4654345 L315.199299,41.4654345 L315.199299,38.8653396 L307.322218,38.8653396 L307.322218,41.4654345 Z M323.07638,41.4654345 L330.954587,41.4654345 L330.954587,38.8653396 L323.07638,38.8653396 L323.07638,41.4654345 Z M338.831668,41.4654345 L346.708749,41.4654345 L346.708749,38.8653396 L338.831668,38.8653396 L338.831668,41.4654345 Z M358.777533,7.06074677 L366.654614,7.06074677 L366.654614,4.46176731 L358.777533,4.46176731 L358.777533,7.06074677 Z M354.831668,41.4654345 L362.708749,41.4654345 L362.708749,38.8653396 L354.831668,38.8653396 L354.831668,41.4654345 Z M373.777533,7.06074677 L381.654614,7.06074677 L381.654614,4.46176731 L373.777533,4.46176731 L373.777533,7.06074677 Z M369.831668,41.4654345 L377.708749,41.4654345 L377.708749,38.8653396 L369.831668,38.8653396 L369.831668,41.4654345 Z M388.777533,7.06074677 L396.654614,7.06074677 L396.654614,4.46176731 L388.777533,4.46176731 L388.777533,7.06074677 Z M384.831668,41.4654345 L392.708749,41.4654345 L392.708749,38.8653396 L384.831668,38.8653396 L384.831668,41.4654345 Z M403.777533,7.06074677 L411.654614,7.06074677 L411.654614,4.46176731 L403.777533,4.46176731 L403.777533,7.06074677 Z M399.831668,41.4654345 L407.708749,41.4654345 L407.708749,38.8653396 L399.831668,38.8653396 L399.831668,41.4654345 Z M418.777533,7.06074677 L426.654614,7.06074677 L426.654614,4.46176731 L418.777533,4.46176731 L418.777533,7.06074677 Z M414.831668,41.4654345 L422.708749,41.4654345 L422.708749,38.8653396 L414.831668,38.8653396 L414.831668,41.4654345 Z M433.777533,7.06074677 L441.654614,7.06074677 L441.654614,4.46176731 L433.777533,4.46176731 L433.777533,7.06074677 Z M429.831668,41.4654345 L437.708749,41.4654345 L437.708749,38.8653396 L429.831668,38.8653396 L429.831668,41.4654345 Z M448.777533,7.06074677 L456.654614,7.06074677 L456.654614,4.46176731 L448.777533,4.46176731 L448.777533,7.06074677 Z M444.831668,41.4654345 L452.708749,41.4654345 L452.708749,38.8653396 L444.831668,38.8653396 L444.831668,41.4654345 Z M463.777533,7.06074677 L471.654614,7.06074677 L471.654614,4.46176731 L463.777533,4.46176731 L463.777533,7.06074677 Z M459.831668,41.4654345 L467.708749,41.4654345 L467.708749,38.8653396 L459.831668,38.8653396 L459.831668,41.4654345 Z M478.777533,7.06074677 L486.654614,7.06074677 L486.654614,4.46176731 L478.777533,4.46176731 L478.777533,7.06074677 Z M474.831668,41.4654345 L482.708749,41.4654345 L482.708749,38.8653396 L474.831668,38.8653396 L474.831668,41.4654345 Z M493.777533,7.06074677 L501.654614,7.06074677 L501.654614,4.46176731 L493.777533,4.46176731 L493.777533,7.06074677 Z M489.831668,41.4654345 L497.708749,41.4654345 L497.708749,38.8653396 L489.831668,38.8653396 L489.831668,41.4654345 Z M508.777533,7.06074677 L516.654614,7.06074677 L516.654614,4.46176731 L508.777533,4.46176731 L508.777533,7.06074677 Z M504.831668,41.4654345 L512.708749,41.4654345 L512.708749,38.8653396 L504.831668,38.8653396 L504.831668,41.4654345 Z M519.831668,41.4654345 L527.708749,41.4654345 L527.708749,38.8653396 L519.831668,38.8653396 L519.831668,41.4654345 Z" id="Fill-245" fill="#6F4621"></path>
                                    </g>
                                    <path d="M399.783807,58.1568291 L405.928709,58.1568291 C409.89255,58.1568291 413.105571,54.8870538 413.105571,50.8545958 L413.105571,7.30109835 C413.105571,3.26977527 409.89255,0 405.928709,0 L399.783807,0 C399.088768,0 398.525374,0.574281947 398.525374,1.28135241 L398.525374,56.8754767 C398.525374,57.5825471 399.088768,58.1568291 399.783807,58.1568291" id="Fill-237" fill="#F7F7F5"></path>
                                    <path d="M398.525374,33.924817 L403.873635,33.924817 C406.288343,33.924817 408.245505,31.754949 408.245505,29.0790213 C408.245505,26.40188 406.288343,24.2320121 403.873635,24.2320121 L398.525374,24.2320121 L398.525374,33.924817" id="Fill-238" fill="#B7B7B2"></path>
                                    <path d="M351.54474,4.09844076 L351.54474,54.0595217 C351.54474,56.3218248 353.422875,58.1568291 355.739512,58.1568291 L360.067691,58.1568291 C360.728924,58.1568291 361.264872,57.6331898 361.264872,56.9871413 L361.264872,1.17082116 C361.264872,0.524772697 360.728924,0 360.067691,0 L355.739512,0 C353.422875,0 351.54474,1.83500431 351.54474,4.09844076" id="Fill-239" fill="#F7F7F5"></path>
                                    <path d="M357.626411,30.693882 L403.62197,30.693882 C405.107833,30.693882 406.462456,29.782809 406.610814,28.5213232 C406.780855,27.071004 405.450197,25.8474796 403.784022,25.8474796 L357.626411,25.8474796 C356.05724,25.8474796 354.784784,26.9327856 354.784784,28.2711675 C354.784784,29.6095494 356.05724,30.693882 357.626411,30.693882" id="Fill-240" fill="#DEDED9"></path>
                                </g>
                                <g id="Group" stroke-width="1" fill="none" fill-rule="evenodd" transform="translate(74.521005, 1.615467)">
                                    <rect id="Rectangle-path" fill="#D3520B" fill-rule="nonzero" x="0" y="0" width="37.6416841" height="77.5424388"></rect>
                                    <rect id="Rectangle-path" fill="#D3520B" fill-rule="nonzero" x="602.266945" y="0" width="37.6416841" height="77.5424388"></rect>
                                    <rect id="Rectangle-path" fill="#D3520B" fill-rule="nonzero" x="183.189529" y="0" width="17.5661192" height="77.5424388"></rect>
                                </g>
                                <g id="Group" stroke-width="1" fill="none" fill-rule="evenodd" transform="translate(394.429634, 40.615467) scale(-1, 1) translate(-394.429634, -40.615467) translate(74.429634, 1.615467)">
                                    <rect id="Rectangle-path" fill="#D3520B" fill-rule="nonzero" x="0" y="0" width="37.6416841" height="77.5424388"></rect>
                                    <rect id="Rectangle-path" fill="#D3520B" fill-rule="nonzero" x="602.266945" y="0" width="37.6416841" height="77.5424388"></rect>
                                    <rect id="Rectangle-path" fill="#D3520B" fill-rule="nonzero" x="183.189529" y="0" width="17.5661192" height="77.5424388"></rect>
                                </g>
                            </g>
                        </g>
                    </g>
                </g>
            </g>
        </g>
    </g>
</svg>