<?xml version="1.0" encoding="UTF-8"?>
<svg width="54px" height="61px" viewBox="0 0 54 61" version="1.1" xmlns="http://www.w3.org/2000/svg" xmlns:xlink="http://www.w3.org/1999/xlink">
    <!-- Generator: Sketch 48.2 (47327) - http://www.bohemiancoding.com/sketch -->
    <title>Shape</title>
    <desc>Created with Sketch.</desc>
    <defs>
        <filter x="-9.3%" y="-30.0%" width="118.6%" height="174.3%" filterUnits="objectBoundingBox" id="filter-1">
            <feOffset dx="0" dy="2" in="SourceAlpha" result="shadowOffsetOuter1"></feOffset>
            <feGaussianBlur stdDeviation="5" in="shadowOffsetOuter1" result="shadowBlurOuter1"></feGaussianBlur>
            <feColorMatrix values="0 0 0 0 0   0 0 0 0 0   0 0 0 0 0  0 0 0 0.2 0" type="matrix" in="shadowBlurOuter1" result="shadowMatrixOuter1"></feColorMatrix>
            <feMerge>
                <feMergeNode in="shadowMatrixOuter1"></feMergeNode>
                <feMergeNode in="SourceGraphic"></feMergeNode>
            </feMerge>
        </filter>
    </defs>
    <g id="Doanças-Crônicas---2-/-3" stroke="none" stroke-width="1" fill="none" fill-rule="evenodd" transform="translate(-443.000000, -671.000000)">
        <g id="Content" transform="translate(435.000000, 145.000000)" fill="#575957" fill-rule="nonzero" stroke="#575957" stroke-width="0.3">
            <g id="Tipos-de-Cancer" transform="translate(0.000000, 54.000000)">
                <g id="Crohn" filter="url(#filter-1)" transform="translate(0.000000, 465.000000)">
                    <g id="Rectangle-9">
                        <path d="M51.9986165,42.1215513 L51.9986165,20.9659507 C51.9986165,20.9659507 51.9986165,20.9659507 51.9986165,20.9064532 C51.9816003,18.5735454 50.6027054,16.4658491 48.4719444,15.5157933 C46.3411834,14.5657375 43.8517838,14.948653 42.1050371,16.4951408 L38.4586921,19.3255204 C37.4802868,20.1175568 36.2581333,20.5469621 34.9993392,20.5409688 C33.7406626,20.5462633 32.5187369,20.116938 31.5399862,19.3255204 L27.8341438,16.4611422 C26.0721508,14.9425169 23.5867427,14.5899915 21.4719454,15.5587405 C19.3571481,16.5274895 18.0008485,18.6398291 18.0000619,20.9659507 L18.0000619,42.2150473 C17.989331,44.5521467 19.3751437,46.66984 21.5210907,47.5956152 C23.6670377,48.5213905 26.1584308,48.0763485 27.8511431,46.4648666 C28.0465908,47.6412159 28.6480877,48.7118805 29.5510708,49.490738 C30.2740764,50.0532222 30.5862258,50.9963833 30.3415372,51.8791365 C30.3389873,51.9159241 30.3389873,51.9528441 30.3415372,51.9896318 C30.2241817,53.8673201 31.6512134,55.4846227 33.5289017,55.6019782 C35.40659,55.7193337 37.0238926,54.292302 37.1412481,52.4146137 L37.1412481,50.3407019 L38.5181896,50.4511972 C39.9036307,50.5786917 41.4760638,50.714686 43.5159771,50.714686 C48.2035579,50.7053108 51.9986258,46.9026375 51.9986165,42.2150473 C52.0004612,42.1839093 52.0004612,42.1526893 51.9986165,42.1215513 Z M28.1996283,33.7154087 C28.6690503,33.7154087 29.0495921,33.3348669 29.0495921,32.8654448 C29.0495921,32.3960227 28.6690503,32.0154809 28.1996283,32.0154809 C27.2496013,32.0182662 26.3140534,32.24851 25.4712442,32.6869524 C24.5851622,31.8417257 24.1889095,30.6043855 24.419145,29.4016631 C24.6493804,28.1989406 25.474597,27.1954246 26.6101958,26.7372053 C27.8567166,27.6267058 29.2367117,28.3123998 30.698522,28.768619 C31.8160811,29.6579339 32.4619106,31.0122948 32.4494476,32.4404629 C32.4441849,34.6573139 30.8880176,36.5679612 28.7181062,37.0217681 C28.4144434,37.0521344 28.1500475,37.2421962 28.0245141,37.5203591 C27.8989807,37.7985219 27.9313811,38.1225263 28.1095105,38.3703229 C28.2876399,38.6181195 28.5844361,38.7520621 28.888099,38.7216958 L29.0580918,38.7216958 C31.4908517,38.2161521 33.4101719,36.3465552 33.9793825,33.9278996 L33.9793825,33.8769018 C34.4516714,32.522921 35.8182322,31.6944413 37.2371362,31.9018834 C38.6560402,32.1093255 39.7282294,33.2943476 39.7931354,34.7268657 C39.7408624,35.6004557 39.494024,36.4513224 39.0706661,37.2172598 C38.8911626,37.6144408 39.0411883,38.0830341 39.4179927,38.3021064 C39.7947972,38.5211788 40.2762471,38.4197225 40.5326039,38.0672237 C41.0949248,37.0626094 41.4232359,35.9440271 41.4930631,34.7948628 C41.4930631,34.7948628 41.4930631,34.7948628 41.4930631,34.7523646 C41.4930631,34.7098664 41.4930631,34.7523646 41.4930631,34.7013668 C41.4930631,34.6503689 41.4930631,34.7013668 41.4930631,34.6588686 C41.4930631,34.6163704 41.4930631,34.6588686 41.4930631,34.6588686 C41.4539339,33.217708 40.7472504,31.8765797 39.5806444,31.0295229 C39.5847458,30.9814456 39.5847458,30.9331063 39.5806444,30.885029 C39.4871498,30.0294063 39.7880721,29.1777312 40.3983416,28.5707694 C41.0086111,27.9638076 41.8619091,27.6675183 42.7170111,27.7656616 C45.3433994,27.7656616 46.0488694,30.978525 46.0488694,32.8654448 C46.0488694,37.4127515 43.1334933,42.8950184 39.5041476,42.8950184 C37.5762024,42.9124175 35.971137,41.4193335 35.849303,39.4951629 C35.8494455,38.8681063 36.0230021,38.2533043 36.3507817,37.7187385 C36.5561463,37.4581089 36.5910661,37.1017994 36.4402083,36.8062586 C36.2893505,36.5107179 35.9803002,36.3299867 35.6487554,36.3434207 C35.3172106,36.3568547 35.0237957,36.5619974 34.8973435,36.8687746 C34.413903,37.6599648 34.1553087,38.5679837 34.1493753,39.4951629 C34.1512187,39.8882013 34.2026221,40.2794383 34.3023688,40.6596134 C33.8688872,40.600116 33.3929075,40.5406185 32.9169277,40.5151196 C31.6155384,40.4676278 30.3510016,40.9525715 29.4150766,41.8580625 L29.194086,42.0875527 C27.5956591,42.4878766 25.9098855,41.9281271 24.8683689,40.6512281 C23.8268524,39.3743291 23.6173363,37.6104541 24.3307478,36.1251017 C25.0441594,34.6397494 26.5518994,33.7006688 28.1996283,33.7154087 Z M36.8692597,30.1115619 C35.8336668,30.108491 34.8252244,30.4426494 33.9963818,31.0635214 C33.8645426,30.4685784 33.6469446,29.8959522 33.3504093,29.3635937 C33.8976575,29.4290121 34.4482005,29.4630663 34.9993392,29.4655893 C36.0834375,29.464992 37.1640252,29.3423924 38.2207022,29.1001049 C38.1021749,29.4758731 38.025218,29.8635076 37.991212,30.2560557 C37.6245353,30.1622366 37.2477424,30.1137103 36.8692597,30.1115619 Z M43.4989778,49.0147582 C41.5355613,49.0147582 40.0056263,48.878764 38.6541838,48.7597691 C37.1603225,48.566562 35.6499667,48.535215 34.1493753,48.666273 C33.8457125,48.7027126 33.5845567,48.8983863 33.4642828,49.1795858 C33.344009,49.4607853 33.3828895,49.7847897 33.5662785,50.0295497 C33.7496675,50.2743096 34.0497038,50.4026403 34.3533666,50.3662008 C34.7188511,50.3237026 35.0758359,50.2982037 35.4328207,50.2982037 L35.4328207,52.4146137 C35.385753,53.0219394 35.0182562,53.5580211 34.4687629,53.8209221 C33.9192695,54.0838231 33.2712607,54.0336024 32.7688351,53.6891777 C32.2664095,53.344753 31.9858975,52.7584506 32.0329653,52.1511249 C32.0344734,52.1228128 32.0344734,52.0944406 32.0329653,52.0661285 C32.347588,50.6117681 31.8187033,49.1039539 30.6645235,48.1647944 C29.9182461,47.5265602 29.484371,46.5968278 29.474574,45.6149028 C29.4776357,44.6476392 29.8806434,43.7247209 30.5880267,43.0650112 C31.1852151,42.4819172 31.9982995,42.1739307 32.8319313,42.2150473 C33.6490271,42.2728858 34.4612169,42.3864788 35.262828,42.5550329 C36.2990715,43.8414147 37.8608108,44.5910496 39.5126473,44.5949461 C44.15345,44.5949461 47.7572968,38.2882143 47.7572968,32.8654448 C47.7572968,29.9500688 46.5928463,27.0176934 44.0429547,26.2697252 C44.7246077,25.7299091 45.3561433,25.1296658 45.9298745,24.4763015 C46.1400822,24.2485774 46.2096831,23.9244914 46.1115108,23.6305394 C46.0133384,23.3365875 45.7629554,23.1193678 45.4580903,23.0636647 C45.1532252,23.0079617 44.8422062,23.1226055 44.646429,23.3628488 C42.2225636,26.1615924 38.7017818,27.7684338 34.9993392,27.7656616 C31.2998636,27.7659661 27.7826723,26.1593479 25.3607489,23.3628488 C25.0492671,23.0254116 24.5260803,22.9964026 24.1792029,23.297336 C23.8323255,23.5982694 23.7872046,24.1203135 24.0773035,24.4763015 C24.4220405,24.8727023 24.7880647,25.250076 25.1737569,25.6067534 C23.8309762,26.4427333 22.9297484,27.8327997 22.7145676,29.3998414 C22.4993869,30.966883 22.9925637,32.5484243 24.0603042,33.7154087 C22.3909157,35.3304771 21.8140494,37.7693741 22.5830075,39.9611787 C23.3519656,42.1529833 25.3261331,43.6968925 27.6386521,43.914975 C26.8422664,45.7083999 24.8980808,46.6983624 22.9792836,46.287485 C21.0604864,45.8766077 19.6921559,44.177327 19.6999896,42.2150473 L19.6999896,20.9659507 C19.701685,19.2997192 20.6769396,17.7881945 22.1943853,17.0999441 C23.7118311,16.4116936 25.491488,16.6737048 26.74619,17.7700866 L30.5370289,20.7024619 C31.8109109,21.6992341 33.3818317,22.2408278 34.9993392,22.2408965 C36.5846799,22.2385189 38.1254398,21.7159744 39.3851527,20.7534597 L43.1844912,17.8210844 L43.235489,17.7615869 C44.4905878,16.6529895 46.2796971,16.3847916 47.8046927,17.0766367 C49.3296883,17.7684819 50.306233,19.2913748 50.2986887,20.9659507 C50.2986887,20.9659507 50.2986887,20.9659507 50.2986887,21.0084489 L50.2986887,42.2150473 C50.2986887,42.2150473 50.2986887,42.2660451 50.2986887,42.2915441 C50.2567746,46.0170128 47.2246823,49.014994 43.4989778,49.0147582 Z" id="Shape"></path>
                    </g>
                </g>
            </g>
        </g>
    </g>
</svg>