<?xml version="1.0" encoding="UTF-8"?>
<svg width="54px" height="52px" viewBox="0 0 54 52" version="1.1" xmlns="http://www.w3.org/2000/svg" xmlns:xlink="http://www.w3.org/1999/xlink">
    <!-- Generator: Sketch 48.2 (47327) - http://www.bohemiancoding.com/sketch -->
    <title>lungs</title>
    <desc>Created with Sketch.</desc>
    <defs>
        <filter x="-9.3%" y="-30.0%" width="118.6%" height="174.3%" filterUnits="objectBoundingBox" id="filter-1">
            <feOffset dx="0" dy="2" in="SourceAlpha" result="shadowOffsetOuter1"></feOffset>
            <feGaussianBlur stdDeviation="5" in="shadowOffsetOuter1" result="shadowBlurOuter1"></feGaussianBlur>
            <feColorMatrix values="0 0 0 0 0   0 0 0 0 0   0 0 0 0 0  0 0 0 0.2 0" type="matrix" in="shadowBlurOuter1" result="shadowMatrixOuter1"></feColorMatrix>
            <feMerge>
                <feMergeNode in="shadowMatrixOuter1"></feMergeNode>
                <feMergeNode in="SourceGraphic"></feMergeNode>
            </feMerge>
        </filter>
    </defs>
    <g id="Doanças-Crônicas---2-/-3" stroke="none" stroke-width="1" fill="none" fill-rule="evenodd" transform="translate(-733.000000, -485.000000)">
        <g id="Content" transform="translate(435.000000, 145.000000)" fill="#575957" fill-rule="nonzero" stroke="#575957" stroke-width="0.3">
            <g id="Tipos-de-Cancer" transform="translate(0.000000, 54.000000)">
                <g id="DPOC" filter="url(#filter-1)" transform="translate(290.000000, 275.000000)">
                    <g id="Rectangle-9">
                        <g id="lungs" transform="translate(18.000000, 19.000000)">
                            <path d="M30.077068,7.76736726 C28.6155291,5.69094955 26.6154902,4.61427627 24.0001361,4.61427627 C21.6924396,4.61427627 20.0001244,6.38311082 19.5385719,9.45927297 C19.3847431,10.6128751 19.4616245,11.5356907 19.5385719,12.3816435 C19.6155194,12.996876 19.6155194,13.5352456 19.6155194,14.1504781 C18.5385855,13.4583168 17.6924279,12.612364 17.6924279,11.5356907 L17.6924279,0.769024015 C17.6924279,0.30758317 17.3847042,0 16.9232178,0 C16.4616653,0 16.1540077,0.30764926 16.1540077,0.769024015 L16.1540077,11.5356907 C16.1540077,12.612364 15.3078501,13.5352456 14.2309162,14.1504781 C14.2309162,13.5352456 14.2309162,12.9200132 14.3078637,12.3816435 C14.3848112,11.4587618 14.4616925,10.5359462 14.3078637,9.45927297 C13.8463112,6.38311082 12.153996,4.61427627 9.84629952,4.61427627 C7.23087931,4.61427627 5.23090653,5.69094955 3.84624897,7.76736726 C1.92309143,10.5359462 0,14.3042697 0,21.6102622 C0,25.5323772 0.384605065,30.1467195 3.07690663,31.6847676 C3.53845915,31.9924168 4.38461673,32.3 5.53843193,32.3 C9.46149614,32.3 13.3846265,28.6854682 14.7692179,26.1476096 C15.153823,25.3016568 15.3845992,24.2249835 15.3845992,22.6868694 C15.3845992,21.0718925 15.153823,19.68757 14.9230467,18.3801763 C14.8460993,17.9956642 14.4614942,17.688015 13.9999417,17.7649438 C13.6153366,17.8418727 13.3076129,18.2263847 13.3845603,18.6878255 C13.6153366,19.9182904 13.8461129,21.2256841 13.8461129,22.7637982 C13.8461129,23.9942631 13.6922841,24.9940075 13.3845603,25.5323772 C12.230679,27.6857237 8.76916736,30.8388147 5.53836582,30.8388147 C4.69220823,30.8388147 4.15377436,30.6080943 3.76910319,30.4543027 C1.4614067,29.146909 1.4614067,23.5328883 1.4614067,21.6871249 C1.4614067,14.8425733 3.23066932,11.3049703 4.99986584,8.69018286 C6.23062849,6.92134832 7.76911486,6.1523243 9.84603509,6.1523243 C11.3845215,6.1523243 12.4614553,7.459718 12.8460604,9.6899273 C12.9998892,10.612809 12.9230078,11.381833 12.8460604,12.2277859 C12.7691129,13.0737387 12.6922316,13.9196916 12.7691129,14.919436 C12.3075604,15.1501564 11.7691265,15.303948 11.3845215,15.3808768 C10.9999164,15.4578057 10.6921927,15.9191804 10.8460876,16.3037585 C10.923035,16.6114078 11.2306927,16.8421282 11.6152977,16.8421282 C11.6922452,16.8421282 11.7691265,16.8421282 11.846074,16.8421282 C12.6152841,16.6114078 15.6153094,15.7654549 16.9999669,13.7659661 C18.4615059,15.765521 21.4615311,16.6114739 22.1538599,16.8421282 C22.2308074,16.8421282 22.3076887,16.8421282 22.3846362,16.8421282 C22.6923599,16.8421282 23.0000175,16.6114078 23.1538463,16.3037585 C23.2307938,15.9192465 23.0000175,15.4578057 22.6154124,15.3808768 C22.2308074,15.303948 21.6923074,15.0732276 21.230821,14.919436 C21.3077684,13.9196916 21.230821,13.0737387 21.1538735,12.2277859 C21.0769261,11.381833 21.0000447,10.612809 21.1538735,9.6899273 C21.5384786,7.459718 22.6154124,6.1523243 24.1538988,6.1523243 C26.230819,6.1523243 27.7693054,6.92134832 28.9231867,8.61325403 C30.6924493,11.1511126 32.4616458,14.7656444 32.4616458,21.6101961 C32.4616458,23.4558934 32.4616458,29.0699802 30.1539494,30.3773739 C29.8462256,30.5311655 29.2308443,30.7618859 28.3846867,30.7618859 C25.1538852,30.7618859 21.6923735,27.6087949 20.5384922,25.4554483 C20.2307685,24.9171447 20.0769397,23.9173342 20.0769397,22.6868694 C20.0769397,21.1487552 20.3077159,19.9182904 20.5384922,18.6108967 C20.6154397,18.2263847 20.3077159,17.7649438 19.9231109,17.688015 C19.5385058,17.6110861 19.0769533,17.9187354 19.0000058,18.3032474 C18.7692296,19.6106411 18.5384533,20.9948976 18.5384533,22.6099405 C18.5384533,24.1480546 18.7692296,25.3015907 19.1538346,26.0706808 C20.4615447,28.6854682 24.4615564,32.2230712 28.3846206,32.2230712 C29.5385019,32.2230712 30.3846595,31.9154219 30.9230934,31.6078387 C33.6153949,30.0697246 34,25.3785195 34,21.5333333 C33.8463034,14.3042697 31.923212,10.5359462 30.077068,7.76736726 Z" id="Shape"></path>
                            <path d="M23.6552889,18.14467 C23.2360167,17.7806412 22.7328613,17.7806412 22.3974003,17.999071 C22.0619393,18.2175007 21.9781281,18.7271285 22.313517,19.0183891 C23.2359446,20.0377072 23.8229113,21.2026243 23.8229113,22.2219424 C23.8229113,22.658802 24.1583723,22.95 24.6614556,22.95 C25.164539,22.95 25.5,22.6587394 25.5,22.2219424 C25.5001441,20.9113638 24.8292942,19.3824179 23.6552889,18.14467 Z" id="Shape"></path>
                            <path d="M27.5925651,17.8847427 L25.5216331,17.0521498 C25.1764877,16.8856455 24.7622894,17.1354377 24.6932366,17.5517341 C24.5551903,17.9680306 24.7622894,18.4676149 25.1074349,18.6341192 L27.1783669,19.4667121 C27.2474197,19.4667121 27.3164132,19.55 27.385466,19.55 C27.6616179,19.55 27.9377106,19.3002078 28.0067634,18.9671993 C28.1448097,18.5508313 27.9377106,18.0512469 27.5925651,17.8847427 Z" id="Shape"></path>
                            <path d="M27.7949867,13.005023 C27.4549567,12.6649923 26.9450214,12.6649923 26.6049914,13.005023 L24.0550225,15.5549974 C23.7149925,15.8950281 23.7149925,16.4049646 24.0550225,16.7449953 C24.2250009,16.9149741 24.4800051,17 24.6499836,17 C24.819962,17 25.0749662,16.9149741 25.2449447,16.7449953 L27.7949136,14.1950208 C28.1350166,13.8549901 28.1350166,13.3449806 27.7949867,13.005023 Z" id="Shape"></path>
                            <path d="M11.6341996,18.0054954 C11.2953377,17.7873491 10.7024204,17.7873491 10.4482921,18.0782317 C9.177651,19.3870473 8.5,20.9140092 8.5,22.2228872 C8.5,22.6591799 8.8388619,22.95 9.34704556,22.95 C9.85522921,22.95 10.1940911,22.6591174 10.1940911,22.2228872 C10.1940911,21.2048918 10.7870812,20.0414863 11.7187877,19.0234909 C11.9729887,18.7326083 11.9729887,18.2236418 11.6341996,18.0054954 Z" id="Shape"></path>
                            <path d="M8.45677103,17.5517496 C8.31875102,17.1354415 7.97367132,16.8856423 7.55955196,17.0521512 L5.48901446,17.8847675 C5.21291511,18.0512764 5.00591474,18.5508748 5.14393476,18.9671829 C5.21297442,19.3002724 5.48901446,19.55 5.7651138,19.55 C5.83415347,19.55 5.90313382,19.55 5.97217348,19.4667098 L8.04271098,18.6340935 C8.38773137,18.4676561 8.59479105,18.051348 8.45677103,17.5517496 Z" id="Shape"></path>
                            <path d="M9.94503817,15.5549974 L7.39503634,13.005023 C7.05500201,12.6649923 6.54506008,12.6649923 6.20502575,13.005023 C5.86499142,13.3450537 5.86499142,13.8549901 6.20502575,14.1950208 L8.75502757,16.7449953 C8.92500822,16.9149741 9.09506191,17 9.34999635,17 C9.60493079,17 9.77498448,16.9149741 9.94496512,16.7449953 C10.2849995,16.4049646 10.2849995,15.8949551 9.94503817,15.5549974 Z" id="Shape"></path>
                        </g>
                    </g>
                </g>
            </g>
        </g>
    </g>
</svg>