<?xml version="1.0" encoding="UTF-8"?>
<svg width="55px" height="55px" viewBox="0 0 55 55" version="1.1" xmlns="http://www.w3.org/2000/svg" xmlns:xlink="http://www.w3.org/1999/xlink">
    <!-- Generator: Sketch 48.2 (47327) - http://www.bohemiancoding.com/sketch -->
    <title>cholesterol (1)</title>
    <desc>Created with Sketch.</desc>
    <defs>
        <filter x="-9.3%" y="-30.0%" width="118.6%" height="174.3%" filterUnits="objectBoundingBox" id="filter-1">
            <feOffset dx="0" dy="2" in="SourceAlpha" result="shadowOffsetOuter1"></feOffset>
            <feGaussianBlur stdDeviation="5" in="shadowOffsetOuter1" result="shadowBlurOuter1"></feGaussianBlur>
            <feColorMatrix values="0 0 0 0 0   0 0 0 0 0   0 0 0 0 0  0 0 0 0.2 0" type="matrix" in="shadowBlurOuter1" result="shadowMatrixOuter1"></feColorMatrix>
            <feMerge>
                <feMergeNode in="shadowMatrixOuter1"></feMergeNode>
                <feMergeNode in="SourceGraphic"></feMergeNode>
            </feMerge>
        </filter>
    </defs>
    <g id="Doanças-Crônicas---1-/-3" stroke="none" stroke-width="1" fill="none" fill-rule="evenodd" transform="translate(-443.000000, -299.000000)">
        <g id="Content" transform="translate(435.000000, 145.000000)" fill="#575957" fill-rule="nonzero" stroke="#575957" stroke-width="0.5">
            <g id="Tipos-de-Cancer" transform="translate(0.000000, 54.000000)">
                <g id="Colesterol" filter="url(#filter-1)" transform="translate(0.000000, 90.000000)">
                    <g id="Rectangle-9">
                        <g id="cholesterol-(1)" transform="translate(18.000000, 19.000000)">
                            <path d="M34,1.64516129 C34,0.738129032 33.261871,0 32.3548387,0 L17,0 C16.0929677,0 15.3548387,0.738129032 15.3548387,1.64516129 L15.3548387,10.4193548 L0,10.4193548 L0,11.516129 L15.3548387,11.516129 L15.3548387,12.6129032 L0,12.6129032 L0,13.7096774 L7.70483871,13.7096774 C7.84358065,14.9402581 8.87783871,15.9032258 10.1451613,15.9032258 C11.4119355,15.9032258 12.4467419,14.9402581 12.5849355,13.7096774 L15.3548387,13.7096774 L15.3548387,16.4910968 C15.1727742,16.4686129 14.9901613,16.4516129 14.8064516,16.4516129 C12.6902258,16.4516129 10.9677419,17.9273226 10.9677419,19.7419355 C10.9677419,21.5565484 12.6902258,23.0322581 14.8064516,23.0322581 C14.9901613,23.0322581 15.1727742,23.0158065 15.3548387,22.9927742 L15.3548387,24.6774194 C15.3548387,25.3914194 15.443129,26.0840323 15.5955806,26.7525161 C14.7889032,26.5265806 14.0902581,25.9875161 13.6718387,25.2356774 L13.1936452,24.3752581 C12.3579032,22.8699355 10.7697742,21.9354839 9.0483871,21.9354839 C7.327,21.9354839 5.73887097,22.8699355 4.90258065,24.3747097 L4.4243871,25.235129 C3.86393548,26.2441613 2.79841935,26.8709677 1.64516129,26.8709677 L1.09677419,26.8709677 L0,26.8709677 L0,27.9677419 L1.09677419,27.9677419 L1.64516129,27.9677419 L15.9657419,27.9677419 C16.1083226,28.3444839 16.2679032,28.713 16.456,29.0645161 L0,29.0645161 L0,30.1612903 L17.1551935,30.1612903 C18.8524516,32.4831613 21.5878065,34 24.6774194,34 C27.7670323,34 30.5023871,32.4831613 32.1996452,30.1612903 L34,30.1612903 L34,29.0645161 L32.8988387,29.0645161 C33.0874839,28.713 33.2465161,28.3444839 33.3890968,27.9677419 L34,27.9677419 L34,26.8709677 L33.7285484,26.8709677 C33.8996452,26.1662903 34,25.4341935 34,24.6774194 L34,1.64516129 Z M10.1451613,14.8064516 C9.48270968,14.8064516 8.9293871,14.3348387 8.8016129,13.7096774 L11.4881613,13.7096774 C11.3609355,14.3348387 10.8076129,14.8064516 10.1451613,14.8064516 Z M15.3548387,21.8844839 C15.1733226,21.9157419 14.9901613,21.9354839 14.8064516,21.9354839 C13.2945484,21.9354839 12.0645161,20.9516774 12.0645161,19.7419355 C12.0645161,18.5321935 13.2945484,17.5483871 14.8064516,17.5483871 C14.9901613,17.5483871 15.1733226,17.568129 15.3548387,17.5988387 L15.3548387,21.8844839 Z M4.49019355,26.8709677 C4.8406129,26.5578387 5.14770968,26.1915161 5.38296774,25.7676129 L5.86116129,24.9071935 C6.50387097,23.7511935 7.72512903,23.0322581 9.0483871,23.0322581 C10.3716452,23.0322581 11.5929032,23.7511935 12.2350645,24.9071935 L12.7132581,25.7676129 C12.9485161,26.1909677 13.2561613,26.5572903 13.6065806,26.8709677 L4.49019355,26.8709677 Z M32.9032258,24.6774194 C32.9032258,29.213129 29.213129,32.9032258 24.6774194,32.9032258 C20.1411613,32.9032258 16.4516129,29.213129 16.4516129,24.6774194 L16.4516129,1.64516129 C16.4516129,1.34245161 16.6972903,1.09677419 17,1.09677419 L32.3548387,1.09677419 C32.6575484,1.09677419 32.9032258,1.34245161 32.9032258,1.64516129 L32.9032258,24.6774194 Z" id="Shape"></path>
                            <path d="M17.4594595,12.1547912 L17.4594595,12.6977887 L17.4594595,13.7837838 L18.5904366,13.7837838 L18.5904366,12.6977887 L19.7214137,12.6977887 L19.7214137,13.7837838 L20.8523909,13.7837838 L20.8523909,12.6977887 L21.983368,12.6977887 L21.983368,13.7837838 L23.1143451,13.7837838 L23.1143451,12.6977887 L24.2453222,12.6977887 L24.2453222,13.7837838 L25.3762994,13.7837838 L25.3762994,12.6977887 L26.5072765,12.6977887 L26.5072765,13.7837838 L27.6382536,13.7837838 L27.6382536,12.6977887 L28.7692308,12.6977887 L28.7692308,13.7837838 L29.9002079,13.7837838 L29.9002079,12.6977887 L31.031185,12.6977887 L31.031185,13.7837838 L32.1621622,13.7837838 L32.1621622,12.6977887 L32.1621622,12.1547912 L32.1621622,1.83783784 L17.4594595,1.83783784 L17.4594595,12.1547912 Z M18.5904366,2.92383292 L31.031185,2.92383292 L31.031185,11.6117936 L18.5904366,11.6117936 L18.5904366,2.92383292 Z" id="Shape"></path>
                            <path d="M3.67567568,22.0540541 C5.70202317,22.0540541 7.35135135,20.4047259 7.35135135,18.3783784 C7.35135135,16.3520309 5.70202317,14.7027027 3.67567568,14.7027027 C1.64932819,14.7027027 0,16.3520309 0,18.3783784 C0,20.4047259 1.64932819,22.0540541 3.67567568,22.0540541 Z M3.67567568,15.7528958 C5.1233668,15.7528958 6.3011583,16.9306873 6.3011583,18.3783784 C6.3011583,19.8260695 5.1233668,21.003861 3.67567568,21.003861 C2.22798456,21.003861 1.05019305,19.8260695 1.05019305,18.3783784 C1.05019305,16.9306873 2.22798456,15.7528958 3.67567568,15.7528958 Z" id="Shape"></path>
                            <path d="M3.67567568,20.2162162 L3.67567568,18.990991 C3.33751351,18.990991 3.06306306,18.7165405 3.06306306,18.3783784 C3.06306306,18.0402162 3.33751351,17.7657658 3.67567568,17.7657658 L3.67567568,16.5405405 C2.66241441,16.5405405 1.83783784,17.3651171 1.83783784,18.3783784 C1.83783784,19.3916396 2.66241441,20.2162162 3.67567568,20.2162162 Z" id="Shape"></path>
                            <rect id="Rectangle-path" x="19.2972973" y="10.1081081" width="4.59459459" height="1"></rect>
                            <rect id="Rectangle-path" x="24.8108108" y="10.1081081" width="4.59459459" height="1"></rect>
                            <path d="M17.4594595,21.1351351 L23.8918919,21.1351351 L23.8918919,15.6216216 L17.4594595,15.6216216 L17.4594595,21.1351351 Z M18.5315315,16.7243243 L22.8198198,16.7243243 L22.8198198,20.0324324 L18.5315315,20.0324324 L18.5315315,16.7243243 Z" id="Shape"></path>
                            <path d="M24.8108108,21.1351351 L31.2432432,21.1351351 L31.2432432,15.6216216 L24.8108108,15.6216216 L24.8108108,21.1351351 Z M25.8828829,16.7243243 L30.1711712,16.7243243 L30.1711712,20.0324324 L25.8828829,20.0324324 L25.8828829,16.7243243 Z" id="Shape"></path>
                            <path d="M17.4594595,27.5675676 L23.8918919,27.5675676 L23.8918919,22.0540541 L17.4594595,22.0540541 L17.4594595,27.5675676 Z M18.5315315,23.1567568 L22.8198198,23.1567568 L22.8198198,26.4648649 L18.5315315,26.4648649 L18.5315315,23.1567568 Z" id="Shape"></path>
                            <path d="M24.8108108,27.5675676 L31.2432432,27.5675676 L31.2432432,22.0540541 L24.8108108,22.0540541 L24.8108108,27.5675676 Z M25.8828829,23.1567568 L30.1711712,23.1567568 L30.1711712,26.4648649 L25.8828829,26.4648649 L25.8828829,23.1567568 Z" id="Shape"></path>
                        </g>
                    </g>
                </g>
            </g>
        </g>
    </g>
</svg>