<?xml version="1.0" encoding="UTF-8"?>
<svg width="56px" height="53px" viewBox="0 0 56 53" version="1.1" xmlns="http://www.w3.org/2000/svg" xmlns:xlink="http://www.w3.org/1999/xlink">
    <!-- Generator: Sketch 48.2 (47327) - http://www.bohemiancoding.com/sketch -->
    <title>sphygmomanometer</title>
    <desc>Created with Sketch.</desc>
    <defs>
        <filter x="-9.3%" y="-31.4%" width="118.6%" height="174.3%" filterUnits="objectBoundingBox" id="filter-1">
            <feOffset dx="0" dy="2" in="SourceAlpha" result="shadowOffsetOuter1"></feOffset>
            <feGaussianBlur stdDeviation="5" in="shadowOffsetOuter1" result="shadowBlurOuter1"></feGaussianBlur>
            <feColorMatrix values="0 0 0 0 0   0 0 0 0 0   0 0 0 0 0  0 0 0 0.2 0" type="matrix" in="shadowBlurOuter1" result="shadowMatrixOuter1"></feColorMatrix>
            <feMerge>
                <feMergeNode in="shadowMatrixOuter1"></feMergeNode>
                <feMergeNode in="SourceGraphic"></feMergeNode>
            </feMerge>
        </filter>
    </defs>
    <g id="Doanças-Crônicas---1-/-3" stroke="none" stroke-width="1" fill="none" fill-rule="evenodd" transform="translate(-733.000000, -210.000000)">
        <g id="Content" transform="translate(435.000000, 145.000000)" fill="#575957" fill-rule="nonzero" stroke="#575957" stroke-width="0.25">
            <g id="Tipos-de-Cancer" transform="translate(0.000000, 54.000000)">
                <g id="Hipertensao" filter="url(#filter-1)" transform="translate(290.000000, 0.000000)">
                    <g id="Rectangle-9">
                        <g id="sphygmomanometer" transform="translate(18.000000, 19.000000)">
                            <g id="Layer_1">
                                <path d="M25.3113818,15.007437 L24.5096844,16.0292956 C25.7379506,17.0015904 25.9035391,18.0323776 25.9035391,18.9125047 C25.9035391,19.6664374 25.6338804,20.7786358 24.348995,21.7957138 C23.6504579,22.3488603 22.7054978,22.8270634 21.5403596,23.2172468 C20.4466078,23.5834567 19.1821585,23.8664276 17.782075,24.058215 L17.9571117,25.3473668 C19.4366301,25.1447527 20.7800244,24.8432921 21.9499916,24.4514917 C23.2573428,24.0136427 24.3342978,23.4639411 25.1506924,22.8175725 C26.8433901,21.4775913 27.1987125,19.9543998 27.1987125,18.912575 C27.1987125,17.8774291 27.0030298,16.3465042 25.3113818,15.007437 Z" id="Shape"></path>
                                <path d="M1.29517345,18.9124344 C1.29517345,18.0380018 1.46076193,17.0129796 2.68895814,16.0406145 L1.88726074,15.0187558 C0.19568275,16.3579636 0,17.8823503 0,18.9124344 C0,19.9252239 0.337125825,21.4101002 1.94297014,22.7326461 L2.76412383,21.7265354 C1.54999495,20.7266114 1.29517345,19.6442919 1.29517345,18.9124344 Z" id="Shape"></path>
                                <path d="M24.1766178,10.238904 L24.1766178,18.0699898 C24.1766178,19.1935071 22.336808,20.3718609 19.48954,21.0721521 L19.7974114,22.3359245 C23.4035449,21.4490482 25.4717213,19.8941499 25.4717213,18.0699898 L25.4717213,10.238904 L24.1766178,10.238904 Z" id="Shape"></path>
                                <path d="M3.02209472,18.0699898 L3.02209472,10.238904 L1.72692127,10.238904 L1.72692127,18.0699898 C1.72692127,18.7976994 2.05431894,19.4859688 2.70001603,20.1158162 L3.60221429,19.1823991 C3.21728756,18.8069092 3.02209472,18.4326143 3.02209472,18.0699898 Z" id="Shape"></path>
                                <path d="M21.7637571,10.0876816 L21.7560586,10.0697542 C21.3833095,9.19616526 20.4420587,8.72443004 19.5180246,8.94883821 C17.792783,9.36714291 15.7461626,9.58831713 13.5993213,9.58831713 C13.2416194,9.58831713 12.9517345,9.87951345 12.9517345,10.2388337 C12.9517345,10.5981539 13.2416194,10.8893502 13.5993213,10.8893502 C15.8469434,10.8893502 17.9986838,10.655662 19.8221167,10.2135245 C20.1294282,10.1392139 20.4426886,10.2939515 20.5655152,10.5817732 L20.5732137,10.5997006 C20.6476096,10.7741934 20.6416607,10.9716051 20.5571868,11.1414579 C20.5079861,11.2400231 20.3887288,11.4142347 20.1416059,11.4742738 C18.2147327,11.9428453 15.9524833,12.1903833 13.5993213,12.1903833 C13.2416194,12.1903833 12.9517345,12.4815796 12.9517345,12.8408998 C12.9517345,13.2002201 13.2416194,13.4914164 13.5993213,13.4914164 C16.0536141,13.4914164 18.4211934,13.2312238 20.4463279,12.7388194 C20.9981028,12.6046104 21.4606448,12.234815 21.7151863,11.7239911 C21.9708477,11.2110582 21.9885543,10.6145346 21.7637571,10.0876816 Z" id="Shape"></path>
                                <path d="M21.7637571,22.2306804 L21.7560586,22.2127531 C21.3833095,21.3390938 20.4421287,20.8676398 19.5178846,21.0919777 C19.1702608,21.1762714 18.9564515,21.5278582 19.0405055,21.8770548 C19.1244195,22.2262513 19.4742129,22.44152 19.8220467,22.3565936 C20.1293582,22.2820018 20.4426186,22.43688 20.5654452,22.7248424 L20.5731437,22.7427697 C20.6475396,22.9172626 20.6415907,23.1146743 20.5571168,23.2845271 C20.5079162,23.3830923 20.3886589,23.5573039 20.1415359,23.6174132 C19.7939821,23.7019881 19.5803827,24.0535047 19.6645767,24.4027012 C19.736313,24.7003654 20.0013526,24.9003081 20.293407,24.9003081 C20.3438674,24.9003081 20.3950976,24.8943323 20.4463279,24.8818183 C20.9981028,24.7476093 21.4606448,24.3778139 21.7151863,23.86699 C21.9708477,23.354057 21.9885543,22.7575334 21.7637571,22.2306804 Z" id="Shape"></path>
                                <path d="M19.6435107,12.1904536 C19.2858088,12.1904536 18.995924,12.4816499 18.995924,12.8409701 L18.995924,21.7040383 C18.995924,22.0633585 19.2858088,22.3545549 19.6435107,22.3545549 C20.0012126,22.3545549 20.2910974,22.0632882 20.2910974,21.7040383 L20.2910974,12.8409701 C20.2910974,12.4815796 20.0012126,12.1904536 19.6435107,12.1904536 Z" id="Shape"></path>
                                <path d="M10.1455487,14.7057655 C5.45588143,14.7057655 1.64055771,18.5383505 1.64055771,23.2492348 C1.64055771,27.9601191 5.45588143,31.7927041 10.1455487,31.7927041 C12.2571867,31.7927041 14.2821813,31.009947 15.8474333,29.5884844 C16.1127528,29.3475549 16.1333989,28.93614 15.8935545,28.6696904 C15.6537102,28.4032409 15.2441482,28.3825717 14.9788986,28.6233605 C13.6520912,29.8282187 11.935668,30.491671 10.1455487,30.491671 C6.17002549,30.491671 2.93573116,27.2427441 2.93573116,23.2492348 C2.93573116,19.2557255 6.17002549,16.0067986 10.1455487,16.0067986 C14.1210719,16.0067986 17.3553663,19.2557255 17.3553663,23.2492348 C17.3553663,24.4589439 17.0527439,25.6559984 16.4801829,26.7109699 C16.3089955,27.0264208 16.4247534,27.4215957 16.7387836,27.5934873 C17.0527439,27.7653789 17.446209,27.6491675 17.6173264,27.3337166 C18.2932577,26.0882934 18.6505397,24.6758999 18.6505397,23.2492348 C18.6505397,18.5383505 14.835216,14.7057655 10.1455487,14.7057655 Z" id="Shape"></path>
                                <path d="M10.1455487,17.3078316 C6.88423953,17.3078316 4.23090461,19.9731005 4.23090461,23.2492348 C4.23090461,26.5252988 6.88416954,29.1906379 10.1455487,29.1906379 C13.4068579,29.1906379 16.0601928,26.5253691 16.0601928,23.2492348 C16.0601928,19.9731005 13.4068579,17.3078316 10.1455487,17.3078316 Z M10.1455487,27.8896049 C7.59838359,27.8896049 5.52607807,25.8079238 5.52607807,23.2492348 C5.52607807,20.6905458 7.59838359,18.6088647 10.1455487,18.6088647 C12.6927138,18.6088647 14.7650194,20.6905458 14.7650194,23.2492348 C14.7650194,25.8079238 12.6927138,27.8896049 10.1455487,27.8896049 Z" id="Shape"></path>
                                <path d="M10.1455487,19.4761967 C9.78784681,19.4761967 9.49796199,19.767393 9.49796199,20.1267132 L9.49796199,20.9940452 C9.49796199,21.3533654 9.78784681,21.6445617 10.1455487,21.6445617 C10.5032506,21.6445617 10.7931354,21.3533654 10.7931354,20.9940452 L10.7931354,20.1267132 C10.7931354,19.767393 10.5032506,19.4761967 10.1455487,19.4761967 Z" id="Shape"></path>
                                <path d="M10.1455487,24.8538376 C9.78784681,24.8538376 9.49796199,25.1450339 9.49796199,25.5043541 L9.49796199,26.3716861 C9.49796199,26.7310063 9.78784681,27.0222026 10.1455487,27.0222026 C10.5032506,27.0222026 10.7931354,26.7310063 10.7931354,26.3716861 L10.7931354,25.5043541 C10.7931354,25.1450339 10.5032506,24.8538376 10.1455487,24.8538376 Z" id="Shape"></path>
                                <path d="M13.253937,22.5987183 L12.3905114,22.5987183 C12.0328095,22.5987183 11.7429246,22.8899146 11.7429246,23.2492348 C11.7429246,23.608555 12.0328095,23.8997513 12.3905114,23.8997513 L13.253937,23.8997513 C13.6116389,23.8997513 13.9015237,23.608555 13.9015237,23.2492348 C13.9015237,22.8899146 13.6117089,22.5987183 13.253937,22.5987183 Z" id="Shape"></path>
                                <path d="M7.90058606,22.5987183 L7.03716042,22.5987183 C6.67945851,22.5987183 6.38957369,22.8899146 6.38957369,23.2492348 C6.38957369,23.608555 6.67945851,23.8997513 7.03716042,23.8997513 L7.90058606,23.8997513 C8.25828797,23.8997513 8.54817279,23.608555 8.54817279,23.2492348 C8.54817279,22.8899146 8.25828797,22.5987183 7.90058606,22.5987183 Z" id="Shape"></path>
                                <path d="M12.8014032,20.5812944 C12.5484713,20.3273589 12.1385593,20.3273589 11.8855575,20.5812944 L11.2749937,21.1946205 C11.0220619,21.4486967 11.0220619,21.8604632 11.2749937,22.1146097 C11.4014596,22.2415774 11.5672581,22.3050613 11.7329865,22.3050613 C11.898715,22.3050613 12.0644434,22.2415774 12.1908394,22.1146097 L12.8014032,21.5012836 C13.054335,21.2472777 13.054335,20.8354409 12.8014032,20.5812944 Z" id="Shape"></path>
                                <path d="M10.6034016,22.7892402 C10.3504697,22.5353047 9.94055774,22.5353047 9.6875559,22.7892402 L7.4895543,24.997186 C7.23662245,25.2512622 7.23662245,25.6630287 7.4895543,25.9171752 C7.61602023,26.0441429 7.78181867,26.1076268 7.94754712,26.1076268 C8.11320559,26.1076268 8.27900403,26.0441429 8.40553994,25.9171752 L10.6034715,23.7092294 C10.8563334,23.4552235 10.8563334,23.0433867 10.6034016,22.7892402 Z" id="Shape"></path>
                                <path d="M12.8014032,24.997186 L12.1908394,24.3838599 C11.9379075,24.1299244 11.5279956,24.1299244 11.2749937,24.3838599 C11.0220619,24.6379361 11.0220619,25.0497026 11.2749937,25.3038491 L11.8855575,25.9171752 C12.0120234,26.0441429 12.1778219,26.1076268 12.3435503,26.1076268 C12.5092788,26.1076268 12.6750072,26.0441429 12.8014032,25.9171752 C13.054335,25.6631693 13.054335,25.2513325 12.8014032,24.997186 Z" id="Shape"></path>
                                <path d="M9.01596374,21.1946205 L8.40539997,20.5812944 C8.15246811,20.3273589 7.74255614,20.3273589 7.4895543,20.5812944 C7.23662245,20.8353706 7.23662245,21.2471371 7.4895543,21.5012836 L8.10011808,22.1146097 C8.226584,22.2415774 8.39238244,22.3050613 8.5581109,22.3050613 C8.72383935,22.3050613 8.8895678,22.2415774 9.01603373,22.1146097 C9.26889559,21.8606038 9.26889559,21.448767 9.01596374,21.1946205 Z" id="Shape"></path>
                                <path d="M31.7318196,16.5271837 C31.3741177,16.5271837 31.0842329,16.81838 31.0842329,17.1777002 L31.0842329,27.5859649 C31.0842329,27.6783434 31.0808035,27.7718468 31.0740148,27.8635926 C30.9326417,29.7749991 29.3252577,31.2722487 27.4145514,31.2722487 C25.3910266,31.2722487 23.74487,29.6186445 23.74487,27.5859649 L23.74487,23.4226731 C23.74487,23.0633528 23.4549852,22.7721565 23.0972832,22.7721565 C22.7395813,22.7721565 22.4496965,23.0633528 22.4496965,23.4226731 L22.4496965,27.5859649 C22.4496965,30.3360195 24.6768826,32.5732818 27.4145514,32.5732818 C29.9995793,32.5732818 32.1743454,30.5469294 32.3656889,27.9599082 C32.3747872,27.8361744 32.3794063,27.7104017 32.3794063,27.5859649 L32.3794063,17.1777002 C32.3794063,16.81838 32.0895215,16.5271837 31.7318196,16.5271837 Z" id="Shape"></path>
                                <path d="M31.7318196,6.98625097 C29.4703401,6.98625097 27.6304603,8.83452503 27.6304603,11.1061656 L27.6304603,12.8408998 C27.6304603,15.1126107 29.4704101,16.9608145 31.7318196,16.9608145 C32.0895215,16.9608145 32.3794063,16.6696182 32.3794063,16.310298 C32.3794063,15.9509777 32.0895215,15.6597814 31.7318196,15.6597814 C30.1844142,15.6597814 28.9256338,14.3952358 28.9256338,12.8408998 L28.9256338,11.1061656 C28.9256338,9.55175941 30.1844841,8.28728405 31.7318196,8.28728405 C33.279155,8.28728405 34.5380054,9.55182971 34.5380054,11.1061656 L34.5380054,12.8408998 C34.5380054,13.4412901 34.3528207,14.0142621 34.0023974,14.4978083 C33.7463161,14.8514339 33.4071607,15.1444581 33.021744,15.3452444 C32.7042845,15.5105978 32.5804081,15.9032418 32.7450867,16.2221376 C32.9096254,16.5410334 33.300641,16.6656812 33.6180305,16.5000466 C34.1807234,16.2068818 34.6757392,15.779297 35.0494681,15.263552 C35.5621205,14.5559491 35.8331789,13.7182852 35.8331789,12.8409701 L35.8331789,11.1062359 C35.8331789,8.83452503 33.9932291,6.98625097 31.7318196,6.98625097 Z" id="Shape"></path>
                                <path d="M32.5952452,16.5271837 L30.868324,16.5271837 C30.5106221,16.5271837 30.2207372,16.81838 30.2207372,17.1777002 C30.2207372,17.5370204 30.5106221,17.8282168 30.868324,17.8282168 L32.5952452,17.8282168 C32.9529471,17.8282168 33.242832,17.5370204 33.242832,17.1777002 C33.242832,16.81838 32.9529471,16.5271837 32.5952452,16.5271837 Z" id="Shape"></path>
                                <path d="M22.8965615,4.4710094 C22.5867304,4.29180625 22.1907458,4.39873759 22.0121398,4.70997035 C21.8336738,5.02134372 21.9401235,5.41911985 22.2500245,5.5983933 C22.9256759,5.98942032 23.3131921,6.41623172 23.3131921,6.76943556 C23.3131921,7.21600219 22.6344614,7.96501367 20.7211656,8.60554714 C18.8285158,9.23933149 16.2992673,9.58831713 13.5993213,9.58831713 C10.8993752,9.58831713 8.37019667,9.23926119 6.47747696,8.60554714 C4.56425116,7.96501367 3.88545037,7.21607249 3.88545037,6.76943556 C3.88545037,6.41623172 4.27296661,5.98942032 4.94861799,5.5983933 C5.258519,5.41911985 5.36496874,5.02134372 5.18650271,4.70997035 C5.00796669,4.39866729 4.61205206,4.29173595 4.30208106,4.4710094 C2.88723039,5.28969146 2.59027692,6.17277135 2.59027692,6.76943556 C2.59027692,7.63887661 3.19356208,8.87748035 6.06784494,9.83979208 C8.08920016,10.5166724 10.763881,10.8893502 13.5992513,10.8893502 C16.4346215,10.8893502 19.1093724,10.5166724 21.1307276,9.83979208 C24.0050105,8.87748035 24.6082956,7.63887661 24.6082956,6.76943556 C24.6082956,6.17277135 24.3114121,5.28976176 22.8965615,4.4710094 Z" id="Shape"></path>
                                <g id="Group">
                                    <path d="M22.8965615,4.4710094 C22.5866604,4.29166565 22.1907458,4.39859698 22.0121398,4.70997035 C21.8336738,5.02134372 21.9401235,5.41911985 22.2500245,5.5983933 C22.9256759,5.98942032 23.3131921,6.41623172 23.3131921,6.76943556 C23.3131921,7.21600219 22.6343214,7.96494337 20.7211656,8.60554714 C18.8285158,9.23933149 16.2992673,9.58831713 13.5993213,9.58831713 C10.8993752,9.58831713 8.37019667,9.23926119 6.47747696,8.60554714 C4.56432115,7.96494337 3.88545037,7.21607249 3.88545037,6.76943556 C3.88545037,6.41623172 4.27296661,5.98942032 4.94861799,5.5983933 C5.258519,5.41911985 5.36496874,5.02134372 5.18650271,4.70997035 C5.00796669,4.39866729 4.61205206,4.29173595 4.30208106,4.4710094 C2.88723039,5.28969146 2.59027692,6.17277135 2.59027692,6.76943556 C2.59027692,7.63887661 3.19356208,8.87748035 6.06784494,9.83979208 C8.08920016,10.5166724 10.763881,10.8893502 13.5992513,10.8893502 C16.4346215,10.8893502 19.1093724,10.5166724 21.1307276,9.83979208 C24.0050105,8.87748035 24.6082956,7.63887661 24.6082956,6.76943556 C24.6082956,6.17277135 24.3114121,5.28976176 22.8965615,4.4710094 Z" id="Shape"></path>
                                    <path d="M25.1506924,2.86443812 C24.3342978,2.21806948 23.2574128,1.66836788 21.9499916,1.23051886 C19.6715054,0.467587324 16.7060299,0.0474547352 13.5993912,0.0474547352 C10.4927526,0.0474547352 7.52727712,0.467587324 5.24879085,1.23051886 C3.94143972,1.66836788 2.86448472,2.21806948 2.04809013,2.86443812 C0.355322362,4.20441924 0,5.72761078 0,6.76943556 C0,7.81133063 0.355322362,9.33445188 2.04802014,10.674433 C2.86441474,11.3208016 3.94129974,11.8705032 5.24872086,12.3083523 C7.52720714,13.0712838 10.4926826,13.4914164 13.5993213,13.4914164 C16.7059599,13.4914164 19.6714354,13.0712838 21.9499217,12.3083523 C23.2572728,11.8705032 24.3342278,11.3208016 25.1506224,10.674433 C26.8433202,9.33445188 27.1986425,7.81126033 27.1986425,6.76943556 C27.1987125,5.72761078 26.8433901,4.20441924 25.1506924,2.86443812 Z M24.348925,9.65264466 C23.650388,10.2057911 22.7054278,10.6839942 21.5402896,11.0741776 C19.3904389,11.7940835 16.5702557,12.1904536 13.5993213,12.1904536 C10.6283868,12.1904536 7.80813366,11.7940835 5.65835289,11.0741776 C4.49321468,10.6839942 3.54832455,10.2057208 2.84971753,9.65264466 C1.56483212,8.63556666 1.29517345,7.52336827 1.29517345,6.76943556 C1.29517345,6.01550284 1.56483212,4.90330446 2.84971753,3.88622645 C3.54825456,3.3331503 4.49321468,2.85487687 5.65835289,2.46469349 C7.80820365,1.74478758 10.6283868,1.34841751 13.5993213,1.34841751 C16.5702557,1.34841751 19.3905089,1.74478758 21.5402896,2.46469349 C22.7054278,2.85480657 23.650318,3.33308 24.348925,3.88622645 C25.6338104,4.90330446 25.9034691,6.01550284 25.9034691,6.76943556 C25.9034691,7.52336827 25.6338804,8.63556666 24.348925,9.65264466 Z" id="Shape"></path>
                                </g>
                            </g>
                        </g>
                    </g>
                </g>
            </g>
        </g>
    </g>
</svg>