<?xml version="1.0" encoding="UTF-8"?>
<svg width="56px" height="53px" viewBox="0 0 56 53" version="1.1" xmlns="http://www.w3.org/2000/svg" xmlns:xlink="http://www.w3.org/1999/xlink">
    <!-- Generator: Sketch 48.2 (47327) - http://www.bohemiancoding.com/sketch -->
    <title>sugar-blood-level</title>
    <desc>Created with Sketch.</desc>
    <defs>
        <filter x="-9.3%" y="-30.0%" width="118.6%" height="174.3%" filterUnits="objectBoundingBox" id="filter-1">
            <feOffset dx="0" dy="2" in="SourceAlpha" result="shadowOffsetOuter1"></feOffset>
            <feGaussianBlur stdDeviation="5" in="shadowOffsetOuter1" result="shadowBlurOuter1"></feGaussianBlur>
            <feColorMatrix values="0 0 0 0 0   0 0 0 0 0   0 0 0 0 0  0 0 0 0.2 0" type="matrix" in="shadowBlurOuter1" result="shadowMatrixOuter1"></feColorMatrix>
            <feMerge>
                <feMergeNode in="shadowMatrixOuter1"></feMergeNode>
                <feMergeNode in="SourceGraphic"></feMergeNode>
            </feMerge>
        </filter>
    </defs>
    <g id="Doanças-Crônicas---1-/-3" stroke="none" stroke-width="1" fill="none" fill-rule="evenodd" transform="translate(-442.000000, -209.000000)">
        <g id="Content" transform="translate(435.000000, 145.000000)" fill="#575957" fill-rule="nonzero" stroke="#575957" stroke-width="0.4">
            <g id="Tipos-de-Cancer" transform="translate(0.000000, 54.000000)">
                <g id="Diabetes" filter="url(#filter-1)">
                    <g id="Rectangle-9">
                        <g id="sugar-blood-level" transform="translate(18.000000, 18.000000)">
                            <path d="M31.8064516,6.03225806 C31.4050323,6.03225806 31.0337742,6.14851613 30.7096774,6.33716129 L30.7096774,5.48387097 C30.7096774,4.27412903 29.725871,3.29032258 28.516129,3.29032258 C28.0615161,3.29032258 27.6387097,3.4296129 27.2882903,3.66706452 C26.9883226,2.81212903 26.1821935,2.19354839 25.2258065,2.19354839 C24.2694194,2.19354839 23.4627419,2.81212903 23.1633226,3.66706452 C22.8129032,3.4296129 22.3900968,3.29032258 21.9354839,3.29032258 C20.9160323,3.29032258 20.0649355,3.99225806 19.8198065,4.93548387 L16.235,4.93548387 C15.972871,3.9226129 15.4776774,3.00516129 14.8064516,2.24235484 L14.8064516,2.19354839 L14.7620323,2.19354839 C13.5566774,0.851096774 11.8133548,0 9.87096774,0 L2.74193548,0 C1.23003226,0 0,1.23003226 0,2.74193548 L0,10.4193548 C0,11.9312581 1.23003226,13.1612903 2.74193548,13.1612903 L9.87096774,13.1612903 C11.8133548,13.1612903 13.5566774,12.3101935 14.7620323,10.9677419 L14.8064516,10.9677419 L14.8064516,10.9189355 C15.4776774,10.156129 15.972871,9.23867742 16.235,8.22580645 L19.7419355,8.22580645 L19.7419355,18.418129 L19.1935484,17.8697419 L19.1935484,15.0806452 C19.1935484,13.7200968 18.0863548,12.6129032 16.7258065,12.6129032 C15.3652581,12.6129032 14.2580645,13.7200968 14.2580645,15.0806452 L14.2580645,20.4301613 L17.1211935,25.6787742 C17.4984839,26.3708387 18.0699032,26.9225161 18.7745806,27.2745806 L19.7419355,27.7582581 L19.7419355,34 L20.8387097,34 L20.8387097,27.0804516 L19.2648387,26.2935161 C18.7619677,26.0418065 18.3534194,25.6480645 18.0841613,25.1539677 L15.3548387,20.1504839 L15.3548387,15.0806452 C15.3548387,14.3244194 15.9695806,13.7096774 16.7258065,13.7096774 C17.4820323,13.7096774 18.0967742,14.3244194 18.0967742,15.0806452 L18.0967742,18.3238065 L19.5149032,19.7419355 L20.8387097,19.7419355 L20.8387097,8.22580645 L21.9354839,8.22580645 L21.9354839,4.93548387 L20.9911613,4.93548387 C21.1814516,4.60919355 21.5313226,4.38709677 21.9354839,4.38709677 C22.5398065,4.38709677 23.0322581,4.87954839 23.0322581,5.48387097 L23.0322581,14.8064516 L24.1290323,14.8064516 L24.1290323,5.48387097 L24.1290323,4.38709677 C24.1290323,3.78277419 24.6209355,3.29032258 25.2258065,3.29032258 C25.830129,3.29032258 26.3225806,3.78277419 26.3225806,4.38709677 L26.3225806,5.48387097 L26.3225806,6.03225806 L26.3225806,14.8064516 L27.4193548,14.8064516 L27.4193548,6.03225806 L27.4193548,5.48387097 C27.4193548,4.87954839 27.9112581,4.38709677 28.516129,4.38709677 C29.1204516,4.38709677 29.6129032,4.87954839 29.6129032,5.48387097 L29.6129032,8.22580645 L29.6129032,8.77419355 L29.6129032,14.8064516 L30.7096774,14.8064516 L30.7096774,8.77419355 L30.7096774,8.22580645 C30.7096774,7.62148387 31.2015806,7.12903226 31.8064516,7.12903226 C32.4107742,7.12903226 32.9032258,7.62148387 32.9032258,8.22580645 L32.9032258,24.6774194 C32.9032258,25.7226452 32.3224839,26.6625806 31.3874839,27.1298065 L30.7096774,27.4687097 L30.7096774,34 L31.8064516,34 L31.8064516,28.1465161 L31.8782903,28.110871 C33.1872903,27.4566452 34,26.1410645 34,24.6774194 L34,8.22580645 C34,7.01606452 33.0161935,6.03225806 31.8064516,6.03225806 Z M9.87096774,12.0645161 L2.74193548,12.0645161 C1.83490323,12.0645161 1.09677419,11.3263871 1.09677419,10.4193548 L1.09677419,2.74193548 C1.09677419,1.83490323 1.83490323,1.09677419 2.74193548,1.09677419 L9.87096774,1.09677419 C11.0999032,1.09677419 12.2317742,1.50806452 13.1470323,2.19354839 L12.6129032,2.19354839 C11.705871,2.19354839 10.9677419,2.93167742 10.9677419,3.83870968 L10.9677419,9.32258065 C10.9677419,10.2296129 11.705871,10.9677419 12.6129032,10.9677419 L13.1470323,10.9677419 C12.2317742,11.6532258 11.0999032,12.0645161 9.87096774,12.0645161 Z M14.2476452,9.87096774 L12.6129032,9.87096774 C12.3101935,9.87096774 12.0645161,9.62529032 12.0645161,9.32258065 L12.0645161,3.83870968 C12.0645161,3.536 12.3101935,3.29032258 12.6129032,3.29032258 L14.2476452,3.29032258 C14.9391613,4.20832258 15.3548387,5.34567742 15.3548387,6.58064516 C15.3548387,7.8156129 14.9391613,8.95296774 14.2476452,9.87096774 Z M20.8387097,7.12903226 L16.4236452,7.12903226 C16.439,6.94751613 16.4516129,6.76545161 16.4516129,6.58064516 C16.4516129,6.39583871 16.439,6.21377419 16.4236452,6.03225806 L20.8387097,6.03225806 L20.8387097,7.12903226 Z" id="Shape"></path>
                            <path d="M22.8797457,17.85 L22.1,18.6152002 L23.4703451,19.9599828 C24.6157,21.0850544 25.2471065,22.5791972 25.2471065,24.1696664 L25.2471065,26.35 L26.35,26.35 L26.35,24.1696664 C26.35,22.2902177 25.6038926,20.5238715 24.2500908,19.1953237 L22.8797457,17.85 Z" id="Shape"></path>
                            <path d="M2.55,11.05 L10.2,11.05 L10.2,2.55 L2.55,2.55 L2.55,11.05 Z M3.64285714,3.6125 L9.10714286,3.6125 L9.10714286,9.9875 L3.64285714,9.9875 L3.64285714,3.6125 Z" id="Shape"></path>
                            <rect id="Rectangle-path" x="4.25" y="7.65" width="1" height="1"></rect>
                            <rect id="Rectangle-path" x="6.8" y="7.65" width="1" height="1"></rect>
                        </g>
                    </g>
                </g>
            </g>
        </g>
    </g>
</svg>