<?xml version="1.0" encoding="UTF-8"?>
<svg width="54px" height="54px" viewBox="0 0 54 54" version="1.1" xmlns="http://www.w3.org/2000/svg" xmlns:xlink="http://www.w3.org/1999/xlink">
    <!-- Generator: Sketch 48.2 (47327) - http://www.bohemiancoding.com/sketch -->
    <title>brain</title>
    <desc>Created with Sketch.</desc>
    <defs>
        <filter x="-9.3%" y="-30.0%" width="118.6%" height="174.3%" filterUnits="objectBoundingBox" id="filter-1">
            <feOffset dx="0" dy="2" in="SourceAlpha" result="shadowOffsetOuter1"></feOffset>
            <feGaussianBlur stdDeviation="5" in="shadowOffsetOuter1" result="shadowBlurOuter1"></feGaussianBlur>
            <feColorMatrix values="0 0 0 0 0   0 0 0 0 0   0 0 0 0 0  0 0 0 0.2 0" type="matrix" in="shadowBlurOuter1" result="shadowMatrixOuter1"></feColorMatrix>
            <feMerge>
                <feMergeNode in="shadowMatrixOuter1"></feMergeNode>
                <feMergeNode in="SourceGraphic"></feMergeNode>
            </feMerge>
        </filter>
    </defs>
    <g id="Doanças-Crônicas---2-/-3" stroke="none" stroke-width="1" fill="none" fill-rule="evenodd" transform="translate(-443.000000, -389.000000)">
        <g id="Content" transform="translate(435.000000, 145.000000)" fill="#575957" fill-rule="nonzero" stroke="#575957" stroke-width="0.3">
            <g id="Tipos-de-Cancer" transform="translate(0.000000, 54.000000)">
                <g id="AVC" filter="url(#filter-1)" transform="translate(0.000000, 180.000000)">
                    <g id="Rectangle-9">
                        <g id="brain" transform="translate(18.000000, 18.000000)">
                            <path d="M28.7274478,6.27313598 C27.5246029,3.42597809 24.7347475,1.54550065 21.6363571,1.54550065 C21.283197,1.54550065 20.9503935,1.57867958 20.6621425,1.62018946 C19.4072111,0.572734982 17.8466423,0 16.2272497,0 C13.9113169,0 11.7470799,1.18176395 10.4604908,3.1165737 C10.3239356,3.10150554 10.1865835,3.09092885 10.0454644,3.09092885 C5.3585421,3.09092885 1.5454282,6.90397031 1.5454282,11.5908926 C1.5454282,12.2753348 1.64431301,12.9741208 1.84650164,13.7144166 C0.6813996,14.7368782 0,16.216673 0,17.7726779 C0,20.5123302 2.05535504,22.7587177 4.70046918,23.1100666 C4.68090954,23.2632837 4.63635705,23.4112849 4.63635705,23.5681242 C4.63635705,26.0893607 7.23025393,28.1626091 10.5871938,28.5175802 L9.30219843,33.0152088 C9.23576813,33.2484031 9.28256636,33.4989112 9.42824939,33.6928413 C9.57465685,33.886047 9.80328721,34 10.0455369,34 L13.9090712,34 C14.2478874,34 14.547512,33.7789037 14.6471212,33.4551556 C15.6900118,30.0805397 18.1945864,24.7272859 20.4772678,24.7272859 C24.7959619,24.7272859 28.6595687,22.0559474 30.2042724,18.0428906 C32.489272,17.0845411 34,14.8470641 34,12.3636429 C33.9999276,9.30212599 31.7217376,6.71837114 28.7274478,6.27313598 Z M13.3476373,32.4544994 L11.0701718,32.4544994 L12.1864472,28.5473543 C13.3419867,28.4751286 14.4202295,28.2146957 15.3454725,27.7832972 C14.3597395,29.6085006 13.6692846,31.4978161 13.3476373,32.4544994 Z M11.5908926,27.045392 C8.65919367,27.045392 6.18178525,25.4531655 6.18178525,23.5681242 C6.18178525,23.4415661 6.22039741,23.3207311 6.24205789,23.1971432 C9.83059825,23.2736431 11.9393438,23.8158071 12.3892154,24.1522327 C12.4760022,24.4827905 12.7778725,24.7272859 13.1363208,24.7272859 C13.5634452,24.7272859 13.9090712,24.38166 13.9090712,23.9545356 C13.9090712,22.2445167 9.94085662,21.7816054 7.09471293,21.6693911 C8.07436069,20.727124 9.74011685,20.0909288 11.5908926,20.0909288 C14.5225916,20.0909288 17,21.6831553 17,23.5681966 C17,25.4531655 14.5225916,27.045392 11.5908926,27.045392 Z M29.343214,16.7192831 C29.1205964,16.7970145 28.9455015,16.9728338 28.8685669,17.1961759 C28.5732165,18.0508593 28.1494245,18.8332446 27.6341369,19.5372464 C27.0384374,17.1977696 24.9312132,15.4544994 22.4091074,15.4544994 C21.981983,15.4544994 21.6363571,15.8001253 21.6363571,16.2272497 C21.6363571,16.6543741 21.981983,17 22.4091074,17 C22.9464177,17 23.4578658,17.1112726 23.9232402,17.3104186 C23.7650245,18.8685243 22.4628601,20.0931746 20.8659249,20.0931746 C20.4388005,20.0931746 20.0931746,20.4388005 20.0931746,20.8659249 C20.0931746,21.2930493 20.4388005,21.6386752 20.8659249,21.6386752 C22.9626449,21.6386752 24.7181581,20.2284983 25.2879953,18.3125237 C25.8932573,18.9947926 26.2727865,19.8821479 26.2727865,20.8636792 C26.2727865,20.9029433 26.289376,20.9364845 26.2950266,20.9741549 C24.7134493,22.3533986 22.6718584,23.1817853 20.4772678,23.1817853 C19.8010116,23.1817853 19.1246106,23.0810169 18.4551641,22.9233083 C18.0114503,20.4605334 15.1201021,18.5454282 11.5908926,18.5454282 C8.7154095,18.5454282 6.24234767,19.8122403 5.18475116,21.6136099 C3.1604742,21.4947308 1.5454282,19.8262218 1.5454282,17.7726779 C1.5454282,16.5283231 2.15815176,15.3511231 3.18445286,14.6244466 C3.21103947,14.6056114 3.21603805,14.5713458 3.23965449,14.5497577 C3.2709499,14.535414 3.30470837,14.532299 3.33462737,14.5135362 C4.17670571,13.9776747 5.16932078,13.7993199 6.14483928,13.9886861 C5.96865771,15.7158015 5.03421444,17 3.86360673,17 C3.43648233,17 3.09085641,17.3456259 3.09085641,17.7727503 C3.09085641,18.1998747 3.43648233,18.5455006 3.86360673,18.5455006 C5.75241512,18.5455006 7.23445563,16.9149518 7.62093946,14.6033656 C8.03372012,14.8914717 8.38977786,15.2606417 8.66824905,15.6983428 C8.81538094,15.9292913 9.06516468,16.0560667 9.32096119,16.0560667 C9.46280474,16.0560667 9.60624204,16.0168025 9.73526316,15.9353041 C10.0952328,15.7058768 10.2016517,15.2282596 9.97222447,14.86829 C9.19650398,13.64958 7.99286223,12.8059079 6.58246792,12.4927365 C5.44315562,12.2397653 4.28609476,12.375089 3.23769853,12.83829 C3.14895575,12.4083403 3.09085641,11.9909233 3.09085641,11.5910375 C3.09085641,7.88861664 6.00661789,4.88106977 9.6584735,4.6756212 C9.30777655,5.68641948 9.22924825,6.74032139 9.35182194,7.76683982 C7.50503053,7.95272876 6.18178525,8.86775729 6.18178525,10.0456093 C6.18178525,10.4727337 6.52741118,10.8183596 6.95453558,10.8183596 C7.38165997,10.8183596 7.7272859,10.4727337 7.7272859,10.0456093 C7.7272859,9.86899308 8.44852919,9.38543553 9.71831148,9.30371974 C10.2422198,10.7601154 11.2215054,12.0617726 12.6488514,12.918412 C12.773381,12.9931009 12.9107331,13.028598 13.045767,13.028598 C13.3083731,13.028598 13.5641697,12.8950129 13.7090558,12.6535602 C13.9286308,12.2875777 13.8101863,11.8129307 13.4442039,11.5933557 C10.945135,10.0934942 10.1097214,6.884628 11.5037436,4.35238018 C11.5109879,4.34086173 11.5252592,4.33687736 11.5320688,4.32492425 C12.4949098,2.61019658 14.2946857,1.5454282 16.2272497,1.5454282 C17.5817904,1.5454282 18.8857658,2.06462775 19.899172,3.00638778 C20.0765127,3.17242731 20.3232538,3.24255221 20.5586938,3.2018392 C20.9933523,3.12483221 21.3261558,3.09092885 21.6362846,3.09092885 C23.8815854,3.09092885 25.919047,4.33397964 26.9972898,6.26487746 C25.064436,6.52502056 23.4260633,7.66867945 22.4876357,9.28865158 C22.4604695,9.2858263 22.436998,9.27278654 22.4090349,9.27278654 C20.9133751,9.27278654 20.0908564,8.69251748 20.0908564,8.50003622 C20.0908564,8.07291183 19.7452305,7.7272859 19.3181061,7.7272859 C18.8909817,7.7272859 18.5454282,8.07283939 18.5454282,8.49996378 C18.5454282,9.70889388 19.9420583,10.6366724 21.8654221,10.7872816 C21.7308953,11.2936587 21.6362846,11.8155386 21.6362846,12.3635705 C21.6362846,12.7906949 21.9819105,13.1363208 22.4090349,13.1363208 C22.8361593,13.1363208 23.1817853,12.7906949 23.1817853,12.3635705 C23.1817853,9.80690937 25.2614812,7.72721346 27.8181423,7.72721346 C27.8675485,7.72721346 27.9105797,7.70808848 27.9573779,7.69917798 C28.0150426,7.71728875 28.0624928,7.75763955 28.1245041,7.76191369 C30.2766431,7.90498877 32.00825,9.51126916 32.3758262,11.557931 C29.4192792,11.3976145 27.8181423,10.4552749 27.8181423,10.0454644 C27.8181423,9.61834003 27.4725164,9.2727141 27.045392,9.2727141 C26.6182676,9.2727141 26.2726417,9.61834003 26.2726417,10.0454644 C26.2726417,11.9105839 29.230565,12.947172 32.3924156,13.104301 C32.121551,14.7478171 30.9649248,16.1503876 29.343214,16.7192831 Z" id="Shape"></path>
                            <path d="M15.7246306,9.28569976 C16.3936558,8.33527309 16.8172119,6.86916307 16.8172119,5.1411467 C16.8172119,4.72435863 16.490171,4.38709677 16.0860139,4.38709677 C15.6818568,4.38709677 15.3548159,4.72435863 15.3548159,5.1411467 C15.3548159,7.44224667 14.488716,8.91125498 13.8924884,8.91125498 C13.4883313,8.91125498 13.1612903,9.24851683 13.1612903,9.66530491 C13.1612903,10.082093 13.4883313,10.4193548 13.8924884,10.4193548 C16.3116728,10.4193548 18.2795394,12.7874689 18.2795394,15.697563 C18.2795394,16.114351 18.6065804,16.4516129 19.0107375,16.4516129 C19.4148945,16.4516129 19.7419355,16.114351 19.7419355,15.697563 C19.7418669,12.7022168 18.0496305,10.1836038 15.7246306,9.28569976 Z" id="Shape"></path>
                            <path d="M15.7201787,15.9023771 C14.2816525,15.9023771 13.5273846,15.2923952 13.5273846,15.0810695 C13.5273846,14.6261677 13.200238,14.2580645 12.7959503,14.2580645 C12.3916627,14.2580645 12.0645161,14.6261677 12.0645161,15.0810695 C12.0645161,16.510816 13.6016457,17.5483871 15.7201787,17.5483871 C16.1244663,17.5483871 16.4516129,17.1802839 16.4516129,16.7253821 C16.4516129,16.2704803 16.1244663,15.9023771 15.7201787,15.9023771 Z" id="Shape"></path>
                        </g>
                    </g>
                </g>
            </g>
        </g>
    </g>
</svg>