<?xml version="1.0" encoding="UTF-8"?>
<svg width="54px" height="47px" viewBox="0 0 54 47" version="1.1" xmlns="http://www.w3.org/2000/svg" xmlns:xlink="http://www.w3.org/1999/xlink">
    <!-- Generator: Sketch 48.2 (47327) - http://www.bohemiancoding.com/sketch -->
    <title>Shape</title>
    <desc>Created with Sketch.</desc>
    <defs>
        <filter x="-9.3%" y="-30.0%" width="118.6%" height="174.3%" filterUnits="objectBoundingBox" id="filter-1">
            <feOffset dx="0" dy="2" in="SourceAlpha" result="shadowOffsetOuter1"></feOffset>
            <feGaussianBlur stdDeviation="5" in="shadowOffsetOuter1" result="shadowBlurOuter1"></feGaussianBlur>
            <feColorMatrix values="0 0 0 0 0   0 0 0 0 0   0 0 0 0 0  0 0 0 0.2 0" type="matrix" in="shadowBlurOuter1" result="shadowMatrixOuter1"></feColorMatrix>
            <feMerge>
                <feMergeNode in="shadowMatrixOuter1"></feMergeNode>
                <feMergeNode in="SourceGraphic"></feMergeNode>
            </feMerge>
        </filter>
    </defs>
    <g id="Doanças-Crônicas---2-/-3" stroke="none" stroke-width="1" fill="none" fill-rule="evenodd" transform="translate(-733.000000, -303.000000)">
        <g id="Content" transform="translate(435.000000, 145.000000)" fill="#575957" fill-rule="nonzero" stroke="#575957" stroke-width="0.4">
            <g id="Tipos-de-Cancer" transform="translate(0.000000, 54.000000)">
                <g id="Infarto" filter="url(#filter-1)" transform="translate(290.000000, 90.000000)">
                    <g id="Rectangle-9">
                        <path d="M52,31.2016484 C52,32.1750585 51.8415846,33.1353588 51.5341574,34.0585143 C50.089973,40.6378638 37.601919,48.5970304 37.0706125,48.9357029 C36.9046018,49.0394896 36.7183371,49.09375 36.5284556,49.09375 C36.3389358,49.09375 36.1501394,49.0456804 35.9841287,48.9357029 C35.8412655,48.8421127 32.3228517,46.6065104 28.7556113,43.5336953 C28.3284684,43.1629764 28.2836202,42.5235046 28.6420441,42.0952478 C29.0091484,41.6706327 29.6435334,41.6189214 30.0713997,41.9798079 C32.730464,44.2671214 35.4177393,46.1163458 36.5335191,46.8614252 C40.2841308,44.3993129 48.5640491,38.1353294 49.5789205,33.5155459 C49.8440312,32.6994546 49.963747,31.9572885 49.963747,31.2038333 C49.963747,28.5811248 48.5456035,26.1634405 46.261962,24.8968784 C43.3457439,23.2676091 39.442142,24.0188792 37.3085973,26.6084489 C36.9252175,27.0760353 36.1367572,27.0760353 35.7461439,26.6084489 C33.606089,24.0170584 29.7053805,23.2716149 26.7931409,24.8939651 C24.5022658,26.1634405 23.0841223,28.5796681 23.0841223,31.1998275 C23.0841223,31.9481844 23.2099866,32.6936279 23.4443546,33.41358 C23.5948131,34.0872832 23.8827096,34.7460558 24.2490905,35.4295915 L30.1647129,35.4295915 L32.1962641,30.7285994 C32.3702317,30.3261983 32.7858009,30.0731044 33.2133055,30.1182607 C33.6487671,30.1564979 34.0118929,30.4718639 34.1088228,30.9001206 L35.6043657,37.2664343 L37.5389869,34.0723525 C37.7212731,33.769004 38.049316,33.5836445 38.4037615,33.5836445 L42.0751654,33.5836445 C42.6339595,33.5836445 43.0882284,34.0392136 43.0882284,34.604396 C43.0882284,35.1666651 42.6339595,35.6247833 42.0751654,35.6247833 L38.9726826,35.6247833 L36.0582729,40.4448569 C35.8723698,40.7522113 35.5446886,40.9357499 35.1963917,40.9357499 C35.1410548,40.9357499 35.0875263,40.9313799 35.0379763,40.9237325 C34.6296407,40.8578188 34.308108,40.5548344 34.210093,40.1524333 L32.8433079,34.3534871 L31.7633343,36.8563857 C31.6020254,37.232567 31.2363679,37.4700019 30.8330958,37.4700019 L19.0134247,37.4700019 C18.458609,37.4696377 18,37.0129762 18,36.4496146 C18,35.8873455 18.458609,35.4292273 19.0134247,35.4292273 L21.9853414,35.4292273 C21.7744825,34.9226753 21.6041317,34.431054 21.4985214,33.9554559 C21.2156884,33.1295321 21.0626981,32.1677752 21.0626981,31.1994634 C21.0626981,27.8338604 22.880497,24.7351897 25.8176925,23.1059203 C29.2196456,21.2111754 33.7214646,21.8069476 36.5327958,24.4668009 C39.3365317,21.8065834 43.8350956,21.2111754 47.2428356,23.1059203 C50.1764143,24.7330047 52,27.8338604 52,31.2016484 Z" id="Shape"></path>
                    </g>
                </g>
            </g>
        </g>
    </g>
</svg>