<?xml version="1.0" encoding="UTF-8"?>
<svg width="53px" height="51px" viewBox="0 0 53 51" version="1.1" xmlns="http://www.w3.org/2000/svg" xmlns:xlink="http://www.w3.org/1999/xlink">
    <!-- Generator: Sketch 48.2 (47327) - http://www.bohemiancoding.com/sketch -->
    <title>inhaler</title>
    <desc>Created with Sketch.</desc>
    <defs>
        <filter x="-9.3%" y="-30.0%" width="118.6%" height="174.3%" filterUnits="objectBoundingBox" id="filter-1">
            <feOffset dx="0" dy="2" in="SourceAlpha" result="shadowOffsetOuter1"></feOffset>
            <feGaussianBlur stdDeviation="5" in="shadowOffsetOuter1" result="shadowBlurOuter1"></feGaussianBlur>
            <feColorMatrix values="0 0 0 0 0   0 0 0 0 0   0 0 0 0 0  0 0 0 0.2 0" type="matrix" in="shadowBlurOuter1" result="shadowMatrixOuter1"></feColorMatrix>
            <feMerge>
                <feMergeNode in="shadowMatrixOuter1"></feMergeNode>
                <feMergeNode in="SourceGraphic"></feMergeNode>
            </feMerge>
        </filter>
    </defs>
    <g id="Doanças-Crônicas---2-/-3" stroke="none" stroke-width="1" fill="none" fill-rule="evenodd" transform="translate(-443.000000, -486.000000)">
        <g id="Content" transform="translate(435.000000, 145.000000)" fill="#575957" fill-rule="nonzero" stroke="#575957" stroke-width="0.3">
            <g id="Tipos-de-Cancer" transform="translate(0.000000, 54.000000)">
                <g id="Asma" filter="url(#filter-1)" transform="translate(0.000000, 275.000000)">
                    <g id="Rectangle-9">
                        <g id="inhaler" transform="translate(18.000000, 20.000000)">
                            <path d="M33.2854082,24 L29.7156632,24 C29.3212047,24 29,24.2239974 29,24.5 C29,24.7760026 29.3201334,25 29.7145918,25 L33.2854082,25 C33.6798666,25 34,24.7760026 34,24.5 C34,24.2239974 33.6798666,24 33.2854082,24 Z" id="Shape"></path>
                            <path d="M31.7894159,19.2111681 C31.5067309,18.9296106 31.0493666,18.9296106 30.7666815,19.2111681 L28.2120138,21.7665261 C27.9293287,22.0480836 27.9293287,22.5053774 28.2120138,22.7880189 C28.4936824,23.0706604 28.9510468,23.0706604 29.2336641,22.7880189 L31.7873154,20.2337449 C32.0700005,19.9521874 32.0710846,19.4927256 31.7894159,19.2111681 Z" id="Shape"></path>
                            <path d="M31.7888319,29.7665265 L29.2355741,27.2135125 C28.9529326,26.930778 28.4935386,26.9275929 28.2119811,27.2114117 C27.9293396,27.4930619 27.9293396,27.9505062 28.2119811,28.2332407 L30.7652389,30.7883555 C31.0478804,31.0700057 31.5062582,31.07109 31.7888319,30.7883555 C32.0703894,30.5067054 32.0703894,30.049261 31.7888319,29.7665265 Z" id="Shape"></path>
                            <path d="M17.3929688,19.480262 L12.9333333,2.22542848 L11.8276042,2.5329032 L11.4492188,1.06789246 C11.2833984,0.424524378 10.721875,0 10.1084635,0 C9.98945312,0 9.86835938,0.015795628 9.7483724,0.0495469699 L1.69882813,2.28557337 C0.958268229,2.49179407 0.517773438,3.28123796 0.7171875,4.04962101 L1.09557292,5.51463175 L0,5.81886635 L6.50839844,31 L20.372526,31 L21.9147135,31 L25,31 L25,19.480262 L17.3929688,19.480262 Z M2.39361979,3.58337997 C2.49329427,3.96780775 2.87376302,4.19562931 3.24401042,4.09282272 C3.61432292,3.98947611 3.83502604,3.59499043 3.73535156,3.21110267 L3.73535156,3.21056265 L4.40572917,3.02439024 C4.50540365,3.40834551 4.8858724,3.63663959 5.25611979,3.533833 C5.62740885,3.43048639 5.84713542,3.03600071 5.74746094,2.65157292 L6.4188151,2.46540052 C6.51751302,2.84935578 6.89791667,3.07710984 7.26920573,2.97430325 C7.63951823,2.87149667 7.85917969,2.47701098 7.75950521,2.0925832 L8.43085938,1.9064108 C8.52955729,2.29036606 8.9110026,2.51812012 9.28125,2.41531353 C9.6514974,2.31250694 9.87122396,1.91802126 9.77259115,1.53359347 L10.1072917,1.44023726 L10.4867188,2.90578803 L2.43736979,5.14174693 L2.05794271,3.67673618 L2.39361979,3.58337997 Z M20.372526,29.5603028 L7.5734375,29.5603028 L1.70084635,6.83721183 L11.9516927,3.98940861 L16.0858073,19.9864646 L14.0065104,22.1423653 C13.7348958,22.4229065 13.7348958,22.8785496 14.0065104,23.1601708 C14.278125,23.441792 14.7175781,23.441792 14.988151,23.1601708 L17.1488281,20.9198917 L20.372526,20.9198917 L20.372526,29.5603028 Z M23.6114583,29.5603028 L21.9147135,29.5603028 L21.9147135,20.9199592 L23.6114583,20.9199592 L23.6114583,29.5603028 Z" id="Shape"></path>
                        </g>
                    </g>
                </g>
            </g>
        </g>
    </g>
</svg>