<?xml version="1.0" encoding="UTF-8"?>
<svg width="56px" height="52px" viewBox="0 0 56 52" version="1.1" xmlns="http://www.w3.org/2000/svg" xmlns:xlink="http://www.w3.org/1999/xlink">
    <!-- Generator: Sketch 48.2 (47327) - http://www.bohemiancoding.com/sketch -->
    <title>sex-symbol</title>
    <desc>Created with Sketch.</desc>
    <defs>
        <filter x="-9.3%" y="-30.0%" width="118.6%" height="174.3%" filterUnits="objectBoundingBox" id="filter-1">
            <feOffset dx="0" dy="2" in="SourceAlpha" result="shadowOffsetOuter1"></feOffset>
            <feGaussianBlur stdDeviation="5" in="shadowOffsetOuter1" result="shadowBlurOuter1"></feGaussianBlur>
            <feColorMatrix values="0 0 0 0 0   0 0 0 0 0   0 0 0 0 0  0 0 0 0.2 0" type="matrix" in="shadowBlurOuter1" result="shadowMatrixOuter1"></feColorMatrix>
            <feMerge>
                <feMergeNode in="shadowMatrixOuter1"></feMergeNode>
                <feMergeNode in="SourceGraphic"></feMergeNode>
            </feMerge>
        </filter>
    </defs>
    <g id="Doanças-Crônicas---2-/-3" stroke="none" stroke-width="1" fill="none" fill-rule="evenodd" transform="translate(-442.000000, -580.000000)">
        <g id="Content" transform="translate(435.000000, 145.000000)" fill="#575957" fill-rule="nonzero" stroke="#575957" stroke-width="0.3">
            <g id="Tipos-de-Cancer" transform="translate(0.000000, 54.000000)">
                <g id="DST" filter="url(#filter-1)" transform="translate(0.000000, 370.000000)">
                    <g id="Rectangle-9">
                        <g id="sex-symbol" transform="translate(17.000000, 19.000000)">
                            <path d="M21,21 C20.585775,21 20.25,21.3384466 20.25,21.751721 C20.25,22.1649955 20.585775,22.5 21,22.5 C21.414225,22.5 21.75,22.1649955 21.75,21.751721 L21.75,21.7448369 C21.75,21.3316372 21.414225,21 21,21 Z" id="Shape"></path>
                            <path d="M35.296875,0 L27,0 C26.6116641,0 26.296875,0.314589243 26.296875,0.702678676 L26.296875,3.48746454 C26.296875,3.87555397 26.6116641,4.19014322 27,4.19014322 L28.4378203,4.19014322 L26.557875,6.06889519 C24.8266406,4.94334449 22.8293437,4.35147824 20.7443672,4.35147824 C20.2653984,4.35147824 19.7851641,4.38541762 19.3125234,4.4486587 C17.3662031,1.79436027 14.2251328,0.0673166172 10.6875,0.0673166172 C4.79439844,0.0673166172 0,4.85867171 0,10.7480325 C0,13.2849836 0.905554688,15.7439374 2.54995313,17.6720174 C4.04557031,19.4256925 6.0688125,20.6494075 8.296875,21.1594819 L8.296875,25.363749 L6.1875,25.363749 C5.79916406,25.363749 5.484375,25.6783382 5.484375,26.0664276 L5.484375,29.1582138 C5.484375,29.5463033 5.79916406,29.8608925 6.1875,29.8608925 L8.296875,29.8608925 L8.296875,31.5473213 C8.296875,31.9354108 8.61166406,32.25 9,32.25 L12.375,32.25 C12.7633359,32.25 13.078125,31.9354108 13.078125,31.5473213 L13.078125,29.8608925 L15.1875,29.8608925 C15.5758359,29.8608925 15.890625,29.5463033 15.890625,29.1582138 L15.890625,26.0664276 C15.890625,25.6783382 15.5758359,25.363749 15.1875,25.363749 L13.078125,25.363749 L13.078125,22.4736316 C15.0736641,24.5273505 17.8268906,25.71291 20.7443672,25.71291 C26.6374688,25.71291 31.4318672,20.9215549 31.4318672,15.0321941 C31.4318672,13.0659586 30.8995312,11.1652128 29.8872422,9.49909142 L31.8062109,7.58134078 L31.8062109,8.99281143 C31.8062109,9.38090087 32.121,9.69549011 32.5093359,9.69549011 L35.296875,9.69549011 C35.6852109,9.69549011 36,9.38090087 36,8.99281143 L36,0.702678676 C36,0.314589243 35.6852109,0 35.296875,0 Z M12.2570156,19.8907253 C11.9190938,19.9482044 11.671875,20.2408701 11.671875,20.5834259 L11.671875,26.0664276 C11.671875,26.4545171 11.9866641,26.7691063 12.375,26.7691063 L14.484375,26.7691063 L14.484375,28.4555351 L12.375,28.4555351 C11.9866641,28.4555351 11.671875,28.7701244 11.671875,29.1582138 L11.671875,30.8446426 L9.703125,30.8446426 L9.703125,29.1582138 C9.703125,28.7701244 9.38833594,28.4555351 9,28.4555351 L6.890625,28.4555351 L6.890625,26.7691063 L9,26.7691063 C9.38833594,26.7691063 9.703125,26.4545171 9.703125,26.0664276 L9.703125,20.5834259 C9.703125,20.2408701 9.45590625,19.9482044 9.11798438,19.8907253 C4.64948438,19.1304972 1.40625,15.2854395 1.40625,10.7480325 C1.40625,5.63358575 5.56980469,1.47267397 10.6875,1.47267397 C15.8051953,1.47267397 19.96875,5.63358575 19.96875,10.7480325 C19.96875,15.2855098 16.7255156,19.1305675 12.2570156,19.8907253 Z M34.59375,8.29013276 L33.2124609,8.29013276 L33.2124609,5.88493392 C33.2124609,5.60077066 33.0411094,5.34450375 32.7784219,5.23572909 C32.5156641,5.12695443 32.21325,5.18710372 32.0121563,5.38799956 L28.4916797,8.90624142 C28.2524063,9.14536297 28.2175313,9.52094473 28.4086406,9.8000487 C29.4664922,11.3444662 30.0256875,13.1537232 30.0256875,15.0321239 C30.0256875,20.1465706 25.8621328,24.3074824 20.7444375,24.3074824 C17.9904375,24.3074824 15.4049063,23.0907943 13.649625,21.011287 C14.1848438,20.8569085 14.706,20.6607909 15.2087344,20.4258151 C16.1263125,21.3660694 17.2636172,22.0577863 18.5209453,22.4343518 C18.5882344,22.4545187 18.6562266,22.4640751 18.7230938,22.4640751 C19.0255781,22.4640751 19.3050703,22.2673954 19.3963359,21.9629247 C19.5077813,21.5912077 19.2966328,21.1995346 18.9246797,21.0880898 C18.0203906,20.8172774 17.1915469,20.346834 16.4939063,19.7137908 C17.3594531,19.1535451 18.1467422,18.4674496 18.8252578,17.6719471 C20.4694453,15.7439374 21.375,13.2849133 21.375,10.7480325 C21.375,10.0549103 21.3077813,9.37724694 21.1810078,8.72052345 C24.4674141,8.94545089 27.0725625,11.6889192 27.0725625,15.0293131 C27.0725625,17.8017319 25.2186328,20.2932899 22.564125,21.0882303 C22.1921016,21.1996049 21.9809531,21.591278 22.0924688,21.9630652 C22.1837344,22.2675359 22.4631563,22.4642157 22.7657109,22.4642157 C22.8325078,22.4642157 22.9005,22.454589 22.9678594,22.4344924 C24.5284453,21.9671408 25.9314609,20.9909093 26.9185781,19.6855431 C27.939375,18.3356974 28.4788828,16.7255795 28.4788828,15.0293834 C28.4788828,10.7871014 25.0412344,7.33259252 20.8036406,7.30062065 C20.6231484,6.77311976 20.4020859,6.2643804 20.1448125,5.77749435 C20.3444297,5.76477586 20.5446094,5.75683559 20.7445078,5.75683559 C22.7316094,5.75683559 24.6268125,6.37575497 26.2251563,7.54662845 C26.505,7.75159982 26.8926328,7.72194678 27.1380234,7.47678219 L30.632625,3.9843989 C30.8337188,3.7834328 30.8938359,3.48114043 30.7849922,3.21861968 C30.6761484,2.95602866 30.4197891,2.78485613 30.135375,2.78485613 L27.703125,2.78485613 L27.703125,1.40535735 L34.59375,1.40535735 L34.59375,8.29013276 Z" id="Shape"></path>
                            <path d="M6.52262339,5.46101256 C6.22760492,5.17503647 5.75743092,5.18057343 5.46929596,5.4725354 C5.46660241,5.47522906 5.46323547,5.47867095 5.46106567,5.48091566 C5.17337964,5.77759153 5.18071208,6.25130021 5.47737661,6.53899724 C5.62267863,6.67981539 5.81047888,6.75 5.99812948,6.75 C6.19161611,6.75 6.38487827,6.6754008 6.53115296,6.52702545 C6.53369687,6.52440662 6.53683935,6.5211892 6.53893433,6.51909414 C6.82662036,6.22241827 6.81928792,5.74870959 6.52262339,5.46101256 Z" id="Shape"></path>
                            <path d="M10.875,3 C9.70248409,3 8.573925,3.25171364 7.52067955,3.74819659 C7.16301136,3.91679318 7.00973523,4.34333182 7.17833182,4.701 C7.34692841,5.05859659 7.77346705,5.21187273 8.13113523,5.04334773 C8.99201591,4.63757045 9.91510909,4.43181818 10.875,4.43181818 C12.5384148,4.43181818 14.0565716,5.06546932 15.2009523,6.10403864 C12.1185341,8.10192614 10.2329011,11.5357841 10.2329011,15.2398261 C10.2329011,15.9348307 10.2998386,16.6253966 10.4297045,17.3025034 C7.08390341,17.072983 4.43181818,14.2780739 4.43181818,10.875 C4.43181818,9.96901705 4.61587841,9.09338864 4.97884432,8.27245568 C5.13870682,7.91085 4.97519318,7.48803409 4.6135875,7.32817159 C4.25198182,7.16830909 3.82916591,7.33182273 3.66930341,7.69342841 C3.225225,8.69792045 3,9.76834773 3,10.875 C3,15.217275 6.532725,18.75 10.875,18.75 C15.217275,18.75 18.75,15.217275 18.75,10.875 C18.75,6.532725 15.217275,3 10.875,3 Z M11.8778455,17.239933 C11.7370261,16.5857352 11.6646477,15.9152864 11.6646477,15.2397545 C11.6647193,11.9518705 13.3762432,8.90975795 16.1593398,7.19300795 C16.4592341,7.62212386 16.7081557,8.08925455 16.8975136,8.58559432 C14.6343818,10.0242136 13.2397193,12.5469341 13.2397193,15.2368909 C13.2397193,15.7648023 13.2930545,16.290208 13.3967182,16.8038727 C12.9172739,17.0085511 12.4081909,17.1566727 11.8778455,17.239933 Z M14.7214364,16.0409284 C14.6883614,15.7750398 14.6715375,15.5064307 14.6715375,15.2368909 C14.6715375,13.1980534 15.6513307,11.2769114 17.2678534,10.068958 C17.3009284,10.3330568 17.3181818,10.6020239 17.3181818,10.8749284 C17.3181818,12.9871466 16.296508,14.8651193 14.7214364,16.0409284 Z" id="Shape"></path>
                        </g>
                    </g>
                </g>
            </g>
        </g>
    </g>
</svg>