<?xml version="1.0" encoding="UTF-8"?>
<svg width="56px" height="56px" viewBox="0 0 56 56" version="1.1" xmlns="http://www.w3.org/2000/svg" xmlns:xlink="http://www.w3.org/1999/xlink">
    <!-- Generator: Sketch 48.2 (47327) - http://www.bohemiancoding.com/sketch -->
    <title>pregnancy-test</title>
    <desc>Created with Sketch.</desc>
    <defs>
        <filter x="-9.3%" y="-30.0%" width="118.6%" height="174.3%" filterUnits="objectBoundingBox" id="filter-1">
            <feOffset dx="0" dy="2" in="SourceAlpha" result="shadowOffsetOuter1"></feOffset>
            <feGaussianBlur stdDeviation="5" in="shadowOffsetOuter1" result="shadowBlurOuter1"></feGaussianBlur>
            <feColorMatrix values="0 0 0 0 0   0 0 0 0 0   0 0 0 0 0  0 0 0 0.2 0" type="matrix" in="shadowBlurOuter1" result="shadowMatrixOuter1"></feColorMatrix>
            <feMerge>
                <feMergeNode in="shadowMatrixOuter1"></feMergeNode>
                <feMergeNode in="SourceGraphic"></feMergeNode>
            </feMerge>
        </filter>
    </defs>
    <g id="Doanças-Crônicas---2-/-3" stroke="none" stroke-width="1" fill="none" fill-rule="evenodd" transform="translate(-732.000000, -208.000000)">
        <g id="Content" transform="translate(435.000000, 145.000000)" fill="#575957" fill-rule="nonzero" stroke="#575957" stroke-width="0.25">
            <g id="Tipos-de-Cancer" transform="translate(0.000000, 54.000000)">
                <g id="Diabetes-Gestação" filter="url(#filter-1)" transform="translate(290.000000, 0.000000)">
                    <g id="Rectangle-9">
                        <g id="pregnancy-test" transform="translate(17.000000, 17.000000)">
                            <path d="M28.5542967,4.75191435 L24.2482577,0.445984784 C23.9511221,0.148281021 23.561435,0 23.1723188,0 C22.7826317,0 22.3930159,0.148281021 22.0958804,0.445984784 L7.02602824,15.5157036 C5.83919871,16.7020231 5.4433748,18.3789259 5.83584488,19.8941324 L0.656310166,25.0731218 L0.656881031,25.0731218 C-0.225605788,25.9785066 -0.218898118,27.4267798 0.676932684,28.3221031 C1.12848735,28.7736538 1.71997545,29 2.31146354,29 C2.89403186,29 3.47717104,28.7803614 3.92594274,28.3421546 L3.92651361,28.3432963 L9.10554881,23.1643069 C9.48232009,23.2612819 9.86865337,23.3115176 10.2549866,23.3115176 C11.424048,23.3115176 12.5925385,22.8655328 13.4845159,21.9735633 L28.5542967,6.90377309 C29.1485678,6.30950729 29.1485678,5.34618016 28.5542967,4.75191435 Z M2.90016866,27.2160609 L2.86284833,27.2528814 C2.71456599,27.3978086 2.51890182,27.4770155 2.31146354,27.4770155 C2.10074278,27.4770155 1.90229564,27.3955965 1.75344244,27.2462451 C1.44959924,26.9418337 1.4462454,26.4446142 1.74673477,26.136849 L1.78077263,26.1011703 L6.51660208,21.3659536 C6.66659701,21.5800263 6.83550186,21.7829672 7.02617096,21.9736346 C7.21684006,22.164302 7.42028228,22.3337762 7.63385736,22.483199 L2.90016866,27.2160609 Z M12.4080062,20.8976339 C11.8327164,21.4729186 11.0683987,21.7896034 10.2549866,21.7896034 C9.44214543,21.7896034 8.67732827,21.4729186 8.102538,20.8976339 C7.52724822,20.3223492 7.21056054,19.5585378 7.21056054,18.7446334 C7.21056054,17.9317994 7.52724822,17.166989 8.102538,16.591633 L11.3314964,13.3627031 L15.6374641,17.668704 L12.4080062,20.8976339 Z M16.7139738,16.591633 L12.4080062,12.2867738 L18.8664225,5.82784372 L23.1723901,10.1338446 L16.7139738,16.591633 Z M24.2482577,9.05684491 L19.9428609,4.75198571 L23.1723188,1.52198551 L27.4777869,5.82791508 L24.2482577,9.05684491 Z" id="Shape"></path>
                            <path d="M35.5542879,11.7519377 L31.2482502,7.44598698 C30.9511148,7.14828175 30.5614278,7 30.1723117,7 C29.782696,7 29.393009,7.14828175 29.0958736,7.44598698 L14.0260261,22.5157799 C12.8391969,23.7021053 12.4433731,25.3790163 12.8358431,26.8942303 L7.65630996,32.0731025 L7.65688083,32.0731025 C6.77439428,32.9784917 6.78110195,34.426772 7.67693248,35.3220998 C8.12848701,35.7736527 8.71997492,36 9.31146283,36 C9.89460183,36 10.47717,35.7803603 10.9259415,35.3421514 L10.9265124,35.3432931 L16.1060455,30.1642782 C16.4823172,30.2612536 16.8686503,30.3114183 17.2549835,30.3114183 C18.4240445,30.3114183 19.5925346,29.8654313 20.4845118,28.9736 L35.5543593,13.9037357 C36.1485588,13.3095383 36.1485588,12.3462778 35.5542879,11.7519377 Z M9.89952555,34.2172652 L9.86270473,34.2529441 C9.71442244,34.3978721 9.51875833,34.4770793 9.31132011,34.4770793 C9.10059942,34.4770793 8.90215234,34.39566 8.75329919,34.2463078 C8.44952744,33.941895 8.4461736,33.444673 8.74659152,33.1369063 L8.77948764,33.1023691 L13.5164574,28.3661301 C13.6663809,28.5802038 13.8352857,28.7831458 14.0259547,28.9738141 C14.2166238,29.1644825 14.4200659,29.3339575 14.6336409,29.483381 L9.89952555,34.2172652 Z M19.407931,27.8977367 C18.8326414,28.4730242 18.068324,28.7897107 17.2549121,28.7897107 C16.4421425,28.7897107 15.6772542,28.4730242 15.1024641,27.8977367 C13.9149928,26.7102696 13.9149928,24.7791817 15.1024641,23.5917146 L18.3314216,20.3627689 L22.6373879,24.668791 L19.407931,27.8977367 Z M23.7133265,23.591786 L19.407931,19.2869056 L25.8663453,12.8278724 L30.1723117,17.1338945 L23.7133265,23.591786 Z M31.2482502,16.0568181 L26.9428547,11.7519377 L30.1723117,8.52192164 L34.4777785,12.8278724 L31.2482502,16.0568181 Z" id="Shape"></path>
                            <path d="M20.757035,10.5854937 L18.4142569,8.24305272 C18.0908473,7.91898243 17.5659668,7.91898243 17.2425572,8.24305272 C16.9191476,8.56588018 16.9191476,9.09020293 17.2425572,9.41427323 L19.5859567,11.7578794 C19.9093663,12.0807069 20.4336254,12.0807069 20.757035,11.7578794 C21.0809883,11.4338868 21.0809883,10.909564 20.757035,10.5854937 Z" id="Shape"></path>
                            <path d="M18.757451,12.5855761 L16.4142089,10.2421065 C16.0908102,9.91929784 15.5659476,9.91929784 15.242549,10.2421065 C14.9191503,10.5661579 14.9191503,11.0903724 15.242549,11.4144239 L17.5857911,13.7578935 C17.9091898,14.0807022 18.4340524,14.0807022 18.757451,13.7578935 C19.0808497,13.4338421 19.0808497,12.9096276 18.757451,12.5855761 Z" id="Shape"></path>
                            <path d="M27.7569803,18.5854937 L25.4142363,16.2430527 C25.0902101,15.9189824 24.5659586,15.9189824 24.2425537,16.2430527 C23.9191488,16.5658802 23.9191488,17.0902029 24.2425537,17.4142732 L26.585919,19.7578794 C26.9093239,20.0807069 27.4335754,20.0807069 27.7569803,19.7578794 C28.0810066,19.4338091 28.0810066,18.9094864 27.7569803,18.5854937 Z" id="Shape"></path>
                        </g>
                    </g>
                </g>
            </g>
        </g>
    </g>
</svg>