<?xml version="1.0" encoding="UTF-8"?>
<svg width="50px" height="50px" viewBox="0 0 50 50" version="1.1" xmlns="http://www.w3.org/2000/svg" xmlns:xlink="http://www.w3.org/1999/xlink">
    <!-- Generator: Sketch 48.2 (47327) - http://www.bohemiancoding.com/sketch -->
    <title>smile</title>
    <desc>Created with Sketch.</desc>
    <defs>
        <filter x="-9.3%" y="-30.0%" width="118.6%" height="174.3%" filterUnits="objectBoundingBox" id="filter-1">
            <feOffset dx="0" dy="2" in="SourceAlpha" result="shadowOffsetOuter1"></feOffset>
            <feGaussianBlur stdDeviation="5" in="shadowOffsetOuter1" result="shadowBlurOuter1"></feGaussianBlur>
            <feColorMatrix values="0 0 0 0 0   0 0 0 0 0   0 0 0 0 0  0 0 0 0.2 0" type="matrix" in="shadowBlurOuter1" result="shadowMatrixOuter1"></feColorMatrix>
            <feMerge>
                <feMergeNode in="shadowMatrixOuter1"></feMergeNode>
                <feMergeNode in="SourceGraphic"></feMergeNode>
            </feMerge>
        </filter>
    </defs>
    <g id="Doanças-Crônicas---1-/-3" stroke="none" stroke-width="1" fill="none" fill-rule="evenodd" transform="translate(-445.000000, -391.000000)">
        <g id="Content" transform="translate(435.000000, 145.000000)" fill="#575957" fill-rule="nonzero">
            <g id="Tipos-de-Cancer" transform="translate(0.000000, 54.000000)">
                <g id="Nenhuma" filter="url(#filter-1)" transform="translate(0.000000, 180.000000)">
                    <g id="Rectangle-9">
                        <g id="smile" transform="translate(20.000000, 20.000000)">
                            <path d="M15,0 C6.729,0 0,6.729 0,15 C0,23.271 6.729,30 15,30 C23.271,30 30,23.271 30,15 C30,6.729 23.2710909,0 15,0 Z M15,27.2727273 C8.23281818,27.2727273 2.72727273,21.7672727 2.72727273,15 C2.72727273,8.23272727 8.23281818,2.72727273 15,2.72727273 C21.7671818,2.72727273 27.2727273,8.23281818 27.2727273,15 C27.2727273,21.7671818 21.7671818,27.2727273 15,27.2727273 Z" id="XMLID_86_"></path>
                            <path d="M15.46875,16.875 C15.4686575,16.875 15.4688425,16.875 15.46875,16.875 C13.3203152,16.875 11.3002983,17.7053524 9.78119453,19.2130155 C9.23960182,19.7504049 9.23960182,20.6218621 9.78119453,21.1593433 C10.0519909,21.4280838 10.4069199,21.5625 10.761849,21.5625 C11.116778,21.5625 11.4717071,21.4280838 11.742411,21.1593433 C12.7377656,20.171545 14.0611452,19.6276412 15.46875,19.6276412 C16.8763548,19.6276412 18.1997344,20.1716368 19.195089,21.1593433 C19.7365893,21.6967327 20.6147128,21.6967327 21.1563055,21.1593433 C21.6978982,20.6219538 21.6978982,19.7504967 21.1563055,19.2130155 C19.6371093,17.7053524 17.6172773,16.875 15.46875,16.875 Z" id="XMLID_89_" transform="translate(15.468750, 19.218750) scale(1, -1) translate(-15.468750, -19.218750) "></path>
                            <path d="M10.700625,13.513125 C11.0503125,13.164375 11.25,12.680625 11.25,12.1875 C11.25,11.694375 11.0503125,11.210625 10.700625,10.8617812 C10.351875,10.513125 9.868125,10.3125 9.375,10.3125 C8.8809375,10.3125 8.398125,10.513125 8.049375,10.8617812 C7.700625,11.210625 7.5,11.694375 7.5,12.1875 C7.5,12.680625 7.700625,13.164375 8.049375,13.513125 C8.398125,13.861875 8.881875,14.0625 9.375,14.0625 C9.868125,14.0625 10.351875,13.861875 10.700625,13.513125 Z" id="XMLID_90_"></path>
                            <path d="M20.625,10.3125 C20.1309375,10.3125 19.648125,10.513125 19.299375,10.8617812 C18.9496875,11.210625 18.75,11.694375 18.75,12.1875 C18.75,12.680625 18.9496875,13.164375 19.299375,13.513125 C19.648125,13.861875 20.131875,14.0625 20.625,14.0625 C21.118125,14.0625 21.601875,13.8617813 21.950625,13.513125 C22.3003125,13.164375 22.5,12.680625 22.5,12.1875 C22.5,11.694375 22.3003125,11.210625 21.950625,10.8617812 C21.601875,10.513125 21.118125,10.3125 20.625,10.3125 Z" id="XMLID_91_"></path>
                        </g>
                    </g>
                </g>
            </g>
        </g>
    </g>
</svg>