<?xml version="1.0" encoding="UTF-8"?>
<svg width="119px" height="384px" viewBox="0 0 119 384" version="1.1" xmlns="http://www.w3.org/2000/svg" xmlns:xlink="http://www.w3.org/1999/xlink">
    <!-- Generator: Sketch 47.1 (45422) - http://www.bohemiancoding.com/sketch -->
    <title>Japan</title>
    <desc>Created with Sketch.</desc>
    <defs></defs>
    <g id="Questions" stroke="none" stroke-width="1" fill="none" fill-rule="evenodd">
        <g id="Demograficos---1-/-3" transform="translate(-356.000000, -421.000000)">
            <g id="Carachter" transform="translate(98.000000, 164.000000)">
                <g id="Person" transform="translate(0.000000, 162.000000)">
                    <g id="Boy" transform="translate(0.829685, 59.644613)">
                        <g id="Japan" transform="translate(257.202290, 35.229530)">
                            <g id="Group" transform="translate(73.918976, 97.595601)" fill-rule="nonzero">
                                <path d="M2.38183367,0.332219686 C31.3744988,0.332219686 44.926311,50.3312824 43.9407247,127.406249 L27.6785499,127.406249 C27.6785499,127.406249 27.1857568,61.6267517 9.93799568,36.4611105 C9.93799568,25.6639707 -5.58498931,4.73413052 2.38183367,0.332219686 Z" id="Shape" fill="#EF9221"></path>
                                <path d="M27.6785499,127.406249 C27.6785499,127.406249 21.4365031,135.462577 26.9393602,138.784774 C30.7995734,144.349453 43.0372705,144.681673 43.9407247,138.784774 C44.8441788,132.887874 43.9407247,127.406249 43.9407247,127.406249 L27.6785499,127.406249 Z" id="Shape" fill="#EFC7B0"></path>
                            </g>
                            <path d="M42.4623452,97.9278205 C13.4696801,97.9278205 -0.0821321957,147.926883 0.903454153,225.00185 L17.1656289,225.00185 C17.1656289,225.00185 17.6584221,159.222352 34.9061832,134.056711 C34.9061832,123.259572 50.5113003,102.329731 42.4623452,97.9278205 Z" id="Shape" fill="#EF9221" fill-rule="nonzero"></path>
                            <path d="M76.6293386,97.9278205 L42.5444774,97.9278205 C34.0848612,97.9278205 27.267889,104.821379 27.267889,113.376036 L27.267889,210.550294 L91.905927,210.550294 L91.905927,113.376036 C91.8237948,104.821379 85.0068225,97.9278205 76.6293386,97.9278205 Z" id="Shape" fill="#FAA21B" fill-rule="nonzero"></path>
                            <path d="M48.1294667,71.1010808 L48.1294667,100.170303 C48.1294667,105.734983 52.5646052,110.219949 58.0674624,110.219949 C63.5703195,110.219949 68.005458,105.734983 68.005458,100.170303 L68.005458,71.1010808 L48.1294667,71.1010808 Z" id="Shape" fill="#EED2C2" fill-rule="nonzero"></path>
                            <g id="Group" transform="translate(18.890405, 45.271000)" fill-rule="nonzero">
                                <g transform="translate(42.537697, 0.000000)" id="Shape">
                                    <path d="M28.8351808,0.415274607 L0.00678008703,0.415274607 L0.00678008703,18.1890278 L28.8351808,18.1890278 C32.5311296,18.1890278 35.5700208,15.1159957 35.5700208,11.3785242 L35.5700208,7.14272324 C35.5700208,3.4883067 32.6132618,0.415274607 28.8351808,0.415274607 Z" fill="#EED2C2"></path>
                                    <path d="M3.29206791,14.9498859 L3.29206791,3.73747146 L28.8351808,3.73747146 C30.7242213,3.73747146 32.284733,5.31551497 32.284733,7.22577816 L32.284733,11.4615792 C32.284733,13.3718424 30.7242213,14.9498859 28.8351808,14.9498859 L3.29206791,14.9498859 Z" fill="#D0A58B"></path>
                                </g>
                                <g id="Shape">
                                    <path d="M6.89910444,0.415274607 L35.7275051,0.415274607 L35.7275051,18.1890278 L6.89910444,18.1890278 C3.20315563,18.1890278 0.164264391,15.1159957 0.164264391,11.3785242 L0.164264391,7.14272324 C0.164264391,3.4883067 3.20315563,0.415274607 6.89910444,0.415274607 Z" fill="#EED2C2"></path>
                                    <path d="M32.5243495,14.9498859 L32.5243495,3.73747146 L6.98123663,3.73747146 C5.09219613,3.73747146 3.53168441,5.31551497 3.53168441,7.22577816 L3.53168441,11.4615792 C3.53168441,13.3718424 5.09219613,14.9498859 6.98123663,14.9498859 L32.5243495,14.9498859 Z" fill="#D0A58B"></path>
                                </g>
                            </g>
                            <path d="M48.1294667,92.9445252 C51.0040935,94.190349 53.9608526,94.9378433 57.081876,94.9378433 L57.081876,94.9378433 C60.859957,94.9378433 64.5559058,93.8581293 67.9233258,92.030921 L67.9233258,71.1841358 L48.1294667,71.1841358 L48.1294667,92.9445252 Z" id="Shape" fill="#D2AD98" fill-rule="nonzero"></path>
                            <path d="M64.3916414,5.40463799 L51.7432833,5.40463799 C38.3557354,5.40463799 27.4321534,16.3678876 27.4321534,29.9888947 L27.4321534,61.383655 C27.4321534,71.1010808 41.14823,92.3631407 58.0674624,92.3631407 L58.0674624,92.3631407 C74.9866947,92.3631407 88.7027713,71.1841358 88.7027713,61.383655 L88.7027713,29.9888947 C88.7027713,16.3678876 77.7791893,5.40463799 64.3916414,5.40463799 Z" id="Shape" fill="#EED2C2" fill-rule="nonzero"></path>
                            <path d="M53.7965882,63.3769731 C53.7965882,62.7955887 56.0141575,64.0414125 57.9853302,64.0414125 C60.2028994,64.0414125 62.1740721,62.7955887 62.1740721,63.3769731 C62.1740721,64.539742 60.2850316,65.5364011 57.9853302,65.5364011 C55.6856287,65.5364011 53.7965882,64.539742 53.7965882,63.3769731 Z" id="Shape" fill="#D0A58B" fill-rule="nonzero"></path>
                            <path d="M68.2518546,72.014685 L47.8009379,72.014685 C46.4868228,72.014685 45.747633,73.5096736 46.4868228,74.5063326 C49.0329208,78.1607492 53.2216628,80.486287 57.9853302,80.486287 L57.9853302,80.486287 C62.7489975,80.486287 66.9377395,78.1607492 69.4838376,74.5063326 C70.3051595,73.4266186 69.5659697,72.014685 68.2518546,72.014685 Z" id="Shape" fill="#F2F2F4" fill-rule="nonzero"></path>
                            <polygon id="Shape" fill="#201B16" fill-rule="nonzero" transform="translate(59.172010, 26.832808) scale(-1, 1) translate(-59.172010, -26.832808) " points="38.7621596 18.112041 61.4306456 28.1616865 59.048812 20.5206337 87.0558907 34.5569154 89.9305175 53.4103826 92.4766156 53.4103826 92.4766156 26.3344782 92.4766156 16.2848327 76.7893662 1.50105668 43.3615626 0.255232862 25.8674049 6.9826815 25.8674049 29.9888947 28.9062961 51.4170645 31.2059976 51.4170645 33.2593025 28.5769611"></polygon>
                            <rect id="Rectangle-4" fill="#D0A58B" transform="translate(45.091021, 46.367944) rotate(20.000000) translate(-45.091021, -46.367944) " x="37.1803157" y="45.5684967" width="15.8214109" height="1.59889462" rx="0.79944731"></rect>
                            <rect id="Rectangle-4-Copy" fill="#D0A58B" transform="translate(70.405279, 46.367944) scale(-1, 1) rotate(20.000000) translate(-70.405279, -46.367944) " x="62.4945732" y="45.5684967" width="15.8214109" height="1.59889462" rx="0.79944731"></rect>
                            <path d="M27.4321534,210.550294 L27.4321534,374.666819 L53.6323238,374.666819 L53.6323238,237.958418 C53.6323238,234.636221 56.3426862,231.895409 59.6279741,231.895409 C62.9132619,231.895409 65.6236244,234.636221 65.6236244,237.958418 L65.6236244,374.583764 L91.8237948,374.583764 L91.8237948,210.550294 L27.4321534,210.550294 Z" id="Shape" fill="#1980BB" fill-rule="nonzero"></path>
                            <g id="Group" transform="translate(26.111258, 365.032448)" fill-rule="nonzero">
                                <rect id="Rectangle-path" fill="#A15D45" x="0.00678008703" y="13.787117" width="28.0892109" height="5.23246005"></rect>
                                <path d="M16.5153514,0.166109843 L11.6695519,0.166109843 C5.26324061,0.166109843 0.0889122827,5.39856989 0.0889122827,11.8768538 L0.0889122827,13.787117 L28.095991,13.787117 L28.095991,11.8768538 C28.095991,5.39856989 22.9216627,0.166109843 16.5153514,0.166109843 Z" id="Shape" fill="#64301B"></path>
                            </g>
                            <g id="Group" transform="translate(64.063113, 365.032448)" fill-rule="nonzero">
                                <rect id="Rectangle-path" fill="#A15D45" x="0.492793174" y="13.787117" width="28.0892109" height="5.23246005"></rect>
                                <path d="M17.0013645,0.166109843 L12.155565,0.166109843 C5.7492537,0.166109843 0.57492537,5.39856989 0.57492537,11.8768538 L0.57492537,13.787117 L28.6641363,13.787117 L28.6641363,11.8768538 C28.5820041,5.39856989 23.4076758,0.166109843 17.0013645,0.166109843 Z" id="Shape" fill="#64301B"></path>
                            </g>
                            <path d="M17.1656289,225.00185 C17.1656289,225.00185 23.4076758,233.058178 17.9048187,236.380374 C14.0446055,241.945054 1.80690831,242.277274 0.903454153,236.380374 C8.21565038e-14,230.483475 0.903454153,225.00185 0.903454153,225.00185 L17.1656289,225.00185 Z" id="Shape" fill="#EFC7B0" fill-rule="nonzero"></path>
                        </g>
                    </g>
                </g>
            </g>
        </g>
    </g>
</svg>