<?xml version="1.0" encoding="UTF-8"?>
<svg width="132px" height="409px" viewBox="0 0 132 409" version="1.1" xmlns="http://www.w3.org/2000/svg" xmlns:xlink="http://www.w3.org/1999/xlink">
    <!-- Generator: Sketch 47.1 (45422) - http://www.bohemiancoding.com/sketch -->
    <title>Girl Copy</title>
    <desc>Created with Sketch.</desc>
    <defs></defs>
    <g id="Questions" stroke="none" stroke-width="1" fill="none" fill-rule="evenodd">
        <g id="Demograficos---2-/-4-Mulher" transform="translate(-342.000000, -273.000000)">
            <g id="Carachter" transform="translate(29.000000, 190.000000)">
                <g id="Person">
                    <g id="Girl" transform="translate(0.000000, 12.000000)">
                        <g id="Girl-Copy" transform="translate(313.000000, 71.000000)">
                            <path d="M103,104 L103,10.5316761 C103,4.73818496 98.2539267,0.00683385013 92.4424084,0.00683385013 L53.8926702,0.00683385013 C49.8246073,0.00683385013 29,-0.896334691 29,18.0632146 L29,104 L103,104 Z" id="Shape" fill="#2B2B2B" fill-rule="nonzero"></path>
                            <rect id="Rectangle-path" fill="#000000" fill-rule="nonzero" x="34" y="57" width="62" height="57"></rect>
                            <g id="Group" transform="translate(32.000000, 234.000000)" fill-rule="nonzero">
                                <rect id="Rectangle-path" fill="#EFC7B0" x="3.4658125" y="0.675550273" width="18.0029705" height="164.158716"></rect>
                                <rect id="Rectangle-path" fill="#EFC7B0" x="47.0772865" y="0.675550273" width="18.0029705" height="164.158716"></rect>
                                <g transform="translate(0.000000, 157.306707)">
                                    <rect id="Rectangle-path" fill="#8E2E1D" x="0" y="12.738948" width="24.8383229" height="4.63234473"></rect>
                                    <path d="M14.6334306,0.772057455 L10.3011649,0.772057455 C4.62108334,0.772057455 0,5.40440219 0,11.0983259 L0,12.738948 L24.8383229,12.738948 L24.8383229,11.0983259 C24.8383229,5.307895 20.2172396,0.772057455 14.6334306,0.772057455 Z" id="Shape" fill="#EA6025"></path>
                                    <path d="M13.9595226,4.05330164 L10.8788004,4.05330164 C6.73907986,4.05330164 3.4658125,7.43105301 3.4658125,11.4843546 L3.4658125,12.738948 L21.468783,12.738948 L21.468783,11.4843546 C21.468783,7.43105301 18.0992431,4.05330164 13.9595226,4.05330164 Z" id="Shape" fill="#EFC7B0"></path>
                                </g>
                                <g transform="translate(43.322656, 157.306707)">
                                    <rect id="Rectangle-path" fill="#8E2E1D" x="0.288817708" y="12.738948" width="24.8383229" height="4.63234473"></rect>
                                    <path d="M14.9222483,0.772057455 L10.5899826,0.772057455 C4.90990104,0.772057455 0.288817708,5.40440219 0.288817708,11.0983259 L0.288817708,12.738948 L25.1271406,12.738948 L25.1271406,11.0983259 C25.1271406,5.307895 20.6023299,0.772057455 14.9222483,0.772057455 Z" id="Shape" fill="#EA6025"></path>
                                    <path d="M14.2483403,4.05330164 L11.1676181,4.05330164 C7.02789757,4.05330164 3.75463021,7.43105301 3.75463021,11.4843546 L3.75463021,12.738948 L21.7576007,12.738948 L21.7576007,11.4843546 C21.7576007,7.43105301 18.3880608,4.05330164 14.2483403,4.05330164 Z" id="Shape" fill="#EFC7B0"></path>
                                </g>
                            </g>
                            <g id="Group" transform="translate(88.000000, 102.000000)" fill-rule="nonzero">
                                <g>
                                    <g>
                                        <polygon id="Rectangle-path" fill="#EED2C2" transform="translate(26.617989, 75.001149) rotate(-10.405296) translate(-26.617989, -75.001149) " points="18.5274545 23.1482536 34.7085236 23.1482536 34.6985102 126.854044 18.5274545 126.801932"></polygon>
                                        <rect id="Rectangle-path" fill="#66B4C9" transform="translate(19.998579, 41.123147) rotate(-10.405296) translate(-19.998579, -41.123147) " x="8.71942156" y="38.5727798" width="22.5583141" height="5.10073349"></rect>
                                        <path d="M28.3660423,38.1233947 C34.2677021,27.831868 32.7446931,14.7661036 25.2248363,5.72745836 C22.3691944,2.32677996 18.1809197,0.178983074 13.897457,0.268474611 C12.7552002,0.357966148 11.6129435,0.536949221 10.4706868,0.894915369 C6.37760011,2.14779689 3.33158215,5.54847529 1.90376123,9.75457752 C-1.80857317,20.7620366 1.80857317,33.4698348 11.2321912,41.0766154 C18.0857317,39.8237339 21.4173138,39.2867847 28.3660423,38.1233947 Z" id="Shape" fill="#66B4C9"></path>
                                    </g>
                                    <path d="M27.6599706,124.393236 C27.6599706,124.393236 21.6169456,132.367139 26.9443492,135.655346 C30.6814831,141.163093 42.5289926,141.491914 43.4036409,135.655346 C44.2782893,129.818778 43.6014358,124.637503 43.6014358,124.637503 C43.6014358,124.637503 27.6599706,124.393236 27.6599706,124.393236 Z" id="Shape" fill="#EED2C2"></path>
                                </g>
                            </g>
                            <g id="Group-Copy" transform="translate(22.000000, 172.000000) scale(-1, 1) translate(-22.000000, -172.000000) translate(0.000000, 102.000000)" fill-rule="nonzero">
                                <g id="Group">
                                    <g>
                                        <polygon id="Rectangle-path" fill="#EED2C2" transform="translate(26.617989, 75.001149) rotate(-10.405296) translate(-26.617989, -75.001149) " points="18.5274545 23.1482536 34.7085236 23.1482536 34.6985102 126.854044 18.5274545 126.801932"></polygon>
                                        <rect id="Rectangle-path" fill="#66B4C9" transform="translate(19.998579, 41.123147) rotate(-10.405296) translate(-19.998579, -41.123147) " x="8.71942156" y="38.5727798" width="22.5583141" height="5.10073349"></rect>
                                        <path d="M28.3660423,38.1233947 C34.2677021,27.831868 32.7446931,14.7661036 25.2248363,5.72745836 C22.3691944,2.32677996 18.1809197,0.178983074 13.897457,0.268474611 C12.7552002,0.357966148 11.6129435,0.536949221 10.4706868,0.894915369 C6.37760011,2.14779689 3.33158215,5.54847529 1.90376123,9.75457752 C-1.80857317,20.7620366 1.80857317,33.4698348 11.2321912,41.0766154 C18.0857317,39.8237339 21.4173138,39.2867847 28.3660423,38.1233947 Z" id="Shape" fill="#66B4C9"></path>
                                    </g>
                                    <path d="M27.6599706,124.393236 C27.6599706,124.393236 21.6169456,132.367139 26.9443492,135.655346 C30.6814831,141.163093 42.5289926,141.491914 43.4036409,135.655346 C44.2782893,129.818778 43.6014358,124.637503 43.6014358,124.637503 C43.6014358,124.637503 27.6599706,124.393236 27.6599706,124.393236 Z" id="Shape" fill="#EED2C2"></path>
                                </g>
                            </g>
                            <g id="Group" transform="translate(19.000000, 99.000000)" fill-rule="nonzero">
                                <path d="M65.5414205,0 L27.46042,0 C18.0836912,0 10.4292187,7.67466829 10.4292187,17.0761369 L10.4292187,108.98029 L82.5726218,108.98029 L82.5726218,17.0761369 C82.5726218,7.67466829 74.9181493,0 65.5414205,0 Z" id="Shape" fill="#80CAE4"></path>
                                <polygon id="Shape" fill="#EA6025" points="93.0018405 228.801048 0 228.801048 10.4292187 108.98029 82.5726218 108.98029"></polygon>
                            </g>
                            <path d="M65.5,121 C74.068323,121 81,114.259574 81,105.92766 C81,103.4 80.326087,101.059574 79.2670807,99 L51.7329193,99 C50.5776398,101.059574 50,103.493617 50,105.92766 C50,114.259574 56.931677,121 65.5,121 Z" id="Shape" fill="#EED2C2" fill-rule="nonzero"></path>
                            <g id="Group" transform="translate(55.000000, 87.000000)" fill-rule="nonzero">
                                <rect id="Rectangle-path" fill="#EED2C2" x="0.67615974" y="0.469494398" width="18.256313" height="22.7235289"></rect>
                                <path d="M0.67615974,10.2349779 C3.5739872,10.9861689 6.66500316,11.3617644 9.75601911,11.3617644 C12.9436293,11.3617644 15.938051,10.9861689 18.8358785,10.2349779 L18.8358785,0.375595519 L0.579565492,0.375595519 L0.579565492,10.2349779 L0.67615974,10.2349779 Z" id="Shape" fill="#D2AD98"></path>
                            </g>
                            <g id="Group" transform="translate(26.000000, 45.000000)" fill-rule="nonzero">
                                <g transform="translate(34.861082, 0.000000)" id="Shape">
                                    <path d="M36.0231183,0.466234021 L0.871527055,0.466234021 L0.871527055,21.1670245 L36.0231183,21.1670245 C40.5744262,21.1670245 44.2542071,17.623646 44.2542071,13.2410462 L44.2542071,8.39221237 C44.2542071,3.91636577 40.5744262,0.466234021 36.0231183,0.466234021 Z" fill="#EED2C2"></path>
                                    <path d="M4.84181697,17.2506588 L4.84181697,4.19610619 L36.0231183,4.19610619 C38.3471904,4.19610619 40.2839172,6.06104227 40.2839172,8.29896557 L40.2839172,13.1477994 C40.2839172,15.3857227 38.3471904,17.2506588 36.0231183,17.2506588 L4.84181697,17.2506588 L4.84181697,17.2506588 Z" fill="#D0A58B"></path>
                                </g>
                                <g id="Shape">
                                    <path d="M8.81210689,0.466234021 L43.9636981,0.466234021 L43.9636981,21.1670245 L8.81210689,21.1670245 C4.26079894,21.1670245 0.581018037,17.623646 0.581018037,13.2410462 L0.581018037,8.39221237 C0.581018037,3.91636577 4.26079894,0.466234021 8.81210689,0.466234021 Z" fill="#EED2C2"></path>
                                    <path d="M40.0902445,17.2506588 L40.0902445,4.19610619 L8.90894323,4.19610619 C6.58487109,4.19610619 4.6481443,6.06104227 4.6481443,8.29896557 L4.6481443,13.1477994 C4.6481443,15.3857227 6.58487109,17.2506588 8.90894323,17.2506588 L40.0902445,17.2506588 L40.0902445,17.2506588 Z" fill="#D0A58B"></path>
                                </g>
                            </g>
                            <path d="M50.0320156,27 C40.8384187,27 33.6351881,34.8387097 34.0143055,44.1290323 L35.1516577,67.1612903 C35.8151131,83.3225806 48.799884,96 64.6280354,96 C80.4561867,96 93.4409576,83.3225806 94.104413,67.1612903 L96,27 L50.0320156,27 Z" id="Shape" fill="#EED2C2" fill-rule="nonzero"></path>
                            <path d="M73.1699767,82 L57.7626683,82 C57.0156473,82 56.7355144,82.8695652 57.2957802,83.3043478 C59.5368432,84.9565217 62.4315496,86 65.5130113,86 C68.594473,86 71.4891794,84.9565217 73.7302424,83.3043478 C74.2905082,82.8695652 73.9169977,82 73.1699767,82 Z" id="Shape" fill="#F2F2F4" fill-rule="nonzero"></path>
                            <polygon id="Shape" fill="#C58C71" fill-rule="nonzero" points="65 66 65 73 62 72.0128205"></polygon>
                            <path d="M29,22 L29,39.237037 C29,44.0518519 35.0801603,48 42.49499,48 L103,48 L103,22 L29,22 Z" id="Shape" fill="#2B2B2B" fill-rule="nonzero"></path>
                            <rect id="Rectangle-4" fill="#D0A58B" transform="translate(53.000000, 54.000000) rotate(15.000000) translate(-53.000000, -54.000000) " x="46" y="53" width="14" height="2" rx="1"></rect>
                            <rect id="Rectangle-4-Copy" fill="#D0A58B" transform="translate(77.000000, 54.000000) scale(-1, 1) rotate(15.000000) translate(-77.000000, -54.000000) " x="70" y="53" width="14" height="2" rx="1"></rect>
                        </g>
                    </g>
                </g>
            </g>
        </g>
    </g>
</svg>