<?xml version="1.0" encoding="UTF-8"?>
<svg width="123px" height="413px" viewBox="0 0 123 413" version="1.1" xmlns="http://www.w3.org/2000/svg" xmlns:xlink="http://www.w3.org/1999/xlink">
    <!-- Generator: Sketch 47.1 (45422) - http://www.bohemiancoding.com/sketch -->
    <title>Afro</title>
    <desc>Created with Sketch.</desc>
    <defs></defs>
    <g id="Questions" stroke="none" stroke-width="1" fill="none" fill-rule="evenodd">
        <g id="Demograficos---1-/-3" transform="translate(-572.000000, -393.000000)">
            <g id="Carachter" transform="translate(98.000000, 164.000000)">
                <g id="Person" transform="translate(0.000000, 162.000000)">
                    <g id="Boy" transform="translate(0.829685, 59.644613)">
                        <g id="Afro" transform="translate(474.024050, 8.021481)">
                            <g id="Group" transform="translate(76.082627, 125.138721)" fill-rule="nonzero">
                                <path d="M2.38183367,0.332219686 C31.3744988,0.332219686 44.926311,50.3312824 43.9407247,127.406249 L27.6785499,127.406249 C27.6785499,127.406249 27.1857568,61.6267517 9.93799568,36.4611105 C9.93799568,25.6639707 -5.58498931,4.73413052 2.38183367,0.332219686 Z" id="Shape" fill="#EF9221"></path>
                                <path d="M27.6785499,127.406249 C27.6785499,127.406249 21.4365031,135.462577 26.9393602,138.784774 C30.7995734,144.349453 43.0372705,144.681673 43.9407247,138.784774 C44.8441788,132.887874 43.9407247,127.406249 43.9407247,127.406249 L27.6785499,127.406249 Z" id="Shape" fill="#EFC7B0"></path>
                            </g>
                            <path d="M44.6259957,125.470941 C15.6333306,125.470941 2.08151832,175.470004 3.06710467,252.544971 L19.3292794,252.544971 C19.3292794,252.544971 19.8220726,186.765473 37.0698337,161.599832 C37.0698337,150.802692 52.6749509,129.872852 44.6259957,125.470941 Z" id="Shape" fill="#EF9221" fill-rule="nonzero"></path>
                            <path d="M78.7929891,125.470941 L44.7081279,125.470941 C36.2485117,125.470941 29.4315395,132.364499 29.4315395,140.919156 L29.4315395,238.093414 L94.0695775,238.093414 L94.0695775,140.919156 C93.9874453,132.364499 87.1704731,125.470941 78.7929891,125.470941 Z" id="Shape" fill="#FAA21B" fill-rule="nonzero"></path>
                            <path d="M50.2931172,98.6442013 L50.2931172,127.713424 C50.2931172,133.278104 54.7282558,137.763069 60.2311129,137.763069 C65.73397,137.763069 70.1691086,133.278104 70.1691086,127.713424 L70.1691086,98.6442013 L50.2931172,98.6442013 Z" id="Shape" fill="#B79B75" fill-rule="nonzero"></path>
                            <ellipse id="Oval-Copy" fill="#826A4F" cx="60.942823" cy="52.5042423" rx="60.942823" ry="52.5042423"></ellipse>
                            <g id="Group" transform="translate(21.054056, 72.814121)" fill-rule="nonzero">
                                <g transform="translate(42.537697, 0.000000)" id="Shape">
                                    <path d="M28.8351808,0.415274607 L0.00678008703,0.415274607 L0.00678008703,18.1890278 L28.8351808,18.1890278 C32.5311296,18.1890278 35.5700208,15.1159957 35.5700208,11.3785242 L35.5700208,7.14272324 C35.5700208,3.4883067 32.6132618,0.415274607 28.8351808,0.415274607 Z" fill="#C4A67C"></path>
                                    <path d="M3.29206791,14.9498859 L3.29206791,3.73747146 L28.8351808,3.73747146 C30.7242213,3.73747146 32.284733,5.31551497 32.284733,7.22577816 L32.284733,11.4615792 C32.284733,13.3718424 30.7242213,14.9498859 28.8351808,14.9498859 L3.29206791,14.9498859 Z" fill="#AB8E6E"></path>
                                </g>
                                <g id="Shape">
                                    <path d="M6.89910444,0.415274607 L35.7275051,0.415274607 L35.7275051,18.1890278 L6.89910444,18.1890278 C3.20315563,18.1890278 0.164264391,15.1159957 0.164264391,11.3785242 L0.164264391,7.14272324 C0.164264391,3.4883067 3.20315563,0.415274607 6.89910444,0.415274607 Z" fill="#C4A67C"></path>
                                    <path d="M32.5243495,14.9498859 L32.5243495,3.73747146 L6.98123663,3.73747146 C5.09219613,3.73747146 3.53168441,5.31551497 3.53168441,7.22577816 L3.53168441,11.4615792 C3.53168441,13.3718424 5.09219613,14.9498859 6.98123663,14.9498859 L32.5243495,14.9498859 Z" fill="#AB8E6E"></path>
                                </g>
                            </g>
                            <path d="M50.2931172,120.487646 C53.167744,121.73347 56.1245031,122.480964 59.2455265,122.480964 C63.0236075,122.480964 66.7195563,121.40125 70.0869764,119.574042 L70.0869764,98.7272563 L50.2931172,98.7272563 L50.2931172,120.487646 Z" id="Shape" fill="#A38966" fill-rule="nonzero"></path>
                            <path d="M66.5552919,32.9477585 L53.9069338,32.9477585 C40.5193859,32.9477585 29.5958039,43.9110081 29.5958039,57.5320152 L29.5958039,88.9267755 C29.5958039,98.6442013 43.3118806,119.906261 60.2311129,119.906261 C77.1503452,119.906261 90.8664219,98.7272563 90.8664219,88.9267755 L90.8664219,57.5320152 C90.8664219,43.9110081 79.9428398,32.9477585 66.5552919,32.9477585 Z" id="Shape" fill="#C4A67C" fill-rule="nonzero"></path>
                            <path d="M55.9602387,90.9200937 C55.9602387,90.3387092 58.177808,91.584533 60.1489807,91.584533 C62.36655,91.584533 64.3377227,90.3387092 64.3377227,90.9200937 C64.3377227,92.0828626 62.4486822,93.0795216 60.1489807,93.0795216 C57.8492792,93.0795216 55.9602387,92.0828626 55.9602387,90.9200937 Z" id="Shape" fill="#826A4F" fill-rule="nonzero"></path>
                            <path d="M70.4155051,99.5578055 L49.9645884,99.5578055 C48.6504733,99.5578055 47.9112835,101.052794 48.6504733,102.049453 C51.1965713,105.70387 55.3853133,108.029407 60.1489807,108.029407 L60.1489807,108.029407 C64.912648,108.029407 69.10139,105.70387 71.6474881,102.049453 C72.46881,100.969739 71.7296203,99.5578055 70.4155051,99.5578055 Z" id="Shape" fill="#F2F2F4" fill-rule="nonzero"></path>
                            <path d="M29.5958039,238.093414 L29.5958039,402.209939 L55.7959743,402.209939 L55.7959743,265.501539 C55.7959743,262.179342 58.5063368,259.438529 61.7916246,259.438529 C65.0769124,259.438529 67.7872749,262.179342 67.7872749,265.501539 L67.7872749,402.126884 L93.9874453,402.126884 L93.9874453,238.093414 L29.5958039,238.093414 Z" id="Shape" fill="#1980BB" fill-rule="nonzero"></path>
                            <g id="Group" transform="translate(28.274909, 392.575568)" fill-rule="nonzero">
                                <rect id="Rectangle-path" fill="#A15D45" x="0.00678008703" y="13.787117" width="28.0892109" height="5.23246005"></rect>
                                <path d="M16.5153514,0.166109843 L11.6695519,0.166109843 C5.26324061,0.166109843 0.0889122827,5.39856989 0.0889122827,11.8768538 L0.0889122827,13.787117 L28.095991,13.787117 L28.095991,11.8768538 C28.095991,5.39856989 22.9216627,0.166109843 16.5153514,0.166109843 Z" id="Shape" fill="#64301B"></path>
                            </g>
                            <g id="Group" transform="translate(66.226763, 392.575568)" fill-rule="nonzero">
                                <rect id="Rectangle-path" fill="#A15D45" x="0.492793174" y="13.787117" width="28.0892109" height="5.23246005"></rect>
                                <path d="M17.0013645,0.166109843 L12.155565,0.166109843 C5.7492537,0.166109843 0.57492537,5.39856989 0.57492537,11.8768538 L0.57492537,13.787117 L28.6641363,13.787117 L28.6641363,11.8768538 C28.5820041,5.39856989 23.4076758,0.166109843 17.0013645,0.166109843 Z" id="Shape" fill="#64301B"></path>
                            </g>
                            <path d="M19.3292794,252.544971 C19.3292794,252.544971 25.5713263,260.601298 20.0684692,263.923495 C16.208256,269.488175 3.97055882,269.820394 3.06710467,263.923495 C2.16365052,258.026596 3.06710467,252.544971 3.06710467,252.544971 L19.3292794,252.544971 Z" id="Shape" fill="#EFC7B0" fill-rule="nonzero"></path>
                            <ellipse id="Oval" fill="#826A4F" cx="59.1397809" cy="38.2843433" rx="27.4062399" ry="13.4906734"></ellipse>
                            <rect id="Rectangle-2" fill="#826A4F" x="26.6850231" y="40.1074073" width="7.2121684" height="38.6489561" rx="3.6060842"></rect>
                            <rect id="Rectangle-2-Copy" fill="#826A4F" x="85.1035871" y="40.1074073" width="7.2121684" height="38.6489561" rx="3.6060842"></rect>
                        </g>
                    </g>
                </g>
            </g>
        </g>
    </g>
</svg>