<?xml version="1.0" encoding="UTF-8"?>
<svg width="126px" height="397px" viewBox="0 0 126 397" version="1.1" xmlns="http://www.w3.org/2000/svg" xmlns:xlink="http://www.w3.org/1999/xlink">
    <!-- Generator: Sketch 47.1 (45422) - http://www.bohemiancoding.com/sketch -->
    <title>Girl Copy 2</title>
    <desc>Created with Sketch.</desc>
    <defs></defs>
    <g id="Questions" stroke="none" stroke-width="1" fill="none" fill-rule="evenodd">
        <g id="Demograficos---2-/-4-Mulher" transform="translate(-559.000000, -269.000000)">
            <g id="Carachter" transform="translate(29.000000, 190.000000)">
                <g id="Person">
                    <g id="Girl" transform="translate(0.000000, 12.000000)">
                        <g id="Girl-Copy-2" transform="translate(530.000000, 67.000000)">
                            <ellipse id="Oval-2" fill="#534332" cx="62.5" cy="45.5" rx="53.5" ry="45.5"></ellipse>
                            <g id="Group" transform="translate(30.000000, 230.000000)" fill-rule="nonzero">
                                <rect id="Rectangle-path" fill="#EFC7B0" x="3.31734248" y="0.644843443" width="17.2317512" height="156.696957"></rect>
                                <rect id="Rectangle-path" fill="#EFC7B0" x="45.0605686" y="0.644843443" width="17.2317512" height="156.696957"></rect>
                                <g transform="translate(0.000000, 150.156402)">
                                    <rect id="Rectangle-path" fill="#8E2E1D" x="0" y="12.1599049" width="23.7742877" height="4.42178361"></rect>
                                    <path d="M14.0065571,0.736963935 L9.85987903,0.736963935 C4.4231233,0.736963935 0,5.15874754 0,10.5938566 L0,12.1599049 L23.7742877,12.1599049 L23.7742877,10.5938566 C23.7742877,5.06662705 19.3511644,0.736963935 14.0065571,0.736963935 Z" id="Shape" fill="#EA6025"></path>
                                    <path d="M13.3615183,3.86906066 L10.4127694,3.86906066 C6.45038815,3.86906066 3.31734248,7.09327787 3.31734248,10.9623385 L3.31734248,12.1599049 L20.5490937,12.1599049 L20.5490937,10.9623385 C20.5490937,7.09327787 17.3238996,3.86906066 13.3615183,3.86906066 Z" id="Shape" fill="#EFC7B0"></path>
                                </g>
                                <g transform="translate(41.466781, 150.156402)">
                                    <rect id="Rectangle-path" fill="#8E2E1D" x="0.276445206" y="12.1599049" width="23.7742877" height="4.42178361"></rect>
                                    <path d="M14.2830023,0.736963935 L10.1363242,0.736963935 C4.69956851,0.736963935 0.276445206,5.15874754 0.276445206,10.5938566 L0.276445206,12.1599049 L24.050733,12.1599049 L24.050733,10.5938566 C24.050733,5.06662705 19.7197581,0.736963935 14.2830023,0.736963935 Z" id="Shape" fill="#EA6025"></path>
                                    <path d="M13.6379635,3.86906066 L10.6892146,3.86906066 C6.72683336,3.86906066 3.59378768,7.09327787 3.59378768,10.9623385 L3.59378768,12.1599049 L20.8255389,12.1599049 L20.8255389,10.9623385 C20.8255389,7.09327787 17.6003448,3.86906066 13.6379635,3.86906066 Z" id="Shape" fill="#EFC7B0"></path>
                                </g>
                            </g>
                            <g id="Group" transform="translate(84.000000, 104.000000)" fill-rule="nonzero">
                                <g>
                                    <g>
                                        <polygon id="Rectangle-path" fill="#C4A67C" transform="translate(25.408080, 71.786814) rotate(-10.405296) translate(-25.408080, -71.786814) " points="17.6852974 22.1561856 33.1308635 22.1561856 33.1213052 121.417442 17.6852974 121.367564"></polygon>
                                        <rect id="Rectangle-path" fill="#66B4C9" transform="translate(19.089552, 39.360726) rotate(-10.405296) translate(-19.089552, -39.360726) " x="8.32308422" y="36.9196607" width="21.5329361" height="4.88213063"></rect>
                                        <path d="M27.0766767,36.4895349 C32.7100793,26.6390736 31.256298,14.1332706 24.0782528,5.48199586 C21.3524129,2.22706082 17.3545143,0.171312371 13.2657544,0.256968556 C12.1754184,0.342624741 11.0850824,0.513937112 9.99474644,0.856561853 C6.0877092,2.05574845 3.1801466,5.31068349 1.81722663,9.3365242 C-1.72636529,19.872235 1.72636529,32.0354133 10.7216371,39.3161891 C17.2636529,38.1170025 20.4437995,37.6030654 27.0766767,36.4895349 Z" id="Shape" fill="#66B4C9"></path>
                                    </g>
                                    <path d="M26.4026992,119.062098 C26.4026992,119.062098 20.6343571,126.694261 25.719606,129.841545 C29.2868702,135.113246 40.5958565,135.427975 41.4307482,129.841545 C42.2656398,124.255116 41.6195523,119.295895 41.6195523,119.295895 C41.6195523,119.295895 26.4026992,119.062098 26.4026992,119.062098 Z" id="Shape" fill="#C4A67C"></path>
                                </g>
                            </g>
                            <g id="Group-Copy" transform="translate(21.000000, 171.000000) scale(-1, 1) translate(-21.000000, -171.000000) translate(0.000000, 104.000000)" fill-rule="nonzero">
                                <g id="Group">
                                    <g>
                                        <polygon id="Rectangle-path" fill="#C4A67C" transform="translate(25.408080, 71.786814) rotate(-10.405296) translate(-25.408080, -71.786814) " points="17.6852974 22.1561856 33.1308635 22.1561856 33.1213052 121.417442 17.6852974 121.367564"></polygon>
                                        <rect id="Rectangle-path" fill="#66B4C9" transform="translate(19.089552, 39.360726) rotate(-10.405296) translate(-19.089552, -39.360726) " x="8.32308422" y="36.9196607" width="21.5329361" height="4.88213063"></rect>
                                        <path d="M27.0766767,36.4895349 C32.7100793,26.6390736 31.256298,14.1332706 24.0782528,5.48199586 C21.3524129,2.22706082 17.3545143,0.171312371 13.2657544,0.256968556 C12.1754184,0.342624741 11.0850824,0.513937112 9.99474644,0.856561853 C6.0877092,2.05574845 3.1801466,5.31068349 1.81722663,9.3365242 C-1.72636529,19.872235 1.72636529,32.0354133 10.7216371,39.3161891 C17.2636529,38.1170025 20.4437995,37.6030654 27.0766767,36.4895349 Z" id="Shape" fill="#66B4C9"></path>
                                    </g>
                                    <path d="M26.4026992,119.062098 C26.4026992,119.062098 20.6343571,126.694261 25.719606,129.841545 C29.2868702,135.113246 40.5958565,135.427975 41.4307482,129.841545 C42.2656398,124.255116 41.6195523,119.295895 41.6195523,119.295895 C41.6195523,119.295895 26.4026992,119.062098 26.4026992,119.062098 Z" id="Shape" fill="#C4A67C"></path>
                                </g>
                            </g>
                            <g id="Group" transform="translate(18.000000, 101.000000)" fill-rule="nonzero">
                                <path d="M62.7524239,0 L26.2918915,0 C17.3141724,0 9.9854222,7.34101339 9.9854222,16.3337548 L9.9854222,104.24239 L79.0588932,104.24239 L79.0588932,16.3337548 C79.0588932,7.34101339 71.730143,0 62.7524239,0 Z" id="Shape" fill="#80CAE4"></path>
                                <polygon id="Shape" fill="#EA6025" points="89.0443154 218.853962 0 218.853962 9.9854222 104.24239 79.0588932 104.24239"></polygon>
                            </g>
                            <path d="M62.5,122 C70.515528,122 77,115.565957 77,107.612766 C77,105.2 76.3695652,102.965957 75.378882,101 L49.621118,101 C48.5403727,102.965957 48,105.289362 48,107.612766 C48,115.565957 54.484472,122 62.5,122 Z" id="Shape" fill="#C4A67C" fill-rule="nonzero"></path>
                            <g id="Group" transform="translate(53.000000, 89.000000)" fill-rule="nonzero">
                                <rect id="Rectangle-path" fill="#C4A67C" x="0.640572386" y="0.449932132" width="17.2954544" height="21.7767152"></rect>
                                <path d="M0.640572386,9.80852047 C3.38588261,10.5284119 6.31421352,10.8883576 9.24254442,10.8883576 C12.2623857,10.8883576 15.0992062,10.5284119 17.8445165,9.80852047 L17.8445165,0.359945705 L0.549062045,0.359945705 L0.549062045,9.80852047 L0.640572386,9.80852047 Z" id="Shape" fill="#A38966"></path>
                            </g>
                            <g id="Group" transform="translate(25.000000, 49.000000)" fill-rule="nonzero">
                                <g transform="translate(33.118028, 0.000000)" id="Shape">
                                    <path d="M34.2219624,0.445041565 L0.827950703,0.445041565 L0.827950703,20.2048871 L34.2219624,20.2048871 C38.5457049,20.2048871 42.0414968,16.8225712 42.0414968,12.6391805 L42.0414968,8.01074817 C42.0414968,3.73834915 38.5457049,0.445041565 34.2219624,0.445041565 Z" fill="#C4A67C"></path>
                                    <path d="M4.59972613,16.4665379 L4.59972613,4.00537409 L34.2219624,4.00537409 C36.4298309,4.00537409 38.2697214,5.78554035 38.2697214,7.92173986 L38.2697214,12.5501721 C38.2697214,14.6863717 36.4298309,16.4665379 34.2219624,16.4665379 L4.59972613,16.4665379 L4.59972613,16.4665379 Z" fill="#AB8E6E"></path>
                                </g>
                                <g id="Shape">
                                    <path d="M8.37150155,0.445041565 L41.7655132,0.445041565 L41.7655132,20.2048871 L8.37150155,20.2048871 C4.04775899,20.2048871 0.551967135,16.8225712 0.551967135,12.6391805 L0.551967135,8.01074817 C0.551967135,3.73834915 4.04775899,0.445041565 8.37150155,0.445041565 Z" fill="#C4A67C"></path>
                                    <path d="M38.0857323,16.4665379 L38.0857323,4.00537409 L8.46349607,4.00537409 C6.25562753,4.00537409 4.41573708,5.78554035 4.41573708,7.92173986 L4.41573708,12.5501721 C4.41573708,14.6863717 6.25562753,16.4665379 8.46349607,16.4665379 L38.0857323,16.4665379 L38.0857323,16.4665379 Z" fill="#AB8E6E"></path>
                                </g>
                            </g>
                            <path d="M48.2562729,32 C39.5075274,32 32.6528403,39.4978962 33.0136133,48.3842917 L34.0959323,70.4151473 C34.7272851,85.8737728 47.0837606,98 62.1460336,98 C77.2083067,98 89.5647822,85.8737728 90.196135,70.4151473 L92,32 L48.2562729,32 Z" id="Shape" fill="#C4A67C" fill-rule="nonzero"></path>
                            <path d="M70.1699767,84 L54.7626683,84 C54.0156473,84 53.7355144,84.8695652 54.2957802,85.3043478 C56.5368432,86.9565217 59.4315496,88 62.5130113,88 C65.594473,88 68.4891794,86.9565217 70.7302424,85.3043478 C71.2905082,84.8695652 70.9169977,84 70.1699767,84 Z" id="Shape" fill="#F2F2F4" fill-rule="nonzero"></path>
                            <polygon id="Shape" fill="#826A4F" fill-rule="nonzero" points="63 69 63 76 60 75.0128205"></polygon>
                            <path d="M32,24 L32,40.5740741 C32,45.2037037 37.012024,49 43.1242485,49 L93,49 L93,24 L32,24 Z" id="Shape" fill="#534332" fill-rule="nonzero" transform="translate(62.500000, 36.500000) scale(-1, 1) translate(-62.500000, -36.500000) "></path>
                        </g>
                    </g>
                </g>
            </g>
        </g>
    </g>
</svg>