<?xml version="1.0" encoding="UTF-8"?>
<svg width="132px" height="399px" viewBox="0 0 132 399" version="1.1" xmlns="http://www.w3.org/2000/svg" xmlns:xlink="http://www.w3.org/1999/xlink">
    <!-- Generator: Sketch 47.1 (45422) - http://www.bohemiancoding.com/sketch -->
    <title>Combined Shape</title>
    <desc>Created with Sketch.</desc>
    <defs></defs>
    <g id="Questions" stroke="none" stroke-width="1" fill="none" fill-rule="evenodd" opacity="0.1">
        <g id="Demograficos---1-/-3" transform="translate(-768.000000, -411.000000)" fill="#000000">
            <g id="Carachter" transform="translate(98.000000, 164.000000)">
                <g id="Person" transform="translate(0.000000, 162.000000)">
                    <g id="Background-Boy" transform="translate(0.000000, 58.644613)">
                        <g id="Outra" transform="translate(627.000000, 0.000000)">
                            <g id="Combined-Shape">
                                <path d="M115.779714,412.520486 L115.779714,275.672436 C115.779714,272.284884 112.753142,269.490154 109.084571,269.490154 C105.416,269.490154 102.389428,272.284884 102.389428,275.672436 L102.389428,413.623476 C102.80613,414.797511 103.031428,416.052378 103.031428,417.356779 L103.031428,419.304621 L71.756857,419.304621 L71.756857,417.356779 C71.756857,415.422516 72.2522703,413.597173 73.1325713,411.982808 L73.1325713,247.725135 L145.036571,247.725135 L145.036571,412.832223 C145.666392,414.226997 146.023182,415.754519 146.045428,417.356779 L146.045428,419.304621 L114.679142,419.304621 L114.679142,417.356779 C114.679142,415.63428 115.072017,413.998158 115.779714,412.520486 Z M71.1247422,79.619739 L68.6385713,63.6117088 L61.6682856,36.7653627 L68.6385713,40.1529143 L62.6771427,26.5180193 L88.173714,33.2931224 L125.501428,34.5634542 L143.018857,49.6380586 L143.018857,59.8854021 L143.018857,79.6178898 L143.293999,79.6178898 C147.512857,79.6178898 150.814571,82.751375 150.814571,86.4776817 L150.814571,90.7968099 C150.814571,94.6078054 147.421142,97.7412906 143.293999,97.7412906 L141.35526,97.7412906 C139.92184,106.030425 130.770266,119.316178 118.439428,124.762987 L118.439428,132.887138 L128.069428,132.887138 C128.511848,132.887138 128.95037,132.90286 129.384383,132.933739 C160.601754,134.677776 175.191334,185.243447 174.109999,262.460985 C174.110728,262.465022 175.118492,268.052616 174.109999,274.063349 C173.101142,280.076253 159.435714,279.737498 155.125142,274.063349 C148.980589,270.675965 155.94988,262.461798 155.950571,262.460985 C155.95054,262.457261 155.587038,218.202808 145.128285,187.836291 L145.128285,247.725135 L72.9491427,247.725135 L72.9491427,186.532033 C62.0419209,216.919128 61.6682856,262.460985 61.6682856,262.460985 L43.5088571,262.460985 C42.4082857,183.869789 57.5411428,132.887138 89.9162854,132.887138 C89.9471298,132.887211 89.9775552,132.887138 90.0079997,132.887138 L96.2445711,132.887138 L96.2445711,124.754456 C83.9210152,119.293328 74.7729687,105.985309 73.331287,97.7412906 L71.2982855,97.7412906 C67.1711427,97.7412906 63.7777142,94.6078054 63.7777142,90.7968099 L63.7777142,86.4776817 C63.7777142,82.8037375 67.076443,79.7060711 71.1247422,79.619739 Z M71.6651427,419.304621 L103.031428,419.304621 L103.031428,424.640015 L71.6651427,424.640015 L71.6651427,419.304621 Z M114.587428,419.304621 L145.953714,419.304621 L145.953714,424.640015 L114.587428,424.640015 L114.587428,419.304621 Z M61.6682856,262.460985 C61.6682856,262.460985 68.6385713,270.675797 62.4937142,274.063349 C58.1831428,279.737498 44.5177143,280.076253 43.5088571,274.063349 C42.5,268.050445 43.5088571,262.460985 43.5088571,262.460985 L61.6682856,262.460985 Z" transform="translate(108.809428, 225.579017) scale(-1, 1) translate(-108.809428, -225.579017) "></path>
                            </g>
                        </g>
                    </g>
                </g>
            </g>
        </g>
    </g>
</svg>