<?xml version="1.0" encoding="UTF-8"?>
<svg width="176px" height="430px" viewBox="0 0 176 430" version="1.1" xmlns="http://www.w3.org/2000/svg" xmlns:xlink="http://www.w3.org/1999/xlink">
    <!-- Generator: Sketch 48.2 (47327) - http://www.bohemiancoding.com/sketch -->
    <title>Ilustra</title>
    <desc>Created with Sketch.</desc>
    <defs></defs>
    <g id="Problemas-Comuns----1-/-3" stroke="none" stroke-width="1" fill="none" fill-rule="evenodd" transform="translate(-721.000000, -137.000000)">
        <g id="Content" transform="translate(251.000000, 137.000000)">
            <g id="Ilustra" transform="translate(470.000000, 0.000000)">
                <path d="M103.563032,211.141127 C106.87576,212.429564 110.187111,213.718 113.499839,215.005059 C118.46342,214.615083 122.684255,211.74056 123.989227,207.828399 C125.828866,202.320506 121.856073,194.842063 114.05242,192.922499 C110.710753,187.655757 108.135259,185.263537 106.32318,185.744461 C103.361843,186.532681 102.441334,194.999155 103.563032,211.141127" id="Fill-93" fill="#F9D2A5"></path>
                <path d="M109.008915,118.833961 C114.793788,112.441388 120.57866,106.047436 126.364911,99.6548621 C121.776148,94.5700169 117.188763,89.4837937 112.601379,84.3989484 C109.897729,88.1994913 106.816506,92.2136252 103.314991,96.3379997 C99.8107192,100.466508 96.347788,104.162323 93.0350596,107.448869 C98.359678,111.2439 103.684296,115.03893 109.008915,118.833961" id="Fill-94" fill="#F6C58B"></path>
                <path d="M60.3197992,226.565158 C76.5279157,225.494447 92.7374101,224.425113 108.945527,223.35578 C106.578111,211.68544 104.688863,196.559059 105.471571,178.971558 C106.583623,153.938686 112.671657,133.730215 118.022458,120.11413 C106.747606,115.471625 95.4713757,110.827742 84.1965237,106.185237 C61.489727,132.487253 56.9464385,152.289211 57.3350364,165.877737 C57.5486275,173.347912 59.6376858,192.400234 60.2922391,225.149945 C60.3046411,225.745244 60.3142872,226.235814 60.3197992,226.565158" id="Fill-95" fill="#F0AA3A"></path>
                <path d="M86.0154927,107.33725 C91.4806679,109.998181 97.6624065,113.455601 104.144551,117.950659 C111.292272,122.904594 117.151557,127.972903 121.832646,132.542373 C123.453183,127.235669 125.075097,121.930343 126.695633,116.623638 C120.86942,113.671948 114.972928,110.723013 109.008915,107.77959 C103.224042,104.925738 97.4749976,102.125628 91.7631593,99.3778828 C90.907417,100.265319 90.0075786,101.293312 89.1104961,102.474264 C87.8000116,104.198151 86.7913106,105.860027 86.0154927,107.33725" id="Fill-96" fill="#CE8830"></path>
                <path d="M91.5633483,227.259673 C92.4852348,226.759457 93.3340871,226.478344 96.336764,225.815522 C100.906235,224.806821 104.936905,224.086124 108.255145,223.562481 C118.89887,254.879065 129.541217,286.19427 140.184942,317.509475 C137.281481,333.466795 134.408337,349.315251 131.568265,365.443443 C128.730949,381.552343 125.951509,398.212446 123.229945,413.370521 C116.968282,413.370521 110.706619,413.370521 104.444956,413.370521 C108.437042,381.676364 112.429128,349.512306 116.421214,317.406125 C106.124747,291.554717 95.8282794,265.879693 85.5318123,240.028285 C84.7063862,234.616852 87.080692,229.691856 91.5633483,227.259673" id="Fill-98" fill="#2C6482"></path>
                <path d="M73.1972731,231.291721 C74.2900325,230.299557 75.5605548,230.062539 78.7189465,229.635357 C81.9793107,229.194395 86.2814481,228.681777 91.4172795,228.255972 C101.048169,259.846779 110.677681,291.438964 120.308571,323.031149 C117.406489,338.98709 114.533344,354.831413 111.693272,370.959605 C108.854578,387.069883 106.076516,403.724473 103.354953,418.882548 C97.0932897,418.882548 90.8316266,418.882548 84.5699636,418.882548 C88.5620494,387.188391 92.5541352,355.028468 96.546221,322.923664 C92.8324926,310.087531 89.0071456,297.241751 85.067424,284.193404 C80.8755272,270.312741 76.6409122,256.652559 72.369091,243.112264 C71.8578505,241.46968 69.7825722,234.399127 73.1972731,231.291721" id="Fill-99" fill="#3782A7"></path>
                <path d="M104.444956,425.061531 L150.998161,425.061531 C150.998161,422.747858 150.998161,420.435562 150.998161,418.121889 C141.742089,416.528913 132.486017,414.935937 123.229945,413.342961 C116.968282,413.373277 110.706619,413.402215 104.444956,413.432531 C104.444956,417.308865 104.444956,421.185198 104.444956,425.061531" id="Fill-100" fill="#0E1720"></path>
                <path d="M84.6898502,429.214844 L131.243055,429.214844 C131.243055,426.902548 131.243055,424.588875 131.243055,422.276579 C121.986983,420.683603 112.730911,419.090628 103.474839,417.497652 C97.2131763,417.52659 90.9515132,417.556906 84.6898502,417.585844 C84.6898502,421.462177 84.6898502,425.338511 84.6898502,429.214844" id="Fill-101" fill="#101F30"></path>
                <path d="M76.2344002,255.032023 C82.8956853,254.228645 87.1082522,252.007298 89.7609153,250.062931 C93.8122554,247.093326 96.5283069,245.230261 97.0753756,244.680436 C98.6573275,243.091594 99.963678,241.415938 101.53874,238.930013 C103.549252,235.755086 106.409994,230.610986 108.945527,223.28688 C92.7043379,223.931787 76.4645273,224.575316 60.2233387,225.218845 C59.8898611,228.118172 59.7120982,233.260893 61.879703,239.020962 C65.6581977,249.055608 73.8476923,253.768391 76.2344002,255.032023" id="Fill-102" fill="#3782A7"></path>
                <polygon id="Fill-103" fill="#472218" points="59.3951566 228.255972 109.773709 228.255972 109.773709 219.055021 59.3951566 219.055021"></polygon>
                <path d="M67.2677097,184.580046 C71.4099983,195.061166 60.9950226,209.195382 57.8821051,208.320347 C56.3924797,207.901433 56.5344144,201.802375 56.8182838,189.605637 C57.062191,179.141053 57.8738371,177.535675 58.9858886,177.127785 C61.278892,176.285822 65.5617372,180.266884 67.2677097,184.580046" id="Fill-147" fill="#DD472A"></path>
                <path d="M49.1221156,198.442794 C48.6108751,200.013722 46.8511604,206.038368 49.6746964,212.797492 C52.82482,220.336567 59.3731085,223.271722 60.7166652,223.83946 C63.1281771,223.68788 68.0573076,222.987852 70.6534725,219.422949 C74.6207542,213.975688 72.2657405,203.046715 62.3730294,195.130066 C57.9565175,196.235227 53.5400056,197.339011 49.1221156,198.442794" id="Fill-148" fill="#F9D2A5"></path>
                <path d="M19.584539,147.114796 C20.3961851,152.658517 21.9299067,159.195782 24.814075,166.178142 C32.8368308,185.597015 46.6348133,197.141956 54.3309815,202.609887 C54.4963423,202.641581 57.860057,203.232746 60.0249057,200.807454 C61.7859985,198.834148 61.9761634,195.730877 60.3818095,193.306963 C54.0815622,178.811709 47.781315,164.316455 41.4810677,149.822579 C60.7221772,140.913765 79.9646647,132.006329 99.2071522,123.098892 C97.8746196,117.442174 93.5752383,113.102831 88.2437298,112.03212 C82.2645581,110.831876 77.6454792,114.281027 76.9137576,114.84601 C57.8035587,125.602731 38.6947379,136.358074 19.584539,147.114796" id="Fill-149" fill="#CE8830"></path>
                <path d="M81.1070324,179.803874 C78.012029,181.668317 74.9170257,183.53276 71.8220223,185.397204 C75.3593659,180.022977 78.8967094,174.64875 82.434053,169.273146 C85.861156,172.0705 89.288259,174.867853 92.715362,177.663829 C92.6037434,177.280743 92.4935029,176.896279 92.3832623,176.513194 C95.7001248,171.960259 99.0156093,167.408702 102.332472,162.857146 C107.749417,162.967386 113.166361,163.076249 118.583306,163.186489 C111.064901,170.206056 103.547874,177.225623 96.0308464,184.24519 C91.0562418,182.765211 86.0816371,181.283853 81.1070324,179.803874" id="Fill-150" fill="#DD472A"></path>
                <path d="M89.4481078,160.934826 C88.1844755,162.886084 86.9208432,164.837342 85.657211,166.788599 C87.1013621,161.163575 88.5455133,155.539929 89.9896645,149.914906 C91.3883414,152.841792 92.7870183,155.768679 94.1870733,158.695565 C94.1415991,158.294565 94.0961248,157.892187 94.0506506,157.491187 C95.4052313,152.727418 96.7584341,147.963648 98.1130148,143.199878 C100.324716,143.315631 102.535039,143.430005 104.74674,143.54438 C101.677918,150.890534 98.6090972,158.236689 95.540276,165.582843 C93.5090939,164.033964 91.4792899,162.483706 89.4481078,160.934826" id="Fill-151" fill="#DD472A"></path>
                <path d="M40.7879303,191.304719 C44.4010642,191.366729 48.0128201,191.427362 51.6259541,191.489372 C45.8713975,188.613472 40.1154629,185.736193 34.3595284,182.860293 C32.7968686,186.998448 31.2342089,191.136602 29.6715491,195.274757 C29.5750886,194.887537 29.4786281,194.498939 29.3821677,194.111719 C24.2298001,191.83663 19.0788105,189.56154 13.926443,187.285073 C9.29496197,190.096207 4.66348099,192.907341 0.032,195.718475 C10.0556217,198.022502 20.0792435,200.32653 30.1028652,202.631935 C33.6636349,198.856196 37.2257826,195.080458 40.7879303,191.304719" id="Fill-152" fill="#DD472A"></path>
                <path d="M24.1099135,179.161723 C26.1810578,180.215898 28.2535801,181.271451 30.3247243,182.325626 C26.2554701,178.183338 22.186216,174.041049 18.1169618,169.898761 C18.373271,173.132943 18.6309583,176.367125 18.8872676,179.601307 C18.7260408,179.230623 18.563436,178.859939 18.4008312,178.490633 C14.8414395,175.048372 11.2806698,171.604733 7.72127816,168.162472 C5.86510295,169.370984 4.01030574,170.579496 2.15413053,171.78663 C8.49296199,176.604142 14.8304154,181.421654 21.1692469,186.237788 C22.1490098,183.880018 23.1301506,181.52087 24.1099135,179.161723" id="Fill-153" fill="#DD472A"></path>
                <path d="M107.505509,84.8275085 L147.488378,97.217168 C149.715237,97.9075495 152.103323,96.6508072 152.792326,94.4225702 L169.575071,40.2696574 C170.264075,38.0427984 169.007333,35.6547125 166.780474,34.9657091 L126.797605,22.5746716 C124.570746,21.8856682 122.184038,23.1424104 121.493657,25.3692695 L104.71229,79.5235602 C104.021908,81.7504193 105.27865,84.1371271 107.505509,84.8275085" id="Fill-222" fill="#FAD59D"></path>
                <path d="M166.491092,77.6150208 C169.383528,76.4368249 170.94481,72.8457391 170.211711,70.3846189 C169.444161,67.8132581 166.546212,67.9386567 164.88847,65.2832376 C163.737834,63.4408424 163.295494,60.4478116 165.384553,55.3285161 C164.408924,55.5613993 163.433295,55.7915264 162.457666,56.0244096 C160.787522,61.547461 159.116,67.0705124 157.445855,72.5935638 C158.717756,76.9053472 163.179742,78.9627114 166.491092,77.6150208 Z" id="Fill-223" fill="#FAD59D"></path>
                <path d="M105.65898,89.0552335 C108.883516,103.004797 119.564447,110.134604 123.191361,112.274649 C131.871426,117.395322 148.701024,122.580762 156.146395,114.271381 C162.567907,107.104367 160.00068,92.1337008 154.520347,89.751127 C151.495622,88.4365085 148.685866,91.3868211 144.951467,89.744237 C141.494048,88.2256734 140.056787,83.8408557 139.275457,79.9810585 C135.09045,59.331626 147.021234,40.7781419 139.461488,29.3944274 C137.676969,26.7073141 134.016983,23.2306028 125.520193,21.5935307 C122.18266,32.741606 118.84375,43.8896814 115.504839,55.0377567 C114.4672,56.11398 101.311369,70.2454402 105.65898,89.0552335" id="Fill-224" fill="#B1422E"></path>
                <path d="M132.750595,72.830581 C132.408849,73.2550071 136.772997,78.9048352 143.890402,81.9323162 C146.66433,83.113268 152.529127,85.6074604 157.161986,82.913457 C157.551962,82.6860859 160.444398,81.0035396 160.285927,79.0081857 C160.079226,76.3954847 154.705,74.032203 149.908158,73.9550346 C144.662086,73.8709762 142.929931,76.5649795 138.320498,75.5424985 C134.801069,74.7611686 132.96832,72.5604917 132.750595,72.830581" id="Fill-225" fill="#913227"></path>
                <path d="M119.166203,26.2126096 L169.131353,41.6972725 L175.612119,20.7860187 C176.460972,18.0479191 174.928628,15.1389467 172.190528,14.2914725 L127.182069,0.343287252 C124.138052,-0.599269426 120.906626,1.10256902 119.962691,4.14658613 L115.362904,18.9932318 C114.41897,22.0372489 116.122186,25.270053 119.166203,26.2126096" id="Fill-227" fill="#B1422E"></path>
                <polyline id="Fill-228" fill="#B1422E" points="109.99419 62.5726981 113.593544 63.6875056 125.374124 25.671053 121.77477 24.5562454 109.99419 62.5726981"></polyline>
                <path d="M121.723784,50.4283238 C121.574959,56.3813134 127.651969,61.6122273 129.927059,60.7247909 C130.842055,60.3678872 130.565076,59.2489456 131.933437,53.688688 C133.248055,48.3475335 133.971509,47.4766332 133.293529,45.9305095 C132.312389,43.6926264 129.29042,42.0844924 126.651536,42.6549872 C123.093523,43.4239151 121.78855,47.8170009 121.723784,50.4283238" id="Fill-239" fill="#FAD59D"></path>
            </g>
        </g>
    </g>
</svg>