<?xml version="1.0" encoding="UTF-8"?>
<svg width="121px" height="430px" viewBox="0 0 121 430" version="1.1" xmlns="http://www.w3.org/2000/svg" xmlns:xlink="http://www.w3.org/1999/xlink">
    <!-- Generator: Sketch 48.2 (47327) - http://www.bohemiancoding.com/sketch -->
    <title>Group 2</title>
    <desc>Created with Sketch.</desc>
    <defs></defs>
    <g id="Problemas-Comuns----3-/-3" stroke="none" stroke-width="1" fill="none" fill-rule="evenodd" transform="translate(-722.000000, -138.000000)">
        <g id="Content" transform="translate(251.000000, 138.000000)">
            <g id="Group-2" transform="translate(471.000000, 0.000000)">
                <path d="M70.8747627,212.163854 C67.598533,213.444127 64.3236662,214.7244 61.0474366,216.004673 C56.1385434,215.617168 51.9642125,212.759489 50.6736179,208.872114 C48.8542474,203.399118 52.7832699,195.968057 60.500944,194.060656 C63.8044301,188.827283 66.3529116,186.45022 68.1450256,186.929467 C71.073735,187.711323 71.9841017,196.124155 70.8747627,212.163854" id="Fill-50" fill="#F9D2A5"></path>
                <path d="M65.4902581,119.556075 C59.7353954,113.21365 53.9805327,106.872592 48.2242991,100.530167 C52.787886,95.4862992 57.3528438,90.4424312 61.9164308,85.3971963 C64.6046837,89.1671117 67.6712935,93.1488969 71.1546442,97.2400343 C74.6338823,101.335272 78.088445,105.001303 81.3785047,108.261364 C76.086992,112.025812 70.7872542,115.79026 65.4902581,119.556075" id="Fill-51" fill="#F6C58B"></path>
                <path d="M115.510731,228.060748 C99.1520616,226.989808 82.7933917,225.917488 66.4291577,224.846549 C68.8189702,213.158679 70.7260906,198.009576 69.935978,180.395656 C68.813406,155.325181 62.6677765,135.086355 57.2663551,121.449816 C68.6478719,116.800337 80.0252155,112.150859 91.4178606,107.5 C114.328345,133.841526 118.918788,153.673229 118.529296,167.282166 C118.306729,174.764942 116.206253,193.844504 115.538552,226.643409 C115.524642,227.239602 115.524642,227.730909 115.510731,228.060748" id="Fill-52" fill="#F0AA3A"></path>
                <path d="M41.8620221,187.41102 C44.987454,189.239295 48.1128859,191.068921 51.2383178,192.897196 C47.6661968,187.625873 44.0940758,182.355901 40.5219549,177.085929 C37.0611583,179.829017 33.6003617,182.570753 30.1395652,185.313841 C30.2522811,184.938187 30.3636055,184.561181 30.4749298,184.184176 C27.1254576,179.720915 23.777377,175.257654 20.4279048,170.794393 C14.9577032,170.901143 9.48750162,171.009245 4.01869159,171.115996 C11.6096226,178.000742 19.2005535,184.884136 26.7914845,191.76753 C31.814997,190.31491 36.8385096,188.863641 41.8620221,187.41102" id="Fill-53" fill="#DD472A"></path>
                <path d="M32.3774752,169.078402 C33.6410582,170.989962 34.9046413,172.901523 36.1682243,174.813084 C34.7241294,169.303847 33.2800345,163.79326 31.8359396,158.284023 C30.4373171,161.151364 29.0386947,164.018705 27.6386943,166.886047 C27.6841667,166.491855 27.7296392,166.099013 27.7751116,165.704821 C26.4205837,161.039316 25.0674337,156.372462 23.7129057,151.705607 C21.5012909,151.817655 19.2910541,151.931053 17.0794393,152.043101 C20.1481409,159.239803 23.2168426,166.436506 26.2855443,173.633208 C28.3166472,172.114489 30.3463722,170.59712 32.3774752,169.078402" id="Fill-54" fill="#DD472A"></path>
                <path d="M77.3644571,184.340652 C81.6773464,194.754599 70.8406747,208.798228 67.6038585,207.928802 C66.0549437,207.512573 66.2025277,201.452603 66.4976955,189.334034 C66.7527434,178.936518 67.5952614,177.341429 68.7515742,176.934784 C71.1358426,176.099587 75.5877187,180.055134 77.3644571,184.340652" id="Fill-55" fill="#DD472A"></path>
                <path d="M89.4158879,108.424189 C83.8771713,111.084295 77.6129804,114.540642 71.0558097,119.034306 C63.8192044,123.986704 57.8870575,129.053442 53.1477577,133.621495 C51.5070699,128.316437 49.8649869,123.012756 48.2242991,117.707697 C54.1229625,114.756922 60.0927782,111.808902 66.1309559,108.866392 C71.987765,106.013425 77.8083004,103.214183 83.5841913,100.46729 C84.4631312,101.354451 85.369974,102.383503 86.2768167,103.562711 C87.6022023,105.286063 88.6206565,106.947424 89.4158879,108.424189" id="Fill-56" fill="#CE8830"></path>
                <path d="M120.560748,188.305126 C116.444863,192.116174 111.141172,196.252152 104.511559,199.888343 C86.0591352,210.003866 68.0307306,210.370101 58.5849129,209.817995 C58.4357466,209.739516 55.4344654,208.095588 55.2645816,204.853169 C55.1250834,202.212421 56.9247472,199.676312 59.6912296,198.785507 C73.7114805,191.430515 87.7303502,184.075524 101.74922,176.720532 C92.2882094,157.746526 82.8410105,138.771143 73.3938115,119.797137 C77.979294,116.222903 84.0564396,115.528984 88.9043443,118.029296 C94.3323401,120.833885 95.7687563,126.410021 95.9897435,127.30771 C104.180078,147.639264 112.370413,167.972195 120.560748,188.305126" id="Fill-57" fill="#CE8830"></path>
                <path d="M83.1685943,227.729829 C82.2379597,227.230701 81.3767755,226.950199 78.3626308,226.28882 C73.7511282,225.283689 69.6882833,224.563184 66.343555,224.042056 C55.6148665,255.289125 44.887567,286.536194 34.1588785,317.783262 C37.0855158,333.705861 39.980206,349.764586 42.844338,365.857686 C45.704303,381.931535 48.5059297,397.425131 51.2492181,413.925234 C57.560865,413.925234 63.8725119,413.925234 70.1841588,413.925234 C66.1602061,380.925029 62.1362534,349.961212 58.1123007,317.924888 C68.4909595,292.129728 78.8626732,266.388194 89.252444,240.593034 C90.0858481,235.193375 87.6828664,230.156719 83.1685943,227.729829" id="Fill-58" fill="#2C6482"></path>
                <path d="M101.55306,232.104853 C100.460153,231.110556 99.1735666,230.874738 96.0055207,230.447232 C92.740635,230.005935 88.4105112,229.491548 83.264166,229.065421 C73.5940173,260.681588 63.9211017,292.296377 54.2523364,323.912544 C57.1672153,339.880598 60.0516588,355.292894 62.9029001,371.433329 C65.7513745,387.555837 68.541745,405.158069 71.2740116,418.948598 C77.5644503,418.948598 83.845205,418.948598 90.1259596,418.948598 C86.1278581,388.609434 82.1159223,355.490098 78.1039865,323.360923 C81.8392371,310.515045 85.6713275,297.881541 89.6279262,284.823289 C93.8473759,270.932089 98.0944942,257.371861 102.383115,243.822666 C102.894983,242.178835 104.983956,235.214618 101.55306,232.104853" id="Fill-59" fill="#3782A7"></path>
                <path d="M70.3271028,425.981308 L24.1121495,425.981308 C24.1121495,423.600999 24.1121495,421.222108 24.1121495,418.841798 C33.3009676,417.202944 42.4897857,415.564089 51.6786038,413.925234 C57.8947701,413.956423 64.1109365,413.986195 70.3271028,414.017384 C70.3271028,418.005359 70.3271028,421.993334 70.3271028,425.981308" id="Fill-60" fill="#0E1720"></path>
                <path d="M89.4158879,430 L43.2009346,430 C43.2009346,427.620829 43.2009346,425.24024 43.2009346,422.861068 C52.3892087,421.222021 61.5774828,419.582973 70.7657569,417.943925 C76.9815553,417.9737 83.191882,418.004893 89.4158879,418.036086 C89.4158879,422.02453 89.4158879,426.011556 89.4158879,430" id="Fill-90" fill="#101F30"></path>
                <path d="M99.222432,256.191589 C92.5242471,255.379372 88.2806765,253.128333 85.618044,251.159197 C81.540888,248.151763 78.8089161,246.264965 78.254201,245.708137 C76.6593951,244.099055 75.3419467,242.402053 73.7610087,239.884462 C71.7390721,236.66909 68.8601007,231.459461 66.3084112,224.042056 C82.6503182,224.695178 99.000546,225.346905 115.336906,225.998632 C115.669735,228.934892 115.850017,234.143125 113.67276,239.977964 C109.872962,250.139042 101.635443,254.91186 99.222432,256.191589" id="Fill-91" fill="#3782A7"></path>
                <polygon id="Fill-92" fill="#472218" points="65.3037383 229.065421 115.537383 229.065421 115.537383 220.023364 65.3037383 220.023364"></polygon>
                <path d="M28.3242042,97.2631321 C26.0952038,97.9565492 23.7062009,96.692897 23.0151556,94.4562464 L6.21765121,40.0652222 C5.52660591,37.8285717 6.78455664,35.4313694 9.01355706,34.7379524 L49.0348733,22.2924313 C51.2638737,21.6003983 53.6528766,22.8626664 54.3439219,25.099317 L71.1428056,79.4917252 C71.8324716,81.7283758 70.5745209,84.125578 68.3441411,84.8189951 L28.3242042,97.2631321 Z" id="Fill-276" fill="#FAD59D"></path>
                <path d="M19.088785,72.8352128 C17.8069785,77.2238009 13.3039728,79.3198848 9.96321247,77.9477495 C7.04369656,76.7495864 5.46993847,73.090559 6.20954916,70.5862017 C6.983916,67.9696042 9.90760264,68.0958743 11.5800682,65.3922908 C12.7409233,63.5164781 13.1871922,60.4705622 11.0795797,55.2570093 C12.0638737,55.4941166 13.0481676,55.7298208 14.0324615,55.965525 C15.7188295,61.5887543 17.4038073,67.2119835 19.088785,72.8352128" id="Fill-277" fill="#FAD59D"></path>
                <path d="M70.4528027,88.8411051 C67.2219617,102.848829 56.520146,110.008363 52.8861402,112.15733 C44.1891028,117.299353 27.326598,122.506413 19.8680497,114.162387 C13.432601,106.965492 16.0048475,91.9324076 21.4958965,89.5412837 C24.5265358,88.2198003 27.3417857,91.1824138 31.0834862,89.5329812 C34.5476658,88.0080862 35.9877372,83.6049866 36.7705948,79.7290966 C40.9637846,58.9935694 29.0096729,40.3613457 36.5842002,28.9315522 C38.3722083,26.2332354 42.0393509,22.7420285 50.5527551,21.0981308 C53.8981943,32.2926864 57.2422528,43.4872419 60.587692,54.6817975 C61.6273601,55.762508 74.8061539,69.9528871 70.4528027,88.8411051" id="Fill-278" fill="#B1422E"></path>
                <path d="M44.1865123,72.3587471 C44.5353324,72.7734106 40.0808426,78.2932816 32.8160998,81.2524709 C29.984749,82.4049123 23.9985447,84.8417334 19.2697809,82.2096973 C18.871732,81.9875562 15.9194193,80.3437117 16.0811706,78.3942548 C16.2921506,75.8416511 21.7776291,73.5327294 26.6737704,73.4573361 C32.0284414,73.3752112 33.7964533,76.0072472 38.501306,75.0082852 C42.0935912,74.2449274 43.9642801,72.0948704 44.1865123,72.3587471" id="Fill-279" fill="#913227"></path>
                <path d="M24.1044807,44.0556192 C24.277626,44.9634679 21.4978336,46.2169773 17.8942487,46.8548192 C14.2920165,47.4926611 11.2322159,47.2722209 11.0590707,46.3643722 C10.8859254,45.4565236 13.6657178,44.2030142 17.2693027,43.5651723 C20.8715349,42.9286347 23.9313355,43.1477706 24.1044807,44.0556192" id="Fill-280" fill="#913227"></path>
                <path d="M57.1851464,25.8640544 L6.77469863,41.1915888 L0.236174787,20.4925291 C-0.620242539,17.782214 0.92575757,14.904124 3.68825956,14.0638854 L49.0978419,0.257237413 C52.1689878,-0.675754801 55.4292128,1.00881447 56.38156,4.02194284 L61.0223409,18.7179342 C61.9746881,21.7310626 60.2562923,24.9310622 57.1851464,25.8640544" id="Fill-281" fill="#B1422E"></path>
                <polyline id="Fill-282" fill="#B1422E" points="65.3037383 62.1781325 61.7768963 63.2943925 50.2336449 25.2284095 53.7604869 24.1121495 65.3037383 62.1781325"></polyline>
                <path d="M54.2495999,49.99951 C54.4012521,55.8870402 48.2087867,61.0604347 45.8904737,60.1827566 C44.9580934,59.8297774 45.240335,58.7231397 43.8459772,53.224023 C42.5063826,47.9416002 41.7691844,47.0802763 42.4600445,45.5511539 C43.4598257,43.3378787 46.5392082,41.7474278 49.2282266,42.3102866 C52.8538378,43.0721221 54.1836031,47.4169013 54.2495999,49.99951" id="Fill-293" fill="#FAD59D"></path>
            </g>
        </g>
    </g>
</svg>