<?xml version="1.0" encoding="UTF-8"?>
<svg width="171px" height="430px" viewBox="0 0 171 430" version="1.1" xmlns="http://www.w3.org/2000/svg" xmlns:xlink="http://www.w3.org/1999/xlink">
    <!-- Generator: Sketch 48.2 (47327) - http://www.bohemiancoding.com/sketch -->
    <title>Group</title>
    <desc>Created with Sketch.</desc>
    <defs></defs>
    <g id="Problemas-Comuns----2-/-3" stroke="none" stroke-width="1" fill="none" fill-rule="evenodd" transform="translate(-719.000000, -138.000000)">
        <g id="Content" transform="translate(251.000000, 138.000000)">
            <g id="Group" transform="translate(468.000000, 0.000000)">
                <polygon id="Fill-3" fill="#F0AA3A" points="54.2523364 239.190256 114.636814 239.190256 114.636814 113.528037 54.2523364 113.528037"></polygon>
                <path d="M62.9111191,94.4402625 L108.72692,94.4402625 C111.278337,94.4402625 113.365605,92.3529951 113.365605,89.8001714 L113.365605,27.7461612 C113.365605,25.194744 111.278337,23.1074766 108.72692,23.1074766 L62.9111191,23.1074766 C60.3582955,23.1074766 58.271028,25.194744 58.271028,27.7461612 L58.271028,89.8001714 C58.271028,92.3529951 60.3582955,94.4402625 62.9111191,94.4402625" id="Fill-4" fill="#FAD59D"></path>
                <path d="M59.7917142,104.578124 C61.1349355,106.285633 71.4067104,118.885189 88.1470451,118.1102 C89.0795642,118.068004 104.103951,117.124233 113.309588,104.578124 C121.820407,92.9828192 121.842911,76.2649887 113.246295,62.6583681 C113.22801,63.8159295 113.10705,65.3912257 112.666811,67.2014097 C112.468493,68.0171881 111.873537,70.4012301 110.572511,72.4856845 C108.254575,76.2016956 105.90007,75.316998 103.096887,78.6715349 C100.219158,82.1160888 101.821178,84.0697373 99.2303789,86.4045513 C96.8688411,88.5340141 93.7660703,88.5072903 88.9839212,88.4679079 C84.1089422,88.4257125 80.0328634,88.3863301 77.3211036,85.6323748 C75.3801137,83.6604416 76.3942106,82.5872711 73.9693797,78.9303336 C72.4981656,76.7108538 70.8412916,75.3029329 67.5247306,72.4856845 C62.793216,68.4658662 61.2784,68.0748552 59.8887637,65.5586009 C58.6116486,63.2434781 58.4119236,60.8903795 58.4386474,59.2757009 C49.6887211,74.4562112 50.2667985,92.4764741 59.7917142,104.578124" id="Fill-6" fill="#B1422E"></path>
                <path d="M66.3353189,73.720944 C65.8767952,74.6084546 71.3411037,80.5636367 77.9348434,80.6817839 C83.5538685,80.7816464 84.6087543,76.5494445 90.5667495,76.5564771 C95.6695838,76.5635097 96.3629954,79.6719066 101.907475,79.908201 C108.449174,80.1852843 114.023191,76.1387423 113.765798,75.2681099 C113.573106,74.6211132 110.33531,76.3314348 106.032782,75.0107177 C101.688059,73.6759355 100.810394,70.650523 97.0099921,70.1132345 C94.6259501,69.775671 92.5133654,70.6195797 91.0815337,71.4016017 C88.3191394,69.5182789 86.130603,69.2411956 84.6368846,69.3396516 C79.8083206,69.6589303 78.4158713,74.1668091 73.0373601,74.7519191 C69.130063,75.178093 66.6320934,73.1498992 66.3353189,73.720944" id="Fill-7" fill="#913227"></path>
                <path d="M68.3214041,38.1529771 C68.4479903,39.213489 71.8376901,39.6790452 75.8926712,39.1952043 C79.9476523,38.7099568 83.1334075,37.4567524 83.0054147,36.3976471 C82.8788284,35.3371352 79.4891286,34.8701724 75.4341475,35.3554199 C71.3791664,35.8406674 68.1948178,37.0924652 68.3214041,38.1529771" id="Fill-8" fill="#913227"></path>
                <path d="M93.4382265,38.1529771 C93.5648128,39.213489 96.9545126,39.6790452 101.009494,39.1952043 C105.064475,38.7099568 108.248823,37.4567524 108.122237,36.3976471 C107.995651,35.3371352 104.605951,34.8701724 100.55097,35.3554199 C96.4959889,35.8406674 93.3116402,37.0924652 93.4382265,38.1529771" id="Fill-9" fill="#913227"></path>
                <path d="M55.5442218,29.6436981 L112.799205,29.6436981 L112.799205,0 L55.5442218,0 C52.056066,0 49.228972,2.827094 49.228972,6.31524979 L49.228972,23.3270418 C49.228972,26.8151976 52.056066,29.6436981 55.5442218,29.6436981" id="Fill-10" fill="#B1422E"></path>
                <path d="M51.2383178,54.4641604 C51.2383178,59.0198606 54.5858221,62.711961 58.713942,62.711961 C62.8420618,62.711961 66.1895661,59.0198606 66.1895661,54.4641604 C66.1895661,49.9084602 62.8420618,46.2149533 58.713942,46.2149533 C54.5858221,46.2149533 51.2383178,49.9084602 51.2383178,54.4641604" id="Fill-11" fill="#FAD59D"></path>
                <path d="M105.490654,54.4641604 C105.490654,59.0198606 108.838159,62.711961 112.966278,62.711961 C117.095805,62.711961 120.441903,59.0198606 120.441903,54.4641604 C120.441903,49.9084602 117.095805,46.2149533 112.966278,46.2149533 C108.838159,46.2149533 105.490654,49.9084602 105.490654,54.4641604" id="Fill-12" fill="#FAD59D"></path>
                <polygon id="Fill-13" fill="#B1422E" points="58.271028 70.6887331 62.3949283 70.6887331 62.3949283 27.1261682 58.271028 27.1261682"></polygon>
                <polygon id="Fill-14" fill="#B1422E" points="112.523364 70.6887331 113.586689 70.6887331 113.586689 27.1261682 112.523364 27.1261682"></polygon>
                <path d="M10.13253,53.5340364 C26.168201,37.9090676 46.4402934,35.616449 54.3238068,35.1635514 C54.488369,35.2155924 57.7950844,36.3182997 58.5602283,39.5462504 C59.1833142,42.1736193 57.8471255,45.0527544 55.2380412,46.4522362 C49.1618989,47.6379279 38.6777403,50.5733235 28.4580065,58.6326512 C23.103406,62.8550075 19.2748737,67.3389755 16.623594,71.0296694 C29.678861,85.6813302 42.7327214,100.332991 55.7879884,114.983245 C55.6937519,120.524912 55.5995154,126.065172 55.5052789,131.606839 C55.0833246,131.899394 38.9683575,122.179605 39.1643943,122.309779 C26.1091274,103.712845 13.0552669,85.1173179 0,66.5217906 C2.40092013,62.418988 5.66965967,57.882979 10.13253,53.5340364 Z" id="Fill-164" fill="#F0AA3A"></path>
                <path d="M159.093213,53.5340364 C143.057542,37.9090676 122.78545,35.616449 114.901937,35.1635514 C114.737374,35.2155924 111.430659,36.3182997 110.665515,39.5462504 C110.042429,42.1736193 111.378618,45.0527544 113.987702,46.4522362 C120.063844,47.6379279 130.548003,50.5733235 140.767737,58.6326512 C146.122337,62.8550075 149.95087,67.3389755 152.602149,71.0296694 C139.546882,85.6813302 126.493022,100.332991 113.437755,114.983245 C113.531991,120.524912 113.626228,126.065172 113.720464,131.606839 C114.142419,131.899394 129.961896,122.402321 130.061349,122.309779 C143.116616,103.712845 156.170476,85.1173179 169.225743,66.5217906 C166.824823,62.418988 163.556084,57.882979 159.093213,53.5340364 Z" id="Fill-165" fill="#F0AA3A"></path>
                <polygon id="Fill-166" fill="#3782A7" points="54.2523364 418.871726 79.4275382 418.871726 79.4275382 239.11215 54.2523364 239.11215"></polygon>
                <polygon id="Fill-167" fill="#3782A7" points="89.4158879 418.871726 114.59109 418.871726 114.59109 239.11215 89.4158879 239.11215"></polygon>
                <polygon id="Fill-168" fill="#3782A7" points="54.2523364 257.240718 114.636814 257.240718 114.636814 229.065421 54.2523364 229.065421"></polygon>
                <path d="M56.2428244,39.3857241 C54.4467055,44.2719553 55.1738735,49.0344131 57.8631291,50.0217862 C60.5551977,51.0105659 64.1910375,47.8515345 65.9857499,42.9667099 C67.7818688,38.0804787 67.0547009,33.3180209 64.3640388,32.3306477 C61.6733766,31.3418681 58.0375368,34.5008995 56.2428244,39.3857241" id="Fill-169" fill="#DD472A"></path>
                <polygon id="Fill-170" fill="#472218" points="54.2523364 233.433353 114.636814 233.433353 114.636814 224.042056 54.2523364 224.042056"></polygon>
                <path d="M87.4264272,429.979368 L120.389499,429.979368 C121.201058,419.566942 114.109412,411.032212 106.301851,410.012489 C97.2874999,408.83383 86.8905452,417.617513 87.4264272,429.979368" id="Fill-171" fill="#101F30"></path>
                <path d="M116.218704,39.3857241 C118.014822,44.2719553 117.289061,49.0344131 114.598399,50.0217862 C111.907737,51.0105659 108.27049,47.8515345 106.475778,42.9667099 C104.681066,38.0804787 105.406827,33.3180209 108.097489,32.3306477 C110.788151,31.3418681 114.423991,34.5008995 116.218704,39.3857241" id="Fill-172" fill="#DD472A"></path>
                <path d="M50.2535326,429.979368 L83.2166048,429.979368 C84.0281636,419.566942 76.9365178,411.032212 69.1289562,410.012489 C60.1131987,408.83383 49.7176506,417.617513 50.2535326,429.979368" id="Fill-173" fill="#101F30"></path>
                <path d="M113.528037,47.1899142 C114.187693,49.2631164 115.971153,50.7441761 118.035916,50.9467142 C120.664692,51.2026998 122.386265,49.2532708 122.543795,49.0676109 C123.044514,42.6820354 123.54664,36.2950534 124.047359,29.9080714 C126.076959,24.2384117 123.771682,19.2241878 120.666098,18.2621319 C117.955745,17.4238493 115.061138,19.7994522 114.654655,20.1412352 C114.279116,29.1569927 113.903577,38.1741567 113.528037,47.1899142" id="Fill-174" fill="#F6C488"></path>
                <path d="M59.5097648,47.1899142 C58.8501095,49.2631164 57.0666492,50.7441761 55.001886,50.9467142 C52.3731106,51.2026998 50.6515369,49.2532708 50.4940073,49.0676109 C49.9918816,42.6820354 49.4911625,36.2950534 48.9904433,29.9080714 C46.960843,24.2384117 49.2661202,19.2241878 52.371704,18.2621319 C55.0820573,17.4238493 57.976664,19.7994522 58.3831467,20.1412352 C58.7586861,29.1569927 59.1342254,38.1741567 59.5097648,47.1899142" id="Fill-175" fill="#F6C488"></path>
                <path d="M44.2684934,34.5199347 C47.7988447,35.5846661 51.3306024,36.6493976 54.8623601,37.714129 C50.0084788,33.2892346 45.156004,28.8643402 40.3021227,24.4394458 C37.6184932,28.0696595 34.9334572,31.6998733 32.2484211,35.330087 C32.2610797,34.9221978 32.2737384,34.5143087 32.286397,34.1064195 C27.8586896,30.4410429 23.4309822,26.7742598 19.0046812,23.1074766 C13.6739916,24.5800972 8.34470838,26.0541244 3.01401869,27.526745 C12.2182491,32.5761318 21.4224796,37.6255186 30.62671,42.6749054 C35.1739711,39.956113 39.7212323,37.2387271 44.2684934,34.5199347" id="Fill-176" fill="#DD472A"></path>
                <path d="M30.5653831,17.3656703 C32.3066479,18.9775359 34.0479128,20.5894014 35.7891777,22.201267 C32.943799,17.0013831 30.0984203,11.8029058 27.2530416,6.60302192 C26.6074515,9.85066374 25.9604548,13.0983056 25.3148647,16.3459474 C25.2571976,15.9380582 25.200937,15.5287625 25.1446765,15.1194668 C22.6059179,10.7494265 20.0657529,6.37938613 17.5269943,2.00934579 C15.3679947,2.68025318 13.2104015,3.35116056 11.0514019,4.02066143 C15.937633,10.5145386 20.8238641,17.0070092 25.7100953,23.4994798 C27.3289934,21.4544078 28.946485,19.4107423 30.5653831,17.3656703" id="Fill-177" fill="#DD472A"></path>
                <path d="M129.145269,34.5199347 C125.614917,35.5846661 122.08316,36.6493976 118.551402,37.714129 C123.405283,33.2892346 128.257758,28.8643402 133.111639,24.4394458 C135.796675,28.0696595 138.480305,31.6998733 141.165341,35.330087 C141.152682,34.9221978 141.140024,34.5143087 141.127365,34.1064195 C145.555072,30.4410429 149.98278,26.7742598 154.409081,23.1074766 C159.73977,24.5800972 165.069054,26.0541244 170.399743,27.526745 C161.195513,32.5761318 151.991282,37.6255186 142.787052,42.6749054 C138.241197,39.956113 133.69253,37.2387271 129.145269,34.5199347" id="Fill-178" fill="#DD472A"></path>
                <path d="M141.859309,17.3656703 C140.118044,18.9775359 138.376779,20.5894014 136.635514,22.201267 C139.480893,17.0013831 142.326271,11.8029058 145.17165,6.60302192 C145.81724,9.85066374 146.464237,13.0983056 147.109827,16.3459474 C147.167494,15.9380582 147.223755,15.5287625 147.280015,15.1194668 C149.82018,10.7494265 152.358939,6.37938613 154.897697,2.00934579 C157.056697,2.68025318 159.21429,3.35116056 161.37329,4.02066143 C156.487059,10.5145386 151.600828,17.0070092 146.714596,23.4994798 C145.095698,21.4544078 143.478207,19.4107423 141.859309,17.3656703" id="Fill-179" fill="#DD472A"></path>
            </g>
        </g>
    </g>
</svg>