<?xml version="1.0" encoding="UTF-8"?>
<svg width="164px" height="370px" viewBox="0 0 164 370" version="1.1" xmlns="http://www.w3.org/2000/svg" xmlns:xlink="http://www.w3.org/1999/xlink">
    <!-- Generator: Sketch 47.1 (45422) - http://www.bohemiancoding.com/sketch -->
    <title>Boys</title>
    <desc>Created with Sketch.</desc>
    <defs></defs>
    <g id="Questions" stroke="none" stroke-width="1" fill="none" fill-rule="evenodd">
        <g id="Demograficos---3-/-3" transform="translate(-638.000000, -222.000000)" fill-rule="nonzero">
            <g id="Carachter" transform="translate(114.000000, 214.000000)">
                <g id="Person">
                    <g id="Boys" transform="translate(523.494036, 8.500000)">
                        <g id="Layer_1">
                            <path d="M6.51173213,6.36717349 L6.51173213,31.834425 L158.63309,31.834425 L158.63309,6.36717349 C158.63309,2.85109162 155.794753,0 152.294401,0 L12.8504212,0 C9.350069,0 6.51173213,2.85109162 6.51173213,6.36717349 Z" id="Shape" fill="#285680"></path>
                            <path d="M151.816199,25.4672515 L120.603109,25.4672515 L120.603109,6.36717349 C120.603109,2.85109162 117.764772,0 114.26442,0 C110.764068,0 107.925731,2.85109162 107.925731,6.36717349 L107.925731,25.4672515 L57.2190907,25.4672515 L57.2190907,6.36717349 C57.2190907,2.85109162 54.3807538,0 50.8804016,0 C47.3800494,0 44.5417125,2.85109162 44.5417125,6.36717349 L44.5417125,25.4672515 L13.3286232,25.4672515 C6.14338737,25.4672515 0.39419351,31.4593762 0.660579288,38.6718519 L12.6242446,363.146706 C12.7498983,366.569025 15.548744,369.278031 18.9579075,369.278031 L63.5570617,369.278031 C67.0574139,369.278031 69.8957508,366.42694 69.8957508,362.910858 L69.8957508,114.604074 C69.8957508,107.57191 75.5717065,101.870448 82.5724109,101.870448 C89.5731153,101.870448 95.2490711,107.57191 95.2490711,114.604074 L95.2490711,362.9123 C95.2490711,366.428382 98.0874079,369.279474 101.58776,369.279474 L146.186914,369.279474 C149.596078,369.279474 152.394924,366.570468 152.520577,363.148148 L164.484243,38.6732943 C164.750628,31.4593762 159.001435,25.4672515 151.816199,25.4672515 Z" id="Shape" fill="#4482C3"></path>
                            <g id="Group" transform="translate(1.436042, 25.243665)" fill="#285680">
                                <path d="M157.436149,35.001423 C145.183839,35.001423 135.251455,25.0244055 135.251455,12.717037 L135.251455,0.223586745 L125.50432,0.223586745 L125.50432,12.9572125 C125.50432,30.5383431 139.693851,44.7916374 157.19633,44.7916374 L161.891469,44.7916374 L162.252633,35.0007018 L157.436149,35.0007018 L157.436149,35.001423 Z" id="Shape"></path>
                                <path d="M4.83658922,35.001423 C17.088899,35.001423 27.021283,25.0244055 27.021283,12.717037 L27.021283,0.223586745 L36.7684176,0.223586745 L36.7684176,12.9572125 C36.7684176,30.5383431 22.5788873,44.7916374 5.07640822,44.7916374 L0.381269132,44.7916374 L0.020104587,35.0007018 L4.83658922,35.0007018 L4.83658922,35.001423 Z" id="Shape"></path>
                                <path d="M74.7976799,78.3923977 C76.6681245,77.2982651 78.8157253,76.6260624 81.136369,76.6260624 C83.4570128,76.6260624 85.6038955,77.2982651 87.4750581,78.3923977 L87.4750581,0.223586745 L74.798398,0.223586745 L74.798398,78.3923977 L74.7976799,78.3923977 Z" id="Shape"></path>
                                <path d="M68.4597089,337.667914 L68.4597089,324.934288 L10.7100007,324.934288 L11.1882027,337.903762 C11.3138563,341.326082 14.1127021,344.035088 17.5218656,344.035088 L62.1210198,344.035088 C65.621372,344.035088 68.4597089,341.183996 68.4597089,337.667914 Z" id="Shape"></path>
                                <path d="M151.084535,337.903762 L151.563455,324.934288 L93.8137472,324.934288 L93.8137472,337.667914 C93.8137472,341.183996 96.652084,344.035088 100.152436,344.035088 L144.75159,344.035088 C148.160036,344.035088 150.958164,341.326082 151.084535,337.903762 Z" id="Shape"></path>
                            </g>
                        </g>
                    </g>
                </g>
            </g>
        </g>
    </g>
</svg>