<?xml version="1.0" encoding="UTF-8"?>
<svg width="126px" height="305px" viewBox="0 0 126 305" version="1.1" xmlns="http://www.w3.org/2000/svg" xmlns:xlink="http://www.w3.org/1999/xlink">
    <!-- Generator: Sketch 47.1 (45422) - http://www.bohemiancoding.com/sketch -->
    <title>Girls</title>
    <desc>Created with Sketch.</desc>
    <defs></defs>
    <g id="Questions" stroke="none" stroke-width="1" fill="none" fill-rule="evenodd">
        <g id="Demograficos---3-/-3" transform="translate(-657.000000, -255.000000)" fill-rule="nonzero">
            <g id="Carachter" transform="translate(114.000000, 214.000000)">
                <g id="Person">
                    <g id="Girls" transform="translate(543.000000, 41.000000)">
                        <g id="Layer_1">
                            <g id="Group">
                                <path d="M78.4539785,20.9932749 C78.4539785,12.2969103 71.4372157,5.24802144 62.7791636,5.24802144 C54.1217035,5.24802144 47.1043488,12.2963158 47.1043488,20.9932749 C47.1043488,29.6902339 54.1211116,36.7385283 62.7791636,36.7385283 C71.4366238,36.7385283 78.4539785,29.6902339 78.4539785,20.9932749" id="Shape" fill="#F29C1F"></path>
                                <g transform="translate(4.735057, 0.000000)" id="Shape" fill="#F0C419">
                                    <path d="M73.7189214,20.9932749 C73.7189214,24.9350877 72.2244189,28.4981774 69.8420933,31.25923 C82.037233,30.6034503 101.253871,28.3673782 115.51823,20.9932749 L110.293095,0 C101.954067,6.05659844 84.1632737,9.06379142 69.3088075,10.0822417 C72.0261384,12.9110721 73.7189214,16.7476511 73.7189214,20.9932749"></path>
                                    <path d="M42.3692916,20.9932749 C42.3692916,16.7470565 44.0620745,12.9110721 46.7788136,10.0816472 C31.9249392,9.06379142 14.1341457,6.05659844 5.7951181,0 L0.569982507,20.9932749 C14.8337504,28.3673782 34.0509799,30.6028558 46.2461196,31.25923 C43.863794,28.4987719 42.3692916,24.9350877 42.3692916,20.9932749"></path>
                                </g>
                                <path d="M120.175159,115.464201 C126.962272,94.7961404 127.5216,34.7705945 120.175159,20.9932749 C105.916718,28.3620273 86.7569013,30.5975049 74.5777423,31.25923 C71.7041545,34.5868811 67.5136289,36.7385283 62.7797555,36.7385283 C58.0458821,36.7385283 53.8553565,34.5868811 50.9817687,31.25923 C38.8079367,30.6082066 19.5960341,28.3780799 5.30563156,20.9932749 C-2.04080964,34.77 -1.48148101,94.7961404 5.30563156,115.464201 C12.0560474,136.01692 10.5307672,141.706092 10.5307672,152.202729 C10.5307672,162.699366 0.0810878541,278.725409 0.0810878541,294.470068 C0.0810878541,310.214727 52.3300762,304.966706 52.3300762,294.470068 L52.3300762,114.976082 C52.3300762,104.589435 62.5187355,94.124308 62.7383238,78.7256725 C62.963239,94.124308 73.1513064,104.589435 73.1513064,114.976082 L73.1513064,294.470068 C73.1513064,304.966706 125.400295,310.215322 125.400295,294.470068 C125.400295,278.724815 114.950024,162.699366 114.950024,152.202729 C114.950024,141.706092 113.424743,136.01692 120.175159,115.464201" id="Shape" fill="#4482C3"></path>
                                <path d="M62.7383238,83.973694 C56.5886683,83.973694 46.656294,79.1400682 44.7279419,78.1745322 C42.1467439,76.8730799 41.096745,73.7237914 42.387048,71.1309942 C43.6773511,68.5488986 46.8125509,67.4888304 49.3990758,68.7795809 C53.1764677,70.674386 60.0263198,73.4770565 62.7383238,73.4770565 C65.4603898,73.4770565 72.3049149,70.674386 76.0775717,68.7795809 C78.6640967,67.4882359 81.7886425,68.5381969 83.0895995,71.1309942 C84.3799026,73.7237914 83.3299037,76.8724854 80.7487056,78.1745322 C78.8209455,79.1400682 68.8879793,83.973694 62.7383238,83.973694" id="Shape" fill="#285680"></path>
                            </g>
                        </g>
                    </g>
                </g>
            </g>
        </g>
    </g>
</svg>