<?xml version="1.0" encoding="UTF-8"?>
<svg width="174px" height="335px" viewBox="0 0 174 335" version="1.1" xmlns="http://www.w3.org/2000/svg" xmlns:xlink="http://www.w3.org/1999/xlink">
    <!-- Generator: Sketch 47.1 (45422) - http://www.bohemiancoding.com/sketch -->
    <title>Normal</title>
    <desc>Created with Sketch.</desc>
    <defs></defs>
    <g id="Questions" stroke="none" stroke-width="1" fill="none" fill-rule="evenodd">
        <g id="Demograficos---4-/-4-Mulher" transform="translate(-632.000000, -179.000000)" fill-rule="nonzero">
            <g id="Carachter" transform="translate(103.000000, 179.000000)">
                <g id="Person">
                    <g id="Ilustra" transform="translate(529.000000, 0.000000)">
                        <g id="Normal">
                            <g id="Group">
                                <polygon id="Shape" fill="#F7941E" points="83.5126582 36.795082 78.306962 33.3901639 69.4462025 48.2180328 73.9873418 51.952459"></polygon>
                                <path d="M78.306962,33.3901639 C78.306962,33.3901639 87.5,5.60163934 67.3417722,1.09836066 C47.1835443,-3.40491803 37.6582278,15.3770492 38.2120253,30.7540984 C38.7658228,46.2409836 37.1044304,63.595082 30.1265823,70.1852459 C23.1487342,76.7754098 61.028481,76.2262295 69.335443,48.1081967 L78.306962,33.3901639 Z" id="Shape" fill="#2A1215"></path>
                                <path d="M98.0221519,90.6147541 C98.0221519,90.6147541 84.7310127,121.259016 64.5727848,145.532787 C64.5727848,145.532787 39.3196203,159.811475 73.3227848,181.559016 C87.8322785,190.785246 104.889241,216.486885 104.889241,235.927869 C104.889241,268.54918 59.4778481,296.557377 90.9335443,334.340984 L167.468354,334.340984 C167.468354,334.340984 163.259494,302.268852 169.462025,271.954098 C175.775316,241.639344 174.113924,209.567213 160.379747,189.577049 C160.379747,189.577049 167.689873,186.611475 172.341772,178.154098 C176.329114,170.795082 172.120253,161.568852 163.924051,159.591803 C150.300633,156.296721 133.243671,149.596721 117.958861,137.514754 C110.981013,132.022951 112.420886,123.345902 113.528481,114.559016 C114.193038,109.616393 115.300633,104.12459 117.405063,99.7311475 L98.0221519,90.6147541 Z" id="Shape" fill="#FCC595"></path>
                                <path d="M167.579114,334.340984 C167.579114,334.340984 165.474684,315.229508 166.471519,296.557377 L79.193038,296.557377 C78.306962,306.222951 81.0759494,322.368852 91.0443038,334.340984 L167.579114,334.340984 Z" id="Shape" fill="#002F41"></path>
                                <path d="M94.6993671,313.691803 L99.3512658,334.231148 L91.0443038,334.231148 C91.0443038,334.231148 79.193038,316.767213 79.193038,296.447541 L96.25,296.447541 L94.6993671,313.691803 Z" id="Shape" fill="#002534"></path>
                                <path d="M169.572785,271.954098 C175.886076,241.639344 174.224684,209.567213 160.490506,189.577049 C160.490506,189.577049 167.800633,186.611475 172.452532,178.154098 C176.439873,170.795082 172.231013,161.568852 164.03481,159.591803 C155.39557,157.504918 145.427215,154.1 135.348101,148.718033 C135.348101,148.718033 135.348101,148.718033 135.348101,148.718033 C100.68038,155.637705 80.8544304,122.906557 80.8544304,122.906557 L70.664557,135.537705 C67.8955696,138.503279 64.9050633,144.654098 61.693038,147.4 C61.693038,147.4 47.8481013,166.840984 73.3227848,181.559016 C88.164557,190.12623 104.889241,216.486885 104.889241,235.927869 C104.889241,264.045902 69.8892405,284.47541 81.7405063,313.691803 L166.25,313.691803 C165.806962,303.257377 166.25,288.1 169.572785,271.954098 Z" id="Shape" fill="#EB5D7B"></path>
                                <path d="M103.670886,265.47377 C96.5822785,263.386885 87.6107595,259.762295 87.6107595,259.762295 C87.278481,261.629508 53.7183544,224.504918 33.5601266,204.954098 C33.5601266,204.954098 62.2468354,188.588525 80.4113924,184.414754 L87.8322785,190.12623 C99.4620253,199.132787 110.537975,190.455738 109.984177,175.847541 C109.762658,170.136066 107.879747,162.777049 104.446203,155.747541 C98.4651899,143.555738 84.2879747,137.404918 71.4398734,141.908197 C64.0189873,144.434426 54.9367089,149.706557 44.5253165,159.701639 C12.2943038,190.455738 0.443037975,200.45082 0.443037975,200.45082 C0.443037975,200.45082 7.86392405,220.55082 22.5949367,232.413115 C37.2151899,244.27541 55.4905063,253.062295 77.7531646,268.219672 C77.7531646,268.219672 70.221519,305.12459 81.5189873,314.021311 C81.5189873,314.021311 85.9493671,273.381967 89.3829114,273.821311 C92.8164557,274.260656 108.212025,272.393443 108.212025,272.393443 C108.212025,272.393443 110.759494,267.560656 103.670886,265.47377 Z" id="Shape" fill="#FCC595"></path>
                                <path d="M162.041139,64.2540984 C162.041139,36.795082 130.917722,32.1819672 119.952532,35.0377049 C112.753165,36.904918 89.3829114,48.7672131 95.6962025,81.3885246 L95.6962025,96.2163934 C95.6962025,96.2163934 105,114.119672 127.594937,126.311475 C131.25,128.288525 135.791139,127.3 138.449367,124.114754 C141.550633,120.380328 145.759494,114.668852 149.857595,107.529508 C151.075949,105.442623 153.291139,104.234426 155.617089,104.234426 L162.151899,103.904918 C162.151899,103.904918 158.718354,91.0540984 160.268987,80.8393443 C161.376582,75.6770492 162.041139,70.0754098 162.041139,64.2540984 Z" id="Shape" fill="#FCC595"></path>
                                <path d="M161.598101,62.3868852 L131.360759,58.542623 L123.718354,69.7459016 L111.091772,69.7459016 L100.68038,80.9491803 C100.68038,80.9491803 122.721519,98.0836066 105.886076,110.934426 C105.886076,110.934426 109.873418,91.9327869 95.806962,81.4983607 L96.25,97.204918 L89.2721519,108.298361 C89.2721519,108.298361 54.9367089,81.4983607 73.8765823,51.7327869 L83.4018987,36.5754098 C83.4018987,36.5754098 106.772152,20.2098361 130.806962,28.0081967 C155.063291,35.9163934 161.376582,48.8770492 161.598101,62.3868852 Z" id="Shape" fill="#2A1215"></path>
                                <path d="M81.8512658,74.5786885 C73.2120253,78.5327869 86.6139241,94.5688525 99.3512658,96.3262295 L95.6962025,81.4983607 C95.6962025,81.4983607 90.4905063,70.6245902 81.8512658,74.5786885 Z" id="Shape" fill="#FCC595"></path>
                                <path d="M123.275316,189.577049 C123.275316,189.577049 136.455696,201.109836 163.037975,193.75082 C162.262658,192.322951 161.376582,191.004918 160.490506,189.577049 C160.490506,189.577049 146.313291,195.727869 123.275316,189.577049 Z" id="Shape" fill="#CF4567"></path>
                            </g>
                        </g>
                    </g>
                </g>
            </g>
        </g>
    </g>
</svg>
