<?xml version="1.0" encoding="UTF-8"?>
<svg width="211px" height="335px" viewBox="0 0 211 335" version="1.1" xmlns="http://www.w3.org/2000/svg" xmlns:xlink="http://www.w3.org/1999/xlink">
    <!-- Generator: Sketch 47.1 (45422) - http://www.bohemiancoding.com/sketch -->
    <title>Ilustra</title>
    <desc>Created with Sketch.</desc>
    <defs></defs>
    <g id="Questions" stroke="none" stroke-width="1" fill="none" fill-rule="evenodd">
        <g id="Demograficos---4-/-4-Mulher" transform="translate(-632.000000, -179.000000)" fill-rule="nonzero">
            <g id="Carachter" transform="translate(103.000000, 179.000000)">
                <g id="Person">
                    <g id="Ilustra" transform="translate(529.000000, 0.000000)">
                        <g id="Normal">
                            <g id="Group">
                                <polygon id="Shape" fill="#F7941E" points="83.5126582 36.795082 78.306962 33.3901639 69.4462025 48.2180328 73.9873418 51.952459"></polygon>
                                <path d="M78.306962,33.3901639 C78.306962,33.3901639 87.5,5.60163934 67.3417722,1.09836066 C47.1835443,-3.40491803 37.6582278,15.3770492 38.2120253,30.7540984 C38.7658228,46.2409836 37.1044304,63.595082 30.1265823,70.1852459 C23.1487342,76.7754098 61.028481,76.2262295 69.335443,48.1081967 L78.306962,33.3901639 Z" id="Shape" fill="#2A1215"></path>
                                <path d="M98.0221519,90.6147541 C98.0221519,90.6147541 84.7310127,121.259016 64.5727848,145.532787 C64.5727848,145.532787 39.3196203,159.811475 73.3227848,181.559016 C87.8322785,190.785246 104.889241,216.486885 104.889241,235.927869 C104.889241,268.54918 59.4778481,296.557377 90.9335443,334.340984 L167.468354,334.340984 C167.468354,334.340984 163.259494,302.268852 169.462025,271.954098 C175.775316,241.639344 174.113924,209.567213 160.379747,189.577049 C160.379747,189.577049 167.689873,186.611475 172.341772,178.154098 C176.329114,170.795082 172.120253,161.568852 163.924051,159.591803 C150.300633,156.296721 133.243671,149.596721 117.958861,137.514754 C110.981013,132.022951 112.420886,123.345902 113.528481,114.559016 C114.193038,109.616393 115.300633,104.12459 117.405063,99.7311475 L98.0221519,90.6147541 Z" id="Shape" fill="#FCC595"></path>
                                <path d="M167.579114,334.340984 C167.579114,334.340984 165.474684,315.229508 166.471519,296.557377 L79.193038,296.557377 C78.306962,306.222951 81.0759494,322.368852 91.0443038,334.340984 L167.579114,334.340984 Z" id="Shape" fill="#002F41"></path>
                                <path d="M94.6993671,313.691803 L99.3512658,334.231148 L91.0443038,334.231148 C91.0443038,334.231148 79.193038,316.767213 79.193038,296.447541 L96.25,296.447541 L94.6993671,313.691803 Z" id="Shape" fill="#002534"></path>
                                <path d="M169.572785,271.954098 C175.886076,241.639344 174.224684,209.567213 160.490506,189.577049 C160.490506,189.577049 167.800633,186.611475 172.452532,178.154098 C176.439873,170.795082 172.231013,161.568852 164.03481,159.591803 C155.39557,157.504918 145.427215,154.1 135.348101,148.718033 C135.348101,148.718033 135.348101,148.718033 135.348101,148.718033 C100.68038,155.637705 80.8544304,122.906557 80.8544304,122.906557 L70.664557,135.537705 C67.8955696,138.503279 64.9050633,144.654098 61.693038,147.4 C61.693038,147.4 47.8481013,166.840984 73.3227848,181.559016 C88.164557,190.12623 104.889241,216.486885 104.889241,235.927869 C104.889241,264.045902 69.8892405,284.47541 81.7405063,313.691803 L166.25,313.691803 C165.806962,303.257377 166.25,288.1 169.572785,271.954098 Z" id="Shape" fill="#EB5D7B"></path>
                                <path d="M103.670886,265.47377 C96.5822785,263.386885 87.6107595,259.762295 87.6107595,259.762295 C87.278481,261.629508 53.7183544,224.504918 33.5601266,204.954098 C33.5601266,204.954098 62.2468354,188.588525 80.4113924,184.414754 L87.8322785,190.12623 C99.4620253,199.132787 110.537975,190.455738 109.984177,175.847541 C109.762658,170.136066 107.879747,162.777049 104.446203,155.747541 C98.4651899,143.555738 84.2879747,137.404918 71.4398734,141.908197 C64.0189873,144.434426 54.9367089,149.706557 44.5253165,159.701639 C12.2943038,190.455738 0.443037975,200.45082 0.443037975,200.45082 C0.443037975,200.45082 7.86392405,220.55082 22.5949367,232.413115 C37.2151899,244.27541 55.4905063,253.062295 77.7531646,268.219672 C77.7531646,268.219672 70.221519,305.12459 81.5189873,314.021311 C81.5189873,314.021311 85.9493671,273.381967 89.3829114,273.821311 C92.8164557,274.260656 108.212025,272.393443 108.212025,272.393443 C108.212025,272.393443 110.759494,267.560656 103.670886,265.47377 Z" id="Shape" fill="#FCC595"></path>
                                <path d="M162.041139,64.2540984 C162.041139,36.795082 130.917722,32.1819672 119.952532,35.0377049 C112.753165,36.904918 89.3829114,48.7672131 95.6962025,81.3885246 L95.6962025,96.2163934 C95.6962025,96.2163934 105,114.119672 127.594937,126.311475 C131.25,128.288525 135.791139,127.3 138.449367,124.114754 C141.550633,120.380328 145.759494,114.668852 149.857595,107.529508 C151.075949,105.442623 153.291139,104.234426 155.617089,104.234426 L162.151899,103.904918 C162.151899,103.904918 158.718354,91.0540984 160.268987,80.8393443 C161.376582,75.6770492 162.041139,70.0754098 162.041139,64.2540984 Z" id="Shape" fill="#FCC595"></path>
                                <path d="M161.598101,62.3868852 L131.360759,58.542623 L123.718354,69.7459016 L111.091772,69.7459016 L100.68038,80.9491803 C100.68038,80.9491803 122.721519,98.0836066 105.886076,110.934426 C105.886076,110.934426 109.873418,91.9327869 95.806962,81.4983607 L96.25,97.204918 L89.2721519,108.298361 C89.2721519,108.298361 54.9367089,81.4983607 73.8765823,51.7327869 L83.4018987,36.5754098 C83.4018987,36.5754098 106.772152,20.2098361 130.806962,28.0081967 C155.063291,35.9163934 161.376582,48.8770492 161.598101,62.3868852 Z" id="Shape" fill="#2A1215"></path>
                                <path d="M81.8512658,74.5786885 C73.2120253,78.5327869 86.6139241,94.5688525 99.3512658,96.3262295 L95.6962025,81.4983607 C95.6962025,81.4983607 90.4905063,70.6245902 81.8512658,74.5786885 Z" id="Shape" fill="#FCC595"></path>
                                <path d="M123.275316,189.577049 C123.275316,189.577049 136.455696,201.109836 163.037975,193.75082 C162.262658,192.322951 161.376582,191.004918 160.490506,189.577049 C160.490506,189.577049 146.313291,195.727869 123.275316,189.577049 Z" id="Shape" fill="#CF4567"></path>
                            </g>
                        </g>
                        <g id="Pregnant" transform="translate(0.000000, 25.000000)">
                            <g id="Group">
                                <polygon id="Shape" fill="#F7941E" points="83.7371728 11.795082 78.5450262 8.39016393 69.5968586 23.2180328 74.2366492 26.952459"></polygon>
                                <path d="M98.2089005,65.6147541 C98.2089005,65.6147541 84.952356,96.2590164 64.8465969,120.532787 C64.8465969,120.532787 39.6591623,134.811475 73.573822,156.559016 C88.0455497,165.785246 105.058115,191.486885 105.058115,210.927869 C105.058115,243.54918 59.7649215,271.557377 91.1387435,309.340984 L167.474346,309.340984 C167.474346,309.340984 163.27644,277.268852 169.462827,246.954098 C175.759686,216.639344 174.102618,184.567213 160.404188,164.577049 C160.404188,164.577049 167.695288,161.611475 172.335079,153.154098 C176.312042,145.795082 172.114136,136.568852 163.939267,134.591803 C150.351309,131.296721 133.338743,124.596721 118.093717,112.514754 C111.134031,107.022951 112.570157,98.3459016 113.674869,89.5590164 C114.337696,84.6163934 115.442408,79.1245902 117.541361,74.7311475 L98.2089005,65.6147541 Z" id="Shape" fill="#FCC595"></path>
                                <path d="M167.474346,309.340984 C167.474346,309.340984 172.887435,290.229508 173.881675,271.557377 L79.3183246,271.557377 C78.434555,281.222951 81.1963351,297.368852 91.1387435,309.340984 L167.474346,309.340984 Z" id="Shape" fill="#002F41"></path>
                                <path d="M94.7842932,288.691803 L99.4240838,309.231148 L91.1387435,309.231148 C91.1387435,309.231148 79.3183246,291.767213 79.3183246,271.447541 L96.3308901,271.447541 L94.7842932,288.691803 Z" id="Shape" fill="#002534"></path>
                                <path d="M210.558115,220.593443 C207.023037,187.532787 169.020942,177.098361 160.404188,164.577049 C160.404188,164.577049 167.695288,161.611475 172.335079,153.154098 C176.312042,145.795082 172.114136,136.568852 163.939267,134.591803 C155.322513,132.504918 145.380105,129.1 135.327225,123.718033 C135.327225,123.718033 135.327225,123.718033 135.327225,123.718033 C100.749738,130.637705 80.9753927,97.9065574 80.9753927,97.9065574 L70.8120419,110.537705 C68.0502618,113.503279 65.0675393,119.654098 61.8638743,122.4 C61.8638743,122.4 48.0549738,141.840984 73.4633508,156.559016 C88.2664921,165.12623 104.947644,191.486885 104.947644,210.927869 C104.947644,239.045902 70.0387435,259.47541 81.8591623,288.691803 L172.335079,288.691803 C172.114136,278.257377 215.197906,264.747541 210.558115,220.593443 Z" id="Shape" fill="#EB5D7B"></path>
                                <path d="M103.842932,240.47377 C96.7727749,238.386885 87.8246073,234.762295 87.8246073,234.762295 C87.4931937,236.629508 54.0204188,199.504918 33.9146597,179.954098 C33.9146597,179.954098 62.5267016,163.588525 80.6439791,159.414754 L88.0455497,165.12623 C99.6450262,174.132787 110.692147,165.455738 110.139791,150.847541 C109.918848,145.136066 108.040838,137.777049 104.61623,130.747541 C98.6507853,118.555738 84.5104712,112.404918 71.6958115,116.908197 C64.2942408,119.434426 55.2356021,124.706557 44.8513089,134.701639 C12.7041885,165.455738 0.883769634,175.45082 0.883769634,175.45082 C0.883769634,175.45082 8.28534031,195.55082 22.9780105,207.413115 C37.5602094,219.27541 55.7879581,228.062295 77.9926702,243.219672 C77.9926702,243.219672 70.4806283,280.12459 81.7486911,289.021311 C81.7486911,289.021311 86.1675393,248.381967 89.5921466,248.821311 C93.0167539,249.260656 108.372251,247.393443 108.372251,247.393443 C108.372251,247.393443 110.802618,242.560656 103.842932,240.47377 Z" id="Shape" fill="#FCC595"></path>
                                <path d="M162.061257,39.2540984 C162.061257,11.795082 131.018848,7.18196721 120.082199,10.0377049 C112.901571,11.904918 89.5921466,23.7672131 95.8890052,56.3885246 L95.8890052,71.2163934 C95.8890052,71.2163934 105.168586,89.1196721 127.704712,101.311475 C131.350262,103.288525 135.879581,102.3 138.53089,99.1147541 C141.624084,95.3803279 145.82199,89.6688525 149.909424,82.5295082 C151.124607,80.442623 153.334031,79.2344262 155.653927,79.2344262 L162.171728,78.904918 C162.171728,78.904918 158.74712,66.0540984 160.293717,55.8393443 C161.287958,50.6770492 162.061257,45.0754098 162.061257,39.2540984 Z" id="Shape" fill="#FCC595"></path>
                                <path d="M161.619372,37.3868852 L131.460733,33.542623 L123.83822,44.7459016 L111.244503,44.7459016 L100.860209,55.9491803 C100.860209,55.9491803 122.843979,73.0836066 106.052356,85.9344262 C106.052356,85.9344262 110.029319,66.9327869 95.9994764,56.4983607 L96.4413613,72.204918 L89.4816754,83.2983607 C89.4816754,83.2983607 55.2356021,56.4983607 74.126178,26.7327869 L83.6267016,11.5754098 C83.6267016,11.5754098 106.936126,-4.79016393 130.908377,3.00819672 C154.991099,10.9163934 161.287958,23.8770492 161.619372,37.3868852 Z" id="Shape" fill="#2A1215"></path>
                                <path d="M82.0801047,49.5786885 C73.4633508,53.5327869 86.8303665,69.5688525 99.534555,71.3262295 L95.8890052,56.4983607 C95.8890052,56.4983607 90.6968586,45.6245902 82.0801047,49.5786885 Z" id="Shape" fill="#FCC595"></path>
                                <path d="M123.285864,164.577049 C123.285864,164.577049 136.431937,176.109836 162.945026,168.75082 C162.171728,167.322951 161.287958,166.004918 160.404188,164.577049 C160.404188,164.577049 146.374346,170.727869 123.285864,164.577049 Z" id="Shape" fill="#CF4567"></path>
                            </g>
                        </g>
                    </g>
                </g>
            </g>
        </g>
    </g>
</svg>