<?xml version="1.0" encoding="UTF-8"?>
<svg width="132px" height="409px" viewBox="0 0 132 409" version="1.1" xmlns="http://www.w3.org/2000/svg" xmlns:xlink="http://www.w3.org/1999/xlink">
    <!-- Generator: Sketch 47.1 (45422) - http://www.bohemiancoding.com/sketch -->
    <title>Girl</title>
    <desc>Created with Sketch.</desc>
    <defs></defs>
    <g id="Questions" stroke="none" stroke-width="1" fill="none" fill-rule="evenodd">
        <g id="Demograficos---2-/-4-Mulher" transform="translate(-133.000000, -274.000000)" fill-rule="nonzero">
            <g id="Carachter" transform="translate(29.000000, 190.000000)">
                <g id="Person">
                    <g id="Girl" transform="translate(0.000000, 12.000000)">
                        <g transform="translate(103.000000, 72.000000)">
                            <path d="M103,103 L103,10.4243268 C103,4.68616527 98.3180628,0 92.5850785,0 L54.5562827,0 C50.5431937,0 47.0078534,2.29526462 45.1924084,5.64252553 L42.2303665,5.64252553 C35.4463351,5.64252553 30,11.093779 30,17.8839369 L30,103 L103,103 Z" id="Shape" fill="#603913"></path>
                            <rect id="Rectangle-path" fill="#2B190D" x="35" y="57" width="62" height="57"></rect>
                            <g id="Group" transform="translate(33.000000, 234.000000)">
                                <rect id="Rectangle-path" fill="#EFC7B0" x="3.47400368" y="0.673665238" width="18.0455191" height="163.700653"></rect>
                                <rect id="Rectangle-path" fill="#EFC7B0" x="47.18855" y="0.673665238" width="18.0455191" height="163.700653"></rect>
                                <g transform="translate(0.000000, 156.867763)">
                                    <rect id="Rectangle-path" fill="#8E2E1D" x="0" y="12.7034016" width="24.8970264" height="4.61941878"></rect>
                                    <path d="M14.6680155,0.76990313 L10.3255109,0.76990313 C4.63200491,0.76990313 0,5.38932191 0,11.0673575 L0,12.7034016 L24.8970264,12.7034016 L24.8970264,11.0673575 C24.8970264,5.29308402 20.2650215,0.76990313 14.6680155,0.76990313 Z" id="Shape" fill="#EA6025"></path>
                                    <path d="M13.9925148,4.04199143 L10.9045115,4.04199143 C6.75500715,4.04199143 3.47400368,7.41031762 3.47400368,11.4523091 L3.47400368,12.7034016 L21.5195228,12.7034016 L21.5195228,11.4523091 C21.5195228,7.41031762 18.1420192,4.04199143 13.9925148,4.04199143 Z" id="Shape" fill="#EFC7B0"></path>
                                </g>
                                <g transform="translate(43.425046, 156.867763)">
                                    <rect id="Rectangle-path" fill="#8E2E1D" x="0.289500307" y="12.7034016" width="24.8970264" height="4.61941878"></rect>
                                    <path d="M14.9575158,0.76990313 L10.6150112,0.76990313 C4.92150521,0.76990313 0.289500307,5.38932191 0.289500307,11.0673575 L0.289500307,12.7034016 L25.1865267,12.7034016 L25.1865267,11.0673575 C25.1865267,5.29308402 20.6510219,0.76990313 14.9575158,0.76990313 Z" id="Shape" fill="#EA6025"></path>
                                    <path d="M14.2820151,4.04199143 L11.1940119,4.04199143 C7.04450746,4.04199143 3.76350399,7.41031762 3.76350399,11.4523091 L3.76350399,12.7034016 L21.8090231,12.7034016 L21.8090231,11.4523091 C21.8090231,7.41031762 18.4315195,4.04199143 14.2820151,4.04199143 Z" id="Shape" fill="#EFC7B0"></path>
                                </g>
                            </g>
                            <g id="Group" transform="translate(89.000000, 102.000000)">
                                <g>
                                    <g>
                                        <polygon id="Rectangle-path" fill="#EFC7B0" transform="translate(26.655799, 75.106567) rotate(-10.405296) translate(-26.655799, -75.106567) " points="18.5537719 23.1807897 34.7578255 23.1807897 34.7477979 127.032344 18.5537719 126.980159"></polygon>
                                        <rect id="Rectangle-path" fill="#66B4C9" transform="translate(20.026986, 41.180947) rotate(-10.405296) translate(-20.026986, -41.180947) " x="8.7318071" y="38.6269959" width="22.5903571" height="5.10790284"></rect>
                                        <path d="M28.406335,38.1769792 C34.3163778,27.8709871 32.7912055,14.7868581 25.260667,5.7355086 C22.4009688,2.33005037 18.2067449,0.179234644 13.9171977,0.268851966 C12.7733184,0.358469288 11.6294391,0.537703932 10.4855599,0.89617322 C6.3866592,2.15081573 3.33631451,5.55627396 1.90646543,9.76828809 C-1.81114216,20.7912187 1.81114216,33.5168784 11.2481461,41.1343508 C18.1114216,39.8797083 21.4477361,39.3420043 28.406335,38.1769792 Z" id="Shape" fill="#66B4C9"></path>
                                    </g>
                                    <path d="M27.6992603,124.568078 C27.6992603,124.568078 21.6476515,132.553188 26.9826224,135.846017 C30.7250647,141.361505 42.5894031,141.690788 43.4652938,135.846017 C44.3411846,130.001245 43.6633696,124.812687 43.6633696,124.812687 C43.6633696,124.812687 27.6992603,124.568078 27.6992603,124.568078 Z" id="Shape" fill="#EFC7B0"></path>
                                </g>
                            </g>
                            <g id="Group-Copy" transform="translate(22.500000, 172.500000) scale(-1, 1) translate(-22.500000, -172.500000) translate(0.000000, 102.000000)">
                                <g id="Group">
                                    <g>
                                        <polygon id="Rectangle-path" fill="#EFC7B0" transform="translate(26.655799, 75.106567) rotate(-10.405296) translate(-26.655799, -75.106567) " points="18.5537719 23.1807897 34.7578255 23.1807897 34.7477979 127.032344 18.5537719 126.980159"></polygon>
                                        <rect id="Rectangle-path" fill="#66B4C9" transform="translate(20.026986, 41.180947) rotate(-10.405296) translate(-20.026986, -41.180947) " x="8.7318071" y="38.6269959" width="22.5903571" height="5.10790284"></rect>
                                        <path d="M28.406335,38.1769792 C34.3163778,27.8709871 32.7912055,14.7868581 25.260667,5.7355086 C22.4009688,2.33005037 18.2067449,0.179234644 13.9171977,0.268851966 C12.7733184,0.358469288 11.6294391,0.537703932 10.4855599,0.89617322 C6.3866592,2.15081573 3.33631451,5.55627396 1.90646543,9.76828809 C-1.81114216,20.7912187 1.81114216,33.5168784 11.2481461,41.1343508 C18.1114216,39.8797083 21.4477361,39.3420043 28.406335,38.1769792 Z" id="Shape" fill="#66B4C9"></path>
                                    </g>
                                    <path d="M27.6992603,124.568078 C27.6992603,124.568078 21.6476515,132.553188 26.9826224,135.846017 C30.7250647,141.361505 42.5894031,141.690788 43.4652938,135.846017 C44.3411846,130.001245 43.6633696,124.812687 43.6633696,124.812687 C43.6633696,124.812687 27.6992603,124.568078 27.6992603,124.568078 Z" id="Shape" fill="#EFC7B0"></path>
                                </g>
                            </g>
                            <g id="Group" transform="translate(20.000000, 99.000000)">
                                <path d="M65.7914991,0 L27.5651974,0 C18.152691,0 10.4690123,7.68634059 10.4690123,17.1021078 L10.4690123,109.146036 L82.8876843,109.146036 L82.8876843,17.1021078 C82.8876843,7.68634059 75.2040055,0 65.7914991,0 Z" id="Shape" fill="#80CAE4"></path>
                                <polygon id="Shape" fill="#EA6025" points="93.3566965 229.149029 0 229.149029 10.4690123 109.146036 82.8876843 109.146036"></polygon>
                            </g>
                            <path d="M67.5,122 C76.068323,122 83,114.953191 83,106.242553 C83,103.6 82.326087,101.153191 81.2670807,99 L53.7329193,99 C52.5776398,101.153191 52,103.697872 52,106.242553 C52,114.953191 58.931677,122 67.5,122 Z" id="Shape" fill="#EFC7B0"></path>
                            <g id="Group" transform="translate(57.000000, 86.000000)">
                                <rect id="Rectangle-path" fill="#EFC7B0" x="0.675500715" y="0.473940368" width="18.2385193" height="22.9387138"></rect>
                                <path d="M0.675500715,10.3319 C3.57050378,11.0902046 6.65850705,11.4693569 9.74651032,11.4693569 C12.9310137,11.4693569 15.9225169,11.0902046 18.8175199,10.3319 L18.8175199,0.379152295 L0.579000613,0.379152295 L0.579000613,10.3319 L0.675500715,10.3319 Z" id="Shape" fill="#C58C71"></path>
                            </g>
                            <g id="Group" transform="translate(27.000000, 45.000000)">
                                <g transform="translate(34.740037, 0.000000)" id="Shape">
                                    <path d="M35.898038,0.477889871 L0.86850092,0.477889871 L0.86850092,21.6962002 L35.898038,21.6962002 C40.4335428,21.6962002 44.1005467,18.0642371 44.1005467,13.5720723 L44.1005467,8.60201768 C44.1005467,4.01427492 40.4335428,0.477889871 35.898038,0.477889871 Z" fill="#EFC7B0"></path>
                                    <path d="M4.82500511,17.6819252 L4.82500511,4.30100884 L35.898038,4.30100884 C38.2140405,4.30100884 40.1440425,6.21256833 40.1440425,8.50643971 L40.1440425,13.4764944 C40.1440425,15.7703657 38.2140405,17.6819252 35.898038,17.6819252 L4.82500511,17.6819252 L4.82500511,17.6819252 Z" fill="#C58C71"></path>
                                </g>
                                <g id="Shape">
                                    <path d="M8.7815093,0.477889871 L43.8110464,0.477889871 L43.8110464,21.6962002 L8.7815093,21.6962002 C4.2460045,21.6962002 0.579000613,18.0642371 0.579000613,13.5720723 L0.579000613,8.60201768 C0.579000613,4.01427492 4.2460045,0.477889871 8.7815093,0.477889871 Z" fill="#EFC7B0"></path>
                                    <path d="M39.9510423,17.6819252 L39.9510423,4.30100884 L8.8780094,4.30100884 C6.56200695,4.30100884 4.63200491,6.21256833 4.63200491,8.50643971 L4.63200491,13.4764944 C4.63200491,15.7703657 6.56200695,17.6819252 8.8780094,17.6819252 L39.9510423,17.6819252 L39.9510423,17.6819252 Z" fill="#C58C71"></path>
                                </g>
                            </g>
                            <path d="M52.2905964,28 C42.9487157,28 35.629304,35.7251052 36.0145362,44.8807854 L37.1702328,67.5792426 C37.8443892,83.5063114 51.0385918,96 67.1220359,96 C83.20548,96 96.3996827,83.5063114 97.073839,67.5792426 L99,28 L52.2905964,28 Z" id="Shape" fill="#EFC7B0"></path>
                            <path d="M74.1699767,81 L58.7626683,81 C58.0156473,81 57.7355144,81.8695652 58.2957802,82.3043478 C60.5368432,83.9565217 63.4315496,85 66.5130113,85 C69.594473,85 72.4891794,83.9565217 74.7302424,82.3043478 C75.2905082,81.8695652 74.9169977,81 74.1699767,81 Z" id="Shape" fill="#F2F2F4"></path>
                            <polygon id="Shape" fill="#C58C71" points="67 65 67 72 64 71.0128205"></polygon>
                            <path d="M54,15 L54,32.237037 C54,37.0518519 57.9438878,41 62.753507,41 L102,41 L102,15 L54,15 Z" id="Shape" fill="#603913"></path>
                        </g>
                    </g>
                </g>
            </g>
        </g>
    </g>
</svg>