<?xml version="1.0" encoding="UTF-8"?>
<svg width="118px" height="391px" viewBox="0 0 118 391" version="1.1" xmlns="http://www.w3.org/2000/svg" xmlns:xlink="http://www.w3.org/1999/xlink">
    <!-- Generator: Sketch 47.1 (45422) - http://www.bohemiancoding.com/sketch -->
    <title>White</title>
    <desc>Created with Sketch.</desc>
    <defs></defs>
    <g id="Questions" stroke="none" stroke-width="1" fill="none" fill-rule="evenodd">
        <g id="Demograficos---1-/-3" transform="translate(-139.000000, -415.000000)" fill-rule="nonzero">
            <g id="Carachter" transform="translate(98.000000, 164.000000)">
                <g id="Person" transform="translate(0.000000, 162.000000)">
                    <g id="Boy" transform="translate(0.829685, 59.644613)">
                        <g id="White" transform="translate(39.824871, 29.357942)">
                            <g id="Group" transform="translate(73.918976, 103.991179)">
                                <path d="M2.38183367,0.332219686 C31.3744988,0.332219686 44.926311,50.3312824 43.9407247,127.406249 L27.6785499,127.406249 C27.6785499,127.406249 27.1857568,61.6267517 9.93799568,36.4611105 C9.93799568,25.6639707 -5.58498931,4.73413052 2.38183367,0.332219686 Z" id="Shape" fill="#EF9221"></path>
                                <path d="M27.6785499,127.406249 C27.6785499,127.406249 21.4365031,135.462577 26.9393602,138.784774 C30.7995734,144.349453 43.0372705,144.681673 43.9407247,138.784774 C44.8441788,132.887874 43.9407247,127.406249 43.9407247,127.406249 L27.6785499,127.406249 Z" id="Shape" fill="#EFC7B0"></path>
                            </g>
                            <path d="M42.4623452,104.323399 C13.4696801,104.323399 -0.0821321957,154.322462 0.903454153,231.397429 L17.1656289,231.397429 C17.1656289,231.397429 17.6584221,165.617931 34.9061832,140.45229 C34.9061832,129.65515 50.5113003,108.72531 42.4623452,104.323399 Z" id="Shape" fill="#EF9221"></path>
                            <path d="M76.6293386,104.323399 L42.5444774,104.323399 C34.0848612,104.323399 27.267889,111.216957 27.267889,119.771614 L27.267889,216.945872 L91.905927,216.945872 L91.905927,119.771614 C91.8237948,111.216957 85.0068225,104.323399 76.6293386,104.323399 Z" id="Shape" fill="#FAA21B"></path>
                            <path d="M48.1294667,77.4966593 L48.1294667,106.565882 C48.1294667,112.130562 52.5646052,116.615527 58.0674624,116.615527 C63.5703195,116.615527 68.005458,112.130562 68.005458,106.565882 L68.005458,77.4966593 L48.1294667,77.4966593 Z" id="Shape" fill="#EFC7B0"></path>
                            <g id="Group" transform="translate(18.890405, 51.666579)">
                                <g transform="translate(42.537697, 0.000000)" id="Shape">
                                    <path d="M28.8351808,0.415274607 L0.00678008703,0.415274607 L0.00678008703,18.1890278 L28.8351808,18.1890278 C32.5311296,18.1890278 35.5700208,15.1159957 35.5700208,11.3785242 L35.5700208,7.14272324 C35.5700208,3.4883067 32.6132618,0.415274607 28.8351808,0.415274607 Z" fill="#EFC7B0"></path>
                                    <path d="M3.29206791,14.9498859 L3.29206791,3.73747146 L28.8351808,3.73747146 C30.7242213,3.73747146 32.284733,5.31551497 32.284733,7.22577816 L32.284733,11.4615792 C32.284733,13.3718424 30.7242213,14.9498859 28.8351808,14.9498859 L3.29206791,14.9498859 Z" fill="#C58C71"></path>
                                </g>
                                <g id="Shape">
                                    <path d="M6.89910444,0.415274607 L35.7275051,0.415274607 L35.7275051,18.1890278 L6.89910444,18.1890278 C3.20315563,18.1890278 0.164264391,15.1159957 0.164264391,11.3785242 L0.164264391,7.14272324 C0.164264391,3.4883067 3.20315563,0.415274607 6.89910444,0.415274607 Z" fill="#EFC7B0"></path>
                                    <path d="M32.5243495,14.9498859 L32.5243495,3.73747146 L6.98123663,3.73747146 C5.09219613,3.73747146 3.53168441,5.31551497 3.53168441,7.22577816 L3.53168441,11.4615792 C3.53168441,13.3718424 5.09219613,14.9498859 6.98123663,14.9498859 L32.5243495,14.9498859 Z" fill="#C58C71"></path>
                                </g>
                            </g>
                            <path d="M48.1294667,99.3401037 C51.0040935,100.585927 53.9608526,101.333422 57.081876,101.333422 L57.081876,101.333422 C60.859957,101.333422 64.5559058,100.253708 67.9233258,98.4264995 L67.9233258,77.5797142 L48.1294667,77.5797142 L48.1294667,99.3401037 Z" id="Shape" fill="#C58C71"></path>
                            <path d="M64.3916414,11.8002165 L51.7432833,11.8002165 C38.3557354,11.8002165 27.4321534,22.7634661 27.4321534,36.3844732 L27.4321534,67.7792335 C27.4321534,77.4966593 41.14823,98.7587192 58.0674624,98.7587192 L58.0674624,98.7587192 C74.9866947,98.7587192 88.7027713,77.5797142 88.7027713,67.7792335 L88.7027713,36.3844732 C88.7027713,22.7634661 77.7791893,11.8002165 64.3916414,11.8002165 Z" id="Shape" fill="#EFC7B0"></path>
                            <path d="M53.7965882,69.7725516 C53.7965882,69.1911672 56.0141575,70.436991 57.9853302,70.436991 C60.2028994,70.436991 62.1740721,69.1911672 62.1740721,69.7725516 C62.1740721,70.9353205 60.2850316,71.9319796 57.9853302,71.9319796 C55.6856287,71.9319796 53.7965882,70.9353205 53.7965882,69.7725516 Z" id="Shape" fill="#C58C71"></path>
                            <path d="M68.2518546,78.4102635 L47.8009379,78.4102635 C46.4868228,78.4102635 45.747633,79.905252 46.4868228,80.9019111 C49.0329208,84.5563276 53.2216628,86.8818654 57.9853302,86.8818654 L57.9853302,86.8818654 C62.7489975,86.8818654 66.9377395,84.5563276 69.4838376,80.9019111 C70.3051595,79.8221971 69.5659697,78.4102635 68.2518546,78.4102635 Z" id="Shape" fill="#F2F2F4"></path>
                            <polygon id="Shape" fill="#111217" points="36.3024305 24.5076195 58.9709165 34.5572649 56.5890828 26.9162122 73.5904473 34.5572649 71.7014068 26.9162122 84.5961616 40.9524939 87.4707884 59.8059611 90.0168865 59.8059611 90.0168865 32.7300567 90.0168865 22.6804112 74.3296371 7.89663517 40.9018335 6.65081134 18.0690831 0.00641762959 23.4076758 13.37826 17.1656289 10.0560631 23.4076758 36.3844732 26.446567 57.8126429 28.7462685 57.8126429 30.7995734 34.9725396"></polygon>
                            <path d="M27.4321534,216.945872 L27.4321534,381.062397 L53.6323238,381.062397 L53.6323238,244.353996 C53.6323238,241.0318 56.3426862,238.290987 59.6279741,238.290987 C62.9132619,238.290987 65.6236244,241.0318 65.6236244,244.353996 L65.6236244,380.979342 L91.8237948,380.979342 L91.8237948,216.945872 L27.4321534,216.945872 Z" id="Shape" fill="#1980BB"></path>
                            <g id="Group" transform="translate(26.111258, 371.428026)">
                                <rect id="Rectangle-path" fill="#A15D45" x="0.00678008703" y="13.787117" width="28.0892109" height="5.23246005"></rect>
                                <path d="M16.5153514,0.166109843 L11.6695519,0.166109843 C5.26324061,0.166109843 0.0889122827,5.39856989 0.0889122827,11.8768538 L0.0889122827,13.787117 L28.095991,13.787117 L28.095991,11.8768538 C28.095991,5.39856989 22.9216627,0.166109843 16.5153514,0.166109843 Z" id="Shape" fill="#64301B"></path>
                            </g>
                            <g id="Group" transform="translate(64.063113, 371.428026)">
                                <rect id="Rectangle-path" fill="#A15D45" x="0.492793174" y="13.787117" width="28.0892109" height="5.23246005"></rect>
                                <path d="M17.0013645,0.166109843 L12.155565,0.166109843 C5.7492537,0.166109843 0.57492537,5.39856989 0.57492537,11.8768538 L0.57492537,13.787117 L28.6641363,13.787117 L28.6641363,11.8768538 C28.5820041,5.39856989 23.4076758,0.166109843 17.0013645,0.166109843 Z" id="Shape" fill="#64301B"></path>
                            </g>
                            <path d="M17.1656289,231.397429 C17.1656289,231.397429 23.4076758,239.453756 17.9048187,242.775953 C14.0446055,248.340633 1.80690831,248.672852 0.903454153,242.775953 C8.20454815e-14,236.879054 0.903454153,231.397429 0.903454153,231.397429 L17.1656289,231.397429 Z" id="Shape" fill="#EFC7B0"></path>
                        </g>
                    </g>
                </g>
            </g>
        </g>
    </g>
</svg>