<?xml version="1.0" encoding="UTF-8"?>
<svg width="16px" height="16px" viewBox="0 0 16 16" version="1.1" xmlns="http://www.w3.org/2000/svg" xmlns:xlink="http://www.w3.org/1999/xlink">
    <!-- Generator: Sketch 47.1 (45422) - http://www.bohemiancoding.com/sketch -->
    <title>Combined Shape</title>
    <desc>Created with Sketch.</desc>
    <defs></defs>
    <g id="Questions" stroke="none" stroke-width="1" fill="none" fill-rule="evenodd">
        <g id="Demograficos---2-/-3" transform="translate(-854.000000, -562.000000)" fill="#FFFFFF">
            <g id="Carachter" transform="translate(117.000000, 142.000000)">
                <g id="Weight" transform="translate(555.460798, 352.812357)">
                    <g id="Plus" transform="translate(171.000000, 57.000000)">
                        <path d="M20.0796653,16.9966003 L20.0796653,12.6701232 C20.0796653,11.8202431 19.388129,11.124714 18.5350757,11.124714 C17.676075,11.124714 16.990486,11.8166172 16.990486,12.6701232 L16.990486,16.9966003 L12.6640089,16.9966003 C11.8141288,16.9966003 11.1185997,17.6881366 11.1185997,18.5411899 C11.1185997,19.4001906 11.8105029,20.0857796 12.6640089,20.0857796 L16.990486,20.0857796 L16.990486,24.4122567 C16.990486,25.2621368 17.6820224,25.9576659 18.5350757,25.9576659 C19.3940763,25.9576659 20.0796653,25.2657626 20.0796653,24.4122567 L20.0796653,20.0857796 L24.4061424,20.0857796 C25.2560225,20.0857796 25.9515516,19.3942432 25.9515516,18.5411899 C25.9515516,17.6821893 25.2596484,16.9966003 24.4061424,16.9966003 L20.0796653,16.9966003 Z" id="Combined-Shape"></path>
                    </g>
                </g>
            </g>
        </g>
    </g>
</svg>