<?xml version="1.0" encoding="UTF-8"?>
<svg width="268px" height="32px" viewBox="0 0 268 32" version="1.1" xmlns="http://www.w3.org/2000/svg" xmlns:xlink="http://www.w3.org/1999/xlink">
    <!-- Generator: Sketch 47.1 (45422) - http://www.bohemiancoding.com/sketch -->
    <title>Ruler</title>
    <desc>Created with Sketch.</desc>
    <defs></defs>
    <g id="Questions" stroke="none" stroke-width="1" fill="none" fill-rule="evenodd">
        <g id="Demograficos---2-/-3" transform="translate(-683.000000, -311.000000)" fill="#575957">
            <g id="Carachter" transform="translate(117.000000, 142.000000)">
                <g id="Height" transform="translate(532.751032, 0.000000)">
                    <g id="Slider" transform="translate(0.000000, 51.915332)">
                        <g id="Ruler" transform="translate(166.958047, 133.500000) rotate(90.000000) translate(-166.958047, -133.500000) translate(151.458047, 0.000000)">
                            <rect id="Rectangle-7" x="28.5969739" y="0" width="2.11829436" height="266.76001"></rect>
                            <rect id="Rectangle-8" x="0" y="0" width="26.4786795" height="2.11899314"></rect>
                            <rect id="Rectangle-8-Copy" x="10.5914718" y="5.29748284" width="15.8872077" height="2.11899314"></rect>
                            <rect id="Rectangle-8-Copy-2" x="10.5914718" y="10.5949657" width="15.8872077" height="2.11899314"></rect>
                            <rect id="Rectangle-8-Copy-3" x="10.5914718" y="15.8924485" width="15.8872077" height="2.11899314"></rect>
                            <rect id="Rectangle-8-Copy-4" x="10.5914718" y="21.1899314" width="15.8872077" height="2.11899314"></rect>
                            <rect id="Rectangle-8-Copy-9" x="0" y="26.4874142" width="26.4786795" height="2.11899314"></rect>
                            <rect id="Rectangle-8-Copy-8" x="10.5914718" y="31.784897" width="15.8872077" height="2.11899314"></rect>
                            <rect id="Rectangle-8-Copy-7" x="10.5914718" y="37.0823799" width="15.8872077" height="2.11899314"></rect>
                            <rect id="Rectangle-8-Copy-6" x="10.5914718" y="42.3798627" width="15.8872077" height="2.11899314"></rect>
                            <rect id="Rectangle-8-Copy-5" x="10.5914718" y="47.6773455" width="15.8872077" height="2.11899314"></rect>
                            <rect id="Rectangle-8-Copy-19" x="0" y="52.9748284" width="26.4786795" height="2.11899314"></rect>
                            <rect id="Rectangle-8-Copy-18" x="10.5914718" y="58.2723112" width="15.8872077" height="2.11899314"></rect>
                            <rect id="Rectangle-8-Copy-17" x="10.5914718" y="63.5697941" width="15.8872077" height="2.11899314"></rect>
                            <rect id="Rectangle-8-Copy-16" x="10.5914718" y="68.8672769" width="15.8872077" height="2.11899314"></rect>
                            <rect id="Rectangle-8-Copy-15" x="10.5914718" y="74.1647597" width="15.8872077" height="2.11899314"></rect>
                            <rect id="Rectangle-8-Copy-14" x="0" y="79.4622426" width="26.4786795" height="2.11899314"></rect>
                            <rect id="Rectangle-8-Copy-13" x="10.5914718" y="84.7597254" width="15.8872077" height="2.11899314"></rect>
                            <rect id="Rectangle-8-Copy-12" x="10.5914718" y="90.0572082" width="15.8872077" height="2.11899314"></rect>
                            <rect id="Rectangle-8-Copy-11" x="10.5914718" y="95.3546911" width="15.8872077" height="2.11899314"></rect>
                            <rect id="Rectangle-8-Copy-10" x="10.5914718" y="100.652174" width="15.8872077" height="2.11899314"></rect>
                            <rect id="Rectangle-8-Copy-39" x="0" y="105.949657" width="26.4786795" height="2.11899314"></rect>
                            <rect id="Rectangle-8-Copy-38" x="10.5914718" y="111.24714" width="15.8872077" height="2.11899314"></rect>
                            <rect id="Rectangle-8-Copy-37" x="10.5914718" y="116.544622" width="15.8872077" height="2.11899314"></rect>
                            <rect id="Rectangle-8-Copy-36" x="10.5914718" y="121.842105" width="15.8872077" height="2.11899314"></rect>
                            <rect id="Rectangle-8-Copy-35" x="10.5914718" y="127.139588" width="15.8872077" height="2.11899314"></rect>
                            <rect id="Rectangle-8-Copy-34" x="0" y="132.437071" width="26.4786795" height="2.11899314"></rect>
                            <rect id="Rectangle-8-Copy-33" x="10.5914718" y="137.734554" width="15.8872077" height="2.11899314"></rect>
                            <rect id="Rectangle-8-Copy-32" x="10.5914718" y="143.032037" width="15.8872077" height="2.11899314"></rect>
                            <rect id="Rectangle-8-Copy-31" x="10.5914718" y="148.329519" width="15.8872077" height="2.11899314"></rect>
                            <rect id="Rectangle-8-Copy-30" x="10.5914718" y="153.627002" width="15.8872077" height="2.11899314"></rect>
                            <rect id="Rectangle-8-Copy-29" x="0" y="158.924485" width="26.4786795" height="2.11899314"></rect>
                            <rect id="Rectangle-8-Copy-28" x="10.5914718" y="164.221968" width="15.8872077" height="2.11899314"></rect>
                            <rect id="Rectangle-8-Copy-27" x="10.5914718" y="169.519451" width="15.8872077" height="2.11899314"></rect>
                            <rect id="Rectangle-8-Copy-26" x="10.5914718" y="174.816934" width="15.8872077" height="2.11899314"></rect>
                            <rect id="Rectangle-8-Copy-25" x="10.5914718" y="180.114416" width="15.8872077" height="2.11899314"></rect>
                            <rect id="Rectangle-8-Copy-24" x="0" y="185.411899" width="26.4786795" height="2.11899314"></rect>
                            <rect id="Rectangle-8-Copy-23" x="10.5914718" y="190.709382" width="15.8872077" height="2.11899314"></rect>
                            <rect id="Rectangle-8-Copy-22" x="10.5914718" y="196.006865" width="15.8872077" height="2.11899314"></rect>
                            <rect id="Rectangle-8-Copy-21" x="10.5914718" y="201.304348" width="15.8872077" height="2.11899314"></rect>
                            <rect id="Rectangle-8-Copy-20" x="10.5914718" y="206.601831" width="15.8872077" height="2.11899314"></rect>
                            <rect id="Rectangle-8-Copy-49" x="0" y="211.899314" width="26.4786795" height="2.11899314"></rect>
                            <rect id="Rectangle-8-Copy-48" x="10.5914718" y="217.196796" width="15.8872077" height="2.11899314"></rect>
                            <rect id="Rectangle-8-Copy-47" x="10.5914718" y="222.494279" width="15.8872077" height="2.11899314"></rect>
                            <rect id="Rectangle-8-Copy-46" x="10.5914718" y="227.791762" width="15.8872077" height="2.11899314"></rect>
                            <rect id="Rectangle-8-Copy-45" x="10.5914718" y="233.089245" width="15.8872077" height="2.11899314"></rect>
                            <rect id="Rectangle-8-Copy-44" x="0" y="238.386728" width="26.4786795" height="2.11899314"></rect>
                            <rect id="Rectangle-8-Copy-50" x="0" y="264.386728" width="26.4786795" height="2.11899314"></rect>
                            <rect id="Rectangle-8-Copy-43" x="10.5914718" y="243.684211" width="15.8872077" height="2.11899314"></rect>
                            <rect id="Rectangle-8-Copy-42" x="10.5914718" y="248.981693" width="15.8872077" height="2.11899314"></rect>
                            <rect id="Rectangle-8-Copy-41" x="10.5914718" y="254.279176" width="15.8872077" height="2.11899314"></rect>
                            <rect id="Rectangle-8-Copy-40" x="10.5914718" y="259.576659" width="15.8872077" height="2.11899314"></rect>
                        </g>
                    </g>
                </g>
            </g>
        </g>
    </g>
</svg>